<svg width="955" height="605" viewBox="0 0 955 605" fill="none" xmlns="http://www.w3.org/2000/svg">
<g filter="url(#filter0_d_7_405415)">
<rect x="15" y="140" width="560" height="336.709" rx="35.443" fill="url(#paint0_linear_7_405415)"/>
<rect x="466.899" y="391.646" width="80.3376" height="56.7089" rx="7.08861" fill="white" fill-opacity="0.1"/>
<path fill-rule="evenodd" clip-rule="evenodd" d="M517.883 435.193C526.732 435.193 533.905 428.105 533.905 419.362C533.905 410.619 526.732 403.531 517.883 403.531C513.918 403.531 510.289 404.954 507.491 407.313C504.693 404.954 501.064 403.531 497.098 403.531C488.249 403.531 481.076 410.619 481.076 419.362C481.076 428.105 488.249 435.193 497.098 435.193C501.064 435.193 504.693 433.769 507.491 431.411C510.289 433.769 513.918 435.193 517.883 435.193Z" fill="#ED0006"/>
<path fill-rule="evenodd" clip-rule="evenodd" d="M507.49 431.411C510.935 428.508 513.12 424.187 513.12 419.362C513.12 414.537 510.935 410.216 507.49 407.312C510.288 404.954 513.917 403.531 517.883 403.531C526.731 403.531 533.904 410.619 533.904 419.362C533.904 428.105 526.731 435.193 517.883 435.193C513.917 435.193 510.288 433.77 507.49 431.411Z" fill="#F9A000"/>
<path fill-rule="evenodd" clip-rule="evenodd" d="M507.49 431.411C510.935 428.507 513.12 424.187 513.12 419.362C513.12 414.537 510.935 410.216 507.49 407.313C504.046 410.216 501.861 414.537 501.861 419.362C501.861 424.187 504.046 428.507 507.49 431.411Z" fill="#FF5E00"/>
<path d="M48.8978 439.367V422.213L45.0558 424.552V421.249L48.8978 418.952H51.9175V439.367H48.8978ZM60.9874 439.353L61.0016 436.716L69.8907 428.748C70.609 428.115 71.0958 427.51 71.3509 426.934C71.6156 426.357 71.7479 425.781 71.7479 425.204C71.7479 424.476 71.5872 423.824 71.2659 423.248C70.9445 422.662 70.5003 422.198 69.9332 421.858C69.3661 421.518 68.714 421.348 67.9768 421.348C67.2207 421.348 66.5449 421.527 65.9494 421.887C65.3634 422.236 64.905 422.704 64.5742 423.29C64.2434 423.876 64.0828 424.509 64.0922 425.19H61.0583C61.0583 423.867 61.356 422.709 61.9515 421.716C62.5563 420.715 63.3834 419.935 64.4325 419.377C65.4816 418.81 66.6819 418.527 68.0335 418.527C69.3189 418.527 70.472 418.82 71.4927 419.406C72.5135 419.982 73.3169 420.776 73.9028 421.787C74.4983 422.799 74.796 423.952 74.796 425.247C74.796 426.182 74.6731 426.976 74.4274 427.628C74.1817 428.28 73.8131 428.885 73.3216 429.443C72.8301 430.001 72.2158 430.606 71.4785 431.258L64.6168 437.382L64.2907 436.532H74.796V439.353H60.9874ZM88.1627 439.75C87.1514 439.75 86.2015 439.561 85.3131 439.183C84.4246 438.795 83.6543 438.247 83.0022 437.538C82.3595 436.829 81.8916 435.993 81.5986 435.029L84.4624 434.235C84.7365 435.114 85.2138 435.79 85.8943 436.262C86.5748 436.725 87.331 436.952 88.1627 436.943C88.9094 436.933 89.5662 436.758 90.1333 436.418C90.7004 436.078 91.1446 435.62 91.466 435.043C91.7873 434.457 91.948 433.786 91.948 433.03C91.948 431.896 91.5936 430.96 90.8847 430.223C90.1853 429.486 89.2685 429.117 88.1343 429.117C87.813 429.117 87.4822 429.164 87.1419 429.259C86.8111 429.353 86.4992 429.476 86.2062 429.627L84.8169 427.288L92.0189 420.923L92.3308 421.773H82.4067V418.952H94.6842V421.773L88.7014 427.529L88.6731 426.565C89.9585 426.565 91.0737 426.853 92.0189 427.43C92.964 427.997 93.6918 428.772 94.2022 429.755C94.722 430.728 94.9819 431.82 94.9819 433.03C94.9819 434.334 94.6748 435.492 94.0604 436.503C93.4555 437.515 92.638 438.308 91.6078 438.885C90.587 439.462 89.4386 439.75 88.1627 439.75ZM111.577 439.367V435.809H102.362V433.001L108.997 418.952H112.385L105.75 433.001H111.577V427.472H114.582V433.001H116.61V435.809H114.582V439.367H111.577ZM137.755 439.367V422.213L133.913 424.552V421.249L137.755 418.952H140.774V439.367H137.755ZM149.844 439.353L149.858 436.716L158.748 428.748C159.466 428.115 159.953 427.51 160.208 426.934C160.472 426.357 160.605 425.781 160.605 425.204C160.605 424.476 160.444 423.824 160.123 423.248C159.801 422.662 159.357 422.198 158.79 421.858C158.223 421.518 157.571 421.348 156.834 421.348C156.077 421.348 155.402 421.527 154.806 421.887C154.22 422.236 153.762 422.704 153.431 423.29C153.1 423.876 152.94 424.509 152.949 425.19H149.915C149.915 423.867 150.213 422.709 150.808 421.716C151.413 420.715 152.24 419.935 153.289 419.377C154.338 418.81 155.539 418.527 156.89 418.527C158.176 418.527 159.329 418.82 160.35 419.406C161.37 419.982 162.174 420.776 162.76 421.787C163.355 422.799 163.653 423.952 163.653 425.247C163.653 426.182 163.53 426.976 163.284 427.628C163.038 428.28 162.67 428.885 162.178 429.443C161.687 430.001 161.073 430.606 160.335 431.258L153.474 437.382L153.148 436.532H163.653V439.353H149.844ZM177.019 439.75C176.008 439.75 175.058 439.561 174.17 439.183C173.281 438.795 172.511 438.247 171.859 437.538C171.216 436.829 170.748 435.993 170.455 435.029L173.319 434.235C173.593 435.114 174.071 435.79 174.751 436.262C175.432 436.725 176.188 436.952 177.019 436.943C177.766 436.933 178.423 436.758 178.99 436.418C179.557 436.078 180.001 435.62 180.323 435.043C180.644 434.457 180.805 433.786 180.805 433.03C180.805 431.896 180.45 430.96 179.742 430.223C179.042 429.486 178.125 429.117 176.991 429.117C176.67 429.117 176.339 429.164 175.999 429.259C175.668 429.353 175.356 429.476 175.063 429.627L173.674 427.288L180.876 420.923L181.188 421.773H171.264V418.952H183.541V421.773L177.558 427.529L177.53 426.565C178.815 426.565 179.931 426.853 180.876 427.43C181.821 427.997 182.549 428.772 183.059 429.755C183.579 430.728 183.839 431.82 183.839 433.03C183.839 434.334 183.532 435.492 182.917 436.503C182.312 437.515 181.495 438.308 180.465 438.885C179.444 439.462 178.295 439.75 177.019 439.75ZM200.434 439.367V435.809H191.218V433.001L197.853 418.952H201.242L194.607 433.001H200.434V427.472H203.439V433.001H205.467V435.809H203.439V439.367H200.434ZM226.611 439.367V422.213L222.769 424.552V421.249L226.611 418.952H229.631V439.367H226.611ZM238.701 439.353L238.715 436.716L247.604 428.748C248.323 428.115 248.809 427.51 249.065 426.934C249.329 426.357 249.462 425.781 249.462 425.204C249.462 424.476 249.301 423.824 248.979 423.248C248.658 422.662 248.214 422.198 247.647 421.858C247.08 421.518 246.428 421.348 245.69 421.348C244.934 421.348 244.258 421.527 243.663 421.887C243.077 422.236 242.619 422.704 242.288 423.29C241.957 423.876 241.796 424.509 241.806 425.19H238.772C238.772 423.867 239.07 422.709 239.665 421.716C240.27 420.715 241.097 419.935 242.146 419.377C243.195 418.81 244.396 418.527 245.747 418.527C247.032 418.527 248.186 418.82 249.206 419.406C250.227 419.982 251.03 420.776 251.616 421.787C252.212 422.799 252.51 423.952 252.51 425.247C252.51 426.182 252.387 426.976 252.141 427.628C251.895 428.28 251.527 428.885 251.035 429.443C250.544 430.001 249.929 430.606 249.192 431.258L242.33 437.382L242.004 436.532H252.51V439.353H238.701ZM265.876 439.75C264.865 439.75 263.915 439.561 263.027 439.183C262.138 438.795 261.368 438.247 260.716 437.538C260.073 436.829 259.605 435.993 259.312 435.029L262.176 434.235C262.45 435.114 262.927 435.79 263.608 436.262C264.288 436.725 265.045 436.952 265.876 436.943C266.623 436.933 267.28 436.758 267.847 436.418C268.414 436.078 268.858 435.62 269.18 435.043C269.501 434.457 269.662 433.786 269.662 433.03C269.662 431.896 269.307 430.96 268.598 430.223C267.899 429.486 266.982 429.117 265.848 429.117C265.527 429.117 265.196 429.164 264.856 429.259C264.525 429.353 264.213 429.476 263.92 429.627L262.53 427.288L269.733 420.923L270.044 421.773H260.12V418.952H272.398V421.773L266.415 427.529L266.387 426.565C267.672 426.565 268.787 426.853 269.733 427.43C270.678 427.997 271.405 428.772 271.916 429.755C272.436 430.728 272.696 431.82 272.696 433.03C272.696 434.334 272.388 435.492 271.774 436.503C271.169 437.515 270.352 438.308 269.321 438.885C268.301 439.462 267.152 439.75 265.876 439.75ZM289.29 439.367V435.809H280.075V433.001L286.71 418.952H290.099L283.464 433.001H289.29V427.472H292.296V433.001H294.323V435.809H292.296V439.367H289.29ZM315.468 439.367V422.213L311.626 424.552V421.249L315.468 418.952H318.488V439.367H315.468ZM327.558 439.353L327.572 436.716L336.461 428.748C337.179 428.115 337.666 427.51 337.921 426.934C338.186 426.357 338.318 425.781 338.318 425.204C338.318 424.476 338.158 423.824 337.836 423.248C337.515 422.662 337.071 422.198 336.504 421.858C335.937 421.518 335.284 421.348 334.547 421.348C333.791 421.348 333.115 421.527 332.52 421.887C331.934 422.236 331.475 422.704 331.145 423.29C330.814 423.876 330.653 424.509 330.663 425.19H327.629C327.629 423.867 327.926 422.709 328.522 421.716C329.127 420.715 329.954 419.935 331.003 419.377C332.052 418.81 333.252 418.527 334.604 418.527C335.889 418.527 337.042 418.82 338.063 419.406C339.084 419.982 339.887 420.776 340.473 421.787C341.069 422.799 341.366 423.952 341.366 425.247C341.366 426.182 341.244 426.976 340.998 427.628C340.752 428.28 340.383 428.885 339.892 429.443C339.401 430.001 338.786 430.606 338.049 431.258L331.187 437.382L330.861 436.532H341.366V439.353H327.558ZM354.733 439.75C353.722 439.75 352.772 439.561 351.883 439.183C350.995 438.795 350.225 438.247 349.573 437.538C348.93 436.829 348.462 435.993 348.169 435.029L351.033 434.235C351.307 435.114 351.784 435.79 352.465 436.262C353.145 436.725 353.901 436.952 354.733 436.943C355.48 436.933 356.137 436.758 356.704 436.418C357.271 436.078 357.715 435.62 358.036 435.043C358.358 434.457 358.518 433.786 358.518 433.03C358.518 431.896 358.164 430.96 357.455 430.223C356.756 429.486 355.839 429.117 354.705 429.117C354.383 429.117 354.053 429.164 353.712 429.259C353.382 429.353 353.07 429.476 352.777 429.627L351.387 427.288L358.589 420.923L358.901 421.773H348.977V418.952H361.255V421.773L355.272 427.529L355.243 426.565C356.529 426.565 357.644 426.853 358.589 427.43C359.534 427.997 360.262 428.772 360.773 429.755C361.292 430.728 361.552 431.82 361.552 433.03C361.552 434.334 361.245 435.492 360.631 436.503C360.026 437.515 359.208 438.308 358.178 438.885C357.157 439.462 356.009 439.75 354.733 439.75ZM378.147 439.367V435.809H368.932V433.001L375.567 418.952H378.955L372.32 433.001H378.147V427.472H381.153V433.001H383.18V435.809H381.153V439.367H378.147Z" fill="white"/>
<path d="M44.8431 389.835V374.524H51.0315C51.1803 374.524 51.3646 374.531 51.5844 374.545C51.8041 374.552 52.0132 374.574 52.2117 374.609C53.0623 374.744 53.7712 375.034 54.3383 375.481C54.9125 375.928 55.3413 376.491 55.6249 377.172C55.9084 377.852 56.0502 378.604 56.0502 379.426C56.0502 380.255 55.9084 381.01 55.6249 381.691C55.3413 382.371 54.9125 382.935 54.3383 383.381C53.7712 383.828 53.0623 384.118 52.2117 384.253C52.0132 384.282 51.8006 384.303 51.5737 384.317C51.354 384.331 51.1732 384.338 51.0315 384.338H47.0654V389.835H44.8431ZM47.0654 382.233H50.9464C51.0882 382.233 51.2441 382.226 51.4142 382.212C51.5915 382.197 51.758 382.173 51.914 382.137C52.3677 382.031 52.7327 381.836 53.0092 381.552C53.2856 381.262 53.4841 380.929 53.6046 380.553C53.7251 380.177 53.7854 379.802 53.7854 379.426C53.7854 379.05 53.7251 378.678 53.6046 378.309C53.4841 377.934 53.2856 377.604 53.0092 377.321C52.7327 377.03 52.3677 376.831 51.914 376.725C51.758 376.683 51.5915 376.654 51.4142 376.64C51.2441 376.626 51.0882 376.619 50.9464 376.619H47.0654V382.233ZM59.2391 389.835V374.524H61.4613V381.127H69.117V374.524H71.35V389.835H69.117V383.222H61.4613V389.835H59.2391ZM81.7906 390.154C80.2595 390.154 78.9552 389.821 77.8777 389.155C76.8003 388.482 75.9744 387.546 75.4003 386.348C74.8332 385.15 74.5496 383.761 74.5496 382.18C74.5496 380.599 74.8332 379.21 75.4003 378.012C75.9744 376.814 76.8003 375.882 77.8777 375.215C78.9552 374.542 80.2595 374.205 81.7906 374.205C83.3147 374.205 84.6155 374.542 85.6929 375.215C86.7775 375.882 87.6033 376.814 88.1704 378.012C88.7375 379.21 89.021 380.599 89.021 382.18C89.021 383.761 88.7375 385.15 88.1704 386.348C87.6033 387.546 86.7775 388.482 85.6929 389.155C84.6155 389.821 83.3147 390.154 81.7906 390.154ZM81.7906 388.038C82.8752 388.053 83.7755 387.815 84.4914 387.326C85.2144 386.83 85.7567 386.142 86.1182 385.263C86.4798 384.377 86.6605 383.349 86.6605 382.18C86.6605 381.01 86.4798 379.989 86.1182 379.117C85.7567 378.238 85.2144 377.554 84.4914 377.065C83.7755 376.576 82.8752 376.328 81.7906 376.321C80.7061 376.307 79.8023 376.544 79.0792 377.033C78.3633 377.523 77.8246 378.21 77.463 379.096C77.1015 379.982 76.9172 381.01 76.9101 382.18C76.903 383.349 77.0803 384.374 77.4418 385.253C77.8033 386.125 78.3456 386.805 79.0686 387.294C79.7987 387.783 80.7061 388.031 81.7906 388.038ZM92.2052 389.835V374.524H101.988V376.619H94.4275V380.914H100.712V383.009H94.4275V387.741H101.988V389.835H92.2052ZM105.604 389.835V374.524H107.859L115.397 385.901V374.524H117.651V389.835H115.397L107.859 378.448V389.835H105.604ZM121.895 389.835V374.524H124.117V389.835H121.895ZM127.098 389.835L132.319 382.084L127.236 374.524H129.958L133.69 380.202L137.401 374.524H140.134L135.051 382.084L140.261 389.835H137.539L133.69 383.977L129.83 389.835H127.098ZM148.34 389.835V374.524H154.358C155.329 374.524 156.144 374.723 156.803 375.119C157.463 375.516 157.959 376.03 158.292 376.661C158.625 377.285 158.792 377.944 158.792 378.639C158.792 379.483 158.583 380.206 158.164 380.808C157.753 381.411 157.197 381.822 156.495 382.042L156.474 381.521C157.452 381.762 158.203 382.233 158.728 382.935C159.252 383.629 159.515 384.441 159.515 385.37C159.515 386.27 159.334 387.053 158.972 387.719C158.618 388.386 158.097 388.907 157.409 389.283C156.729 389.651 155.903 389.835 154.932 389.835H148.34ZM150.594 387.719H154.592C155.095 387.719 155.545 387.624 155.942 387.432C156.346 387.241 156.662 386.968 156.888 386.614C157.122 386.252 157.239 385.823 157.239 385.327C157.239 384.866 157.137 384.452 156.931 384.083C156.732 383.707 156.442 383.413 156.059 383.201C155.683 382.981 155.24 382.871 154.73 382.871H150.594V387.719ZM150.594 380.776H154.326C154.737 380.776 155.106 380.695 155.432 380.532C155.765 380.362 156.027 380.121 156.219 379.809C156.417 379.49 156.516 379.107 156.516 378.66C156.516 378.065 156.318 377.576 155.921 377.193C155.524 376.81 154.992 376.619 154.326 376.619H150.594V380.776ZM161.631 389.835L166.607 374.524H169.807L174.784 389.835H172.476L167.893 375.864H168.468L163.938 389.835H161.631ZM164.214 386.38V384.296H172.21V386.38H164.214ZM177.754 389.835V374.524H179.977V381.669L186.388 374.524H189.153L182.38 381.999L189.653 389.835H186.803L179.977 382.52V389.835H177.754ZM192.213 389.835V374.524H201.995V376.619H194.435V380.914H200.719V383.009H194.435V387.741H201.995V389.835H192.213ZM205.612 389.835V374.524H211.8C211.949 374.524 212.133 374.531 212.353 374.545C212.573 374.552 212.782 374.574 212.981 374.609C213.831 374.744 214.54 375.034 215.107 375.481C215.681 375.928 216.11 376.491 216.394 377.172C216.677 377.852 216.819 378.604 216.819 379.426C216.819 380.645 216.507 381.698 215.883 382.584C215.259 383.463 214.324 384.012 213.076 384.232L212.172 384.338H207.834V389.835H205.612ZM214.565 389.835L211.545 383.605L213.789 383.03L217.106 389.835H214.565ZM207.834 382.233H211.715C211.857 382.233 212.013 382.226 212.183 382.212C212.36 382.197 212.527 382.173 212.683 382.137C213.136 382.031 213.502 381.836 213.778 381.552C214.054 381.262 214.253 380.929 214.373 380.553C214.494 380.177 214.554 379.802 214.554 379.426C214.554 379.05 214.494 378.678 214.373 378.309C214.253 377.934 214.054 377.604 213.778 377.321C213.502 377.03 213.136 376.831 212.683 376.725C212.527 376.683 212.36 376.654 212.183 376.64C212.013 376.626 211.857 376.619 211.715 376.619H207.834V382.233Z" fill="white"/>
<path d="M65.476 181.822H69.2116V195.294C69.2116 196.771 68.8625 198.07 68.1644 199.191C67.473 200.312 66.4996 201.188 65.2444 201.819C63.9891 202.443 62.5224 202.755 60.8442 202.755C59.1593 202.755 57.6892 202.443 56.434 201.819C55.1787 201.188 54.2053 200.312 53.5139 199.191C52.8225 198.07 52.4768 196.771 52.4768 195.294V181.822H56.2124V194.982C56.2124 195.841 56.4004 196.606 56.7763 197.278C57.1589 197.949 57.6959 198.476 58.3873 198.858C59.0788 199.234 59.8977 199.422 60.8442 199.422C61.7907 199.422 62.6096 199.234 63.301 198.858C63.9992 198.476 64.5362 197.949 64.9121 197.278C65.288 196.606 65.476 195.841 65.476 194.982V181.822ZM76.7558 193.381V202.443H73.1108V186.977H76.5947V189.605H76.7759C77.1317 188.739 77.6989 188.051 78.4776 187.541C79.263 187.031 80.233 186.776 81.3876 186.776C82.4549 186.776 83.3846 187.004 84.1767 187.46C84.9755 187.917 85.5931 188.578 86.0294 189.444C86.4724 190.31 86.6906 191.36 86.6839 192.596V202.443H83.0389V193.159C83.0389 192.126 82.7704 191.317 82.2334 190.733C81.7031 190.149 80.968 189.857 80.0282 189.857C79.3905 189.857 78.8233 189.998 78.3266 190.28C77.8365 190.555 77.4506 190.954 77.1686 191.478C76.8934 192.001 76.7558 192.636 76.7558 193.381ZM98.1122 186.977V189.796H89.2213V186.977H98.1122ZM91.4163 183.272H95.0613V197.791C95.0613 198.281 95.1352 198.657 95.2828 198.919C95.4372 199.174 95.6386 199.349 95.887 199.442C96.1354 199.536 96.4106 199.583 96.7127 199.583C96.9409 199.583 97.149 199.567 97.3369 199.533C97.5316 199.5 97.6793 199.469 97.78 199.442L98.3942 202.292C98.1995 202.359 97.9209 202.433 97.5585 202.514C97.2027 202.594 96.7664 202.641 96.2495 202.655C95.3365 202.681 94.5142 202.544 93.7826 202.242C93.0509 201.933 92.4702 201.456 92.0406 200.812C91.6177 200.167 91.4096 199.362 91.4163 198.395V183.272ZM101.161 202.443V186.977H104.806V202.443H101.161ZM102.993 184.782C102.416 184.782 101.919 184.591 101.503 184.208C101.087 183.819 100.879 183.352 100.879 182.808C100.879 182.258 101.087 181.791 101.503 181.409C101.919 181.019 102.416 180.825 102.993 180.825C103.577 180.825 104.074 181.019 104.483 181.409C104.9 181.791 105.108 182.258 105.108 182.808C105.108 183.352 104.9 183.819 104.483 184.208C104.074 184.591 103.577 184.782 102.993 184.782ZM116.277 186.977V189.796H107.386V186.977H116.277ZM109.581 183.272H113.226V197.791C113.226 198.281 113.3 198.657 113.447 198.919C113.602 199.174 113.803 199.349 114.052 199.442C114.3 199.536 114.575 199.583 114.877 199.583C115.105 199.583 115.314 199.567 115.501 199.533C115.696 199.5 115.844 199.469 115.945 199.442L116.559 202.292C116.364 202.359 116.085 202.433 115.723 202.514C115.367 202.594 114.931 202.641 114.414 202.655C113.501 202.681 112.679 202.544 111.947 202.242C111.215 201.933 110.635 201.456 110.205 200.812C109.782 200.167 109.574 199.362 109.581 198.395V183.272ZM123.302 181.822V202.443H119.657V181.822H123.302ZM133.898 202.745C132.347 202.745 131.008 202.423 129.88 201.778C128.759 201.127 127.896 200.208 127.292 199.02C126.688 197.825 126.386 196.418 126.386 194.801C126.386 193.21 126.688 191.813 127.292 190.612C127.903 189.404 128.756 188.464 129.85 187.793C130.944 187.115 132.23 186.776 133.706 186.776C134.66 186.776 135.559 186.93 136.405 187.239C137.257 187.541 138.009 188.011 138.66 188.648C139.318 189.286 139.835 190.098 140.211 191.085C140.587 192.065 140.775 193.233 140.775 194.589V195.707H128.098V193.25H137.281C137.274 192.552 137.123 191.931 136.828 191.387C136.532 190.837 136.12 190.404 135.589 190.088C135.066 189.773 134.455 189.615 133.757 189.615C133.012 189.615 132.357 189.796 131.793 190.159C131.229 190.515 130.79 190.984 130.474 191.568C130.165 192.146 130.008 192.78 130.001 193.472V195.616C130.001 196.516 130.165 197.288 130.494 197.932C130.823 198.57 131.283 199.06 131.874 199.402C132.464 199.738 133.156 199.906 133.948 199.906C134.478 199.906 134.958 199.832 135.388 199.684C135.817 199.53 136.19 199.305 136.506 199.01C136.821 198.714 137.059 198.348 137.22 197.912L140.624 198.295C140.409 199.194 139.999 199.979 139.395 200.651C138.798 201.315 138.033 201.832 137.1 202.201C136.167 202.564 135.099 202.745 133.898 202.745ZM149.598 202.715C148.383 202.715 147.295 202.403 146.335 201.778C145.376 201.154 144.617 200.248 144.06 199.06C143.503 197.872 143.224 196.428 143.224 194.73C143.224 193.012 143.506 191.562 144.07 190.38C144.64 189.192 145.409 188.296 146.376 187.692C147.342 187.081 148.42 186.776 149.608 186.776C150.514 186.776 151.259 186.93 151.843 187.239C152.427 187.541 152.89 187.907 153.233 188.336C153.575 188.759 153.84 189.159 154.028 189.535H154.179V181.822H157.834V202.443H154.25V200.006H154.028C153.84 200.382 153.568 200.782 153.213 201.205C152.857 201.621 152.387 201.977 151.803 202.272C151.219 202.567 150.484 202.715 149.598 202.715ZM150.615 199.724C151.387 199.724 152.045 199.516 152.588 199.1C153.132 198.677 153.545 198.09 153.827 197.338C154.109 196.586 154.25 195.71 154.25 194.71C154.25 193.71 154.109 192.841 153.827 192.102C153.552 191.364 153.142 190.79 152.598 190.38C152.061 189.971 151.4 189.766 150.615 189.766C149.803 189.766 149.125 189.978 148.581 190.4C148.037 190.823 147.628 191.407 147.352 192.152C147.077 192.898 146.94 193.75 146.94 194.71C146.94 195.677 147.077 196.539 147.352 197.298C147.634 198.05 148.047 198.644 148.591 199.08C149.141 199.51 149.816 199.724 150.615 199.724ZM163.964 202.665C163.353 202.665 162.829 202.45 162.393 202.02C161.957 201.591 161.742 201.067 161.749 200.449C161.742 199.845 161.957 199.328 162.393 198.899C162.829 198.469 163.353 198.254 163.964 198.254C164.555 198.254 165.068 198.469 165.504 198.899C165.947 199.328 166.172 199.845 166.179 200.449C166.172 200.859 166.065 201.231 165.857 201.567C165.655 201.903 165.387 202.171 165.051 202.373C164.722 202.567 164.36 202.665 163.964 202.665Z" fill="white"/>
<path d="M326.763 390.154C325.721 390.154 324.8 389.928 323.999 389.474C323.198 389.013 322.567 388.382 322.106 387.581C321.652 386.78 321.425 385.859 321.425 384.817V379.543C321.425 378.501 321.652 377.579 322.106 376.778C322.567 375.977 323.198 375.35 323.999 374.896C324.8 374.435 325.721 374.205 326.763 374.205C327.805 374.205 328.727 374.435 329.528 374.896C330.329 375.35 330.956 375.977 331.41 376.778C331.871 377.579 332.101 378.501 332.101 379.543V384.817C332.101 385.859 331.871 386.78 331.41 387.581C330.956 388.382 330.329 389.013 329.528 389.474C328.727 389.928 327.805 390.154 326.763 390.154ZM326.763 388.028C327.33 388.028 327.844 387.893 328.305 387.624C328.773 387.347 329.145 386.979 329.421 386.518C329.698 386.05 329.836 385.529 329.836 384.955V379.383C329.836 378.816 329.698 378.302 329.421 377.842C329.145 377.374 328.773 377.005 328.305 376.736C327.844 376.459 327.33 376.321 326.763 376.321C326.196 376.321 325.679 376.459 325.211 376.736C324.75 377.005 324.381 377.374 324.105 377.842C323.828 378.302 323.69 378.816 323.69 379.383V384.955C323.69 385.529 323.828 386.05 324.105 386.518C324.381 386.979 324.75 387.347 325.211 387.624C325.679 387.893 326.196 388.028 326.763 388.028ZM341.396 390.154C340.404 390.154 339.511 389.921 338.717 389.453C337.923 388.978 337.292 388.329 336.824 387.507C336.363 386.685 336.133 385.749 336.133 384.7V379.819C336.133 378.706 336.363 377.728 336.824 376.885C337.292 376.041 337.937 375.385 338.759 374.917C339.589 374.45 340.542 374.216 341.62 374.216C342.428 374.216 343.186 374.368 343.895 374.673C344.604 374.978 345.217 375.431 345.734 376.034L344.108 377.554C343.817 377.179 343.452 376.881 343.012 376.661C342.58 376.434 342.116 376.321 341.62 376.321C340.982 376.321 340.422 376.473 339.94 376.778C339.457 377.076 339.078 377.469 338.802 377.958C338.532 378.448 338.398 378.972 338.398 379.532V382.339L337.962 381.85C338.401 381.276 338.947 380.822 339.599 380.489C340.251 380.156 340.95 379.989 341.694 379.989C342.644 379.989 343.491 380.213 344.235 380.659C344.987 381.099 345.575 381.698 346 382.456C346.433 383.215 346.649 384.069 346.649 385.019C346.649 385.976 346.408 386.844 345.926 387.624C345.451 388.396 344.813 389.013 344.012 389.474C343.218 389.928 342.346 390.154 341.396 390.154ZM341.396 388.017C341.949 388.017 342.452 387.883 342.906 387.613C343.36 387.344 343.721 386.982 343.991 386.529C344.26 386.075 344.395 385.572 344.395 385.019C344.395 384.466 344.26 383.963 343.991 383.509C343.728 383.055 343.37 382.694 342.917 382.424C342.463 382.155 341.96 382.02 341.407 382.02C340.854 382.02 340.347 382.155 339.886 382.424C339.433 382.694 339.071 383.055 338.802 383.509C338.532 383.963 338.398 384.466 338.398 385.019C338.398 385.565 338.532 386.064 338.802 386.518C339.071 386.972 339.433 387.337 339.886 387.613C340.34 387.883 340.843 388.017 341.396 388.017ZM354.275 374.524H356.518L352.435 389.835H350.192L354.275 374.524ZM359.931 389.825L359.941 387.847L366.608 381.871C367.147 381.396 367.512 380.943 367.703 380.51C367.902 380.078 368.001 379.646 368.001 379.213C368.001 378.667 367.881 378.178 367.64 377.746C367.399 377.306 367.065 376.959 366.64 376.704C366.215 376.449 365.726 376.321 365.173 376.321C364.606 376.321 364.099 376.456 363.652 376.725C363.213 376.987 362.869 377.338 362.621 377.778C362.373 378.217 362.252 378.692 362.259 379.203H359.984C359.984 378.21 360.207 377.342 360.654 376.597C361.107 375.846 361.728 375.261 362.515 374.843C363.301 374.418 364.202 374.205 365.215 374.205C366.179 374.205 367.044 374.425 367.81 374.864C368.575 375.297 369.178 375.892 369.617 376.651C370.064 377.409 370.287 378.274 370.287 379.245C370.287 379.947 370.195 380.542 370.011 381.031C369.826 381.521 369.55 381.974 369.181 382.392C368.813 382.811 368.352 383.264 367.799 383.753L362.653 388.347L362.408 387.709H370.287V389.825H359.931ZM379.971 389.835V387.167H373.06V385.061L378.036 374.524H380.577L375.601 385.061H379.971V380.914H382.225V385.061H383.746V387.167H382.225V389.835H379.971Z" fill="white"/>
<g clip-path="url(#clip0_7_405415)">
<path d="M530.95 177.721C534.283 183.494 536.037 190.043 536.037 196.709C536.037 203.375 534.283 209.923 530.95 215.696M522.595 181.899C525.195 186.402 526.564 191.509 526.564 196.709C526.564 201.908 525.195 207.016 522.595 211.519M514.621 185.734C516.5 189.025 517.49 192.757 517.49 196.557C517.49 200.357 516.5 204.089 514.621 207.38M506.646 189.873C508.001 191.924 508.719 194.292 508.719 196.709C508.719 199.126 508.001 201.494 506.646 203.544" stroke="white" stroke-width="4.55696" stroke-linecap="round"/>
</g>
<rect x="15.8861" y="140.886" width="558.228" height="334.937" rx="34.557" stroke="url(#paint1_linear_7_405415)" stroke-width="1.77215"/>
</g>
<g filter="url(#filter1_bd_7_405415)">
<g clip-path="url(#clip1_7_405415)">
<rect x="440.354" width="560" height="336.709" rx="35.443" transform="rotate(30 440.354 0)" fill="url(#paint2_linear_7_405415)"/>
<rect x="705.887" y="443.881" width="80.3376" height="56.7089" rx="7.08861" transform="rotate(30 705.887 443.881)" fill="white" fill-opacity="0.1"/>
<path opacity="0.5" fill-rule="evenodd" clip-rule="evenodd" d="M721.157 498.615C717.555 499.258 713.701 498.676 710.266 496.694C702.603 492.269 699.935 482.544 704.307 474.973C708.678 467.401 718.434 464.849 726.098 469.273C729.532 471.256 731.963 474.303 733.207 477.745C736.809 477.101 740.664 477.683 744.098 479.666C751.761 484.09 754.429 493.815 750.058 501.387C745.686 508.959 735.93 511.511 728.267 507.086C724.832 505.103 722.401 502.056 721.157 498.615Z" fill="white"/>
<path opacity="0.5" fill-rule="evenodd" clip-rule="evenodd" d="M721.157 498.615C725.593 497.823 729.645 495.173 732.057 490.994C734.47 486.816 734.739 481.982 733.207 477.745C736.809 477.101 740.664 477.683 744.098 479.666C751.761 484.09 754.429 493.815 750.058 501.387C745.686 508.959 735.93 511.511 728.267 507.086C724.832 505.103 722.401 502.056 721.157 498.615Z" fill="white"/>
<path fill-rule="evenodd" clip-rule="evenodd" d="M721.158 498.615C725.593 497.823 729.645 495.173 732.058 490.994C734.47 486.816 734.739 481.982 733.207 477.745C728.772 478.537 724.72 481.187 722.307 485.365C719.895 489.544 719.626 494.378 721.158 498.615Z" fill="white"/>
<path d="M320.027 276.208L328.604 261.352L324.107 261.457L325.759 258.596L330.235 258.528L332.85 260.038L322.642 277.718L320.027 276.208ZM330.504 282.241L331.835 279.964L343.517 277.509C344.456 277.32 345.18 277.039 345.689 276.667C346.206 276.3 346.609 275.867 346.898 275.368C347.261 274.738 347.448 274.093 347.458 273.433C347.473 272.764 347.32 272.141 346.999 271.563C346.678 270.985 346.198 270.511 345.56 270.143C344.905 269.765 344.23 269.582 343.535 269.596C342.852 269.606 342.221 269.781 341.642 270.124C341.062 270.466 340.607 270.934 340.275 271.528L337.647 270.011C338.309 268.865 339.145 268.011 340.157 267.449C341.182 266.884 342.288 266.622 343.476 266.664C344.668 266.697 345.849 267.052 347.019 267.728C348.133 268.371 348.985 269.201 349.576 270.219C350.171 271.228 350.47 272.318 350.472 273.486C350.482 274.66 350.163 275.807 349.516 276.929C349.048 277.739 348.545 278.365 348.006 278.807C347.467 279.249 346.845 279.589 346.141 279.826C345.436 280.063 344.602 280.28 343.637 280.476L334.633 282.349L334.776 281.449L343.873 286.702L342.463 289.145L330.504 282.241ZM353.84 296.172C352.964 295.667 352.236 295.028 351.656 294.256C351.08 293.477 350.687 292.617 350.477 291.677C350.275 290.742 350.288 289.783 350.516 288.802L353.393 289.546C353.191 290.444 353.267 291.268 353.62 292.018C353.977 292.759 354.519 293.334 355.244 293.741C355.895 294.106 356.551 294.284 357.213 294.272C357.874 294.261 358.488 294.086 359.054 293.748C359.626 293.401 360.1 292.9 360.478 292.245C361.045 291.263 361.206 290.276 360.961 289.283C360.724 288.295 360.114 287.517 359.132 286.95C358.854 286.789 358.544 286.665 358.202 286.576C357.868 286.493 357.536 286.443 357.207 286.428L357.174 283.707L366.593 281.795L366.438 282.688L357.844 277.726L359.254 275.283L369.887 281.422L368.476 283.865L360.417 285.858L360.875 285.009C361.988 285.652 362.81 286.459 363.34 287.431C363.875 288.395 364.118 289.43 364.068 290.536C364.031 291.639 363.711 292.715 363.106 293.762C362.454 294.892 361.609 295.741 360.571 296.31C359.542 296.883 358.437 297.162 357.256 297.146C356.084 297.135 354.945 296.81 353.84 296.172ZM374.309 307.548L376.088 304.466L368.107 299.859L369.511 297.428L382.282 288.578L385.216 290.272L372.445 299.122L377.492 302.035L380.256 297.247L382.859 298.75L380.095 303.538L381.85 304.552L380.447 306.983L378.691 305.969L376.912 309.051L374.309 307.548ZM396.979 320.637L405.557 305.781L401.06 305.885L402.711 303.025L407.187 302.957L409.802 304.467L399.595 322.147L396.979 320.637ZM407.456 326.669L408.787 324.393L420.469 321.937C421.408 321.748 422.132 321.467 422.641 321.096C423.159 320.729 423.561 320.296 423.85 319.796C424.214 319.166 424.401 318.521 424.411 317.861C424.425 317.193 424.272 316.57 423.951 315.991C423.63 315.413 423.15 314.94 422.512 314.571C421.857 314.193 421.182 314.011 420.487 314.024C419.805 314.034 419.174 314.21 418.594 314.552C418.015 314.894 417.559 315.362 417.227 315.956L414.599 314.439C415.261 313.293 416.098 312.439 417.11 311.878C418.134 311.313 419.24 311.051 420.428 311.092C421.62 311.126 422.801 311.48 423.972 312.156C425.085 312.799 425.937 313.629 426.528 314.647C427.124 315.657 427.423 316.746 427.424 317.915C427.434 319.088 427.116 320.236 426.468 321.357C426 322.168 425.497 322.794 424.958 323.236C424.419 323.677 423.798 324.017 423.093 324.254C422.389 324.491 421.554 324.708 420.59 324.904L411.585 326.777L411.728 325.878L420.826 331.13L419.415 333.574L407.456 326.669ZM430.792 340.601C429.917 340.095 429.189 339.456 428.608 338.685C428.033 337.905 427.639 337.045 427.429 336.105C427.227 335.17 427.24 334.212 427.468 333.23L430.345 333.975C430.143 334.873 430.219 335.697 430.572 336.446C430.93 337.188 431.471 337.762 432.196 338.17C432.847 338.535 433.504 338.712 434.165 338.701C434.826 338.69 435.44 338.515 436.007 338.176C436.578 337.829 437.053 337.329 437.431 336.674C437.998 335.691 438.159 334.704 437.913 333.711C437.676 332.723 437.067 331.945 436.084 331.378C435.806 331.218 435.496 331.093 435.154 331.005C434.82 330.921 434.489 330.872 434.159 330.856L434.126 328.136L443.546 326.224L443.39 327.117L434.796 322.154L436.207 319.711L446.839 325.85L445.429 328.293L437.369 330.287L437.827 329.438C438.94 330.08 439.762 330.888 440.292 331.859C440.827 332.823 441.07 333.858 441.02 334.965C440.984 336.068 440.663 337.143 440.058 338.191C439.406 339.32 438.561 340.169 437.523 340.738C436.494 341.311 435.389 341.59 434.208 341.574C433.036 341.563 431.897 341.239 430.792 340.601ZM451.261 351.976L453.04 348.895L445.06 344.287L446.463 341.856L459.234 333.006L462.169 334.7L449.398 343.55L454.444 346.464L457.208 341.675L459.811 343.178L457.047 347.966L458.802 348.98L457.399 351.411L455.643 350.397L453.864 353.479L451.261 351.976ZM473.932 365.065L482.509 350.209L478.012 350.314L479.664 347.453L484.139 347.385L486.754 348.895L476.547 366.575L473.932 365.065ZM484.409 371.098L485.739 368.821L497.421 366.366C498.36 366.176 499.084 365.896 499.593 365.524C500.111 365.157 500.514 364.724 500.802 364.225C501.166 363.594 501.353 362.949 501.363 362.289C501.377 361.621 501.224 360.998 500.903 360.42C500.582 359.842 500.103 359.368 499.464 359C498.809 358.622 498.134 358.439 497.439 358.452C496.757 358.462 496.126 358.638 495.546 358.98C494.967 359.322 494.511 359.791 494.179 360.385L491.552 358.868C492.213 357.722 493.05 356.868 494.062 356.306C495.087 355.741 496.193 355.479 497.38 355.521C498.572 355.554 499.753 355.909 500.924 356.585C502.037 357.227 502.889 358.058 503.48 359.075C504.076 360.085 504.375 361.174 504.377 362.343C504.387 363.517 504.068 364.664 503.42 365.786C502.953 366.596 502.449 367.222 501.91 367.664C501.371 368.106 500.75 368.445 500.045 368.683C499.341 368.92 498.506 369.136 497.542 369.333L488.537 371.206L488.68 370.306L497.778 375.559L496.367 378.002L484.409 371.098ZM507.745 385.029C506.869 384.524 506.141 383.885 505.56 383.113C504.985 382.333 504.592 381.474 504.381 380.534C504.179 379.598 504.192 378.64 504.421 377.659L507.298 378.403C507.096 379.301 507.171 380.125 507.524 380.875C507.882 381.616 508.423 382.19 509.148 382.598C509.8 382.963 510.456 383.14 511.117 383.129C511.778 383.118 512.392 382.943 512.959 382.605C513.53 382.258 514.005 381.757 514.383 381.102C514.95 380.12 515.111 379.132 514.866 378.139C514.628 377.151 514.019 376.374 513.037 375.807C512.758 375.646 512.448 375.521 512.106 375.433C511.773 375.35 511.441 375.3 511.112 375.285L511.078 372.564L520.498 370.652L520.343 371.545L511.748 366.583L513.159 364.14L523.791 370.278L522.381 372.722L514.322 374.715L514.779 373.866C515.892 374.509 516.714 375.316 517.244 376.288C517.779 377.252 518.022 378.287 517.973 379.393C517.936 380.496 517.615 381.571 517.01 382.619C516.358 383.749 515.513 384.598 514.476 385.166C513.446 385.74 512.341 386.019 511.161 386.003C509.988 385.992 508.85 385.667 507.745 385.029ZM528.213 396.405L529.993 393.323L522.012 388.715L523.416 386.284L536.186 377.435L539.121 379.129L526.35 387.979L531.396 390.892L534.161 386.104L536.764 387.606L533.999 392.395L535.755 393.408L534.351 395.839L532.595 394.826L530.816 397.908L528.213 396.405ZM550.884 409.494L559.461 394.637L554.964 394.742L556.616 391.882L561.092 391.814L563.707 393.323L553.499 411.003L550.884 409.494ZM561.361 415.526L562.692 413.25L574.374 410.794C575.312 410.605 576.036 410.324 576.546 409.953C577.063 409.586 577.466 409.152 577.754 408.653C578.118 408.023 578.305 407.378 578.315 406.718C578.33 406.05 578.177 405.426 577.856 404.848C577.535 404.27 577.055 403.797 576.416 403.428C575.762 403.05 575.087 402.868 574.391 402.881C573.709 402.891 573.078 403.067 572.499 403.409C571.919 403.751 571.463 404.219 571.131 404.813L568.504 403.296C569.165 402.15 570.002 401.296 571.014 400.735C572.039 400.169 573.145 399.908 574.332 399.949C575.524 399.983 576.706 400.337 577.876 401.013C578.989 401.656 579.841 402.486 580.432 403.504C581.028 404.514 581.327 405.603 581.329 406.772C581.339 407.945 581.02 409.093 580.373 410.214C579.905 411.024 579.402 411.65 578.863 412.092C578.324 412.534 577.702 412.874 576.998 413.111C576.293 413.348 575.459 413.565 574.494 413.761L565.489 415.634L565.632 414.735L574.73 419.987L573.32 422.43L561.361 415.526ZM584.697 429.458C583.821 428.952 583.093 428.313 582.513 427.542C581.937 426.762 581.544 425.902 581.334 424.962C581.131 424.027 581.145 423.068 581.373 422.087L584.25 422.831C584.048 423.73 584.123 424.554 584.476 425.303C584.834 426.044 585.375 426.619 586.101 427.027C586.752 427.392 587.408 427.569 588.069 427.558C588.731 427.546 589.345 427.372 589.911 427.033C590.482 426.686 590.957 426.185 591.335 425.531C591.902 424.548 592.063 423.561 591.818 422.568C591.581 421.58 590.971 420.802 589.989 420.235C589.711 420.074 589.4 419.95 589.059 419.862C588.725 419.778 588.393 419.729 588.064 419.713L588.03 416.992L597.45 415.081L597.295 415.973L588.701 411.011L590.111 408.568L600.744 414.707L599.333 417.15L591.274 419.143L591.731 418.294C592.845 418.937 593.666 419.744 594.197 420.716C594.732 421.68 594.974 422.715 594.925 423.821C594.888 424.924 594.567 426 593.963 427.047C593.31 428.177 592.466 429.026 591.428 429.595C590.398 430.168 589.293 430.447 588.113 430.431C586.941 430.42 585.802 430.096 584.697 429.458ZM605.166 440.833L606.945 437.751L598.964 433.144L600.368 430.713L613.139 421.863L616.073 423.557L603.302 432.407L608.348 435.32L611.113 430.532L613.716 432.035L610.951 436.823L612.707 437.837L611.303 440.268L609.548 439.254L607.768 442.336L605.166 440.833Z" fill="white"/>
<path d="M346.657 234.757C345.331 233.991 344.368 233.051 343.768 231.935C343.171 230.813 342.924 229.59 343.026 228.265C343.134 226.944 343.583 225.599 344.373 224.23C345.163 222.861 346.104 221.8 347.194 221.046C348.29 220.295 349.471 219.901 350.738 219.863C352.007 219.818 353.305 220.179 354.631 220.944C355.951 221.706 356.909 222.648 357.506 223.77C358.112 224.89 358.361 226.11 358.253 227.431C358.145 228.752 357.696 230.097 356.906 231.466C356.115 232.835 355.175 233.896 354.085 234.65C352.995 235.404 351.812 235.801 350.536 235.842C349.27 235.881 347.976 235.519 346.657 234.757ZM347.715 232.924C348.647 233.479 349.545 233.723 350.41 233.658C351.284 233.59 352.097 233.265 352.85 232.685C353.606 232.098 354.277 231.298 354.861 230.285C355.446 229.273 355.8 228.298 355.923 227.362C356.049 226.42 355.922 225.557 355.54 224.772C355.165 223.99 354.509 223.325 353.573 222.777C352.641 222.222 351.74 221.976 350.869 222.038C350.004 222.104 349.194 222.43 348.438 223.016C347.682 223.603 347.008 224.401 346.417 225.41C345.826 226.42 345.468 227.395 345.341 228.337C345.218 229.273 345.348 230.134 345.729 230.919C346.117 231.707 346.779 232.376 347.715 232.924ZM356.02 239.794L363.675 226.534L365.6 227.645L358.991 239.091L364.995 242.558L363.948 244.372L356.02 239.794ZM366.616 245.912L374.272 232.652L376.197 233.763L368.541 247.023L366.616 245.912ZM375.339 250.949L378.686 235.2L380.684 236.354L377.824 249.792L388.078 240.623L390.076 241.777L378.111 252.549L375.339 250.949ZM384.914 256.477L392.57 243.217L394.495 244.328L386.839 257.588L384.914 256.477ZM389.604 259.184L401.569 248.412L404.341 250.013L400.995 265.761L398.997 264.607L402.014 250.216L402.511 250.503L391.602 260.338L389.604 259.184ZM393.57 257.483L394.612 255.679L401.536 259.677L400.494 261.481L393.57 257.483ZM408.176 269.907L415.831 256.646L421.191 259.741C421.32 259.815 421.476 259.913 421.659 260.036C421.846 260.152 422.016 260.275 422.17 260.404C422.84 260.946 423.308 261.553 423.576 262.223C423.85 262.897 423.94 263.599 423.845 264.33C423.75 265.061 423.497 265.783 423.086 266.495C422.476 267.551 421.68 268.307 420.697 268.762C419.717 269.211 418.632 269.219 417.442 268.786L416.606 268.426L412.849 266.257L410.1 271.018L408.176 269.907ZM415.929 274.383L416.429 267.477L418.659 268.102L418.13 275.654L415.929 274.383ZM413.901 264.434L417.263 266.374C417.385 266.445 417.524 266.517 417.678 266.59C417.839 266.666 417.996 266.728 418.148 266.775C418.594 266.91 419.008 266.924 419.389 266.816C419.774 266.703 420.112 266.513 420.405 266.248C420.697 265.983 420.937 265.688 421.125 265.363C421.313 265.037 421.446 264.685 421.526 264.305C421.61 263.92 421.603 263.535 421.505 263.151C421.411 262.761 421.194 262.407 420.854 262.088C420.741 261.973 420.611 261.865 420.464 261.765C420.324 261.667 420.192 261.583 420.07 261.512L416.709 259.572L413.901 264.434ZM421.075 277.354L428.73 264.094L430.655 265.205L427.353 270.923L433.983 274.751L437.285 269.033L439.219 270.149L431.563 283.409L429.629 282.293L432.936 276.565L426.306 272.737L422.999 278.465L421.075 277.354ZM438.266 287.279L441.429 281.8L441.437 271.43L443.684 272.727L443.681 280.154L450.111 276.438L452.358 277.735L443.381 282.927L440.218 288.406L438.266 287.279ZM446.908 292.269L454.564 279.009L463.036 283.9L461.988 285.714L455.441 281.934L453.293 285.654L458.736 288.796L457.688 290.61L452.246 287.468L449.88 291.566L456.427 295.346L455.38 297.16L446.908 292.269Z" fill="white"/>
<path d="M585.273 372.522C584.37 372.001 583.686 371.344 583.219 370.55C582.755 369.751 582.525 368.889 582.526 367.965C582.534 367.044 582.798 366.133 583.319 365.23L585.956 360.663C586.477 359.76 587.134 359.076 587.928 358.609C588.727 358.146 589.587 357.918 590.508 357.925C591.432 357.927 592.345 358.188 593.247 358.709C594.15 359.23 594.833 359.89 595.296 360.69C595.763 361.483 595.992 362.34 595.985 363.261C595.983 364.185 595.722 365.098 595.201 366.001L592.564 370.568C592.043 371.47 591.383 372.153 590.583 372.617C589.79 373.083 588.931 373.316 588.007 373.315C587.087 373.307 586.175 373.043 585.273 372.522ZM586.336 370.68C586.827 370.964 587.34 371.104 587.873 371.101C588.417 371.096 588.923 370.962 589.393 370.702C589.866 370.435 590.247 370.053 590.534 369.555L593.32 364.73C593.603 364.239 593.74 363.725 593.731 363.188C593.726 362.644 593.588 362.139 593.317 361.672C593.056 361.202 592.681 360.825 592.189 360.542C591.698 360.258 591.181 360.119 590.638 360.125C590.104 360.127 589.6 360.262 589.127 360.529C588.657 360.79 588.281 361.166 587.997 361.657L585.211 366.482C584.924 366.98 584.783 367.5 584.789 368.043C584.798 368.581 584.933 369.084 585.194 369.554C585.464 370.021 585.845 370.397 586.336 370.68ZM597.945 379.838C597.086 379.342 596.429 378.693 595.976 377.891C595.526 377.082 595.304 376.205 595.31 375.259C595.322 374.317 595.59 373.391 596.115 372.483L598.555 368.256C599.111 367.292 599.8 366.56 600.621 366.06C601.448 365.564 602.334 365.318 603.28 365.324C604.232 365.334 605.175 365.608 606.108 366.147C606.808 366.551 607.389 367.062 607.85 367.68C608.312 368.299 608.616 368.998 608.763 369.779L606.593 370.282C606.53 369.811 606.362 369.371 606.092 368.961C605.831 368.548 605.485 368.218 605.055 367.97C604.503 367.651 603.942 367.503 603.372 367.526C602.806 367.543 602.28 367.694 601.796 367.979C601.319 368.268 600.94 368.655 600.66 369.14L599.256 371.571L599.123 370.929C599.791 370.652 600.49 370.532 601.222 370.569C601.953 370.607 602.641 370.812 603.286 371.184C604.108 371.659 604.73 372.276 605.152 373.035C605.583 373.791 605.793 374.604 605.782 375.473C605.777 376.346 605.537 377.194 605.062 378.017C604.584 378.846 603.941 379.477 603.133 379.911C602.336 380.343 601.475 380.558 600.551 380.557C599.636 380.553 598.768 380.313 597.945 379.838ZM599.014 377.987C599.493 378.264 599.996 378.399 600.524 378.392C601.051 378.386 601.545 378.254 602.005 377.995C602.465 377.737 602.833 377.369 603.11 376.89C603.386 376.411 603.521 375.908 603.515 375.38C603.515 374.856 603.385 374.364 603.127 373.904C602.869 373.444 602.5 373.076 602.022 372.799C601.543 372.523 601.036 372.386 600.503 372.389C599.975 372.395 599.481 372.528 599.021 372.786C598.561 373.044 598.193 373.413 597.916 373.891C597.643 374.364 597.51 374.864 597.517 375.392C597.523 375.919 597.654 376.416 597.908 376.883C598.167 377.343 598.535 377.711 599.014 377.987ZM616.914 372.741L618.857 373.863L607.665 385.081L605.722 383.96L616.914 372.741ZM614.161 388.82L615.16 387.113L623.921 385.271C624.625 385.129 625.168 384.919 625.55 384.64C625.938 384.365 626.24 384.04 626.456 383.665C626.729 383.193 626.87 382.709 626.877 382.214C626.888 381.713 626.773 381.245 626.532 380.812C626.292 380.378 625.932 380.023 625.453 379.746C624.962 379.463 624.456 379.326 623.934 379.336C623.423 379.343 622.949 379.475 622.515 379.732C622.08 379.989 621.738 380.34 621.489 380.785L619.519 379.647C620.015 378.788 620.642 378.148 621.401 377.726C622.17 377.302 622.999 377.106 623.89 377.137C624.784 377.162 625.67 377.428 626.548 377.935C627.383 378.417 628.022 379.04 628.465 379.803C628.912 380.561 629.136 381.378 629.137 382.254C629.145 383.134 628.906 383.995 628.42 384.836C628.069 385.444 627.692 385.913 627.288 386.245C626.884 386.576 626.417 386.831 625.889 387.009C625.361 387.187 624.735 387.349 624.011 387.496L617.258 388.901L617.365 388.226L624.188 392.166L623.13 393.998L614.161 388.82ZM631.512 398.85L632.846 396.538L626.861 393.083L627.913 391.259L637.492 384.622L639.692 385.893L630.114 392.53L633.899 394.715L635.972 391.124L637.924 392.251L635.851 395.842L637.168 396.602L636.115 398.426L634.798 397.665L633.464 399.977L631.512 398.85Z" fill="white"/>
<path d="M463.157 61.4567L466.392 63.3245L459.656 74.9919C458.917 76.2709 457.966 77.2212 456.801 77.843C455.641 78.4681 454.36 78.7401 452.958 78.6589C451.559 78.5719 450.132 78.1089 448.679 77.2698C447.22 76.4274 446.103 75.422 445.328 74.2537C444.556 73.0796 444.151 71.8343 444.113 70.5178C444.075 69.2012 444.425 67.9035 445.163 66.6246L451.899 54.9571L455.134 56.8249L448.554 68.222C448.125 68.9662 447.905 69.7229 447.895 70.4922C447.89 71.2648 448.092 71.9897 448.5 72.6667C448.91 73.338 449.526 73.9102 450.345 74.3835C451.165 74.8567 451.968 75.1034 452.755 75.1236C453.551 75.1413 454.279 74.9534 454.941 74.56C455.602 74.1667 456.147 73.5979 456.577 72.8538L463.157 61.4567ZM467.146 77.1072L462.615 84.9553L459.458 83.1328L467.191 69.7388L470.208 71.4807L468.894 73.7567L469.051 73.8473C469.792 73.2753 470.628 72.963 471.557 72.9105C472.492 72.8614 473.46 73.1255 474.46 73.7028C475.384 74.2364 476.075 74.8989 476.533 75.6903C476.996 76.485 477.201 77.3664 477.146 78.3345C477.096 79.3059 476.76 80.3248 476.137 81.3911L471.213 89.9193L468.056 88.0968L472.698 80.0569C473.215 79.1617 473.387 78.3269 473.214 77.5527C473.046 76.7817 472.556 76.1613 471.742 75.6914C471.19 75.3726 470.628 75.2111 470.057 75.2069C469.495 75.2002 468.961 75.3531 468.455 75.6656C467.955 75.9814 467.518 76.462 467.146 77.1072ZM488.843 82.2395L487.433 84.6811L479.734 80.2356L481.143 77.794L488.843 82.2395ZM484.897 75.6826L488.054 77.5051L480.794 90.0794C480.549 90.5038 480.425 90.8662 480.422 91.1668C480.428 91.4649 480.515 91.7167 480.683 91.9223C480.851 92.1279 481.066 92.3062 481.328 92.4572C481.525 92.5713 481.714 92.6608 481.894 92.7258C482.079 92.794 482.222 92.8417 482.323 92.8688L481.43 95.6437C481.228 95.6045 480.949 95.5291 480.595 95.4177C480.247 95.3095 479.845 95.1321 479.391 94.8852C478.587 94.452 477.944 93.9217 477.461 93.2943C476.982 92.661 476.717 91.9579 476.667 91.185C476.623 90.4155 476.846 89.6139 477.335 88.7801L484.897 75.6826ZM483.75 97.1577L491.483 83.7637L494.64 85.5862L486.907 98.9802L483.75 97.1577ZM494.168 82.779C493.668 82.4904 493.333 82.0763 493.164 81.5369C492.998 80.9916 493.051 80.4835 493.323 80.0127C493.598 79.536 494.012 79.236 494.564 79.1127C495.119 78.9836 495.646 79.0634 496.146 79.3521C496.652 79.6441 496.985 80.061 497.145 80.6029C497.314 81.1424 497.261 81.6505 496.986 82.1271C496.714 82.598 496.3 82.898 495.745 83.0271C495.199 83.1537 494.673 83.071 494.168 82.779ZM504.574 91.3218L503.164 93.7634L495.465 89.3179L496.874 86.8763L504.574 91.3218ZM500.628 84.7649L503.785 86.5874L496.525 99.1617C496.28 99.586 496.156 99.9485 496.153 100.249C496.159 100.547 496.246 100.799 496.414 101.005C496.582 101.21 496.797 101.388 497.059 101.539C497.256 101.654 497.445 101.743 497.625 101.808C497.81 101.876 497.953 101.924 498.054 101.951L497.161 104.726C496.959 104.687 496.68 104.611 496.326 104.5C495.978 104.392 495.576 104.214 495.122 103.968C494.318 103.534 493.675 103.004 493.192 102.377C492.713 101.743 492.448 101.04 492.398 100.267C492.354 99.4978 492.577 98.6961 493.066 97.8624L500.628 84.7649ZM513.236 90.37L502.925 108.229L499.769 106.406L510.079 88.5475L513.236 90.37ZM511.95 113.788C510.607 113.012 509.609 112.064 508.954 110.942C508.309 109.818 508.022 108.59 508.092 107.259C508.167 105.922 508.608 104.553 509.417 103.152C510.213 101.774 511.172 100.716 512.296 99.9775C513.429 99.2365 514.638 98.8489 515.921 98.8147C517.207 98.7746 518.49 99.1238 519.769 99.8622C520.595 100.339 521.296 100.922 521.875 101.613C522.462 102.3 522.878 103.083 523.123 103.961C523.374 104.842 523.415 105.804 523.248 106.847C523.083 107.883 522.662 108.989 521.984 110.163L521.425 111.131L510.446 104.793L511.675 102.665L519.628 107.256C519.971 106.648 520.15 106.035 520.167 105.417C520.186 104.792 520.045 104.211 519.743 103.673C519.448 103.137 518.998 102.695 518.393 102.346C517.748 101.974 517.09 101.804 516.421 101.836C515.755 101.862 515.139 102.049 514.574 102.397C514.017 102.742 513.564 103.213 513.212 103.808L512.14 105.666C511.69 106.445 511.447 107.195 511.409 107.918C511.375 108.635 511.528 109.289 511.869 109.881C512.213 110.467 512.727 110.958 513.413 111.354C513.873 111.619 514.325 111.795 514.771 111.882C515.22 111.963 515.655 111.955 516.076 111.857C516.497 111.759 516.887 111.561 517.244 111.264L520 113.297C519.365 113.968 518.617 114.444 517.758 114.723C516.909 115 515.988 115.065 514.995 114.918C514.006 114.765 512.991 114.389 511.95 113.788ZM525.562 121.612C524.51 121.004 523.724 120.19 523.205 119.17C522.686 118.149 522.482 116.985 522.593 115.677C522.705 114.37 523.185 112.981 524.034 111.51C524.894 110.022 525.863 108.907 526.942 108.166C528.03 107.422 529.144 107.03 530.283 106.99C531.426 106.945 532.511 107.219 533.54 107.813C534.325 108.266 534.893 108.772 535.245 109.332C535.599 109.885 535.817 110.434 535.899 110.977C535.984 111.514 536.014 111.993 535.989 112.412L536.12 112.488L539.976 105.808L543.142 107.636L532.831 125.495L529.726 123.702L530.945 121.592L530.753 121.481C530.402 121.713 529.967 121.923 529.448 122.111C528.931 122.294 528.347 122.367 527.693 122.331C527.04 122.294 526.329 122.055 525.562 121.612ZM527.938 119.53C528.606 119.916 529.28 120.065 529.959 119.976C530.641 119.882 531.293 119.58 531.913 119.07C532.533 118.56 533.093 117.871 533.593 117.005C534.093 116.139 534.406 115.316 534.531 114.535C534.662 113.758 534.594 113.056 534.328 112.43C534.067 111.807 533.597 111.299 532.917 110.906C532.214 110.5 531.521 110.344 530.838 110.439C530.156 110.533 529.509 110.834 528.899 111.342C528.288 111.849 527.742 112.519 527.262 113.35C526.779 114.187 526.467 115.003 526.326 115.798C526.194 116.59 526.255 117.311 526.507 117.96C526.769 118.608 527.246 119.131 527.938 119.53ZM538.028 128.751C537.499 128.446 537.153 127.998 536.99 127.408C536.827 126.817 536.903 126.257 537.218 125.725C537.514 125.199 537.958 124.858 538.551 124.704C539.144 124.551 539.705 124.626 540.234 124.932C540.745 125.227 541.082 125.67 541.245 126.26C541.414 126.854 541.351 127.414 541.054 127.94C540.844 128.292 540.565 128.561 540.217 128.747C539.874 128.937 539.508 129.035 539.116 129.042C538.734 129.046 538.371 128.949 538.028 128.751Z" fill="white"/>
<g clip-path="url(#clip2_7_405415)">
<path d="M868.319 290.642C868.319 297.308 866.564 303.857 863.231 309.63C859.898 315.403 855.104 320.197 849.331 323.53M858.995 290.083C858.995 295.282 857.626 300.39 855.027 304.893C852.427 309.396 848.688 313.135 844.185 315.735M850.171 289.417C850.154 293.207 849.144 296.934 847.245 300.225C845.345 303.515 842.621 306.253 839.348 308.163M841.195 289.014C841.343 291.467 840.781 293.878 839.573 295.971C838.364 298.064 836.558 299.756 834.36 300.854" stroke="white" stroke-width="4.55696" stroke-linecap="round"/>
</g>
</g>
<rect x="440.679" y="1.2104" width="558.228" height="334.937" rx="34.557" transform="rotate(30 440.679 1.2104)" stroke="url(#paint3_linear_7_405415)" stroke-width="1.77215"/>
</g>
<defs>
<filter id="filter0_d_7_405415" x="0.822784" y="129.367" width="616.709" height="393.418" filterUnits="userSpaceOnUse" color-interpolation-filters="sRGB">
<feFlood flood-opacity="0" result="BackgroundImageFix"/>
<feColorMatrix in="SourceAlpha" type="matrix" values="0 0 0 0 0 0 0 0 0 0 0 0 0 0 0 0 0 0 127 0" result="hardAlpha"/>
<feOffset dx="14.1772" dy="17.7215"/>
<feGaussianBlur stdDeviation="14.1772"/>
<feColorMatrix type="matrix" values="0 0 0 0 0 0 0 0 0 0 0 0 0 0 0 0 0 0 0.05 0"/>
<feBlend mode="normal" in2="BackgroundImageFix" result="effect1_dropShadow_7_405415"/>
<feBlend mode="normal" in="SourceGraphic" in2="effect1_dropShadow_7_405415" result="shape"/>
</filter>
<filter id="filter1_bd_7_405415" x="250.734" y="-21.2658" width="717.126" height="638.94" filterUnits="userSpaceOnUse" color-interpolation-filters="sRGB">
<feFlood flood-opacity="0" result="BackgroundImageFix"/>
<feGaussianBlur in="BackgroundImageFix" stdDeviation="10.6329"/>
<feComposite in2="SourceAlpha" operator="in" result="effect1_backgroundBlur_7_405415"/>
<feColorMatrix in="SourceAlpha" type="matrix" values="0 0 0 0 0 0 0 0 0 0 0 0 0 0 0 0 0 0 127 0" result="hardAlpha"/>
<feOffset dx="14.1772" dy="17.7215"/>
<feGaussianBlur stdDeviation="14.1772"/>
<feColorMatrix type="matrix" values="0 0 0 0 0 0 0 0 0 0 0 0 0 0 0 0 0 0 0.05 0"/>
<feBlend mode="normal" in2="effect1_backgroundBlur_7_405415" result="effect2_dropShadow_7_405415"/>
<feBlend mode="normal" in="SourceGraphic" in2="effect2_dropShadow_7_405415" result="shape"/>
</filter>
<linearGradient id="paint0_linear_7_405415" x1="14.9913" y1="476.707" x2="312.382" y2="-17.9027" gradientUnits="userSpaceOnUse">
<stop stop-color="#42307D"/>
<stop offset="1" stop-color="#7F56D9"/>
</linearGradient>
<linearGradient id="paint1_linear_7_405415" x1="15" y1="154.218" x2="562.209" y2="497.121" gradientUnits="userSpaceOnUse">
<stop stop-color="white"/>
<stop offset="1" stop-color="white" stop-opacity="0.2"/>
</linearGradient>
<linearGradient id="paint2_linear_7_405415" x1="468.332" y1="3.63371e-05" x2="1045.26" y2="405.51" gradientUnits="userSpaceOnUse">
<stop stop-color="white" stop-opacity="0.51"/>
<stop offset="1" stop-color="white" stop-opacity="0"/>
</linearGradient>
<linearGradient id="paint3_linear_7_405415" x1="440.354" y1="14.218" x2="987.563" y2="357.121" gradientUnits="userSpaceOnUse">
<stop stop-color="white"/>
<stop offset="1" stop-color="white" stop-opacity="0.2"/>
</linearGradient>
<clipPath id="clip0_7_405415">
<rect width="35.443" height="42.5316" fill="white" transform="translate(504.114 175.443)"/>
</clipPath>
<clipPath id="clip1_7_405415">
<rect x="440.354" width="560" height="336.709" rx="35.443" transform="rotate(30 440.354 0)" fill="white"/>
</clipPath>
<clipPath id="clip2_7_405415">
<rect width="35.443" height="42.5316" fill="white" transform="translate(846.218 275.252) rotate(30)"/>
</clipPath>
</defs>
</svg>
