<svg width="730" height="741" viewBox="0 0 730 741" fill="none" xmlns="http://www.w3.org/2000/svg">
<rect width="576" height="640" transform="translate(49 41)" fill="#E9D7FE"/>
<g filter="url(#filter0_d_15_363600)">
<g clip-path="url(#clip0_15_363600)">
<rect x="155.239" y="199.852" width="496.962" height="298.806" rx="20" transform="rotate(30 155.239 199.852)" fill="url(#paint0_linear_15_363600)"/>
<rect x="390.882" y="593.767" width="71.2941" height="50.3252" rx="6.29066" transform="rotate(30 390.882 593.767)" fill="white" fill-opacity="0.1"/>
<path fill-rule="evenodd" clip-rule="evenodd" d="M404.433 642.34C401.236 642.911 397.816 642.395 394.768 640.635C387.968 636.709 385.6 628.079 389.479 621.359C393.359 614.639 402.017 612.375 408.817 616.301C411.865 618.061 414.023 620.766 415.127 623.82C418.323 623.249 421.744 623.765 424.791 625.525C431.592 629.451 433.96 638.081 430.08 644.801C426.201 651.52 417.543 653.785 410.742 649.858C407.694 648.099 405.537 645.394 404.433 642.34Z" fill="#ED0006"/>
<path fill-rule="evenodd" clip-rule="evenodd" d="M404.433 642.339C408.369 641.636 411.966 639.285 414.107 635.576C416.247 631.869 416.486 627.579 415.127 623.819C418.324 623.249 421.744 623.765 424.792 625.524C431.592 629.451 433.96 638.081 430.081 644.801C426.201 651.52 417.543 653.785 410.743 649.858C407.694 648.098 405.537 645.393 404.433 642.339Z" fill="#F9A000"/>
<path fill-rule="evenodd" clip-rule="evenodd" d="M404.432 642.34C408.369 641.637 411.965 639.285 414.106 635.577C416.247 631.869 416.485 627.58 415.127 623.82C411.19 624.523 407.594 626.874 405.453 630.583C403.312 634.29 403.074 638.58 404.432 642.34Z" fill="#FF5E00"/>
<path d="M48.269 445.295L55.8807 432.112L51.89 432.205L53.3557 429.666L57.3276 429.606L59.6484 430.946L50.5898 446.635L48.269 445.295ZM57.5667 450.649L58.7476 448.629L69.1146 446.449C69.9476 446.281 70.5901 446.033 71.042 445.703C71.5013 445.377 71.8588 444.993 72.1146 444.55C72.4375 443.99 72.6034 443.418 72.6122 442.832C72.6253 442.239 72.4894 441.686 72.2045 441.173C71.9197 440.66 71.494 440.24 70.9274 439.913C70.3463 439.577 69.7472 439.415 69.1302 439.427C68.5247 439.436 67.9648 439.592 67.4506 439.896C66.9363 440.199 66.5319 440.615 66.2372 441.142L63.9055 439.796C64.4926 438.779 65.2352 438.021 66.1331 437.522C67.0426 437.021 68.0241 436.789 69.0778 436.825C70.1358 436.855 71.1841 437.17 72.2228 437.77C73.2107 438.34 73.9669 439.077 74.4913 439.98C75.02 440.876 75.2852 441.843 75.2868 442.88C75.2957 443.921 75.0128 444.94 74.4383 445.935C74.0231 446.654 73.5764 447.21 73.0982 447.602C72.62 447.994 72.0683 448.295 71.4431 448.506C70.818 448.716 70.0774 448.908 69.2215 449.083L61.2304 450.745L61.3572 449.946L69.4309 454.608L68.1791 456.776L57.5667 450.649ZM78.2758 463.012C77.4985 462.563 76.8524 461.997 76.3373 461.312C75.8265 460.62 75.4777 459.857 75.2911 459.023C75.1117 458.193 75.1232 457.342 75.3258 456.471L77.879 457.132C77.6997 457.929 77.7666 458.66 78.0799 459.325C78.3974 459.983 78.8779 460.493 79.5213 460.855C80.0994 461.179 80.6818 461.336 81.2686 461.326C81.8554 461.316 82.4002 461.161 82.903 460.86C83.41 460.553 83.8312 460.108 84.1667 459.527C84.67 458.655 84.8127 457.779 84.5951 456.898C84.3847 456.021 83.8436 455.331 82.972 454.828C82.725 454.685 82.4498 454.575 82.1464 454.496C81.8502 454.422 81.556 454.378 81.2637 454.364L81.2339 451.95L89.5934 450.254L89.4557 451.046L81.8286 446.642L83.0805 444.474L92.5162 449.922L91.2644 452.09L84.1123 453.859L84.5183 453.106C85.5062 453.676 86.2354 454.392 86.706 455.255C87.1807 456.11 87.3962 457.029 87.3523 458.01C87.3198 458.989 87.0352 459.944 86.4984 460.873C85.9196 461.876 85.1698 462.629 84.249 463.134C83.3353 463.643 82.3547 463.89 81.3072 463.876C80.2668 463.866 79.2564 463.578 78.2758 463.012ZM96.4403 473.107L98.0192 470.372L90.937 466.283L92.1825 464.126L103.516 456.272L106.12 457.776L94.7866 465.629L99.2648 468.215L101.718 463.966L104.028 465.299L101.575 469.549L103.133 470.448L101.887 472.605L100.329 471.706L98.7502 474.441L96.4403 473.107ZM116.559 484.723L124.171 471.539L120.18 471.632L121.646 469.093L125.617 469.033L127.938 470.373L118.88 486.063L116.559 484.723ZM125.857 490.076L127.037 488.056L137.404 485.877C138.237 485.709 138.88 485.46 139.332 485.13C139.791 484.804 140.149 484.42 140.404 483.977C140.727 483.417 140.893 482.845 140.902 482.259C140.915 481.666 140.779 481.113 140.494 480.6C140.21 480.087 139.784 479.667 139.217 479.34C138.636 479.004 138.037 478.842 137.42 478.854C136.815 478.863 136.255 479.019 135.74 479.323C135.226 479.626 134.822 480.042 134.527 480.569L132.195 479.223C132.782 478.206 133.525 477.448 134.423 476.95C135.332 476.448 136.314 476.216 137.368 476.253C138.426 476.282 139.474 476.597 140.513 477.197C141.501 477.767 142.257 478.504 142.781 479.407C143.31 480.303 143.575 481.27 143.577 482.307C143.586 483.349 143.303 484.367 142.728 485.362C142.313 486.081 141.866 486.637 141.388 487.029C140.91 487.421 140.358 487.722 139.733 487.933C139.108 488.143 138.367 488.336 137.511 488.51L129.52 490.172L129.647 489.374L137.721 494.035L136.469 496.203L125.857 490.076ZM146.566 502.439C145.788 501.991 145.142 501.424 144.627 500.739C144.116 500.047 143.768 499.284 143.581 498.45C143.402 497.62 143.413 496.769 143.616 495.898L146.169 496.559C145.99 497.356 146.057 498.087 146.37 498.752C146.687 499.41 147.168 499.92 147.811 500.282C148.389 500.606 148.972 500.763 149.558 500.753C150.145 500.743 150.69 500.588 151.193 500.288C151.7 499.98 152.121 499.535 152.457 498.954C152.96 498.083 153.103 497.206 152.885 496.325C152.675 495.448 152.134 494.758 151.262 494.255C151.015 494.112 150.74 494.002 150.436 493.924C150.14 493.849 149.846 493.805 149.554 493.792L149.524 491.377L157.883 489.681L157.746 490.473L150.119 486.069L151.37 483.901L160.806 489.349L159.554 491.517L152.402 493.286L152.808 492.533C153.796 493.103 154.525 493.819 154.996 494.682C155.471 495.537 155.686 496.456 155.642 497.438C155.61 498.416 155.325 499.371 154.788 500.301C154.21 501.303 153.46 502.056 152.539 502.561C151.625 503.07 150.645 503.317 149.597 503.303C148.557 503.293 147.546 503.005 146.566 502.439ZM164.73 512.534L166.309 509.799L159.227 505.711L160.472 503.553L171.806 495.7L174.41 497.203L163.076 505.057L167.555 507.642L170.008 503.393L172.318 504.726L169.865 508.976L171.423 509.875L170.177 512.033L168.619 511.133L167.04 513.868L164.73 512.534ZM184.849 524.15L192.46 510.966L188.47 511.059L189.935 508.52L193.907 508.46L196.228 509.8L187.17 525.49L184.849 524.15ZM194.146 529.503L195.327 527.483L205.694 525.304C206.527 525.136 207.17 524.887 207.622 524.557C208.081 524.231 208.439 523.847 208.694 523.404C209.017 522.845 209.183 522.272 209.192 521.686C209.205 521.093 209.069 520.54 208.784 520.027C208.499 519.514 208.074 519.094 207.507 518.767C206.926 518.431 206.327 518.27 205.71 518.281C205.104 518.29 204.545 518.446 204.03 518.75C203.516 519.054 203.112 519.469 202.817 519.996L200.485 518.65C201.072 517.633 201.815 516.875 202.713 516.377C203.622 515.875 204.604 515.643 205.658 515.68C206.716 515.709 207.764 516.024 208.803 516.624C209.79 517.194 210.547 517.931 211.071 518.834C211.6 519.73 211.865 520.697 211.867 521.734C211.875 522.776 211.593 523.794 211.018 524.789C210.603 525.508 210.156 526.064 209.678 526.456C209.2 526.848 208.648 527.15 208.023 527.36C207.398 527.571 206.657 527.763 205.801 527.937L197.81 529.599L197.937 528.801L206.011 533.462L204.759 535.63L194.146 529.503ZM214.856 541.866C214.078 541.418 213.432 540.851 212.917 540.166C212.406 539.474 212.057 538.711 211.871 537.877C211.691 537.047 211.703 536.197 211.906 535.326L214.459 535.986C214.279 536.783 214.346 537.514 214.66 538.18C214.977 538.837 215.458 539.347 216.101 539.709C216.679 540.033 217.262 540.19 217.848 540.18C218.435 540.17 218.98 540.015 219.483 539.715C219.99 539.407 220.411 538.963 220.746 538.381C221.25 537.51 221.392 536.633 221.175 535.752C220.964 534.875 220.423 534.185 219.552 533.682C219.305 533.539 219.03 533.429 218.726 533.351C218.43 533.277 218.136 533.233 217.843 533.219L217.814 530.805L226.173 529.108L226.035 529.9L218.408 525.497L219.66 523.328L229.096 528.776L227.844 530.944L220.692 532.713L221.098 531.96C222.086 532.53 222.815 533.247 223.286 534.109C223.76 534.964 223.976 535.883 223.932 536.865C223.9 537.844 223.615 538.798 223.078 539.728C222.499 540.73 221.75 541.484 220.829 541.988C219.915 542.497 218.934 542.744 217.887 542.73C216.847 542.721 215.836 542.433 214.856 541.866ZM233.02 551.961L234.599 549.227L227.517 545.138L228.762 542.98L240.096 535.127L242.7 536.63L231.366 544.484L235.845 547.069L238.298 542.82L240.608 544.154L238.154 548.403L239.713 549.302L238.467 551.46L236.909 550.56L235.33 553.295L233.02 551.961ZM253.139 563.577L260.75 550.393L256.76 550.486L258.225 547.947L262.197 547.887L264.518 549.227L255.459 564.917L253.139 563.577ZM262.436 568.93L263.617 566.91L273.984 564.731C274.817 564.563 275.46 564.314 275.912 563.984C276.371 563.659 276.728 563.274 276.984 562.831C277.307 562.272 277.473 561.699 277.482 561.114C277.495 560.521 277.359 559.968 277.074 559.455C276.789 558.941 276.364 558.521 275.797 558.194C275.216 557.859 274.617 557.697 274 557.709C273.394 557.717 272.834 557.874 272.32 558.177C271.806 558.481 271.401 558.896 271.107 559.423L268.775 558.077C269.362 557.06 270.105 556.302 271.003 555.804C271.912 555.302 272.894 555.07 273.947 555.107C275.005 555.137 276.054 555.451 277.092 556.051C278.08 556.621 278.836 557.358 279.361 558.262C279.89 559.158 280.155 560.124 280.156 561.161C280.165 562.203 279.882 563.221 279.308 564.216C278.893 564.935 278.446 565.491 277.968 565.883C277.49 566.275 276.938 566.577 276.313 566.787C275.688 566.998 274.947 567.19 274.091 567.364L266.1 569.026L266.227 568.228L274.301 572.889L273.049 575.058L262.436 568.93ZM283.145 581.294C282.368 580.845 281.722 580.278 281.207 579.593C280.696 578.901 280.347 578.138 280.161 577.304C279.981 576.474 279.993 575.624 280.195 574.753L282.749 575.413C282.569 576.21 282.636 576.942 282.95 577.607C283.267 578.265 283.748 578.774 284.391 579.136C284.969 579.46 285.551 579.617 286.138 579.608C286.725 579.598 287.27 579.442 287.773 579.142C288.28 578.834 288.701 578.39 289.036 577.809C289.54 576.937 289.682 576.061 289.465 575.18C289.254 574.303 288.713 573.613 287.842 573.109C287.595 572.967 287.319 572.856 287.016 572.778C286.72 572.704 286.426 572.66 286.133 572.646L286.103 570.232L294.463 568.535L294.325 569.327L286.698 564.924L287.95 562.756L297.386 568.203L296.134 570.372L288.982 572.141L289.388 571.387C290.376 571.957 291.105 572.674 291.576 573.536C292.05 574.392 292.266 575.31 292.222 576.292C292.189 577.271 291.905 578.225 291.368 579.155C290.789 580.157 290.039 580.911 289.119 581.415C288.205 581.924 287.224 582.172 286.177 582.158C285.136 582.148 284.126 581.86 283.145 581.294ZM301.31 591.389L302.889 588.654L295.807 584.565L297.052 582.408L308.385 574.554L310.989 576.057L299.656 583.911L304.134 586.496L306.588 582.247L308.898 583.581L306.444 587.83L308.002 588.73L306.757 590.887L305.199 589.987L303.62 592.722L301.31 591.389Z" fill="white"/>
<path d="M67.5239 404.746L74.3178 392.979L79.0738 395.725C79.1882 395.791 79.3267 395.878 79.4893 395.986C79.6551 396.089 79.8063 396.198 79.9432 396.314C80.5371 396.795 80.953 397.333 81.1906 397.927C81.4338 398.525 81.5133 399.149 81.4293 399.798C81.3452 400.446 81.1208 401.087 80.7559 401.719C80.3879 402.356 79.944 402.873 79.4241 403.271C78.9043 403.668 78.3246 403.911 77.6852 403.999C77.0512 404.091 76.3774 403.999 75.6639 403.726C75.4988 403.659 75.3259 403.581 75.1453 403.491C74.9701 403.405 74.8281 403.33 74.7191 403.267L71.671 401.507L69.2318 405.732L67.5239 404.746ZM72.6052 399.889L75.5879 401.611C75.6969 401.674 75.8199 401.738 75.9569 401.803C76.0994 401.87 76.2384 401.925 76.374 401.967C76.7699 402.087 77.1369 402.099 77.4752 402.004C77.8166 401.903 78.117 401.735 78.3763 401.5C78.6356 401.265 78.8486 401.003 79.0153 400.714C79.182 400.425 79.3009 400.112 79.3718 399.776C79.4459 399.433 79.4396 399.092 79.353 398.751C79.2694 398.405 79.077 398.091 78.7755 397.808C78.6745 397.706 78.559 397.61 78.4291 397.521C78.3047 397.434 78.188 397.36 78.079 397.297L75.0963 395.575L72.6052 399.889ZM78.5878 411.134L85.3817 399.366L87.0896 400.353L84.1597 405.427L90.0434 408.824L92.9733 403.75L94.6894 404.74L87.8955 416.508L86.1794 415.517L89.114 410.434L83.2303 407.037L80.2957 412.12L78.5878 411.134ZM95.778 421.386C94.6013 420.706 93.7467 419.871 93.2143 418.881C92.685 417.886 92.4655 416.8 92.5558 415.625C92.6515 414.452 93.0501 413.259 93.7515 412.044C94.4529 410.829 95.2873 409.887 96.2547 409.218C97.2275 408.552 98.2758 408.202 99.3996 408.168C100.526 408.128 101.678 408.448 102.855 409.128C104.026 409.804 104.877 410.64 105.406 411.636C105.944 412.629 106.165 413.712 106.069 414.884C105.973 416.056 105.575 417.25 104.873 418.465C104.172 419.68 103.338 420.622 102.37 421.291C101.403 421.96 100.353 422.313 99.2205 422.349C98.0968 422.383 96.9493 422.062 95.778 421.386ZM96.7169 419.759C97.5441 420.251 98.3414 420.468 99.1086 420.41C99.8845 420.35 100.606 420.062 101.274 419.547C101.945 419.026 102.54 418.316 103.059 417.418C103.578 416.519 103.892 415.654 104.001 414.823C104.113 413.987 104 413.221 103.661 412.524C103.328 411.831 102.746 411.241 101.916 410.754C101.089 410.262 100.289 410.043 99.5162 410.098C98.7489 410.157 98.0298 410.446 97.3588 410.967C96.6878 411.487 96.0901 412.195 95.5656 413.091C95.0412 413.987 94.7229 414.853 94.6107 415.689C94.5017 416.519 94.6165 417.283 94.9552 417.98C95.2993 418.679 95.8865 419.273 96.7169 419.759ZM103.924 425.761L110.717 413.994L118.236 418.335L117.306 419.945L111.496 416.59L109.59 419.891L114.419 422.68L113.49 424.29L108.66 421.501L106.561 425.138L112.371 428.492L111.442 430.102L103.924 425.761ZM114.221 431.707L121.015 419.94L122.748 420.94L123.493 433.029L128.541 424.285L130.274 425.285L123.48 437.052L121.748 436.052L121.007 423.955L115.954 432.707L114.221 431.707ZM126.741 438.935L133.535 427.168L135.243 428.154L128.449 439.921L126.741 438.935ZM130.74 441.244L138.192 437.603L137.64 429.538L139.732 430.746L140.081 436.765L145.452 434.048L147.552 435.261L140.292 438.816L140.857 447.085L138.765 445.877L138.406 439.666L132.84 442.456L130.74 441.244ZM147.065 450.669L153.859 438.902L158.484 441.572C159.23 442.003 159.769 442.517 160.099 443.115C160.43 443.713 160.583 444.328 160.559 444.96C160.539 445.588 160.374 446.168 160.066 446.702C159.692 447.35 159.21 447.813 158.621 448.091C158.038 448.371 157.428 448.44 156.791 448.298L157.006 447.888C157.651 448.507 158.019 449.203 158.111 449.975C158.206 450.742 158.047 451.482 157.635 452.196C157.236 452.888 156.749 453.409 156.176 453.761C155.608 454.116 154.976 454.285 154.281 454.269C153.594 454.25 152.878 454.025 152.131 453.594L147.065 450.669ZM149.736 450.043L152.809 451.817C153.196 452.04 153.584 452.167 153.974 452.196C154.369 452.228 154.733 452.158 155.065 451.986C155.405 451.812 155.685 451.535 155.905 451.153C156.11 450.799 156.215 450.435 156.22 450.06C156.234 449.684 156.142 449.329 155.942 448.995C155.75 448.66 155.459 448.379 155.066 448.152L151.888 446.317L149.736 450.043ZM152.817 444.707L155.685 446.363C156.001 446.545 156.321 446.646 156.644 446.666C156.975 446.683 157.284 446.614 157.569 446.459C157.863 446.302 158.109 446.052 158.308 445.709C158.572 445.251 158.636 444.787 158.501 444.317C158.366 443.847 158.042 443.464 157.53 443.168L154.662 441.512L152.817 444.707ZM157.28 456.567L167.898 447.007L170.358 448.427L167.388 462.403L165.615 461.379L168.292 448.608L168.734 448.863L159.053 457.59L157.28 456.567ZM160.799 455.057L161.724 453.456L167.869 457.004L166.944 458.605L160.799 455.057ZM169.671 463.721L176.465 451.954L178.173 452.94L175.003 458.431L183.101 455.785L185.226 457.011L176.703 459.751L178.816 469L176.626 467.736L174.625 459.085L171.379 464.707L169.671 463.721ZM180.783 470.136L187.577 458.369L195.095 462.71L194.166 464.319L188.356 460.965L186.449 464.266L191.279 467.055L190.35 468.665L185.52 465.876L183.421 469.513L189.231 472.867L188.301 474.477L180.783 470.136ZM191.081 476.082L197.875 464.314L202.631 467.06C202.745 467.126 202.884 467.214 203.046 467.322C203.212 467.425 203.363 467.534 203.5 467.649C204.094 468.13 204.51 468.668 204.748 469.263C204.991 469.861 205.07 470.484 204.986 471.133C204.902 471.782 204.678 472.422 204.313 473.054C203.772 473.991 203.065 474.662 202.193 475.066C201.323 475.465 200.36 475.472 199.304 475.087L198.562 474.768L195.228 472.843L192.789 477.068L191.081 476.082ZM197.962 480.054L198.406 473.926L200.385 474.48L199.915 481.182L197.962 480.054ZM196.162 471.225L199.145 472.947C199.254 473.01 199.377 473.074 199.514 473.138C199.656 473.206 199.795 473.261 199.931 473.303C200.327 473.422 200.694 473.435 201.032 473.339C201.374 473.239 201.674 473.071 201.933 472.835C202.193 472.6 202.406 472.338 202.572 472.049C202.739 471.761 202.858 471.448 202.929 471.111C203.003 470.769 202.997 470.428 202.91 470.087C202.826 469.741 202.634 469.426 202.332 469.143C202.231 469.042 202.116 468.946 201.986 468.856C201.862 468.77 201.745 468.695 201.636 468.632L198.653 466.91L196.162 471.225Z" fill="white"/>
<path d="M175.456 254.424L178.326 256.081L172.349 266.435C171.693 267.57 170.849 268.414 169.815 268.966C168.786 269.52 167.649 269.762 166.404 269.69C165.163 269.612 163.897 269.202 162.607 268.457C161.312 267.709 160.321 266.817 159.633 265.78C158.949 264.738 158.589 263.633 158.555 262.465C158.521 261.297 158.832 260.145 159.487 259.01L165.465 248.656L168.336 250.313L162.497 260.428C162.115 261.088 161.92 261.759 161.911 262.442C161.908 263.128 162.087 263.771 162.448 264.372C162.813 264.968 163.359 265.475 164.086 265.895C164.814 266.315 165.526 266.534 166.224 266.552C166.931 266.568 167.577 266.401 168.164 266.052C168.751 265.703 169.235 265.198 169.616 264.538L175.456 254.424ZM178.995 268.313L174.974 275.277L172.173 273.66L179.036 261.774L181.713 263.319L180.547 265.339L180.686 265.42C181.344 264.912 182.085 264.635 182.91 264.588C183.74 264.545 184.599 264.779 185.486 265.291C186.306 265.765 186.92 266.353 187.326 267.055C187.737 267.76 187.918 268.543 187.869 269.402C187.826 270.264 187.527 271.168 186.974 272.114L182.605 279.682L179.803 278.065L183.923 270.93C184.381 270.136 184.534 269.395 184.38 268.708C184.232 268.024 183.796 267.473 183.074 267.056C182.584 266.773 182.086 266.63 181.579 266.626C181.08 266.62 180.606 266.756 180.157 267.033C179.713 267.314 179.326 267.74 178.995 268.313ZM198.25 272.867L196.999 275.034L190.166 271.089L191.417 268.922L198.25 272.867ZM194.748 267.048L197.55 268.666L191.107 279.825C190.89 280.201 190.78 280.523 190.777 280.79C190.782 281.054 190.86 281.278 191.009 281.46C191.158 281.642 191.349 281.801 191.581 281.935C191.756 282.036 191.924 282.115 192.083 282.173C192.248 282.234 192.374 282.276 192.464 282.3L191.671 284.762C191.492 284.728 191.245 284.661 190.931 284.562C190.622 284.466 190.265 284.308 189.862 284.089C189.149 283.705 188.578 283.234 188.15 282.677C187.724 282.116 187.489 281.492 187.445 280.806C187.406 280.123 187.604 279.411 188.038 278.671L194.748 267.048ZM193.731 286.106L200.593 274.22L203.394 275.837L196.532 287.723L193.731 286.106ZM202.975 273.346C202.532 273.09 202.235 272.722 202.085 272.244C201.938 271.76 201.985 271.309 202.226 270.891C202.47 270.468 202.837 270.202 203.327 270.092C203.819 269.978 204.288 270.049 204.731 270.305C205.18 270.564 205.475 270.934 205.617 271.415C205.768 271.894 205.72 272.344 205.476 272.767C205.235 273.185 204.868 273.452 204.375 273.566C203.891 273.678 203.424 273.605 202.975 273.346ZM212.21 280.927L210.959 283.094L204.126 279.149L205.377 276.982L212.21 280.927ZM208.708 275.108L211.51 276.726L205.067 287.884C204.85 288.261 204.74 288.583 204.737 288.849C204.743 289.114 204.82 289.337 204.969 289.52C205.118 289.702 205.309 289.861 205.541 289.995C205.716 290.096 205.884 290.175 206.043 290.233C206.208 290.293 206.335 290.336 206.424 290.36L205.632 292.822C205.452 292.788 205.205 292.721 204.891 292.622C204.582 292.526 204.226 292.368 203.822 292.149C203.109 291.765 202.538 291.294 202.11 290.737C201.684 290.175 201.45 289.551 201.405 288.866C201.366 288.183 201.564 287.471 201.998 286.731L208.708 275.108ZM219.897 280.082L210.747 295.931L207.946 294.313L217.096 278.465L219.897 280.082ZM218.756 300.864C217.564 300.176 216.678 299.334 216.097 298.339C215.525 297.341 215.27 296.251 215.333 295.07C215.399 293.884 215.79 292.669 216.508 291.425C217.214 290.203 218.066 289.264 219.063 288.608C220.069 287.951 221.141 287.607 222.28 287.576C223.422 287.541 224.56 287.851 225.695 288.506C226.428 288.929 227.05 289.447 227.563 290.059C228.085 290.67 228.454 291.365 228.671 292.144C228.894 292.926 228.931 293.779 228.782 294.704C228.636 295.624 228.262 296.605 227.66 297.647L227.164 298.506L217.422 292.881L218.512 290.993L225.569 295.068C225.874 294.528 226.033 293.984 226.048 293.435C226.065 292.881 225.94 292.365 225.672 291.887C225.41 291.413 225.01 291.02 224.474 290.711C223.901 290.38 223.318 290.229 222.724 290.257C222.132 290.281 221.586 290.447 221.084 290.755C220.591 291.062 220.188 291.48 219.876 292.008L218.925 293.656C218.525 294.348 218.309 295.014 218.276 295.655C218.246 296.291 218.382 296.872 218.684 297.397C218.989 297.917 219.446 298.353 220.055 298.704C220.462 298.94 220.864 299.096 221.26 299.173C221.658 299.245 222.044 299.237 222.418 299.15C222.791 299.063 223.137 298.888 223.454 298.624L225.9 300.428C225.336 301.024 224.673 301.446 223.911 301.694C223.157 301.94 222.339 301.997 221.458 301.867C220.58 301.732 219.68 301.397 218.756 300.864ZM230.836 307.807C229.902 307.268 229.205 306.546 228.744 305.64C228.283 304.734 228.102 303.701 228.201 302.541C228.3 301.381 228.727 300.148 229.48 298.843C230.243 297.522 231.103 296.533 232.06 295.875C233.026 295.215 234.014 294.867 235.025 294.832C236.039 294.791 237.003 295.035 237.916 295.562C238.612 295.964 239.117 296.413 239.428 296.91C239.743 297.401 239.937 297.888 240.009 298.37C240.085 298.847 240.111 299.271 240.089 299.644L240.205 299.711L243.627 293.783L246.436 295.405L237.286 311.253L234.531 309.662L235.613 307.79L235.442 307.691C235.131 307.897 234.745 308.083 234.284 308.25C233.826 308.412 233.307 308.477 232.727 308.445C232.147 308.413 231.517 308.2 230.836 307.807ZM232.944 305.96C233.537 306.303 234.135 306.435 234.738 306.356C235.343 306.272 235.921 306.004 236.472 305.551C237.022 305.099 237.519 304.488 237.963 303.719C238.407 302.951 238.684 302.22 238.795 301.527C238.911 300.838 238.851 300.215 238.615 299.659C238.384 299.106 237.966 298.655 237.363 298.307C236.739 297.947 236.124 297.808 235.518 297.892C234.913 297.976 234.339 298.243 233.797 298.693C233.255 299.144 232.771 299.738 232.345 300.476C231.916 301.219 231.639 301.943 231.514 302.648C231.397 303.351 231.45 303.99 231.675 304.567C231.907 305.141 232.33 305.606 232.944 305.96ZM241.899 314.143C241.429 313.872 241.122 313.475 240.978 312.951C240.833 312.427 240.9 311.929 241.179 311.458C241.442 310.99 241.837 310.688 242.363 310.552C242.889 310.415 243.386 310.483 243.856 310.754C244.31 311.016 244.609 311.409 244.754 311.932C244.904 312.459 244.847 312.956 244.584 313.423C244.397 313.735 244.15 313.974 243.841 314.139C243.537 314.308 243.211 314.395 242.864 314.401C242.525 314.405 242.203 314.319 241.899 314.143Z" fill="white"/>
<path d="M284.324 530.242C283.523 529.78 282.916 529.197 282.502 528.493C282.09 527.783 281.886 527.018 281.887 526.198C281.894 525.381 282.128 524.572 282.591 523.772L284.931 519.718C285.393 518.917 285.976 518.31 286.68 517.896C287.39 517.484 288.153 517.282 288.97 517.289C289.79 517.29 290.6 517.522 291.401 517.984C292.202 518.447 292.808 519.033 293.219 519.742C293.634 520.446 293.837 521.207 293.831 522.024C293.829 522.844 293.597 523.654 293.135 524.455L290.795 528.508C290.333 529.309 289.747 529.915 289.037 530.326C288.333 530.741 287.571 530.947 286.751 530.946C285.934 530.939 285.125 530.705 284.324 530.242ZM285.268 528.608C285.704 528.859 286.158 528.984 286.632 528.981C287.114 528.977 287.564 528.858 287.981 528.627C288.401 528.39 288.738 528.051 288.993 527.61L291.465 523.328C291.717 522.892 291.839 522.436 291.831 521.959C291.826 521.477 291.703 521.028 291.463 520.613C291.232 520.197 290.898 519.862 290.462 519.611C290.027 519.359 289.568 519.236 289.085 519.241C288.612 519.243 288.165 519.363 287.745 519.6C287.328 519.831 286.994 520.165 286.742 520.601L284.27 524.883C284.015 525.324 283.89 525.786 283.895 526.268C283.903 526.745 284.023 527.192 284.254 527.608C284.494 528.023 284.832 528.356 285.268 528.608ZM295.57 536.735C294.808 536.295 294.225 535.719 293.822 535.007C293.423 534.29 293.226 533.511 293.231 532.672C293.242 531.835 293.48 531.014 293.946 530.208L296.111 526.457C296.605 525.601 297.216 524.952 297.945 524.508C298.678 524.067 299.465 523.85 300.305 523.855C301.15 523.863 301.986 524.107 302.814 524.585C303.435 524.943 303.951 525.397 304.36 525.946C304.77 526.494 305.04 527.115 305.17 527.808L303.245 528.255C303.188 527.837 303.04 527.446 302.8 527.082C302.568 526.716 302.261 526.423 301.88 526.203C301.39 525.92 300.892 525.788 300.386 525.809C299.884 525.824 299.417 525.958 298.988 526.211C298.564 526.467 298.228 526.811 297.979 527.241L296.734 529.398L296.616 528.829C297.208 528.583 297.829 528.476 298.478 528.51C299.127 528.543 299.738 528.725 300.31 529.055C301.04 529.476 301.592 530.024 301.965 530.697C302.348 531.369 302.534 532.09 302.525 532.862C302.52 533.636 302.308 534.389 301.886 535.119C301.461 535.854 300.891 536.415 300.174 536.8C299.467 537.183 298.703 537.374 297.883 537.373C297.071 537.369 296.3 537.157 295.57 536.735ZM296.519 535.093C296.944 535.338 297.39 535.458 297.858 535.452C298.327 535.446 298.765 535.329 299.173 535.1C299.581 534.871 299.908 534.544 300.154 534.119C300.399 533.694 300.519 533.247 300.513 532.779C300.513 532.314 300.398 531.877 300.169 531.469C299.94 531.061 299.613 530.734 299.188 530.488C298.763 530.243 298.314 530.122 297.84 530.124C297.372 530.13 296.934 530.247 296.525 530.477C296.117 530.706 295.79 531.033 295.545 531.458C295.303 531.877 295.184 532.321 295.19 532.789C295.196 533.257 295.312 533.698 295.538 534.112C295.767 534.52 296.094 534.847 296.519 535.093ZM312.403 530.437L314.128 531.432L304.196 541.388L302.472 540.393L312.403 530.437ZM309.961 544.706L310.847 543.191L318.622 541.556C319.247 541.43 319.729 541.244 320.068 540.996C320.412 540.752 320.68 540.464 320.872 540.131C321.114 539.712 321.239 539.282 321.245 538.843C321.255 538.399 321.153 537.984 320.94 537.599C320.726 537.214 320.407 536.899 319.982 536.654C319.546 536.402 319.097 536.281 318.634 536.289C318.18 536.296 317.76 536.413 317.374 536.641C316.988 536.869 316.685 537.18 316.464 537.575L314.715 536.566C315.156 535.803 315.712 535.235 316.386 534.861C317.068 534.485 317.804 534.311 318.595 534.338C319.388 534.36 320.174 534.597 320.953 535.046C321.694 535.474 322.261 536.027 322.655 536.704C323.051 537.376 323.25 538.101 323.251 538.879C323.258 539.66 323.046 540.424 322.615 541.17C322.303 541.71 321.968 542.126 321.61 542.42C321.251 542.715 320.837 542.941 320.368 543.098C319.9 543.256 319.344 543.4 318.702 543.531L312.709 544.778L312.804 544.179L318.859 547.675L317.92 549.301L309.961 544.706ZM325.358 553.606L326.543 551.555L321.231 548.488L322.165 546.87L330.665 540.98L332.618 542.108L324.118 547.998L327.477 549.937L329.317 546.75L331.049 547.75L329.209 550.937L330.378 551.612L329.444 553.23L328.275 552.555L327.091 554.607L325.358 553.606Z" fill="white"/>
<g clip-path="url(#clip1_15_363600)">
<path d="M535.061 457.796C535.061 463.711 533.504 469.523 530.546 474.646C527.588 479.769 523.334 484.023 518.211 486.981M526.787 457.299C526.787 461.913 525.572 466.446 523.265 470.442C520.958 474.438 517.64 477.756 513.644 480.063M518.956 456.708C518.941 460.071 518.045 463.379 516.359 466.299C514.673 469.219 512.257 471.649 509.352 473.344M510.991 456.351C511.122 458.528 510.623 460.667 509.551 462.524C508.479 464.381 506.876 465.883 504.925 466.858" stroke="white" stroke-width="4.04399" stroke-linecap="round"/>
</g>
</g>
<rect x="155.422" y="200.535" width="495.962" height="297.806" rx="19.5" transform="rotate(30 155.422 200.535)" stroke="url(#paint1_linear_15_363600)"/>
</g>
<g filter="url(#filter1_bd_15_363600)">
<g clip-path="url(#clip2_15_363600)">
<rect x="452.148" y="2.14258" width="493.472" height="296.708" rx="20" transform="rotate(60 452.148 2.14258)" fill="url(#paint2_linear_15_363600)"/>
<rect x="459.214" y="457.88" width="70.7935" height="49.9719" rx="6.24648" transform="rotate(60 459.214 457.88)" fill="white" fill-opacity="0.1"/>
<path opacity="0.5" fill-rule="evenodd" clip-rule="evenodd" d="M446.752 506.378C443.72 505.282 441.034 503.14 439.287 500.113C435.388 493.36 437.637 484.763 444.309 480.911C450.982 477.059 459.551 479.41 463.45 486.163C465.197 489.189 465.71 492.586 465.143 495.761C468.175 496.857 470.86 498.999 472.608 502.025C476.506 508.778 474.258 517.375 467.586 521.228C460.913 525.08 452.344 522.729 448.445 515.976C446.697 512.949 446.185 509.552 446.752 506.378Z" fill="white"/>
<path opacity="0.5" fill-rule="evenodd" clip-rule="evenodd" d="M446.752 506.378C450.486 507.728 454.746 507.491 458.428 505.365C462.109 503.24 464.444 499.669 465.143 495.762C468.175 496.858 470.86 499 472.608 502.026C476.506 508.779 474.258 517.376 467.586 521.229C460.913 525.081 452.344 522.73 448.445 515.977C446.697 512.95 446.185 509.553 446.752 506.378Z" fill="white"/>
<path fill-rule="evenodd" clip-rule="evenodd" d="M446.752 506.378C450.486 507.728 454.745 507.491 458.428 505.365C462.109 503.24 464.444 499.669 465.142 495.762C461.409 494.412 457.149 494.649 453.467 496.775C449.785 498.9 447.45 502.47 446.752 506.378Z" fill="white"/>
<path d="M238.136 160.193L251.227 152.635L247.749 150.733L250.27 149.278L253.716 151.198L255.046 153.503L239.466 162.497L238.136 160.193ZM243.473 169.413L245.492 168.262L255.489 171.535C256.289 171.804 256.965 171.909 257.517 171.85C258.074 171.798 258.572 171.645 259.012 171.391C259.567 171.07 259.994 170.66 260.293 170.161C260.598 169.657 260.756 169.114 260.766 168.532C260.776 167.949 260.618 167.376 260.293 166.814C259.96 166.237 259.525 165.8 258.989 165.504C258.464 165.211 257.905 165.067 257.312 165.073C256.719 165.079 256.165 165.235 255.65 165.542L254.313 163.227C255.323 162.644 256.338 162.361 257.357 162.378C258.388 162.398 259.348 162.686 260.236 163.241C261.131 163.791 261.876 164.582 262.471 165.614C263.038 166.595 263.322 167.604 263.325 168.641C263.334 169.674 263.083 170.637 262.569 171.53C262.06 172.43 261.311 173.165 260.323 173.735C259.609 174.148 258.948 174.404 258.343 174.504C257.737 174.603 257.113 174.589 256.47 174.459C255.828 174.33 255.096 174.128 254.274 173.852L246.576 171.314L247.082 170.691L251.71 178.708L249.557 179.951L243.473 169.413ZM255.144 190.326C254.698 189.555 254.424 188.746 254.321 187.902C254.225 187.053 254.304 186.224 254.558 185.414C254.816 184.611 255.248 183.885 255.855 183.237L257.722 185.073C257.172 185.669 256.867 186.331 256.806 187.059C256.752 187.782 256.912 188.459 257.286 189.09C257.622 189.655 258.045 190.079 258.555 190.362C259.064 190.645 259.61 190.782 260.191 190.773C260.78 190.76 261.363 190.587 261.94 190.254C262.806 189.754 263.363 189.072 263.614 188.206C263.868 187.347 263.746 186.485 263.246 185.62C263.104 185.375 262.922 185.143 262.7 184.925C262.482 184.714 262.251 184.53 262.007 184.373L263.18 182.282L271.211 184.974L270.699 185.587L266.327 178.013L268.48 176.77L273.889 186.14L271.736 187.383L264.707 185.353L265.431 184.907C265.997 185.888 266.268 186.866 266.245 187.841C266.228 188.812 265.958 189.709 265.432 190.532C264.919 191.357 264.2 192.036 263.277 192.57C262.281 193.144 261.262 193.42 260.22 193.397C259.182 193.381 258.216 193.107 257.322 192.574C256.432 192.049 255.706 191.3 255.144 190.326ZM265.752 208.026L268.468 206.458L264.408 199.426L266.55 198.189L280.195 197.062L281.688 199.648L268.043 200.775L270.61 205.221L274.83 202.785L276.154 205.079L271.934 207.515L272.828 209.062L270.685 210.299L269.792 208.752L267.076 210.32L265.752 208.026ZM277.286 228.003L290.377 220.445L286.899 218.544L289.42 217.088L292.866 219.008L294.196 221.313L278.617 230.308L277.286 228.003ZM282.624 237.223L284.642 236.072L294.639 239.345C295.439 239.614 296.115 239.719 296.668 239.66C297.224 239.608 297.722 239.455 298.162 239.201C298.718 238.88 299.145 238.47 299.443 237.971C299.749 237.468 299.906 236.925 299.916 236.342C299.926 235.759 299.768 235.187 299.444 234.624C299.11 234.047 298.676 233.61 298.139 233.314C297.614 233.021 297.055 232.877 296.462 232.883C295.869 232.889 295.315 233.045 294.8 233.352L293.463 231.037C294.473 230.454 295.488 230.171 296.508 230.188C297.539 230.208 298.498 230.496 299.386 231.051C300.281 231.602 301.026 232.393 301.622 233.424C302.188 234.405 302.472 235.414 302.475 236.451C302.485 237.484 302.233 238.447 301.719 239.34C301.21 240.24 300.461 240.975 299.473 241.546C298.759 241.958 298.099 242.214 297.493 242.314C296.887 242.414 296.263 242.399 295.621 242.27C294.979 242.14 294.246 241.938 293.424 241.663L285.727 239.125L286.232 238.501L290.861 246.518L288.708 247.761L282.624 237.223ZM294.294 258.137C293.849 257.365 293.574 256.557 293.471 255.712C293.376 254.863 293.455 254.034 293.708 253.224C293.966 252.421 294.398 251.696 295.005 251.047L296.873 252.883C296.322 253.479 296.017 254.141 295.956 254.869C295.903 255.592 296.063 256.269 296.436 256.9C296.773 257.465 297.195 257.89 297.705 258.173C298.214 258.455 298.76 258.592 299.342 258.584C299.93 258.571 300.513 258.398 301.09 258.065C301.956 257.565 302.514 256.882 302.764 256.016C303.018 255.158 302.896 254.296 302.396 253.43C302.255 253.185 302.073 252.953 301.851 252.735C301.633 252.524 301.402 252.341 301.157 252.184L302.33 250.093L310.361 252.784L309.849 253.397L305.477 245.823L307.63 244.58L313.039 253.95L310.886 255.193L303.858 253.163L304.581 252.717C305.147 253.698 305.419 254.676 305.395 255.651C305.379 256.622 305.108 257.519 304.583 258.342C304.069 259.167 303.35 259.847 302.427 260.38C301.432 260.955 300.413 261.23 299.37 261.207C298.332 261.191 297.366 260.917 296.472 260.385C295.582 259.86 294.856 259.11 294.294 258.137ZM304.903 275.836L307.618 274.268L303.558 267.236L305.7 265.999L319.345 264.872L320.838 267.458L307.193 268.585L309.76 273.032L313.98 270.595L315.304 272.889L311.085 275.325L311.978 276.872L309.836 278.109L308.942 276.562L306.227 278.13L304.903 275.836ZM316.436 295.814L329.528 288.255L326.05 286.354L328.571 284.899L332.016 286.819L333.347 289.123L317.767 298.118L316.436 295.814ZM321.774 305.033L323.793 303.882L333.79 307.156C334.589 307.425 335.265 307.53 335.818 307.47C336.374 307.418 336.873 307.265 337.313 307.011C337.868 306.691 338.295 306.281 338.593 305.781C338.899 305.278 339.057 304.735 339.066 304.152C339.076 303.57 338.919 302.997 338.594 302.434C338.261 301.857 337.826 301.421 337.29 301.125C336.764 300.831 336.205 300.688 335.613 300.693C335.02 300.699 334.466 300.856 333.95 301.163L332.614 298.847C333.623 298.264 334.638 297.981 335.658 297.999C336.689 298.019 337.648 298.306 338.536 298.861C339.431 299.412 340.176 300.203 340.772 301.235C341.338 302.215 341.623 303.225 341.625 304.262C341.635 305.295 341.383 306.258 340.87 307.15C340.36 308.05 339.611 308.786 338.623 309.356C337.909 309.768 337.249 310.024 336.643 310.124C336.037 310.224 335.413 310.209 334.771 310.08C334.129 309.951 333.397 309.748 332.574 309.473L324.877 306.935L325.382 306.311L330.011 314.328L327.858 315.571L321.774 305.033ZM333.444 325.947C332.999 325.175 332.725 324.367 332.622 323.522C332.526 322.674 332.605 321.844 332.859 321.034C333.116 320.232 333.549 319.506 334.155 318.858L336.023 320.693C335.473 321.29 335.167 321.952 335.107 322.679C335.053 323.403 335.213 324.08 335.587 324.71C335.923 325.276 336.346 325.7 336.855 325.983C337.365 326.266 337.91 326.403 338.492 326.394C339.081 326.381 339.664 326.208 340.241 325.875C341.106 325.375 341.664 324.692 341.914 323.827C342.169 322.968 342.046 322.106 341.546 321.24C341.405 320.995 341.223 320.764 341.001 320.546C340.783 320.335 340.552 320.151 340.307 319.994L341.48 317.903L349.511 320.594L349 321.207L344.627 313.634L346.78 312.391L352.19 321.76L350.037 323.003L343.008 320.974L343.731 320.527C344.298 321.508 344.569 322.486 344.545 323.462C344.529 324.433 344.258 325.33 343.733 326.152C343.219 326.978 342.501 327.657 341.577 328.19C340.582 328.765 339.563 329.041 338.521 329.017C337.482 329.001 336.516 328.727 335.622 328.195C334.733 327.67 334.007 326.921 333.444 325.947ZM344.053 343.647L346.768 342.079L342.708 335.046L344.85 333.809L358.496 332.683L359.989 335.268L346.343 336.395L348.911 340.842L353.13 338.406L354.454 340.699L350.235 343.136L351.128 344.683L348.986 345.92L348.093 344.372L345.377 345.94L344.053 343.647ZM355.587 363.624L368.678 356.066L365.2 354.164L367.721 352.709L371.166 354.629L372.497 356.934L356.917 365.928L355.587 363.624ZM360.924 372.844L362.943 371.693L372.94 374.966C373.74 375.235 374.416 375.34 374.968 375.281C375.525 375.229 376.023 375.076 376.463 374.822C377.018 374.501 377.445 374.091 377.744 373.592C378.049 373.088 378.207 372.545 378.217 371.963C378.227 371.38 378.069 370.807 377.744 370.245C377.411 369.668 376.976 369.231 376.44 368.935C375.915 368.642 375.356 368.498 374.763 368.504C374.17 368.51 373.616 368.666 373.101 368.973L371.764 366.658C372.774 366.075 373.788 365.792 374.808 365.809C375.839 365.829 376.799 366.117 377.686 366.672C378.582 367.222 379.327 368.013 379.922 369.045C380.489 370.026 380.773 371.035 380.776 372.072C380.785 373.105 380.533 374.068 380.02 374.961C379.51 375.861 378.762 376.596 377.774 377.166C377.059 377.579 376.399 377.835 375.793 377.935C375.188 378.034 374.563 378.02 373.921 377.89C373.279 377.761 372.547 377.559 371.724 377.283L364.027 374.745L364.533 374.122L369.161 382.139L367.008 383.382L360.924 372.844ZM372.595 393.757C372.149 392.986 371.875 392.177 371.772 391.333C371.676 390.484 371.755 389.655 372.009 388.845C372.267 388.042 372.699 387.316 373.305 386.668L375.173 388.504C374.623 389.1 374.318 389.762 374.257 390.49C374.203 391.213 374.363 391.89 374.737 392.521C375.073 393.086 375.496 393.51 376.006 393.793C376.515 394.076 377.061 394.213 377.642 394.204C378.231 394.191 378.814 394.018 379.391 393.685C380.256 393.185 380.814 392.503 381.065 391.637C381.319 390.778 381.196 389.916 380.697 389.051C380.555 388.806 380.373 388.574 380.151 388.356C379.933 388.145 379.702 387.961 379.458 387.804L380.631 385.713L388.662 388.405L388.15 389.018L383.778 381.444L385.931 380.201L391.34 389.571L389.187 390.814L382.158 388.784L382.882 388.338C383.448 389.319 383.719 390.297 383.696 391.272C383.679 392.243 383.409 393.14 382.883 393.963C382.369 394.788 381.651 395.467 380.728 396.001C379.732 396.575 378.713 396.851 377.671 396.828C376.633 396.812 375.667 396.538 374.773 396.005C373.883 395.48 373.157 394.731 372.595 393.757ZM383.203 411.457L385.919 409.889L381.859 402.857L384.001 401.62L397.646 400.493L399.139 403.079L385.494 404.206L388.061 408.652L392.281 406.216L393.605 408.51L389.385 410.946L390.279 412.493L388.136 413.73L387.243 412.183L384.527 413.751L383.203 411.457Z" fill="white"/>
<path d="M277.442 139.877C276.767 138.708 276.447 137.566 276.48 136.45C276.52 135.331 276.87 134.289 277.531 133.323C278.195 132.362 279.131 131.534 280.337 130.837C281.543 130.141 282.729 129.745 283.893 129.65C285.06 129.56 286.135 129.78 287.118 130.308C288.107 130.834 288.939 131.681 289.613 132.849C290.285 134.012 290.601 135.154 290.562 136.272C290.531 137.394 290.184 138.435 289.519 139.395C288.855 140.356 287.92 141.184 286.713 141.881C285.507 142.577 284.322 142.973 283.158 143.068C281.994 143.163 280.916 142.945 279.924 142.414C278.941 141.886 278.113 141.04 277.442 139.877ZM279.056 138.944C279.524 139.778 280.101 140.361 280.79 140.692C281.487 141.025 282.251 141.136 283.081 141.024C283.917 140.91 284.781 140.595 285.673 140.079C286.566 139.564 287.265 138.976 287.771 138.316C288.283 137.653 288.566 136.938 288.621 136.171C288.678 135.409 288.471 134.613 287.999 133.782C287.532 132.948 286.952 132.363 286.26 132.026C285.572 131.696 284.809 131.587 283.974 131.702C283.138 131.816 282.273 132.129 281.377 132.639C280.481 133.148 279.778 133.735 279.266 134.398C278.76 135.058 278.48 135.772 278.425 136.539C278.374 137.312 278.584 138.114 279.056 138.944ZM282.368 147.846L294.052 141.1L295.031 142.796L284.945 148.619L288 153.91L286.401 154.833L282.368 147.846ZM287.759 157.184L299.444 150.438L300.423 152.134L288.738 158.88L287.759 157.184ZM292.197 164.871L301.689 154.327L302.706 156.088L294.602 165.083L306.468 162.604L307.484 164.365L293.607 167.313L292.197 164.871ZM297.068 173.308L308.753 166.562L309.732 168.258L298.047 175.004L297.068 173.308ZM299.454 177.441L313.331 174.492L314.742 176.935L305.249 187.479L304.233 185.718L312.876 176.065L313.129 176.503L300.471 179.202L299.454 177.441ZM303.23 177.89L304.82 176.972L308.343 183.074L306.753 183.992L303.23 177.89ZM308.903 193.806L320.587 187.06L323.314 191.783C323.379 191.896 323.455 192.04 323.541 192.214C323.633 192.385 323.709 192.554 323.769 192.721C324.041 193.429 324.132 194.098 324.041 194.728C323.953 195.363 323.712 195.938 323.317 196.455C322.923 196.971 322.412 197.41 321.784 197.772C320.854 198.31 319.913 198.535 318.962 198.45C318.016 198.361 317.185 197.889 316.468 197.034L315.988 196.391L314.077 193.08L309.882 195.502L308.903 193.806ZM312.847 200.639L316.272 195.589L317.698 197.048L313.967 202.578L312.847 200.639ZM315.683 192.152L317.393 195.114C317.456 195.222 317.53 195.338 317.616 195.462C317.705 195.591 317.797 195.707 317.893 195.81C318.174 196.11 318.483 196.303 318.822 196.389C319.165 196.472 319.507 196.476 319.847 196.403C320.187 196.329 320.5 196.209 320.786 196.044C321.073 195.878 321.331 195.668 321.559 195.414C321.792 195.157 321.957 194.86 322.051 194.524C322.151 194.185 322.142 193.819 322.023 193.426C321.987 193.288 321.935 193.149 321.868 193.007C321.804 192.871 321.74 192.749 321.678 192.641L319.968 189.679L315.683 192.152ZM315.465 205.173L327.15 198.427L328.129 200.122L323.09 203.032L326.463 208.874L331.502 205.965L332.486 207.669L320.801 214.415L319.817 212.711L324.864 209.797L321.491 203.955L316.444 206.869L315.465 205.173ZM324.211 220.322L329.039 217.534L333.614 209.624L334.758 211.604L331.483 217.27L338.028 217.268L339.171 219.248L330.033 219.254L325.204 222.042L324.211 220.322ZM328.608 227.937L340.293 221.191L344.603 228.657L343.005 229.579L339.674 223.81L336.395 225.703L339.164 230.498L337.566 231.421L334.797 226.626L331.186 228.71L334.517 234.48L332.918 235.403L328.608 227.937Z" fill="white"/>
<path d="M398.701 349.907C398.242 349.112 398.009 348.308 398.003 347.497C398.001 346.683 398.205 345.923 398.613 345.219C399.025 344.52 399.628 343.941 400.423 343.481L404.448 341.158C405.243 340.699 406.046 340.466 406.857 340.459C407.672 340.458 408.428 340.663 409.128 341.074C409.832 341.482 410.414 342.084 410.873 342.879C411.332 343.675 411.562 344.479 411.564 345.294C411.57 346.105 411.368 346.86 410.957 347.559C410.548 348.264 409.947 348.846 409.151 349.305L405.127 351.628C404.331 352.087 403.527 352.318 402.712 352.319C401.901 352.326 401.143 352.125 400.439 351.717C399.74 351.305 399.161 350.702 398.701 349.907ZM400.324 348.97C400.574 349.403 400.903 349.735 401.312 349.968C401.729 350.204 402.174 350.325 402.648 350.333C403.127 350.338 403.585 350.214 404.023 349.961L408.275 347.506C408.708 347.256 409.039 346.924 409.269 346.51C409.504 346.093 409.622 345.647 409.621 345.171C409.629 344.698 409.508 344.244 409.258 343.812C409.008 343.379 408.675 343.045 408.258 342.81C407.849 342.577 407.406 342.458 406.927 342.453C406.453 342.445 406 342.566 405.567 342.816L401.315 345.271C400.877 345.524 400.541 345.859 400.305 346.276C400.076 346.69 399.957 347.134 399.949 347.607C399.949 348.083 400.074 348.537 400.324 348.97ZM405.149 361.074C404.711 360.316 404.496 359.532 404.504 358.72C404.516 357.905 404.733 357.137 405.155 356.418C405.579 355.704 406.192 355.116 406.992 354.654L410.717 352.503C411.566 352.013 412.414 351.758 413.261 351.738C414.111 351.723 414.896 351.927 415.615 352.348C416.337 352.775 416.936 353.399 417.411 354.222C417.767 354.838 417.985 355.484 418.064 356.16C418.144 356.835 418.068 357.503 417.836 358.163L415.959 357.591C416.118 357.204 416.184 356.794 416.158 356.362C416.141 355.932 416.023 355.528 415.804 355.149C415.523 354.662 415.16 354.302 414.715 354.069C414.275 353.832 413.808 353.716 413.313 353.72C412.821 353.73 412.361 353.859 411.934 354.105L409.792 355.342L409.973 354.794C410.605 354.876 411.191 355.093 411.733 355.444C412.275 355.795 412.709 356.254 413.037 356.822C413.456 357.547 413.659 358.292 413.646 359.057C413.641 359.824 413.444 360.537 413.052 361.196C412.664 361.86 412.107 362.401 411.382 362.82C410.652 363.241 409.883 363.44 409.076 363.416C408.277 363.394 407.525 363.178 406.821 362.77C406.125 362.364 405.567 361.799 405.149 361.074ZM406.78 360.132C407.023 360.554 407.348 360.879 407.753 361.106C408.159 361.334 408.594 361.451 409.059 361.456C409.524 361.462 409.967 361.343 410.389 361.099C410.811 360.856 411.136 360.531 411.363 360.126C411.594 359.726 411.712 359.293 411.718 358.828C411.724 358.363 411.605 357.92 411.361 357.498C411.117 357.076 410.791 356.749 410.383 356.516C409.977 356.288 409.542 356.172 409.077 356.166C408.612 356.16 408.169 356.279 407.747 356.523C407.33 356.763 407.008 357.086 406.781 357.492C406.553 357.897 406.434 358.334 406.423 358.802C406.417 359.267 406.536 359.71 406.78 360.132ZM422.751 364.015L423.74 365.727L410.256 369.358L409.267 367.645L422.751 364.015ZM413.567 375.073L415.081 374.21L422.578 376.665C423.178 376.866 423.685 376.945 424.099 376.901C424.517 376.862 424.891 376.747 425.221 376.556C425.637 376.316 425.957 376.008 426.181 375.634C426.41 375.256 426.529 374.849 426.536 374.412C426.543 373.975 426.425 373.546 426.182 373.124C425.932 372.691 425.606 372.363 425.203 372.141C424.809 371.921 424.39 371.814 423.945 371.818C423.501 371.822 423.085 371.94 422.699 372.17L421.696 370.433C422.454 369.996 423.215 369.784 423.979 369.797C424.753 369.812 425.472 370.028 426.138 370.444C426.809 370.857 427.368 371.45 427.815 372.224C428.24 372.96 428.453 373.716 428.455 374.494C428.462 375.269 428.273 375.991 427.888 376.661C427.506 377.336 426.945 377.887 426.203 378.315C425.668 378.624 425.173 378.816 424.718 378.891C424.264 378.966 423.796 378.955 423.314 378.858C422.833 378.761 422.284 378.609 421.667 378.403L415.894 376.499L416.273 376.031L419.744 382.044L418.13 382.976L413.567 375.073ZM422.388 390.371L424.425 389.196L421.38 383.921L422.987 382.994L433.22 382.148L434.34 384.088L424.106 384.933L426.032 388.268L429.196 386.441L430.19 388.161L427.025 389.988L427.695 391.149L426.088 392.076L425.418 390.916L423.382 392.092L422.388 390.371Z" fill="white"/>
<path d="M442.293 59.1932L443.939 62.044L433.657 67.98C432.53 68.6306 431.385 68.9365 430.222 68.8977C429.062 68.864 427.965 68.5072 426.93 67.8272C425.901 67.1443 425.016 66.1625 424.277 64.8819C423.534 63.596 423.125 62.3366 423.048 61.1036C422.977 59.8677 423.216 58.7389 423.767 57.7173C424.318 56.6958 425.157 55.8596 426.284 55.209L436.565 49.273L438.211 52.1238L428.168 57.9222C427.512 58.3008 427.011 58.7814 426.665 59.3641C426.321 59.9518 426.155 60.5938 426.168 61.29C426.186 61.9833 426.403 62.6911 426.82 63.4134C427.237 64.1357 427.742 64.6779 428.333 65.0399C428.933 65.4041 429.571 65.5817 430.249 65.5728C430.927 65.5639 431.594 65.3702 432.25 64.9916L442.293 59.1932ZM438.441 72.8944L431.526 76.8871L429.92 74.1055L441.722 67.2911L443.257 69.9498L441.252 71.1078L441.332 71.2461C442.149 71.136 442.924 71.2658 443.657 71.6352C444.392 72.0098 445.014 72.6376 445.523 73.5188C445.993 74.3333 446.229 75.1433 446.229 75.9489C446.233 76.7597 446 77.5223 445.532 78.2368C445.066 78.9564 444.361 79.5858 443.415 80.1248L435.9 84.4637L434.294 81.682L441.379 77.5916C442.168 77.1362 442.667 76.5749 442.876 75.9077C443.088 75.2457 442.987 74.5561 442.573 73.8389C442.292 73.3523 441.934 72.9815 441.5 72.7267C441.074 72.474 440.599 72.3554 440.076 72.3709C439.555 72.3916 439.01 72.5661 438.441 72.8944ZM452.738 86.3708L450.587 87.613L446.669 80.8279L448.821 79.5857L452.738 86.3708ZM452.616 79.6283L454.222 82.4099L443.141 88.8072C442.767 89.0231 442.513 89.2451 442.378 89.4731C442.251 89.7034 442.207 89.9339 442.245 90.1649C442.282 90.3958 442.368 90.6266 442.501 90.8571C442.602 91.0313 442.706 91.1827 442.814 91.3113C442.926 91.4451 443.014 91.5445 443.079 91.6095L441.175 93.3337C441.038 93.2148 440.859 93.0347 440.638 92.7936C440.419 92.5575 440.191 92.2453 439.953 91.8567C439.53 91.1719 439.273 90.4837 439.181 89.7922C439.095 89.0978 439.202 88.4447 439.505 87.8329C439.81 87.2262 440.333 86.7125 441.074 86.2918L452.616 79.6283ZM442.278 95.5115L454.081 88.6971L455.687 91.4788L443.884 98.2931L442.278 95.5115ZM456.564 89.1285C456.309 88.688 456.237 88.2246 456.345 87.7384C456.459 87.2492 456.723 86.8849 457.138 86.6453C457.558 86.4028 458.006 86.356 458.481 86.5051C458.962 86.6511 459.329 86.9444 459.584 87.385C459.841 87.8307 459.911 88.2955 459.795 88.7796C459.686 89.2658 459.422 89.6301 459.002 89.8726C458.587 90.1122 458.139 90.159 457.658 90.0129C457.186 89.869 456.821 89.5742 456.564 89.1285ZM460.741 100.233L458.59 101.475L454.673 94.69L456.824 93.4478L460.741 100.233ZM460.619 93.4904L462.225 96.272L451.144 102.669C450.77 102.885 450.516 103.107 450.381 103.335C450.255 103.565 450.21 103.796 450.248 104.027C450.286 104.258 450.371 104.489 450.504 104.719C450.605 104.893 450.709 105.045 450.818 105.173C450.929 105.307 451.017 105.407 451.082 105.472L449.178 107.196C449.041 107.077 448.862 106.897 448.641 106.656C448.423 106.42 448.195 106.107 447.957 105.719C447.534 105.034 447.277 104.346 447.185 103.654C447.098 102.96 447.206 102.307 447.508 101.695C447.814 101.088 448.337 100.575 449.077 100.154L460.619 93.4904ZM467.771 103.323L452.034 112.409L450.428 109.627L466.165 100.541L467.771 103.323ZM456.472 120.628C455.789 119.444 455.444 118.28 455.439 117.136C455.442 115.993 455.764 114.93 456.405 113.945C457.05 112.958 457.99 112.108 459.225 111.395C460.439 110.694 461.638 110.309 462.821 110.241C464.012 110.175 465.105 110.411 466.099 110.95C467.099 111.487 467.924 112.318 468.575 113.445C468.995 114.173 469.273 114.927 469.41 115.709C469.555 116.492 469.528 117.273 469.328 118.051C469.131 118.834 468.739 119.586 468.152 120.308C467.569 121.027 466.761 121.685 465.726 122.282L464.873 122.775L459.288 113.1L461.163 112.018L465.209 119.026C465.738 118.713 466.146 118.324 466.431 117.859C466.72 117.391 466.869 116.886 466.876 116.342C466.886 115.803 466.737 115.268 466.43 114.735C466.102 114.166 465.675 113.747 465.15 113.476C464.63 113.202 464.078 113.074 463.493 113.091C462.916 113.109 462.363 113.268 461.832 113.568L460.195 114.513C459.509 114.909 458.992 115.375 458.645 115.91C458.304 116.442 458.132 117.009 458.131 117.61C458.135 118.209 458.312 118.81 458.661 119.415C458.895 119.82 459.162 120.153 459.464 120.416C459.772 120.676 460.107 120.861 460.472 120.972C460.836 121.082 461.22 121.103 461.624 121.034L462.832 123.8C462.051 124.032 461.271 124.066 460.492 123.9C459.722 123.737 458.99 123.381 458.298 122.832C457.61 122.279 457.001 121.545 456.472 120.628ZM463.412 132.596C462.877 131.668 462.636 130.701 462.69 129.693C462.743 128.686 463.1 127.708 463.762 126.759C464.423 125.81 465.402 124.962 466.698 124.214C468.009 123.456 469.24 123.033 470.39 122.942C471.548 122.854 472.57 123.046 473.457 123.518C474.349 123.986 475.057 124.674 475.581 125.581C475.98 126.272 476.191 126.909 476.212 127.49C476.239 128.069 476.164 128.584 475.987 129.034C475.815 129.482 475.627 129.86 475.423 130.169L475.489 130.285L481.375 126.886L482.986 129.676L467.249 138.761L465.669 136.026L467.529 134.952L467.431 134.783C467.062 134.805 466.637 134.774 466.158 134.689C465.683 134.601 465.205 134.399 464.722 134.083C464.239 133.768 463.803 133.272 463.412 132.596ZM466.143 132.054C466.483 132.643 466.931 133.054 467.489 133.285C468.051 133.514 468.681 133.57 469.379 133.454C470.077 133.338 470.808 133.059 471.571 132.619C472.334 132.178 472.935 131.688 473.375 131.147C473.817 130.612 474.075 130.046 474.147 129.451C474.223 128.861 474.088 128.266 473.742 127.667C473.384 127.047 472.924 126.622 472.362 126.394C471.8 126.165 471.174 126.11 470.484 126.228C469.794 126.347 469.083 126.617 468.35 127.04C467.612 127.466 467.015 127.951 466.557 128.495C466.108 129.042 465.836 129.619 465.743 130.226C465.657 130.835 465.791 131.445 466.143 132.054ZM469.78 143.537C469.511 143.071 469.445 142.576 469.58 142.054C469.716 141.532 470.021 141.137 470.495 140.87C470.953 140.599 471.442 140.535 471.962 140.679C472.482 140.823 472.877 141.127 473.146 141.594C473.406 142.044 473.469 142.531 473.333 143.053C473.2 143.581 472.905 143.98 472.447 144.251C472.132 144.427 471.8 144.509 471.452 144.498C471.107 144.492 470.784 144.405 470.482 144.238C470.189 144.073 469.955 143.839 469.78 143.537Z" fill="white"/>
<g clip-path="url(#clip3_15_363600)">
<path d="M650.452 412.099C647.515 417.186 643.291 421.411 638.204 424.348C633.117 427.285 627.346 428.831 621.472 428.831M643.584 407.564C641.293 411.532 637.998 414.827 634.03 417.118C630.062 419.409 625.561 420.615 620.979 420.615M637.143 403.168C635.46 406.053 633.048 408.452 630.148 410.126C627.248 411.801 623.964 412.69 620.624 412.705M630.471 398.906C629.503 400.843 628.012 402.435 626.167 403.5C624.323 404.565 622.199 405.06 620.038 404.93" stroke="white" stroke-width="4.0156" stroke-linecap="round"/>
</g>
</g>
<rect x="451.965" y="2.82559" width="492.472" height="295.708" rx="19.5" transform="rotate(60 451.965 2.82559)" stroke="url(#paint3_linear_15_363600)"/>
</g>
<defs>
<filter id="filter0_d_15_363600" x="-6.74537" y="190.416" width="630.11" height="557.58" filterUnits="userSpaceOnUse" color-interpolation-filters="sRGB">
<feFlood flood-opacity="0" result="BackgroundImageFix"/>
<feColorMatrix in="SourceAlpha" type="matrix" values="0 0 0 0 0 0 0 0 0 0 0 0 0 0 0 0 0 0 127 0" result="hardAlpha"/>
<feOffset dx="12.5813" dy="15.7266"/>
<feGaussianBlur stdDeviation="12.5813"/>
<feColorMatrix type="matrix" values="0 0 0 0 0 0 0 0 0 0 0 0 0 0 0 0 0 0 0.05 0"/>
<feBlend mode="normal" in2="BackgroundImageFix" result="effect1_dropShadow_15_363600"/>
<feBlend mode="normal" in="SourceGraphic" in2="effect1_dropShadow_15_363600" result="shape"/>
</filter>
<filter id="filter1_bd_15_363600" x="176.452" y="-16.5969" width="559.912" height="635.055" filterUnits="userSpaceOnUse" color-interpolation-filters="sRGB">
<feFlood flood-opacity="0" result="BackgroundImageFix"/>
<feGaussianBlur in="BackgroundImageFix" stdDeviation="9.36972"/>
<feComposite in2="SourceAlpha" operator="in" result="effect1_backgroundBlur_15_363600"/>
<feColorMatrix in="SourceAlpha" type="matrix" values="0 0 0 0 0 0 0 0 0 0 0 0 0 0 0 0 0 0 127 0" result="hardAlpha"/>
<feOffset dx="12.493" dy="15.6162"/>
<feGaussianBlur stdDeviation="12.493"/>
<feColorMatrix type="matrix" values="0 0 0 0 0 0 0 0 0 0 0 0 0 0 0 0 0 0 0.05 0"/>
<feBlend mode="normal" in2="effect1_backgroundBlur_15_363600" result="effect2_dropShadow_15_363600"/>
<feBlend mode="normal" in="SourceGraphic" in2="effect2_dropShadow_15_363600" result="shape"/>
</filter>
<linearGradient id="paint0_linear_15_363600" x1="155.232" y1="498.656" x2="419.146" y2="59.7237" gradientUnits="userSpaceOnUse">
<stop stop-color="#42307D"/>
<stop offset="1" stop-color="#7F56D9"/>
</linearGradient>
<linearGradient id="paint1_linear_15_363600" x1="155.239" y1="212.469" x2="640.85" y2="516.772" gradientUnits="userSpaceOnUse">
<stop stop-color="white"/>
<stop offset="1" stop-color="white" stop-opacity="0.2"/>
</linearGradient>
<linearGradient id="paint2_linear_15_363600" x1="476.802" y1="2.14261" x2="985.192" y2="359.478" gradientUnits="userSpaceOnUse">
<stop stop-color="white" stop-opacity="0.51"/>
<stop offset="1" stop-color="white" stop-opacity="0"/>
</linearGradient>
<linearGradient id="paint3_linear_15_363600" x1="452.148" y1="14.6715" x2="934.349" y2="316.838" gradientUnits="userSpaceOnUse">
<stop stop-color="white"/>
<stop offset="1" stop-color="white" stop-opacity="0.2"/>
</linearGradient>
<clipPath id="clip0_15_363600">
<rect x="155.239" y="199.852" width="496.962" height="298.806" rx="20" transform="rotate(30 155.239 199.852)" fill="white"/>
</clipPath>
<clipPath id="clip1_15_363600">
<rect width="31.4533" height="37.7439" fill="white" transform="translate(515.448 444.137) rotate(30)"/>
</clipPath>
<clipPath id="clip2_15_363600">
<rect x="452.148" y="2.14258" width="493.472" height="296.708" rx="20" transform="rotate(60 452.148 2.14258)" fill="white"/>
</clipPath>
<clipPath id="clip3_15_363600">
<rect width="31.2324" height="37.4789" fill="white" transform="translate(640.368 390.614) rotate(60)"/>
</clipPath>
</defs>
</svg>
