<svg width="688" height="650" viewBox="0 0 688 650" fill="none" xmlns="http://www.w3.org/2000/svg">
<rect width="576" height="560" fill="url(#paint0_linear_15_360886)"/>
<g filter="url(#filter0_bd_15_360886)">
<g clip-path="url(#clip0_15_360886)">
<rect width="479.375" height="288.232" rx="20" transform="matrix(0.866044 0.499967 -0.866044 0.499967 258 231.697)" fill="url(#paint1_linear_15_360886)"/>
<g filter="url(#filter1_f_15_360886)">
<path opacity="0.3" d="M152.896 268.104C210.943 234.594 305.057 234.594 363.104 268.104L258 328.781L152.896 268.104Z" fill="#EE46BC"/>
<path opacity="0.3" d="M363.104 268.106C421.151 301.616 421.151 355.948 363.104 389.459L258 328.782L363.104 268.106Z" fill="#EF6820"/>
<path opacity="0.3" d="M152.896 268.106L258 328.782L152.896 389.459C94.8493 355.948 94.8493 301.616 152.896 268.106Z" fill="#2E90FA"/>
<path opacity="0.3" d="M258 328.78L363.104 389.457C305.057 422.967 210.943 422.967 152.896 389.457L258 328.78Z" fill="#12B76A"/>
</g>
<rect width="68.7711" height="48.5443" rx="6.06804" transform="matrix(0.866044 0.499967 -0.866044 0.499967 406.46 532.803)" fill="white" fill-opacity="0.1"/>
<path opacity="0.5" fill-rule="evenodd" clip-rule="evenodd" d="M411.972 573.26C418.532 577.048 429.105 577.084 435.587 573.342C442.068 569.6 442.005 563.497 435.445 559.709C432.505 558.012 428.76 557.068 424.938 556.88C424.611 554.674 422.976 552.512 420.037 550.816C413.477 547.028 402.904 546.992 396.423 550.734C389.941 554.476 390.004 560.579 396.564 564.367C399.504 566.064 403.249 567.008 407.071 567.196C407.398 569.402 409.033 571.564 411.972 573.26Z" fill="white"/>
<path opacity="0.5" fill-rule="evenodd" clip-rule="evenodd" d="M407.071 567.194C411.778 567.426 416.601 566.512 420.178 564.446C423.755 562.382 425.338 559.599 424.938 556.882C428.76 557.07 432.506 558.014 435.446 559.711C442.006 563.498 442.069 569.602 435.587 573.344C429.105 577.086 418.533 577.05 411.972 573.262C409.032 571.565 407.396 569.401 407.071 567.194Z" fill="white"/>
<path fill-rule="evenodd" clip-rule="evenodd" d="M407.072 567.196C411.779 567.428 416.601 566.513 420.178 564.448C423.754 562.384 425.338 559.6 424.938 556.884C420.231 556.652 415.409 557.567 411.832 559.632C408.256 561.696 406.672 564.479 407.072 567.196Z" fill="white"/>
<path d="M60.9157 374.489L73.6332 367.147L69.0507 366.504L71.4996 365.09L76.0506 365.751L78.2893 367.044L63.1544 375.781L60.9157 374.489ZM69.8889 379.657L71.8543 378.534L84.3512 378.929C85.3532 378.965 86.1625 378.915 86.7791 378.777C87.4027 378.644 87.9282 378.453 88.3556 378.207C88.8952 377.895 89.2595 377.547 89.4487 377.163C89.6449 376.775 89.6589 376.386 89.4907 375.998C89.3226 375.61 88.9652 375.258 88.4187 374.942C87.8581 374.619 87.224 374.406 86.5163 374.305C85.8226 374.204 85.1359 374.208 84.4563 374.317C83.7766 374.427 83.188 374.629 82.6905 374.924L80.4413 373.626C81.4223 373.059 82.5013 372.691 83.6785 372.521C84.8697 372.351 86.0609 372.372 87.252 372.582C88.4502 372.788 89.5503 373.181 90.5523 373.759C91.5052 374.309 92.1429 374.928 92.4652 375.616C92.7945 376.299 92.8015 376.983 92.4862 377.667C92.1779 378.354 91.5438 378.975 90.5838 379.529C89.8901 379.93 89.2105 380.217 88.5448 380.391C87.8791 380.565 87.1574 380.666 86.3797 380.694C85.6019 380.723 84.698 380.719 83.668 380.682L74.0405 380.367L74.4294 379.863L82.2176 384.359L80.126 385.567L69.8889 379.657ZM89.7412 391.457C88.9914 391.025 88.4274 390.537 88.049 389.995C87.6776 389.449 87.513 388.885 87.555 388.302C87.6041 387.724 87.8773 387.166 88.3748 386.628L91.0865 387.513C90.6381 388.007 90.4909 388.5 90.6451 388.994C90.8062 389.483 91.1986 389.904 91.8222 390.256C92.3828 390.572 92.9994 390.778 93.6721 390.875C94.3447 390.972 95.0139 390.966 95.6795 390.857C96.3522 390.743 96.9688 390.525 97.5294 390.201C98.3702 389.716 98.8011 389.164 98.8221 388.545C98.8502 387.93 98.4438 387.38 97.6029 386.895C97.3647 386.757 97.0844 386.636 96.7621 386.53C96.4468 386.429 96.1245 386.348 95.7952 386.288L96.4994 384.692L106.558 385.05L106.158 385.548L98.8011 381.3L100.893 380.093L109.995 385.347L107.903 386.555L99.2005 386.458L99.8942 386.033C100.847 386.583 101.46 387.184 101.734 387.835C102.014 388.482 101.979 389.125 101.628 389.765C101.292 390.404 100.675 390.982 99.7786 391.5C98.8116 392.058 97.7256 392.422 96.5204 392.592C95.3222 392.766 94.1275 392.756 92.9363 392.562C91.7522 392.372 90.6871 392.004 89.7412 391.457ZM107.383 401.314L110.021 399.792L103.19 395.848L105.271 394.646L120.605 391.473L123.117 392.923L107.783 396.096L112.102 398.59L116.201 396.224L118.43 397.51L114.331 399.876L115.834 400.744L113.752 401.946L112.249 401.078L109.611 402.601L107.383 401.314ZM126.79 412.518L139.508 405.176L134.925 404.533L137.374 403.119L141.925 403.781L144.164 405.073L129.029 413.811L126.79 412.518ZM135.763 417.686L137.729 416.564L150.226 416.958C151.228 416.995 152.037 416.944 152.654 416.807C153.277 416.673 153.803 416.483 154.23 416.236C154.77 415.925 155.134 415.577 155.323 415.193C155.52 414.804 155.534 414.416 155.365 414.028C155.197 413.639 154.84 413.287 154.293 412.972C153.733 412.648 153.099 412.436 152.391 412.335C151.697 412.234 151.011 412.238 150.331 412.347C149.651 412.456 149.063 412.658 148.565 412.954L146.316 411.655C147.297 411.089 148.376 410.721 149.553 410.551C150.744 410.381 151.935 410.401 153.127 410.611C154.325 410.818 155.425 411.21 156.427 411.789C157.38 412.339 158.017 412.958 158.34 413.645C158.669 414.329 158.676 415.013 158.361 415.696C158.053 416.384 157.418 417.005 156.458 417.559C155.765 417.959 155.085 418.247 154.419 418.42C153.754 418.594 153.032 418.696 152.254 418.724C151.477 418.752 150.573 418.748 149.543 418.712L139.915 418.396L140.304 417.893L148.092 422.389L146.001 423.596L135.763 417.686ZM155.616 429.487C154.866 429.054 154.302 428.567 153.924 428.025C153.552 427.478 153.388 426.914 153.43 426.332C153.479 425.753 153.752 425.195 154.249 424.657L156.961 425.543C156.513 426.036 156.366 426.53 156.52 427.023C156.681 427.513 157.073 427.934 157.697 428.285C158.257 428.601 158.874 428.807 159.547 428.904C160.219 429.001 160.889 428.995 161.554 428.886C162.227 428.773 162.843 428.554 163.404 428.231C164.245 427.745 164.676 427.193 164.697 426.574C164.725 425.96 164.318 425.409 163.478 424.924C163.239 424.786 162.959 424.665 162.637 424.56C162.321 424.459 161.999 424.378 161.67 424.317L162.374 422.721L172.432 423.079L172.033 423.577L164.676 419.33L166.767 418.122L175.869 423.377L173.778 424.584L165.075 424.487L165.769 424.062C166.722 424.612 167.335 425.213 167.608 425.864C167.888 426.512 167.853 427.155 167.503 427.794C167.167 428.433 166.55 429.012 165.653 429.529C164.686 430.088 163.6 430.452 162.395 430.621C161.197 430.795 160.002 430.785 158.811 430.591C157.627 430.401 156.562 430.033 155.616 429.487ZM173.258 439.344L175.896 437.821L169.064 433.877L171.145 432.676L186.48 429.502L188.992 430.952L173.657 434.126L177.977 436.62L182.076 434.253L184.304 435.539L180.205 437.906L181.708 438.774L179.627 439.975L178.124 439.107L175.486 440.63L173.258 439.344ZM192.665 450.548L205.382 443.206L200.8 442.563L203.249 441.149L207.8 441.81L210.039 443.103L194.904 451.84L192.665 450.548ZM201.638 455.716L203.604 454.593L216.1 454.988C217.102 455.024 217.912 454.973 218.528 454.836C219.152 454.702 219.677 454.512 220.105 454.266C220.644 453.954 221.009 453.606 221.198 453.222C221.394 452.834 221.408 452.445 221.24 452.057C221.072 451.669 220.714 451.317 220.168 451.001C219.607 450.678 218.973 450.465 218.266 450.364C217.572 450.263 216.885 450.267 216.205 450.376C215.526 450.485 214.937 450.688 214.44 450.983L212.191 449.684C213.171 449.118 214.251 448.75 215.428 448.58C216.619 448.41 217.81 448.431 219.001 448.641C220.199 448.847 221.3 449.24 222.302 449.818C223.254 450.368 223.892 450.987 224.214 451.675C224.544 452.358 224.551 453.042 224.235 453.726C223.927 454.413 223.293 455.034 222.333 455.588C221.639 455.989 220.96 456.276 220.294 456.45C219.628 456.624 218.907 456.725 218.129 456.753C217.351 456.782 216.447 456.778 215.417 456.741L205.79 456.426L206.179 455.922L213.967 460.418L211.875 461.626L201.638 455.716ZM221.49 467.516C220.741 467.083 220.177 466.596 219.798 466.054C219.427 465.508 219.262 464.944 219.304 464.361C219.353 463.783 219.627 463.224 220.124 462.686L222.836 463.572C222.387 464.066 222.24 464.559 222.394 465.053C222.555 465.542 222.948 465.963 223.571 466.315C224.132 466.63 224.749 466.837 225.421 466.934C226.094 467.031 226.763 467.025 227.429 466.916C228.101 466.802 228.718 466.584 229.279 466.26C230.119 465.775 230.55 465.223 230.571 464.604C230.599 463.989 230.193 463.439 229.352 462.953C229.114 462.816 228.834 462.694 228.511 462.589C228.196 462.488 227.874 462.407 227.544 462.347L228.249 460.751L238.307 461.109L237.908 461.606L230.55 457.359L232.642 456.152L241.744 461.406L239.652 462.614L230.95 462.517L231.643 462.092C232.596 462.642 233.209 463.243 233.483 463.894C233.763 464.541 233.728 465.184 233.378 465.823C233.041 466.462 232.425 467.041 231.528 467.559C230.561 468.117 229.475 468.481 228.27 468.651C227.071 468.825 225.877 468.815 224.686 468.621C223.501 468.43 222.436 468.062 221.49 467.516ZM239.132 477.373L241.771 475.85L234.939 471.906L237.02 470.705L252.354 467.532L254.866 468.982L239.532 472.155L243.852 474.649L247.951 472.283L250.179 473.569L246.08 475.935L247.583 476.803L245.502 478.004L243.999 477.137L241.361 478.66L239.132 477.373ZM258.539 488.577L271.257 481.235L266.675 480.592L269.123 479.178L273.674 479.84L275.913 481.132L260.778 489.869L258.539 488.577ZM267.513 493.745L269.478 492.623L281.975 493.017C282.977 493.053 283.786 493.003 284.403 492.865C285.027 492.732 285.552 492.542 285.979 492.295C286.519 491.983 286.883 491.636 287.073 491.251C287.269 490.863 287.283 490.475 287.115 490.086C286.946 489.698 286.589 489.346 286.043 489.031C285.482 488.707 284.848 488.495 284.14 488.393C283.446 488.292 282.76 488.296 282.08 488.406C281.4 488.515 280.812 488.717 280.314 489.012L278.065 487.714C279.046 487.148 280.125 486.779 281.302 486.61C282.494 486.44 283.685 486.46 284.876 486.67C286.074 486.877 287.174 487.269 288.176 487.847C289.129 488.398 289.767 489.016 290.089 489.704C290.418 490.388 290.425 491.071 290.11 491.755C289.802 492.443 289.168 493.064 288.208 493.618C287.514 494.018 286.834 494.305 286.169 494.479C285.503 494.653 284.781 494.754 284.003 494.783C283.226 494.811 282.322 494.807 281.292 494.771L271.664 494.455L272.053 493.951L279.841 498.448L277.75 499.655L267.513 493.745ZM287.365 505.546C286.615 505.113 286.051 504.625 285.673 504.083C285.301 503.537 285.137 502.973 285.179 502.39C285.228 501.812 285.501 501.254 285.999 500.716L288.71 501.602C288.262 502.095 288.115 502.589 288.269 503.082C288.43 503.572 288.822 503.992 289.446 504.344C290.007 504.66 290.623 504.866 291.296 504.963C291.969 505.06 292.638 505.054 293.303 504.945C293.976 504.832 294.593 504.613 295.153 504.29C295.994 503.804 296.425 503.252 296.446 502.633C296.474 502.018 296.068 501.468 295.227 500.983C294.989 500.845 294.708 500.724 294.386 500.619C294.071 500.518 293.748 500.437 293.419 500.376L294.123 498.78L304.182 499.138L303.782 499.636L296.425 495.388L298.517 494.181L307.619 499.436L305.527 500.643L296.824 500.546L297.518 500.121C298.471 500.671 299.084 501.272 299.357 501.923C299.638 502.57 299.603 503.214 299.252 503.853C298.916 504.492 298.299 505.07 297.402 505.588C296.435 506.146 295.349 506.51 294.144 506.68C292.946 506.854 291.751 506.844 290.56 506.65C289.376 506.46 288.311 506.092 287.365 505.546ZM305.007 515.403L307.645 513.88L300.813 509.936L302.894 508.734L318.229 505.561L320.741 507.011L305.406 510.185L309.726 512.678L313.825 510.312L316.053 511.598L311.954 513.965L313.457 514.832L311.376 516.034L309.873 515.166L307.235 516.689L305.007 515.403Z" fill="white"/>
<path d="M95.5032 351.052L106.854 344.499L111.442 347.148C111.553 347.212 111.684 347.294 111.836 347.394C111.994 347.491 112.133 347.589 112.254 347.69C112.785 348.111 113.095 348.539 113.184 348.973C113.279 349.41 113.179 349.834 112.885 350.247C112.59 350.66 112.139 351.042 111.529 351.394C110.914 351.749 110.249 352.011 109.535 352.181C108.82 352.351 108.084 352.409 107.327 352.354C106.576 352.302 105.835 352.123 105.104 351.817C104.936 351.744 104.763 351.662 104.584 351.571C104.411 351.483 104.272 351.409 104.166 351.348L101.226 349.651L97.1507 352.004L95.5032 351.052ZM102.787 348.75L105.664 350.411C105.769 350.472 105.89 350.535 106.027 350.602C106.169 350.672 106.311 350.732 106.452 350.784C106.868 350.933 107.283 351.005 107.698 351.002C108.118 350.996 108.512 350.939 108.88 350.83C109.248 350.72 109.571 350.585 109.85 350.424C110.128 350.264 110.36 350.079 110.544 349.869C110.733 349.657 110.83 349.431 110.835 349.191C110.846 348.949 110.722 348.707 110.465 348.468C110.381 348.383 110.278 348.299 110.157 348.217C110.042 348.139 109.931 348.069 109.826 348.008L106.949 346.347L102.787 348.75ZM106.176 357.214L117.527 350.661L119.175 351.612L114.279 354.438L119.955 357.714L124.85 354.888L126.505 355.844L115.154 362.397L113.499 361.441L118.402 358.611L112.726 355.334L107.823 358.165L106.176 357.214ZM122.658 367.002C121.523 366.347 120.803 365.646 120.498 364.9C120.199 364.15 120.28 363.396 120.743 362.638C121.21 361.882 122.03 361.166 123.202 360.49C124.374 359.813 125.614 359.34 126.923 359.07C128.236 358.803 129.54 358.758 130.833 358.934C132.131 359.107 133.347 359.521 134.482 360.176C135.612 360.828 136.327 361.529 136.626 362.278C136.936 363.028 136.858 363.78 136.39 364.536C135.922 365.291 135.102 366.007 133.93 366.683C132.759 367.36 131.518 367.833 130.21 368.103C128.901 368.373 127.595 368.42 126.292 368.244C124.999 368.068 123.788 367.654 122.658 367.002ZM124.227 366.096C125.02 366.567 125.864 366.85 126.757 366.947C127.661 367.045 128.573 366.982 129.492 366.761C130.417 366.536 131.313 366.174 132.18 365.673C133.048 365.173 133.67 364.658 134.049 364.131C134.432 363.6 134.537 363.075 134.364 362.556C134.196 362.04 133.712 361.549 132.914 361.082C132.12 360.611 131.274 360.326 130.375 360.226C129.482 360.129 128.573 360.193 127.648 360.417C126.723 360.642 125.824 361.003 124.952 361.5C124.08 361.998 123.452 362.512 123.068 363.043C122.69 363.571 122.587 364.094 122.761 364.613C122.939 365.135 123.428 365.629 124.227 366.096ZM130.615 371.323L141.967 364.77L149.219 368.956L147.666 369.853L142.061 366.617L138.877 368.456L143.535 371.145L141.982 372.042L137.324 369.352L133.816 371.377L139.421 374.613L137.868 375.509L130.615 371.323ZM140.549 377.057L151.9 370.504L153.571 371.469L150.726 379.565L159.16 374.696L160.831 375.66L149.48 382.213L147.809 381.249L150.663 373.148L142.22 378.022L140.549 377.057ZM152.626 384.03L163.978 377.477L165.625 378.428L154.274 384.981L152.626 384.03ZM156.483 386.256L166.1 385.173L167.937 379.762L169.955 380.927L168.512 384.955L175.473 384.113L177.499 385.282L168.126 386.343L166.242 391.89L164.224 390.725L165.714 386.57L158.509 387.426L156.483 386.256ZM172.231 395.347L183.582 388.794L188.044 391.37C188.764 391.786 189.221 392.22 189.416 392.672C189.61 393.124 189.597 393.556 189.376 393.969C189.161 394.378 188.795 394.732 188.28 395.029C187.655 395.39 186.964 395.61 186.207 395.689C185.456 395.771 184.738 395.708 184.055 395.502L184.426 395.27C184.972 395.792 185.18 396.315 185.048 396.84C184.922 397.362 184.515 397.822 183.827 398.219C183.159 398.604 182.445 398.862 181.683 398.993C180.926 399.126 180.153 399.126 179.365 398.993C178.587 398.859 177.838 398.585 177.118 398.169L172.231 395.347ZM175.471 395.407L178.435 397.118C178.808 397.333 179.213 397.485 179.649 397.573C180.09 397.664 180.526 397.682 180.957 397.627C181.399 397.573 181.803 397.439 182.171 397.227C182.513 397.03 182.744 396.808 182.865 396.563C182.996 396.317 182.999 396.066 182.873 395.812C182.757 395.557 182.51 395.32 182.132 395.102L179.065 393.331L175.471 395.407ZM180.618 392.435L183.385 394.032C183.69 394.208 184.024 394.331 184.386 394.401C184.759 394.471 185.133 394.48 185.506 394.428C185.889 394.377 186.247 394.255 186.578 394.064C187.019 393.809 187.235 393.515 187.224 393.181C187.214 392.848 186.961 392.538 186.467 392.253L183.701 390.656L180.618 392.435ZM182.085 401.036L197.125 396.613L199.498 397.982L191.836 406.665L190.125 405.678L197.085 397.737L197.511 397.982L183.795 402.023L182.085 401.036ZM186.562 400.663L188.107 399.771L194.035 403.193L192.49 404.085L186.562 400.663ZM194.038 407.937L205.389 401.384L207.037 402.335L201.74 405.393L211.79 405.079L213.84 406.262L203.277 406.562L202.859 413.029L200.746 411.809L201.109 405.757L195.686 408.888L194.038 407.937ZM204.757 414.125L216.108 407.572L223.36 411.758L221.807 412.655L216.203 409.419L213.018 411.258L217.677 413.947L216.124 414.844L211.465 412.154L207.957 414.179L213.562 417.415L212.009 418.311L204.757 414.125ZM214.69 419.859L226.042 413.306L230.629 415.955C230.74 416.018 230.871 416.1 231.023 416.2C231.181 416.297 231.32 416.396 231.441 416.496C231.972 416.918 232.282 417.346 232.371 417.78C232.466 418.216 232.366 418.641 232.072 419.054C231.778 419.466 231.326 419.849 230.716 420.201C229.812 420.722 228.801 421.039 227.681 421.152C226.567 421.261 225.466 421.095 224.378 420.656L223.629 420.314L220.413 418.458L216.338 420.81L214.69 419.859ZM221.328 423.691L223.708 419.732L225.797 420.446L223.212 424.779L221.328 423.691ZM221.974 417.557L224.851 419.218C224.956 419.278 225.077 419.342 225.214 419.409C225.356 419.478 225.498 419.539 225.64 419.591C226.055 419.739 226.47 419.812 226.885 419.809C227.305 419.803 227.7 419.745 228.067 419.636C228.435 419.527 228.758 419.392 229.037 419.231C229.316 419.07 229.547 418.885 229.731 418.676C229.92 418.464 230.017 418.238 230.022 417.998C230.033 417.755 229.909 417.514 229.652 417.274C229.568 417.189 229.465 417.106 229.344 417.024C229.229 416.945 229.118 416.875 229.013 416.815L226.136 415.154L221.974 417.557Z" fill="white"/>
<path d="M304.58 472.025C303.808 471.579 303.293 471.087 303.035 470.55C302.783 470.01 302.783 469.47 303.035 468.93C303.293 468.393 303.808 467.902 304.58 467.456L308.49 465.199C309.263 464.753 310.114 464.455 311.044 464.307C311.98 464.161 312.912 464.163 313.843 464.311C314.778 464.457 315.632 464.753 316.404 465.199C317.177 465.645 317.689 466.138 317.942 466.678C318.199 467.215 318.199 467.752 317.942 468.289C317.689 468.829 317.177 469.322 316.405 469.768L312.495 472.025C311.722 472.471 310.868 472.767 309.933 472.912C309.003 473.061 308.07 473.062 307.134 472.917C306.204 472.768 305.353 472.471 304.58 472.025ZM306.157 471.115C306.577 471.357 307.058 471.52 307.599 471.602C308.151 471.683 308.7 471.685 309.247 471.606C309.799 471.524 310.287 471.36 310.713 471.115L314.844 468.73C315.264 468.487 315.543 468.208 315.679 467.893C315.821 467.574 315.819 467.257 315.671 466.942C315.535 466.626 315.256 466.347 314.836 466.104C314.415 465.862 313.929 465.699 313.378 465.617C312.836 465.535 312.29 465.535 311.738 465.617C311.191 465.696 310.708 465.857 310.287 466.1L306.157 468.484C305.731 468.73 305.447 469.012 305.306 469.331C305.169 469.646 305.169 469.962 305.306 470.277C305.453 470.593 305.736 470.872 306.157 471.115ZM315.429 478.287C314.693 477.863 314.204 477.38 313.962 476.84C313.726 476.297 313.739 475.75 314.002 475.198C314.27 474.648 314.793 474.149 315.571 473.7L319.189 471.612C320.014 471.135 320.91 470.815 321.877 470.651C322.849 470.491 323.813 470.486 324.77 470.638C325.731 470.792 326.612 471.1 327.41 471.561C328.01 471.907 328.459 472.297 328.758 472.731C329.058 473.165 329.176 473.621 329.113 474.101L326.78 474.055C326.843 473.77 326.793 473.486 326.63 473.204C326.478 472.922 326.218 472.675 325.85 472.463C325.377 472.189 324.849 472.015 324.265 471.939C323.687 471.86 323.114 471.866 322.547 471.957C321.984 472.051 321.496 472.218 321.081 472.458L319 473.659L319.039 473.263C319.79 473.206 320.531 473.245 321.262 473.382C321.992 473.518 322.634 473.746 323.185 474.064C323.889 474.471 324.352 474.929 324.573 475.439C324.804 475.948 324.796 476.457 324.549 476.963C324.307 477.473 323.834 477.931 323.13 478.338C322.421 478.747 321.598 479.016 320.663 479.143C319.738 479.27 318.808 479.261 317.872 479.116C316.947 478.97 316.133 478.694 315.429 478.287ZM317.013 477.373C317.423 477.609 317.896 477.767 318.432 477.846C318.968 477.925 319.504 477.925 320.04 477.846C320.576 477.767 321.049 477.609 321.459 477.373C321.869 477.136 322.142 476.863 322.279 476.554C322.421 476.247 322.423 475.939 322.287 475.63C322.15 475.32 321.877 475.047 321.467 474.811C321.057 474.574 320.581 474.415 320.04 474.333C319.504 474.254 318.968 474.254 318.432 474.333C317.896 474.412 317.423 474.57 317.013 474.806C316.608 475.04 316.338 475.311 316.201 475.621C316.065 475.93 316.062 476.241 316.193 476.554C316.33 476.863 316.603 477.136 317.013 477.373ZM336.564 477.11L338.227 478.07L323.849 482.875L322.186 481.915L336.564 477.11ZM329.414 486.079L330.888 485.237L340.26 485.533C341.012 485.56 341.619 485.522 342.081 485.419C342.549 485.319 342.943 485.176 343.264 484.991C343.668 484.758 343.942 484.497 344.084 484.209C344.231 483.917 344.241 483.626 344.115 483.335C343.989 483.044 343.721 482.78 343.311 482.543C342.891 482.3 342.415 482.141 341.884 482.065C341.364 481.989 340.849 481.992 340.339 482.074C339.829 482.156 339.388 482.308 339.015 482.529L337.328 481.555C338.064 481.131 338.873 480.855 339.756 480.727C340.649 480.6 341.543 480.615 342.436 480.773C343.335 480.927 344.16 481.222 344.911 481.656C345.626 482.068 346.104 482.532 346.346 483.048C346.593 483.561 346.598 484.074 346.362 484.586C346.13 485.102 345.655 485.568 344.935 485.983C344.415 486.284 343.905 486.499 343.406 486.63C342.906 486.76 342.365 486.836 341.782 486.857C341.198 486.878 340.521 486.875 339.748 486.848L332.527 486.611L332.819 486.234L338.66 489.606L337.092 490.511L329.414 486.079ZM344.263 494.66L346.242 493.518L341.118 490.56L342.679 489.659L354.18 487.279L356.064 488.367L344.563 490.747L347.802 492.617L350.877 490.842L352.548 491.807L349.474 493.582L350.601 494.233L349.04 495.134L347.913 494.483L345.934 495.625L344.263 494.66Z" fill="white"/>
<path d="M264.514 271.142L267.283 272.741L257.295 278.507C256.2 279.139 254.979 279.545 253.63 279.726C252.286 279.91 250.915 279.868 249.517 279.601C248.124 279.331 246.805 278.837 245.561 278.119C244.312 277.398 243.453 276.635 242.985 275.831C242.523 275.023 242.45 274.232 242.769 273.456C243.087 272.68 243.794 271.977 244.889 271.344L254.877 265.579L257.646 267.177L247.89 272.81C247.253 273.177 246.825 273.585 246.606 274.034C246.392 274.485 246.399 274.94 246.628 275.4C246.862 275.856 247.33 276.287 248.032 276.692C248.733 277.098 249.48 277.368 250.271 277.503C251.072 277.638 251.861 277.642 252.637 277.516C253.414 277.389 254.12 277.142 254.757 276.774L264.514 271.142ZM264.307 280.917L257.588 284.795L254.886 283.235L266.352 276.616L268.935 278.107L266.986 279.232L267.121 279.309C268.026 279.091 268.957 279.039 269.913 279.154C270.873 279.272 271.781 279.578 272.637 280.072C273.428 280.529 273.949 281.024 274.197 281.559C274.451 282.096 274.419 282.643 274.1 283.201C273.787 283.761 273.17 284.304 272.249 284.83L264.949 289.044L262.246 287.484L269.129 283.511C269.895 283.069 270.296 282.607 270.331 282.128C270.37 281.651 270.042 281.211 269.345 280.809C268.872 280.536 268.347 280.354 267.77 280.262C267.203 280.17 266.621 280.176 266.023 280.279C265.431 280.385 264.859 280.598 264.307 280.917ZM284.887 287.316L282.797 288.523L276.205 284.718L278.295 283.511L284.887 287.316ZM282.67 282.865L285.372 284.425L274.608 290.639C274.245 290.849 274.021 291.041 273.936 291.216C273.861 291.391 273.881 291.552 273.996 291.699C274.11 291.845 274.279 291.983 274.503 292.113C274.673 292.21 274.839 292.292 275.004 292.358C275.173 292.427 275.305 292.477 275.399 292.509L273.742 293.991C273.548 293.937 273.287 293.849 272.958 293.729C272.635 293.611 272.276 293.444 271.883 293.229C271.187 292.849 270.679 292.439 270.36 291.996C270.047 291.551 269.97 291.098 270.129 290.639C270.293 290.182 270.736 289.748 271.458 289.337L282.67 282.865ZM275.681 295.24L287.147 288.621L289.849 290.181L278.383 296.8L275.681 295.24ZM290.133 288.466C289.705 288.219 289.478 287.924 289.453 287.582C289.434 287.238 289.625 286.949 290.028 286.716C290.436 286.481 290.936 286.37 291.529 286.384C292.126 286.396 292.638 286.525 293.066 286.772C293.499 287.022 293.723 287.318 293.738 287.66C293.763 288.002 293.571 288.291 293.163 288.526C292.76 288.759 292.26 288.869 291.663 288.858C291.076 288.846 290.566 288.716 290.133 288.466ZM298.353 295.09L296.263 296.297L289.672 292.492L291.762 291.285L298.353 295.09ZM296.136 290.639L298.839 292.199L288.074 298.413C287.711 298.623 287.487 298.815 287.402 298.99C287.328 299.166 287.348 299.327 287.462 299.473C287.577 299.62 287.746 299.757 287.97 299.887C288.139 299.984 288.306 300.066 288.47 300.132C288.639 300.201 288.771 300.252 288.866 300.283L287.208 301.766C287.014 301.711 286.753 301.623 286.425 301.503C286.101 301.385 285.743 301.218 285.35 301.003C284.653 300.624 284.145 300.213 283.827 299.77C283.513 299.325 283.436 298.873 283.595 298.413C283.76 297.956 284.203 297.522 284.924 297.111L296.136 290.639ZM307.384 295.891L292.096 304.717L289.394 303.157L304.682 294.331L307.384 295.891ZM299.727 309.38C298.577 308.717 297.823 308.006 297.465 307.247C297.117 306.489 297.159 305.726 297.592 304.959C298.03 304.189 298.848 303.458 300.048 302.765C301.227 302.085 302.486 301.616 303.825 301.361C305.174 301.105 306.502 301.068 307.811 301.249C309.125 301.427 310.329 301.832 311.424 302.464C312.131 302.872 312.683 303.323 313.081 303.817C313.489 304.311 313.698 304.834 313.708 305.386C313.723 305.94 313.504 306.509 313.051 307.092C312.604 307.672 311.877 308.253 310.872 308.833L310.043 309.311L300.645 303.886L302.466 302.834L309.274 306.765C309.787 306.463 310.135 306.133 310.319 305.773C310.508 305.411 310.523 305.049 310.364 304.687C310.21 304.328 309.874 303.999 309.356 303.701C308.804 303.382 308.184 303.179 307.498 303.093C306.816 303.004 306.142 303.017 305.475 303.132C304.818 303.247 304.231 303.451 303.713 303.744L302.123 304.662C301.456 305.047 301.006 305.447 300.772 305.864C300.543 306.278 300.521 306.684 300.705 307.083C300.894 307.48 301.282 307.848 301.869 308.187C302.262 308.414 302.673 308.587 303.101 308.708C303.534 308.826 303.977 308.889 304.43 308.898C304.882 308.906 305.33 308.852 305.773 308.734L308.013 310.354C307.187 310.647 306.301 310.808 305.355 310.837C304.42 310.866 303.469 310.759 302.504 310.518C301.543 310.274 300.618 309.895 299.727 309.38ZM311.389 316.087C310.488 315.567 309.913 314.968 309.664 314.29C309.415 313.612 309.525 312.899 309.993 312.152C310.461 311.405 311.324 310.669 312.583 309.942C313.857 309.206 315.141 308.706 316.435 308.442C317.739 308.178 318.973 308.123 320.137 308.278C321.307 308.431 322.332 308.761 323.213 309.269C323.885 309.657 324.323 310.042 324.527 310.424C324.736 310.804 324.808 311.158 324.743 311.489C324.683 311.816 324.584 312.101 324.444 312.342L324.556 312.407L330.274 309.106L332.984 310.67L317.696 319.496L315.039 317.961L316.845 316.919L316.681 316.824C316.263 316.904 315.765 316.959 315.188 316.988C314.616 317.013 314.004 316.965 313.352 316.841C312.7 316.717 312.046 316.466 311.389 316.087ZM314.36 315.242C314.932 315.573 315.574 315.765 316.286 315.82C317.002 315.871 317.744 315.797 318.51 315.596C319.276 315.395 320.03 315.08 320.772 314.652C321.513 314.224 322.053 313.791 322.392 313.355C322.735 312.921 322.857 312.5 322.757 312.092C322.663 311.687 322.324 311.316 321.742 310.98C321.14 310.633 320.481 310.433 319.764 310.381C319.047 310.33 318.311 310.404 317.555 310.605C316.798 310.806 316.064 311.112 315.352 311.523C314.636 311.937 314.098 312.365 313.74 312.807C313.392 313.25 313.257 313.681 313.337 314.1C313.427 314.52 313.767 314.9 314.36 315.242ZM322.076 322.214C321.623 321.952 321.395 321.636 321.39 321.266C321.385 320.895 321.613 320.579 322.076 320.318C322.519 320.056 323.062 319.927 323.704 319.93C324.346 319.933 324.893 320.065 325.346 320.326C325.784 320.579 326.005 320.891 326.01 321.261C326.02 321.635 325.804 321.952 325.361 322.214C325.052 322.386 324.696 322.5 324.293 322.554C323.895 322.612 323.497 322.612 323.099 322.554C322.711 322.497 322.37 322.383 322.076 322.214Z" fill="white"/>
<g clip-path="url(#clip1_15_360886)">
<path d="M612.213 468.474C610.404 472.371 606.85 475.925 601.908 478.777C596.967 481.63 590.811 483.682 584.06 484.726M602.923 466.686C601.512 469.726 598.74 472.498 594.885 474.723C591.03 476.948 586.229 478.548 580.963 479.363M594.167 464.914C593.121 467.127 591.088 469.148 588.271 470.774C585.454 472.401 581.953 473.575 578.12 474.178M585.186 463.273C584.671 464.73 583.447 466.051 581.656 467.086C579.864 468.12 577.576 468.826 575.051 469.124" stroke="white" stroke-width="3.90088" stroke-linecap="round"/>
</g>
</g>
<rect y="0.499967" width="478.375" height="287.232" rx="19.5" transform="matrix(0.866044 0.499967 -0.866044 0.499967 258.433 231.947)" stroke="url(#paint2_linear_15_360886)"/>
</g>
<g filter="url(#filter2_bd_15_360886)">
<g clip-path="url(#clip2_15_360886)">
<rect width="479.375" height="288.232" rx="20" transform="matrix(0.707107 0.707107 -0.965945 0.258746 310.492 120.812)" fill="url(#paint3_linear_15_360886)"/>
<g filter="url(#filter3_f_15_360886)">
<path opacity="0.3" d="M199.548 128.772C264.291 111.429 355.196 135.791 402.59 183.185L285.363 214.587L199.548 128.772Z" fill="#EE46BC"/>
<path opacity="0.3" d="M402.59 183.186C449.984 230.58 435.92 283.06 371.177 300.402L285.362 214.587L402.59 183.186Z" fill="#EF6820"/>
<path opacity="0.3" d="M199.548 128.771L285.363 214.586L168.135 245.988C120.741 198.594 134.805 146.114 199.548 128.771Z" fill="#2E90FA"/>
<path opacity="0.3" d="M285.362 214.586L371.177 300.401C306.434 317.744 215.529 293.382 168.134 245.988L285.362 214.586Z" fill="#12B76A"/>
</g>
<rect width="68.7711" height="48.5443" rx="6.06804" transform="matrix(0.707107 0.707107 -0.965945 0.258746 375.949 450.086)" fill="white" fill-opacity="0.1"/>
<path opacity="0.5" fill-rule="evenodd" clip-rule="evenodd" d="M370.801 490.594C376.157 495.95 386.36 498.722 393.59 496.785C400.82 494.849 402.338 488.937 396.982 483.581C394.582 481.18 391.208 479.299 387.564 478.128C387.82 475.912 386.801 473.4 384.4 471C379.044 465.644 368.842 462.872 361.612 464.808C354.382 466.745 352.864 472.657 358.22 478.013C360.62 480.413 363.994 482.295 367.638 483.466C367.382 485.682 368.401 488.193 370.801 490.594Z" fill="white"/>
<path opacity="0.5" fill-rule="evenodd" clip-rule="evenodd" d="M370.801 490.594C376.158 495.95 386.36 498.722 393.59 496.785C400.82 494.848 402.338 488.937 396.982 483.58C394.582 481.18 391.208 479.298 387.564 478.127C387.249 480.856 384.998 483.136 381.008 484.205C377.019 485.273 372.124 484.908 367.638 483.466C367.382 485.682 368.401 488.193 370.801 490.594Z" fill="white"/>
<path fill-rule="evenodd" clip-rule="evenodd" d="M367.638 483.466C367.954 480.737 370.204 478.457 374.194 477.389C378.184 476.32 383.078 476.685 387.564 478.127C387.249 480.856 384.998 483.135 381.008 484.204C377.019 485.273 372.124 484.908 367.638 483.466Z" fill="white"/>
<path d="M83.1636 207.72L97.3482 203.921L93.0884 202.113L95.8198 201.382L100.044 203.199L101.872 205.026L84.9915 209.548L83.1636 207.72ZM90.4932 215.035L92.6823 214.46L104.651 218.076C105.609 218.37 106.404 218.531 107.035 218.557C107.672 218.59 108.229 218.542 108.706 218.415C109.308 218.253 109.75 218.012 110.032 217.69C110.322 217.365 110.436 216.994 110.374 216.575C110.312 216.157 110.058 215.724 109.612 215.278C109.154 214.82 108.597 214.451 107.939 214.17C107.295 213.893 106.631 213.719 105.946 213.649C105.261 213.578 104.641 213.621 104.084 213.778L102.247 211.941C103.341 211.648 104.479 211.572 105.66 211.712C106.854 211.857 108 212.184 109.096 212.696C110.2 213.205 111.161 213.869 111.979 214.687C112.757 215.465 113.213 216.228 113.346 216.976C113.487 217.721 113.317 218.384 112.836 218.962C112.36 219.547 111.586 219.982 110.516 220.269C109.742 220.476 109.011 220.578 108.323 220.574C107.635 220.569 106.912 220.48 106.153 220.306C105.395 220.132 104.523 219.894 103.537 219.592L94.3196 216.796L94.8256 216.41L101.184 222.769L98.8516 223.394L90.4932 215.035ZM106.614 231.572C106.002 230.96 105.583 230.343 105.358 229.722C105.141 229.098 105.128 228.511 105.319 227.959C105.516 227.413 105.925 226.944 106.545 226.553L108.935 228.111C108.374 228.472 108.104 228.91 108.125 229.427C108.154 229.941 108.424 230.449 108.935 230.951C109.395 231.401 109.937 231.759 110.562 232.027C111.187 232.295 111.834 232.463 112.506 232.529C113.185 232.594 113.837 232.543 114.462 232.375C115.4 232.124 115.959 231.702 116.14 231.11C116.326 230.523 116.076 229.887 115.389 229.2C115.195 229.006 114.955 228.816 114.671 228.631C114.393 228.451 114.102 228.29 113.8 228.146L114.893 226.787L124.516 229.736L124.002 230.114L117.995 224.107L120.327 223.482L127.759 230.913L125.426 231.538L117.045 229.192L117.825 228.961C118.603 229.739 119.04 230.478 119.136 231.178C119.239 231.875 119.038 232.488 118.535 233.014C118.044 233.545 117.299 233.944 116.299 234.212C115.22 234.501 114.077 234.571 112.869 234.423C111.666 234.281 110.515 233.962 109.415 233.466C108.32 232.976 107.387 232.345 106.614 231.572ZM121.103 245.66L124.046 244.872L118.468 239.294L120.789 238.672L136.422 239.577L138.473 241.628L122.84 240.723L126.367 244.25L130.939 243.026L132.758 244.845L128.186 246.07L129.413 247.297L127.092 247.918L125.865 246.691L122.923 247.479L121.103 245.66ZM136.949 261.506L151.133 257.706L146.874 255.899L149.605 255.167L153.83 256.984L155.658 258.812L138.777 263.334L136.949 261.506ZM144.278 268.82L146.467 268.245L158.436 271.861C159.395 272.155 160.19 272.316 160.821 272.343C161.458 272.375 162.014 272.328 162.491 272.2C163.093 272.039 163.535 271.797 163.817 271.475C164.107 271.15 164.221 270.779 164.159 270.36C164.097 269.942 163.843 269.509 163.397 269.063C162.939 268.605 162.382 268.236 161.724 267.955C161.081 267.678 160.416 267.504 159.732 267.434C159.047 267.363 158.426 267.406 157.869 267.563L156.032 265.726C157.127 265.433 158.264 265.357 159.445 265.498C160.64 265.642 161.785 265.97 162.881 266.481C163.985 266.991 164.946 267.654 165.764 268.473C166.542 269.251 166.998 270.013 167.131 270.761C167.272 271.507 167.102 272.169 166.621 272.748C166.145 273.332 165.372 273.768 164.301 274.054C163.527 274.262 162.796 274.363 162.108 274.359C161.42 274.354 160.697 274.265 159.939 274.091C159.18 273.917 158.308 273.679 157.322 273.378L148.105 270.581L148.611 270.195L154.97 276.554L152.637 277.179L144.278 268.82ZM160.399 285.358C159.787 284.745 159.369 284.129 159.144 283.507C158.926 282.884 158.913 282.296 159.105 281.744C159.302 281.198 159.71 280.73 160.33 280.339L162.72 281.896C162.159 282.257 161.889 282.696 161.91 283.212C161.939 283.727 162.209 284.235 162.721 284.736C163.18 285.186 163.723 285.545 164.347 285.813C164.972 286.08 165.62 286.248 166.291 286.315C166.97 286.379 167.622 286.328 168.247 286.16C169.185 285.909 169.744 285.487 169.925 284.895C170.111 284.308 169.861 283.672 169.174 282.985C168.98 282.791 168.741 282.601 168.456 282.416C168.178 282.237 167.888 282.075 167.585 281.931L168.679 280.572L178.302 283.522L177.787 283.899L171.78 277.892L174.113 277.267L181.544 284.698L179.211 285.323L170.831 282.977L171.611 282.746C172.389 283.524 172.825 284.263 172.921 284.963C173.024 285.661 172.824 286.273 172.32 286.8C171.829 287.33 171.084 287.729 170.084 287.997C169.005 288.286 167.862 288.356 166.654 288.208C165.452 288.066 164.3 287.747 163.2 287.251C162.105 286.761 161.172 286.13 160.399 285.358ZM174.889 299.445L177.831 298.657L172.253 293.079L174.574 292.458L190.208 293.362L192.259 295.413L176.625 294.509L180.152 298.036L184.724 296.811L186.543 298.63L181.971 299.855L183.199 301.082L180.877 301.704L179.65 300.477L176.708 301.265L174.889 299.445ZM190.734 315.291L204.919 311.491L200.659 309.684L203.39 308.952L207.615 310.769L209.443 312.597L192.562 317.119L190.734 315.291ZM198.064 322.606L200.253 322.03L212.222 325.646C213.18 325.941 213.975 326.101 214.606 326.128C215.243 326.16 215.8 326.113 216.276 325.985C216.878 325.824 217.32 325.582 217.602 325.26C217.892 324.936 218.006 324.564 217.945 324.146C217.883 323.727 217.629 323.295 217.182 322.848C216.725 322.391 216.167 322.021 215.51 321.74C214.866 321.463 214.201 321.289 213.517 321.219C212.832 321.149 212.211 321.192 211.654 321.348L209.818 319.512C210.912 319.218 212.049 319.142 213.23 319.283C214.425 319.427 215.57 319.755 216.666 320.266C217.77 320.776 218.731 321.44 219.549 322.258C220.328 323.036 220.783 323.799 220.917 324.546C221.058 325.292 220.887 325.954 220.406 326.533C219.93 327.117 219.157 327.553 218.086 327.84C217.313 328.047 216.582 328.148 215.894 328.144C215.206 328.14 214.482 328.051 213.724 327.877C212.965 327.703 212.093 327.465 211.108 327.163L201.89 324.366L202.396 323.98L208.755 330.339L206.422 330.964L198.064 322.606ZM214.185 339.143C213.573 338.531 213.154 337.914 212.929 337.292C212.711 336.669 212.698 336.081 212.89 335.529C213.087 334.983 213.495 334.515 214.115 334.124L216.505 335.682C215.944 336.042 215.674 336.481 215.695 336.997C215.724 337.512 215.995 338.02 216.506 338.521C216.966 338.971 217.508 339.33 218.132 339.598C218.757 339.866 219.405 340.033 220.076 340.1C220.755 340.165 221.407 340.113 222.033 339.946C222.97 339.694 223.53 339.273 223.71 338.68C223.896 338.094 223.646 337.457 222.96 336.771C222.765 336.576 222.526 336.386 222.242 336.201C221.963 336.022 221.673 335.86 221.371 335.717L222.464 334.357L232.087 337.307L231.572 337.684L225.565 331.677L227.898 331.052L235.33 338.484L232.997 339.109L224.616 336.762L225.396 336.531C226.174 337.309 226.611 338.048 226.706 338.748C226.809 339.446 226.609 340.058 226.105 340.585C225.615 341.115 224.869 341.514 223.869 341.782C222.791 342.071 221.647 342.142 220.439 341.994C219.237 341.851 218.085 341.532 216.985 341.037C215.891 340.546 214.957 339.915 214.185 339.143ZM228.674 353.231L231.616 352.442L226.038 346.865L228.359 346.243L243.993 347.147L246.044 349.198L230.41 348.294L233.937 351.821L238.509 350.596L240.329 352.415L235.757 353.64L236.984 354.867L234.663 355.489L233.436 354.262L230.493 355.05L228.674 353.231ZM244.519 369.076L258.704 365.277L254.444 363.469L257.175 362.737L261.4 364.554L263.228 366.382L246.347 370.904L244.519 369.076ZM251.849 376.391L254.038 375.815L266.007 379.431C266.965 379.726 267.76 379.886 268.391 379.913C269.028 379.946 269.585 379.898 270.062 379.77C270.663 379.609 271.105 379.367 271.388 379.045C271.678 378.721 271.792 378.349 271.73 377.931C271.668 377.512 271.414 377.08 270.968 376.634C270.51 376.176 269.952 375.807 269.295 375.526C268.651 375.248 267.987 375.075 267.302 375.004C266.617 374.934 265.996 374.977 265.439 375.133L263.603 373.297C264.697 373.004 265.835 372.927 267.016 373.068C268.21 373.212 269.355 373.54 270.452 374.052C271.556 374.561 272.517 375.225 273.335 376.043C274.113 376.821 274.568 377.584 274.702 378.332C274.843 379.077 274.673 379.739 274.191 380.318C273.715 380.902 272.942 381.338 271.871 381.625C271.098 381.832 270.367 381.934 269.679 381.929C268.991 381.925 268.268 381.836 267.509 381.662C266.75 381.488 265.878 381.25 264.893 380.948L255.675 378.151L256.181 377.765L262.54 384.124L260.207 384.749L251.849 376.391ZM267.97 392.928C267.358 392.316 266.939 391.699 266.714 391.078C266.497 390.454 266.484 389.866 266.675 389.315C266.872 388.769 267.281 388.3 267.9 387.909L270.29 389.467C269.729 389.827 269.46 390.266 269.481 390.783C269.51 391.297 269.78 391.805 270.291 392.306C270.751 392.756 271.293 393.115 271.918 393.383C272.542 393.651 273.19 393.818 273.861 393.885C274.54 393.95 275.193 393.898 275.818 393.731C276.756 393.48 277.315 393.058 277.495 392.466C277.682 391.879 277.431 391.242 276.745 390.556C276.55 390.361 276.311 390.172 276.027 389.986C275.749 389.807 275.458 389.646 275.156 389.502L276.249 388.143L285.872 391.092L285.357 391.469L279.35 385.462L281.683 384.837L289.115 392.269L286.782 392.894L278.401 390.547L279.181 390.317C279.959 391.095 280.396 391.834 280.491 392.533C280.594 393.231 280.394 393.843 279.89 394.37C279.4 394.9 278.655 395.299 277.654 395.567C276.576 395.856 275.432 395.927 274.224 395.779C273.022 395.637 271.871 395.318 270.77 394.822C269.676 394.332 268.742 393.7 267.97 392.928ZM282.459 407.016L285.401 406.228L279.824 400.65L282.145 400.028L297.778 400.932L299.829 402.983L284.196 402.079L287.723 405.606L292.294 404.381L294.114 406.201L289.542 407.425L290.769 408.652L288.448 409.274L287.221 408.047L284.278 408.835L282.459 407.016Z" fill="white"/>
<path d="M126.243 197.975C125.316 197.048 124.802 196.185 124.701 195.385C124.606 194.584 124.88 193.876 125.523 193.264C126.17 192.655 127.147 192.176 128.454 191.825C129.761 191.475 131.082 191.339 132.416 191.417C133.754 191.499 135.024 191.793 136.228 192.297C137.437 192.8 138.505 193.515 139.431 194.442C140.354 195.365 140.863 196.227 140.958 197.028C141.064 197.832 140.793 198.538 140.146 199.147C139.498 199.755 138.521 200.235 137.214 200.585C135.907 200.935 134.586 201.071 133.253 200.993C131.919 200.915 130.645 200.623 129.432 200.115C128.229 199.611 127.166 198.897 126.243 197.975ZM127.993 197.506C128.638 198.166 129.379 198.658 130.217 198.983C131.065 199.311 131.961 199.487 132.907 199.511C133.859 199.533 134.818 199.415 135.785 199.156C136.752 198.897 137.487 198.562 137.989 198.15C138.497 197.736 138.734 197.256 138.701 196.71C138.672 196.169 138.332 195.569 137.682 194.911C137.037 194.251 136.294 193.757 135.451 193.427C134.614 193.102 133.719 192.928 132.768 192.906C131.816 192.883 130.855 192.999 129.883 193.254C128.912 193.509 128.172 193.843 127.664 194.257C127.162 194.669 126.927 195.148 126.961 195.694C126.998 196.244 127.342 196.848 127.993 197.506ZM132.94 204.337L145.6 200.945L146.945 202.291L136.017 205.218L140.213 209.414L138.481 209.878L132.94 204.337ZM140.346 211.743L153.007 208.352L154.352 209.697L141.691 213.089L140.346 211.743ZM146.443 217.84L156.092 211.437L157.488 212.833L149.251 218.296L162.657 218.002L164.053 219.398L148.381 219.778L146.443 217.84ZM153.136 224.533L165.796 221.141L167.141 222.486L154.481 225.878L153.136 224.533ZM156.413 227.811L172.086 227.431L174.023 229.369L164.375 235.772L162.978 234.375L171.757 228.507L172.105 228.854L157.81 229.207L156.413 227.811ZM160.835 228.609L162.558 228.148L167.398 232.987L165.675 233.449L160.835 228.609ZM169.394 240.791L182.054 237.4L185.8 241.145C185.89 241.235 185.996 241.349 186.117 241.485C186.245 241.619 186.354 241.751 186.444 241.879C186.848 242.423 187.037 242.917 187.011 243.359C186.989 243.805 186.783 244.19 186.391 244.512C186 244.835 185.465 245.087 184.785 245.269C183.777 245.539 182.718 245.583 181.607 245.402C180.503 245.219 179.482 244.774 178.545 244.068L177.91 243.544L175.285 240.918L170.739 242.136L169.394 240.791ZM174.813 246.21L178.137 243.002L179.97 244.233L176.351 247.748L174.813 246.21ZM177.025 240.452L179.375 242.801C179.46 242.887 179.561 242.98 179.675 243.08C179.794 243.184 179.916 243.279 180.039 243.366C180.402 243.617 180.784 243.795 181.186 243.899C181.593 244.002 181.989 244.049 182.373 244.038C182.756 244.028 183.103 243.981 183.414 243.898C183.725 243.815 183.996 243.696 184.228 243.541C184.466 243.385 184.618 243.192 184.685 242.962C184.758 242.73 184.701 242.465 184.515 242.167C184.455 242.063 184.378 241.956 184.282 241.846C184.191 241.74 184.103 241.644 184.017 241.558L181.668 239.209L177.025 240.452ZM178.409 249.807L191.07 246.415L192.415 247.76L186.955 249.223L191.589 253.857L197.049 252.394L198.401 253.746L185.74 257.137L184.389 255.786L189.857 254.321L185.223 249.687L179.755 251.152L178.409 249.807ZM190.425 261.822L195.656 260.421L199.951 255.297L201.522 256.867L198.449 260.538L206.014 261.359L207.585 262.93L197.021 261.785L191.79 263.187L190.425 261.822ZM196.466 267.863L209.126 264.471L215.048 270.393L213.316 270.857L208.74 266.281L205.188 267.232L208.991 271.036L207.259 271.5L203.455 267.696L199.543 268.744L204.119 273.32L202.387 273.784L196.466 267.863Z" fill="white"/>
<path d="M293.275 365.007C292.644 364.376 292.274 363.768 292.164 363.183C292.06 362.596 292.2 362.074 292.584 361.618C292.971 361.166 293.596 360.824 294.458 360.594L298.819 359.425C299.68 359.195 300.58 359.128 301.516 359.225C302.458 359.326 303.358 359.569 304.218 359.954C305.084 360.337 305.832 360.843 306.463 361.474C307.094 362.105 307.461 362.714 307.565 363.301C307.675 363.886 307.536 364.405 307.148 364.857C306.765 365.313 306.142 365.656 305.28 365.887L300.92 367.055C300.058 367.286 299.157 367.351 298.215 367.249C297.278 367.152 296.377 366.912 295.511 366.529C294.651 366.145 293.906 365.637 293.275 365.007ZM295.033 364.536C295.377 364.879 295.799 365.16 296.301 365.379C296.813 365.601 297.343 365.745 297.891 365.81C298.445 365.874 298.96 365.842 299.434 365.715L304.041 364.481C304.51 364.355 304.852 364.158 305.065 363.889C305.285 363.618 305.364 363.311 305.304 362.968C305.254 362.628 305.057 362.286 304.714 361.943C304.37 361.599 303.943 361.317 303.431 361.095C302.929 360.876 302.401 360.734 301.847 360.67C301.299 360.605 300.79 360.635 300.321 360.761L295.714 361.995C295.24 362.122 294.892 362.321 294.673 362.592C294.459 362.862 294.378 363.166 294.428 363.507C294.488 363.849 294.69 364.192 295.033 364.536ZM302.132 373.864C301.532 373.263 301.185 372.671 301.091 372.087C301.003 371.501 301.157 370.976 301.554 370.51C301.955 370.049 302.589 369.702 303.457 369.47L307.492 368.389C308.413 368.143 309.361 368.065 310.337 368.157C311.318 368.254 312.251 368.499 313.135 368.893C314.024 369.292 314.795 369.817 315.447 370.469C315.936 370.958 316.269 371.451 316.446 371.948C316.623 372.444 316.619 372.916 316.434 373.363L314.192 372.715C314.327 372.455 314.352 372.169 314.268 371.854C314.194 371.542 314.006 371.236 313.706 370.935C313.32 370.549 312.855 370.244 312.311 370.02C311.773 369.794 311.218 369.651 310.647 369.592C310.079 369.538 309.564 369.572 309.101 369.696L306.78 370.318L306.92 369.946C307.661 370.085 308.367 370.315 309.037 370.636C309.707 370.957 310.267 371.342 310.718 371.793C311.293 372.368 311.621 372.93 311.702 373.479C311.794 374.032 311.654 374.52 311.285 374.946C310.919 375.376 310.344 375.696 309.558 375.906C308.767 376.118 307.903 376.165 306.967 376.045C306.04 375.929 305.144 375.68 304.278 375.297C303.423 374.917 302.707 374.439 302.132 373.864ZM303.9 373.391C304.234 373.725 304.65 374 305.148 374.215C305.645 374.43 306.163 374.569 306.701 374.631C307.239 374.694 307.737 374.664 308.194 374.542C308.651 374.419 308.986 374.226 309.198 373.963C309.414 373.703 309.497 373.407 309.445 373.072C309.393 372.738 309.2 372.404 308.865 372.069C308.53 371.734 308.112 371.457 307.61 371.238C307.113 371.023 306.595 370.884 306.057 370.822C305.519 370.759 305.021 370.789 304.564 370.912C304.113 371.033 303.781 371.225 303.569 371.488C303.357 371.752 303.274 372.052 303.32 372.387C303.372 372.722 303.565 373.056 303.9 373.391ZM322.852 378.197L324.21 379.556L309.078 380.475L307.72 379.117L322.852 378.197ZM313.624 385.01L315.266 384.579L324.242 387.29C324.961 387.511 325.557 387.632 326.031 387.652C326.508 387.676 326.926 387.641 327.283 387.545C327.735 387.424 328.066 387.243 328.278 387.001C328.495 386.758 328.581 386.479 328.535 386.165C328.488 385.851 328.298 385.527 327.963 385.192C327.62 384.849 327.202 384.572 326.708 384.361C326.226 384.153 325.727 384.023 325.214 383.97C324.7 383.917 324.235 383.95 323.817 384.067L322.439 382.69C323.26 382.47 324.113 382.413 324.999 382.518C325.895 382.626 326.754 382.872 327.576 383.256C328.404 383.638 329.125 384.136 329.738 384.749C330.322 385.333 330.664 385.905 330.764 386.466C330.869 387.025 330.742 387.521 330.381 387.955C330.024 388.394 329.444 388.72 328.641 388.936C328.061 389.091 327.512 389.167 326.996 389.164C326.48 389.161 325.938 389.094 325.369 388.963C324.8 388.833 324.146 388.654 323.407 388.428L316.494 386.33L316.873 386.041L321.642 390.81L319.893 391.279L313.624 385.01ZM325.746 397.143L327.953 396.552L323.769 392.368L325.51 391.902L337.235 392.58L338.773 394.119L327.048 393.44L329.693 396.086L333.122 395.167L334.487 396.532L331.058 397.45L331.978 398.37L330.237 398.837L329.317 397.916L327.11 398.508L325.746 397.143Z" fill="white"/>
<path d="M306.573 160.599L308.834 162.86L297.694 165.844C296.473 166.171 295.188 166.248 293.838 166.073C292.493 165.903 291.179 165.508 289.898 164.888C288.621 164.266 287.476 163.448 286.46 162.432C285.44 161.412 284.808 160.453 284.565 159.555C284.326 158.655 284.462 157.872 284.97 157.205C285.479 156.539 286.343 156.042 287.564 155.715L298.704 152.731L300.966 154.992L290.084 157.907C289.373 158.097 288.854 158.38 288.527 158.756C288.203 159.137 288.093 159.578 288.195 160.082C288.302 160.584 288.643 161.121 289.216 161.694C289.789 162.267 290.44 162.721 291.169 163.056C291.908 163.394 292.669 163.602 293.451 163.681C294.234 163.76 294.98 163.704 295.691 163.514L306.573 160.599ZM303.842 169.987L296.349 171.994L294.143 169.788L306.931 166.362L309.04 168.471L306.867 169.053L306.977 169.163C307.908 169.186 308.82 169.377 309.714 169.736C310.611 170.098 311.409 170.629 312.108 171.328C312.754 171.974 313.128 172.587 313.23 173.167C313.336 173.752 313.163 174.272 312.711 174.728C312.263 175.188 311.527 175.553 310.501 175.822L302.359 178.004L300.152 175.797L307.829 173.741C308.684 173.512 309.19 173.17 309.348 172.716C309.51 172.266 309.306 171.756 308.737 171.187C308.351 170.801 307.891 170.489 307.358 170.251C306.833 170.015 306.27 169.87 305.666 169.815C305.066 169.765 304.459 169.822 303.842 169.987ZM322.065 181.496L319.734 182.12L314.352 176.738L316.683 176.114L322.065 181.496ZM321.076 176.622L323.282 178.828L311.276 182.044C310.871 182.153 310.605 182.281 310.478 182.428C310.36 182.578 310.338 182.739 310.41 182.91C310.483 183.081 310.611 183.258 310.794 183.441C310.932 183.579 311.072 183.701 311.213 183.807C311.359 183.918 311.473 184.001 311.556 184.056L309.572 185.058C309.399 184.956 309.169 184.803 308.883 184.602C308.601 184.404 308.298 184.15 307.974 183.841C307.399 183.294 307.015 182.766 306.822 182.256C306.634 181.745 306.677 181.288 306.95 180.885C307.227 180.486 307.767 180.182 308.57 179.972L321.076 176.622ZM311.122 186.766L323.91 183.341L326.116 185.547L313.328 188.973L311.122 186.766ZM326.834 183.964C326.485 183.614 326.342 183.271 326.407 182.935C326.477 182.597 326.737 182.367 327.186 182.247C327.641 182.125 328.153 182.148 328.721 182.315C329.295 182.48 329.757 182.738 330.106 183.087C330.46 183.441 330.6 183.785 330.525 184.119C330.461 184.455 330.201 184.685 329.746 184.807C329.296 184.927 328.785 184.904 328.211 184.739C327.647 184.576 327.188 184.317 326.834 183.964ZM333.06 192.491L330.729 193.115L325.347 187.733L327.678 187.109L333.06 192.491ZM332.071 187.617L334.277 189.823L322.271 193.039C321.866 193.148 321.6 193.276 321.473 193.423C321.355 193.573 321.333 193.734 321.406 193.905C321.478 194.076 321.606 194.253 321.789 194.436C321.927 194.574 322.067 194.696 322.208 194.802C322.354 194.913 322.468 194.996 322.551 195.051L320.567 196.054C320.394 195.951 320.164 195.798 319.878 195.597C319.596 195.399 319.293 195.146 318.969 194.836C318.394 194.289 318.01 193.761 317.817 193.251C317.63 192.74 317.672 192.283 317.945 191.88C318.222 191.481 318.762 191.177 319.565 190.967L332.071 187.617ZM341.575 195.601L324.524 200.169L322.318 197.963L339.369 193.395L341.575 195.601ZM330.688 206.649C329.749 205.711 329.205 204.829 329.055 204.003C328.915 203.18 329.153 202.455 329.77 201.826C330.392 201.195 331.372 200.701 332.71 200.343C334.025 199.99 335.363 199.864 336.722 199.964C338.091 200.066 339.384 200.374 340.601 200.887C341.824 201.399 342.883 202.102 343.776 202.996C344.353 203.573 344.77 204.152 345.027 204.732C345.293 205.315 345.36 205.874 345.227 206.41C345.097 206.949 344.739 207.442 344.15 207.888C343.567 208.333 342.715 208.705 341.594 209.005L340.67 209.253L332.997 201.58L335.028 201.035L340.587 206.594C341.16 206.435 341.582 206.206 341.853 205.907C342.129 205.606 342.237 205.261 342.177 204.87C342.121 204.483 341.882 204.078 341.459 203.656C341.008 203.205 340.462 202.849 339.821 202.588C339.186 202.325 338.531 202.163 337.857 202.101C337.193 202.042 336.573 202.087 335.997 202.236L334.224 202.711C333.48 202.911 332.941 203.181 332.607 203.523C332.279 203.863 332.152 204.25 332.227 204.684C332.307 205.116 332.586 205.571 333.066 206.051C333.387 206.372 333.738 206.646 334.121 206.873C334.508 207.099 334.92 207.275 335.355 207.4C335.79 207.526 336.237 207.589 336.695 207.59L338.439 209.735C337.565 209.804 336.668 209.73 335.747 209.513C334.836 209.299 333.945 208.95 333.075 208.467C332.211 207.982 331.415 207.376 330.688 206.649ZM340.216 216.146C339.48 215.41 339.08 214.683 339.015 213.964C338.951 213.244 339.241 212.584 339.886 211.984C340.531 211.384 341.556 210.895 342.96 210.519C344.381 210.139 345.751 209.988 347.069 210.068C348.397 210.15 349.603 210.417 350.688 210.868C351.778 211.318 352.683 211.902 353.402 212.621C353.95 213.17 354.274 213.655 354.372 214.077C354.476 214.497 354.453 214.859 354.305 215.161C354.163 215.462 353.993 215.711 353.796 215.908L353.887 216L360.265 214.291L362.478 216.504L345.426 221.071L343.256 218.901L345.271 218.362L345.137 218.228C344.713 218.197 344.218 218.121 343.653 217.999C343.093 217.876 342.515 217.671 341.917 217.382C341.319 217.094 340.752 216.682 340.216 216.146ZM343.304 216.099C343.771 216.566 344.342 216.918 345.015 217.155C345.694 217.391 346.429 217.511 347.222 217.515C348.014 217.519 348.824 217.41 349.651 217.189C350.478 216.967 351.111 216.689 351.551 216.355C351.995 216.025 352.222 215.65 352.231 215.23C352.245 214.814 352.014 214.369 351.538 213.893C351.047 213.402 350.462 213.038 349.783 212.803C349.104 212.567 348.373 212.449 347.59 212.447C346.808 212.446 346.02 212.551 345.226 212.764C344.427 212.978 343.797 213.252 343.336 213.587C342.885 213.924 342.644 214.305 342.612 214.731C342.59 215.16 342.821 215.615 343.304 216.099ZM348.953 224.83C348.583 224.461 348.444 224.096 348.535 223.737C348.626 223.378 348.929 223.132 349.444 222.999C349.94 222.861 350.497 222.877 351.116 223.046C351.736 223.214 352.23 223.484 352.6 223.854C352.958 224.211 353.091 224.57 353 224.929C352.913 225.292 352.621 225.543 352.126 225.681C351.783 225.767 351.41 225.785 351.007 225.733C350.607 225.686 350.223 225.583 349.853 225.424C349.493 225.268 349.193 225.07 348.953 224.83Z" fill="white"/>
<g clip-path="url(#clip3_15_360886)">
<path d="M591.342 441.209C588.586 444.505 584.233 447.018 578.721 448.494C573.21 449.971 566.733 450.359 559.942 449.62M582.831 437.077C580.681 439.648 577.286 441.608 572.987 442.76C568.688 443.912 563.636 444.214 558.339 443.638M574.832 433.1C573.249 434.967 570.762 436.392 567.62 437.234C564.478 438.076 560.793 438.303 556.934 437.894M566.583 429.19C565.707 430.464 564.184 431.423 562.185 431.958C560.187 432.494 557.794 432.584 555.279 432.218" stroke="white" stroke-width="3.90088" stroke-linecap="round"/>
</g>
</g>
<rect x="-0.129419" y="0.482927" width="478.375" height="287.232" rx="19.5" transform="matrix(0.707107 0.707107 -0.965945 0.258746 310.921 121.262)" stroke="url(#paint4_linear_15_360886)"/>
</g>
<g filter="url(#filter4_bd_15_360886)">
<g clip-path="url(#clip4_15_360886)">
<rect width="479.375" height="288.232" rx="20" transform="matrix(0.5 0.866025 -1 -7.54138e-05 365.041 24.0215)" fill="url(#paint5_linear_15_360886)"/>
<g filter="url(#filter5_f_15_360886)">
<path opacity="0.3" d="M255.816 2.99341C322.842 2.99847 404.344 50.0581 437.857 108.104L316.496 108.095L255.816 2.99341Z" fill="#EE46BC"/>
<path opacity="0.3" d="M437.857 108.104C471.37 166.149 444.203 213.201 377.177 213.196L316.497 108.094L437.857 108.104Z" fill="#EF6820"/>
<path opacity="0.3" d="M255.816 2.99438L316.497 108.096L195.136 108.087C161.623 50.0408 188.791 2.98933 255.816 2.99438Z" fill="#2E90FA"/>
<path opacity="0.3" d="M316.497 108.095L377.177 213.196C310.152 213.191 228.649 166.132 195.136 108.086L316.497 108.095Z" fill="#12B76A"/>
</g>
<rect width="68.7711" height="48.5443" rx="6.06804" transform="matrix(0.5 0.866025 -1 -7.54138e-05 343.044 359.017)" fill="white" fill-opacity="0.1"/>
<path opacity="0.5" fill-rule="evenodd" clip-rule="evenodd" d="M326.377 389.108C323.161 387.034 320.389 384.343 318.691 381.403C314.904 374.843 317.901 369.526 325.386 369.526C332.87 369.527 342.008 374.845 345.795 381.405C347.493 384.345 347.827 387.036 347.005 389.11C350.222 391.185 352.994 393.875 354.691 396.815C358.479 403.375 355.481 408.692 347.997 408.692C340.512 408.691 331.375 403.373 327.587 396.813C325.89 393.873 325.555 391.182 326.377 389.108Z" fill="white"/>
<path opacity="0.5" fill-rule="evenodd" clip-rule="evenodd" d="M327.589 396.813C331.376 403.373 340.514 408.691 347.998 408.692C355.483 408.692 358.48 403.375 354.693 396.815C352.995 393.875 350.223 391.184 347.006 389.109C345.995 391.663 343.231 393.282 339.101 393.282C334.971 393.281 330.338 391.662 326.378 389.108C325.557 391.182 325.891 393.873 327.589 396.813Z" fill="white"/>
<path fill-rule="evenodd" clip-rule="evenodd" d="M326.378 389.108C330.338 391.662 334.971 393.281 339.101 393.282C343.231 393.282 345.994 391.663 347.006 389.11C343.046 386.556 338.412 384.937 334.282 384.936C330.153 384.936 327.389 386.555 326.378 389.108Z" fill="white"/>
<path d="M122.964 49.133L137.649 49.1341L134.002 46.2857L136.83 46.2859L140.44 49.1343L141.733 51.373L124.257 51.3717L122.964 49.133ZM128.151 58.0956L130.414 58.1062L141.04 64.6966C141.889 65.2292 142.615 65.5901 143.218 65.7793C143.825 65.9755 144.375 66.0736 144.868 66.0737C145.491 66.0737 145.981 65.9546 146.337 65.7164C146.701 65.4783 146.907 65.149 146.956 64.7286C147.004 64.3082 146.871 63.8247 146.555 63.2782C146.232 62.7177 145.789 62.2167 145.227 61.7752C144.676 61.3408 144.08 61.0009 143.436 60.7557C142.793 60.5104 142.182 60.3912 141.604 60.3982L140.305 58.149C141.438 58.1491 142.557 58.3699 143.661 58.8114C144.777 59.2599 145.799 59.873 146.725 60.6508C147.66 61.4286 148.416 62.3185 148.995 63.3204C149.545 64.2734 149.788 65.1282 149.723 65.8849C149.666 66.6416 149.331 67.2371 148.716 67.6714C148.105 68.1128 147.245 68.3334 146.137 68.3333C145.336 68.3333 144.604 68.2421 143.94 68.0599C143.277 67.8777 142.601 67.6044 141.913 67.24C141.226 66.8756 140.445 66.4202 139.571 65.8736L131.391 60.7863L131.98 60.5446L136.476 68.3326L134.061 68.3324L128.151 58.0956ZM139.443 78.2417C139.01 77.492 138.765 76.7878 138.708 76.1292C138.66 75.4706 138.799 74.8995 139.127 74.4161C139.459 73.9397 139.975 73.5929 140.674 73.3758L142.58 75.4989C141.945 75.702 141.57 76.0558 141.457 76.5603C141.352 77.0647 141.481 77.6253 141.846 78.2419C142.173 78.7954 142.604 79.2824 143.138 79.7028C143.672 80.1232 144.255 80.4526 144.886 80.6908C145.525 80.9291 146.168 81.0483 146.815 81.0483C147.786 81.0484 148.435 80.7857 148.763 80.2602C149.095 79.7418 149.018 79.0622 148.533 78.2213C148.395 77.9831 148.213 77.7379 147.986 77.4856C147.764 77.2404 147.525 77.0091 147.27 76.7919L148.678 75.7621L157.21 81.1017L156.615 81.3328L152.368 73.9757L154.783 73.9759L160.038 83.0777L157.622 83.0775L150.135 78.6418L150.948 78.6209C151.498 79.5738 151.728 80.4006 151.639 81.1012C151.558 81.8019 151.207 82.3413 150.584 82.7196C149.973 83.105 149.149 83.2976 148.114 83.2975C146.997 83.2974 145.875 83.0696 144.746 82.6141C143.621 82.1656 142.592 81.5595 141.657 80.7957C140.727 80.0389 139.989 79.1876 139.443 78.2417ZM149.792 95.5995L152.838 95.5998L148.894 88.7682L151.297 88.7684L166.163 93.688L167.614 96.1999L152.747 91.2803L155.241 95.6L159.974 95.6003L161.26 97.8285L156.527 97.8281L157.395 99.3311L154.992 99.3309L154.124 97.8279L151.078 97.8277L149.792 95.5995ZM160.996 115.006L175.681 115.007L172.034 112.159L174.862 112.159L178.472 115.008L179.765 117.246L162.289 117.245L160.996 115.006ZM166.183 123.969L168.446 123.979L179.071 130.57C179.921 131.102 180.647 131.463 181.25 131.652C181.857 131.849 182.407 131.947 182.9 131.947C183.523 131.947 184.013 131.828 184.369 131.59C184.733 131.351 184.939 131.022 184.988 130.602C185.036 130.181 184.903 129.698 184.587 129.151C184.264 128.591 183.821 128.09 183.258 127.648C182.708 127.214 182.112 126.874 181.468 126.629C180.825 126.384 180.214 126.264 179.636 126.271L178.337 124.022C179.47 124.022 180.588 124.243 181.693 124.685C182.809 125.133 183.831 125.746 184.757 126.524C185.692 127.302 186.448 128.192 187.027 129.194C187.577 130.147 187.82 131.001 187.755 131.758C187.698 132.515 187.362 133.11 186.748 133.545C186.137 133.986 185.277 134.207 184.169 134.207C183.368 134.206 182.635 134.115 181.972 133.933C181.309 133.751 180.633 133.478 179.945 133.113C179.258 132.749 178.477 132.293 177.603 131.747L169.423 126.659L170.012 126.418L174.508 134.206L172.093 134.206L166.183 123.969ZM177.475 144.115C177.042 143.365 176.797 142.661 176.74 142.002C176.692 141.344 176.831 140.773 177.159 140.289C177.491 139.813 178.006 139.466 178.706 139.249L180.612 141.372C179.977 141.575 179.602 141.929 179.489 142.433C179.384 142.938 179.513 143.498 179.877 144.115C180.205 144.669 180.636 145.156 181.17 145.576C181.704 145.996 182.286 146.326 182.918 146.564C183.557 146.802 184.2 146.921 184.847 146.922C185.818 146.922 186.467 146.659 186.795 146.133C187.127 145.615 187.05 144.935 186.564 144.095C186.427 143.856 186.245 143.611 186.018 143.359C185.796 143.114 185.557 142.882 185.302 142.665L186.71 141.635L195.242 146.975L194.647 147.206L190.399 139.849L192.815 139.849L198.069 148.951L195.654 148.951L188.166 144.515L188.98 144.494C189.53 145.447 189.76 146.274 189.671 146.974C189.59 147.675 189.238 148.215 188.615 148.593C188.005 148.978 187.181 149.171 186.146 149.171C185.029 149.171 183.907 148.943 182.778 148.487C181.653 148.039 180.624 147.433 179.689 146.669C178.759 145.912 178.021 145.061 177.475 144.115ZM187.824 161.473L190.87 161.473L186.926 154.641L189.329 154.642L204.195 159.561L205.646 162.073L190.779 157.153L193.273 161.473L198.006 161.473L199.292 163.702L194.559 163.701L195.427 165.204L193.024 165.204L192.156 163.701L189.11 163.701L187.824 161.473ZM199.028 180.879L213.713 180.88L210.066 178.032L212.894 178.032L216.504 180.881L217.797 183.119L200.321 183.118L199.028 180.879ZM204.215 189.842L206.478 189.853L217.103 196.443C217.953 196.976 218.679 197.336 219.282 197.526C219.889 197.722 220.439 197.82 220.932 197.82C221.555 197.82 222.045 197.701 222.401 197.463C222.765 197.225 222.971 196.895 223.02 196.475C223.068 196.055 222.935 195.571 222.619 195.025C222.296 194.464 221.853 193.963 221.29 193.522C220.74 193.087 220.143 192.747 219.5 192.502C218.857 192.257 218.246 192.138 217.668 192.145L216.369 189.895C217.502 189.895 218.62 190.116 219.725 190.558C220.841 191.006 221.863 191.619 222.789 192.397C223.724 193.175 224.48 194.065 225.059 195.067C225.609 196.02 225.851 196.875 225.787 197.631C225.73 198.388 225.394 198.983 224.779 199.418C224.169 199.859 223.309 200.08 222.201 200.08C221.4 200.08 220.667 199.989 220.004 199.806C219.34 199.624 218.665 199.351 217.977 198.986C217.289 198.622 216.509 198.167 215.635 197.62L207.455 192.533L208.044 192.291L212.54 200.079L210.125 200.079L204.215 189.842ZM215.506 209.988C215.074 209.238 214.829 208.534 214.772 207.876C214.724 207.217 214.863 206.646 215.191 206.162C215.523 205.686 216.038 205.339 216.738 205.122L218.644 207.245C218.008 207.448 217.634 207.802 217.521 208.307C217.416 208.811 217.545 209.372 217.909 209.988C218.237 210.542 218.668 211.029 219.202 211.449C219.736 211.87 220.318 212.199 220.949 212.437C221.589 212.675 222.232 212.795 222.879 212.795C223.85 212.795 224.499 212.532 224.827 212.007C225.159 211.488 225.082 210.809 224.596 209.968C224.459 209.729 224.277 209.484 224.05 209.232C223.828 208.987 223.589 208.756 223.334 208.538L224.742 207.508L233.274 212.848L232.679 213.079L228.431 205.722L230.846 205.722L236.101 214.824L233.686 214.824L226.198 210.388L227.011 210.367C227.562 211.32 227.792 212.147 227.703 212.848C227.622 213.548 227.27 214.088 226.647 214.466C226.036 214.851 225.213 215.044 224.178 215.044C223.061 215.044 221.939 214.816 220.81 214.36C219.685 213.912 218.656 213.306 217.721 212.542C216.791 211.785 216.053 210.934 215.506 209.988ZM225.856 227.346L228.902 227.346L224.958 220.515L227.361 220.515L242.227 225.434L243.677 227.946L228.811 223.027L231.305 227.346L236.038 227.347L237.324 229.575L232.591 229.574L233.459 231.077L231.056 231.077L230.188 229.574L227.142 229.574L225.856 227.346ZM237.06 246.753L251.745 246.754L248.098 243.905L250.926 243.905L254.536 246.754L255.829 248.993L238.353 248.991L237.06 246.753ZM242.247 255.715L244.51 255.726L255.135 262.316C255.985 262.849 256.711 263.21 257.314 263.399C257.92 263.595 258.471 263.693 258.964 263.693C259.587 263.693 260.077 263.574 260.433 263.336C260.797 263.098 261.003 262.769 261.052 262.348C261.1 261.928 260.967 261.444 260.651 260.898C260.327 260.337 259.885 259.836 259.322 259.395C258.772 258.96 258.175 258.62 257.532 258.375C256.889 258.13 256.278 258.011 255.7 258.018L254.401 255.769C255.534 255.769 256.652 255.989 257.757 256.431C258.873 256.879 259.895 257.493 260.821 258.27C261.755 259.048 262.512 259.938 263.09 260.94C263.641 261.893 263.883 262.748 263.819 263.504C263.762 264.261 263.426 264.857 262.811 265.291C262.2 265.732 261.341 265.953 260.232 265.953C259.431 265.953 258.699 265.862 258.036 265.679C257.372 265.497 256.697 265.224 256.009 264.86C255.321 264.495 254.541 264.04 253.667 263.493L245.487 258.406L246.076 258.164L250.572 265.952L248.157 265.952L242.247 255.715ZM253.538 275.861C253.105 275.111 252.861 274.407 252.804 273.749C252.756 273.09 252.895 272.519 253.223 272.036C253.555 271.559 254.07 271.212 254.77 270.995L256.676 273.118C256.04 273.322 255.666 273.675 255.553 274.18C255.448 274.684 255.577 275.245 255.941 275.861C256.269 276.415 256.7 276.902 257.234 277.322C257.768 277.743 258.35 278.072 258.981 278.31C259.621 278.549 260.264 278.668 260.911 278.668C261.882 278.668 262.531 278.405 262.859 277.88C263.191 277.361 263.114 276.682 262.628 275.841C262.491 275.603 262.309 275.357 262.082 275.105C261.86 274.86 261.621 274.629 261.366 274.411L262.774 273.382L271.306 278.721L270.711 278.952L266.463 271.595L268.878 271.595L274.133 280.697L271.718 280.697L264.23 276.261L265.043 276.24C265.594 277.193 265.824 278.02 265.735 278.721C265.654 279.421 265.302 279.961 264.679 280.339C264.068 280.725 263.245 280.917 262.21 280.917C261.093 280.917 259.97 280.689 258.842 280.234C257.717 279.785 256.688 279.179 255.753 278.415C254.823 277.658 254.084 276.807 253.538 275.861ZM263.888 293.219L266.934 293.219L262.989 286.388L265.392 286.388L280.259 291.308L281.709 293.819L266.843 288.9L269.337 293.219L274.07 293.22L275.356 295.448L270.623 295.448L271.491 296.951L269.088 296.95L268.22 295.447L265.174 295.447L263.888 293.219Z" fill="white"/>
<path d="M164.728 46.2883L177.835 46.2893L178.786 47.9368L167.472 47.936L170.44 53.0754L168.647 53.0753L164.728 46.2883ZM169.419 54.4136L184.656 58.1036L186.026 60.4763L175.049 64.1644L174.061 62.4539L184.06 59.0574L184.306 59.483L170.407 56.1241L169.419 54.4136ZM173.483 56.3293L175.267 56.3294L178.69 62.2572L176.906 62.257L173.483 56.3293ZM176.32 66.3668L189.427 66.3678L190.392 68.0389L183.88 73.627L193.619 73.6277L194.584 75.2988L181.477 75.2978L180.512 73.6267L187.034 68.0387L177.285 68.038L176.32 66.3668ZM182.747 77.4979L197.984 81.188L199.354 83.5607L188.377 87.2487L187.389 85.5382L197.388 82.1417L197.633 82.5674L183.735 79.2085L182.747 77.4979ZM186.811 79.4136L188.595 79.4138L192.017 85.3415L190.233 85.3414L186.811 79.4136ZM194.028 97.5103C193.558 96.6957 193.294 95.96 193.236 95.3032C193.188 94.6516 193.341 94.113 193.696 93.6874C194.06 93.267 194.621 92.9938 195.38 92.8677L196.672 94.5862C195.971 94.7595 195.556 95.1221 195.425 95.6738C195.301 96.2256 195.451 96.8693 195.876 97.605C196.14 98.0622 196.464 98.4826 196.85 98.8662C197.241 99.2499 197.658 99.5573 198.101 99.7886C198.553 100.025 198.998 100.143 199.435 100.143C199.671 100.143 199.859 100.107 199.999 100.033C200.142 99.9648 200.243 99.8675 200.304 99.7414C200.374 99.6206 200.406 99.4708 200.4 99.2922C200.403 99.1187 200.38 98.9269 200.331 98.7167L199.644 95.8081C199.577 95.5244 199.535 95.2353 199.517 94.9411C199.505 94.6468 199.552 94.3762 199.658 94.1292C199.773 93.8875 199.972 93.6905 200.254 93.5381C200.542 93.3857 200.953 93.3096 201.487 93.3096C202.294 93.3097 203.08 93.4884 203.845 93.8458C204.618 94.2084 205.325 94.6972 205.965 95.312C206.612 95.9269 207.155 96.6153 207.595 97.3773C208.026 98.1445 208.264 98.8303 208.309 99.4346C208.358 100.044 208.212 100.549 207.872 100.948C207.542 101.353 207.017 101.631 206.298 101.783L204.932 100.018C205.378 99.9389 205.703 99.7707 205.906 99.5133C206.116 99.2558 206.207 98.9405 206.179 98.5674C206.158 98.1943 206.025 97.7897 205.779 97.3535C205.548 96.9331 205.252 96.5469 204.891 96.1948C204.533 95.8479 204.151 95.5694 203.745 95.3592C203.341 95.1542 202.954 95.0517 202.584 95.0517C202.22 95.0516 201.979 95.1436 201.86 95.3275C201.742 95.5114 201.694 95.7373 201.715 96.0053C201.745 96.2786 201.795 96.5492 201.865 96.8172L202.393 98.914C202.46 99.1767 202.516 99.4736 202.561 99.8047C202.616 100.141 202.605 100.464 202.529 100.774C202.457 101.089 202.267 101.35 201.961 101.554C201.66 101.759 201.191 101.862 200.554 101.862C199.893 101.862 199.244 101.746 198.606 101.515C197.975 101.284 197.373 100.966 196.8 100.561C196.235 100.162 195.717 99.6991 195.243 99.1735C194.77 98.648 194.365 98.0936 194.028 97.5103ZM199.872 107.159L211.186 107.16L209.006 103.385L210.799 103.385L216.11 112.584L214.317 112.584L212.137 108.808L200.823 108.807L199.872 107.159ZM204.187 114.632L217.294 114.633L221.481 121.885L219.687 121.885L216.452 116.281L212.774 116.28L215.464 120.939L213.671 120.939L210.981 116.28L206.931 116.28L210.167 121.885L208.374 121.884L204.187 114.632ZM210.013 124.723L223.12 124.724L224.071 126.372L210.964 126.371L210.013 124.723ZM212.786 129.526L225.893 129.527L226.857 131.198L220.345 136.786L230.084 136.787L231.049 138.458L217.942 138.457L216.977 136.786L223.499 131.198L213.75 131.197L212.786 129.526ZM219.667 141.446L232.774 141.447L236.961 148.699L235.168 148.698L231.932 143.094L228.255 143.094L230.945 147.752L229.152 147.752L226.462 143.094L222.412 143.093L225.647 148.698L223.854 148.698L219.667 141.446ZM225.402 151.379L238.509 151.38L241.158 155.968C241.222 156.078 241.294 156.215 241.376 156.378C241.464 156.54 241.536 156.695 241.59 156.843C241.839 157.473 241.894 157.999 241.754 158.419C241.618 158.845 241.319 159.163 240.858 159.373C240.396 159.583 239.814 159.688 239.11 159.688C238.066 159.688 237.032 159.457 236.006 158.994C234.987 158.532 234.116 157.838 233.394 156.913L232.916 156.243L231.059 153.027L226.353 153.026L225.402 151.379ZM229.234 158.016L233.276 155.778L234.727 157.441L230.322 159.9L229.234 158.016ZM232.861 153.027L234.523 155.904C234.583 156.009 234.656 156.125 234.741 156.251C234.829 156.382 234.921 156.506 235.019 156.621C235.304 156.958 235.627 157.228 235.988 157.433C236.355 157.638 236.725 157.785 237.098 157.875C237.472 157.964 237.819 158.009 238.141 158.009C238.462 158.009 238.755 157.964 239.019 157.875C239.289 157.786 239.486 157.639 239.611 157.434C239.741 157.229 239.755 156.958 239.652 156.622C239.621 156.506 239.574 156.383 239.51 156.251C239.45 156.125 239.389 156.01 239.328 155.904L237.667 153.027L232.861 153.027Z" fill="white"/>
<path d="M285.208 255.439C284.762 254.667 284.562 253.984 284.608 253.39C284.659 252.796 284.929 252.328 285.418 251.987C285.909 251.651 286.601 251.482 287.493 251.483L292.008 251.483C292.9 251.483 293.785 251.651 294.665 251.988C295.548 252.329 296.355 252.797 297.086 253.391C297.824 253.985 298.415 254.668 298.861 255.44C299.307 256.213 299.505 256.896 299.453 257.49C299.407 258.084 299.139 258.549 298.647 258.885C298.159 259.226 297.469 259.397 296.577 259.397L292.062 259.397C291.17 259.397 290.283 259.226 289.4 258.884C288.52 258.548 287.711 258.083 286.974 257.489C286.243 256.895 285.654 256.212 285.208 255.439ZM287.029 255.439C287.271 255.86 287.607 256.241 288.034 256.582C288.471 256.929 288.946 257.205 289.459 257.41C289.978 257.615 290.483 257.718 290.974 257.718L295.744 257.718C296.229 257.718 296.61 257.616 296.886 257.411C297.168 257.206 297.325 256.93 297.355 256.583C297.394 256.242 297.293 255.861 297.05 255.44C296.807 255.02 296.468 254.636 296.031 254.289C295.603 253.948 295.13 253.674 294.611 253.469C294.098 253.264 293.599 253.162 293.113 253.162L288.344 253.162C287.852 253.161 287.466 253.264 287.183 253.469C286.907 253.674 286.75 253.947 286.71 254.289C286.68 254.635 286.786 255.019 287.029 255.439ZM291.471 266.287C291.047 265.552 290.865 264.89 290.925 264.301C290.992 263.712 291.277 263.245 291.781 262.898C292.288 262.556 292.99 262.386 293.888 262.386L298.066 262.386C299.019 262.386 299.955 262.557 300.874 262.899C301.796 263.246 302.634 263.724 303.386 264.333C304.141 264.948 304.75 265.655 305.211 266.454C305.557 267.053 305.751 267.615 305.793 268.141C305.836 268.666 305.71 269.121 305.416 269.504L303.418 268.298C303.615 268.083 303.714 267.812 303.714 267.486C303.723 267.166 303.621 266.822 303.409 266.454C303.136 265.981 302.766 265.566 302.298 265.208C301.837 264.851 301.338 264.57 300.801 264.365C300.267 264.165 299.76 264.065 299.281 264.065L296.878 264.065L297.11 263.742C297.79 264.068 298.412 264.472 298.976 264.956C299.54 265.439 299.982 265.957 300.3 266.509C300.707 267.213 300.878 267.841 300.815 268.393C300.76 268.95 300.499 269.386 300.032 269.701C299.568 270.022 298.929 270.182 298.116 270.182C297.297 270.182 296.45 270.003 295.576 269.645C294.712 269.293 293.911 268.82 293.173 268.227C292.445 267.638 291.878 266.992 291.471 266.287ZM293.301 266.287C293.538 266.697 293.868 267.07 294.293 267.407C294.718 267.743 295.182 268.011 295.686 268.211C296.189 268.411 296.678 268.511 297.151 268.511C297.624 268.511 297.998 268.411 298.271 268.211C298.547 268.017 298.703 267.751 298.739 267.415C298.776 267.079 298.676 266.706 298.439 266.296C298.202 265.886 297.87 265.51 297.442 265.169C297.018 264.832 296.553 264.564 296.05 264.364C295.546 264.165 295.058 264.065 294.584 264.065C294.117 264.065 293.747 264.165 293.474 264.364C293.201 264.564 293.043 264.832 293.001 265.168C292.964 265.504 293.064 265.878 293.301 266.287ZM310.364 275.836L311.324 277.499L296.469 274.471L295.509 272.808L310.364 275.836ZM299.687 280.028L301.384 280.036L309.353 284.979C309.99 285.378 310.535 285.649 310.987 285.791C311.442 285.938 311.855 286.011 312.225 286.011C312.692 286.011 313.059 285.922 313.326 285.743C313.599 285.565 313.754 285.318 313.79 285.003C313.827 284.687 313.727 284.325 313.49 283.915C313.247 283.494 312.915 283.119 312.493 282.787C312.081 282.462 311.633 282.207 311.151 282.023C310.668 281.839 310.21 281.749 309.776 281.755L308.802 280.068C309.652 280.068 310.491 280.233 311.319 280.565C312.156 280.901 312.922 281.361 313.617 281.944C314.318 282.528 314.885 283.195 315.319 283.946C315.732 284.661 315.914 285.302 315.865 285.87C315.823 286.437 315.571 286.884 315.11 287.21C314.652 287.541 314.007 287.706 313.176 287.706C312.575 287.706 312.026 287.638 311.528 287.501C311.031 287.364 310.524 287.159 310.008 286.886C309.493 286.613 308.907 286.271 308.252 285.861L302.117 282.046L302.558 281.865L305.931 287.706L304.119 287.705L299.687 280.028ZM308.255 294.885L310.54 294.885L307.582 289.761L309.384 289.761L320.534 293.451L321.621 295.335L310.471 291.645L312.342 294.885L315.892 294.885L316.857 296.556L313.307 296.556L313.958 297.683L312.155 297.683L311.505 296.556L309.22 296.556L308.255 294.885Z" fill="white"/>
<path d="M350.958 61.4378L352.557 64.2072L341.024 64.2063C339.76 64.2062 338.499 63.9474 337.24 63.4297C335.985 62.9171 334.818 62.1955 333.741 61.2648C332.669 60.3342 331.774 59.2469 331.056 58.0028C330.335 56.7537 329.973 55.6639 329.97 54.7333C329.973 53.8028 330.306 53.0813 330.97 52.5688C331.633 52.0563 332.597 51.8001 333.861 51.8002L345.394 51.801L346.993 54.5704L335.727 54.5695C334.992 54.5695 334.417 54.7088 334.004 54.9874C333.593 55.271 333.372 55.6691 333.34 56.1816C333.314 56.6942 333.504 57.3013 333.909 58.003C334.314 58.7046 334.825 59.3118 335.443 59.8244C336.069 60.3419 336.75 60.7401 337.486 61.0188C338.221 61.2975 338.957 61.4369 339.692 61.437L350.958 61.4378ZM345.891 69.7993L338.133 69.7987L336.573 67.0965L349.813 67.0975L351.304 69.6803L349.054 69.6801L349.132 69.8145C350.025 70.0783 350.857 70.4988 351.627 71.0761C352.4 71.6584 353.033 72.3775 353.528 73.2334C353.984 74.0247 354.187 74.7139 354.135 75.3011C354.086 75.8932 353.785 76.351 353.23 76.6744C352.679 77.0028 351.873 77.1645 350.812 77.1594L342.383 77.1588L340.823 74.4566L348.77 74.4572C349.655 74.4573 350.232 74.2583 350.502 73.8602C350.775 73.4671 350.71 72.9222 350.308 72.2255C350.035 71.7527 349.672 71.3322 349.218 70.964C348.773 70.6007 348.265 70.3145 347.697 70.1055C347.131 69.9014 346.529 69.7993 345.891 69.7993ZM360.514 85.6321L358.1 85.6319L354.295 79.0407L356.708 79.0409L360.514 85.6321ZM360.82 80.6684L362.38 83.3706L349.951 83.3696C349.531 83.3696 349.241 83.4243 349.08 83.5338C348.928 83.6482 348.864 83.7975 348.89 83.9816C348.916 84.1657 348.994 84.3698 349.123 84.5937C349.221 84.7629 349.324 84.9172 349.433 85.0565C349.545 85.2008 349.634 85.3103 349.701 85.385L347.524 85.8401C347.383 85.6958 347.201 85.4893 346.977 85.2205C346.756 84.9568 346.529 84.6333 346.296 84.2501C345.882 83.5733 345.648 82.9637 345.593 82.4213C345.545 81.8789 345.704 81.4485 346.072 81.1301C346.442 80.8166 347.043 80.6624 347.873 80.6674L360.82 80.6684ZM348.579 87.891L361.818 87.892L363.378 90.5942L350.139 90.5932L348.579 87.891ZM364.482 89.2507C364.235 88.8227 364.186 88.4545 364.335 88.146C364.49 87.8375 364.801 87.6832 365.266 87.6833C365.737 87.6833 366.226 87.8376 366.731 88.1462C367.243 88.4547 367.622 88.823 367.869 89.251C368.119 89.6839 368.165 90.0521 368.007 90.3557C367.858 90.6642 367.547 90.8184 367.076 90.8184C366.611 90.8184 366.122 90.6641 365.611 90.3555C365.108 90.0519 364.732 89.6836 364.482 89.2507ZM368.288 99.0982L365.875 99.098L362.069 92.5068L364.483 92.507L368.288 99.0982ZM368.594 94.1345L370.154 96.8367L357.725 96.8358C357.306 96.8357 357.016 96.8904 356.855 96.9999C356.702 97.1143 356.639 97.2636 356.665 97.4477C356.691 97.6319 356.768 97.8359 356.898 98.0598C356.995 98.229 357.099 98.3833 357.208 98.5226C357.32 98.667 357.409 98.7764 357.475 98.8511L355.299 99.3062C355.158 99.1619 354.976 98.9554 354.752 98.6867C354.53 98.4229 354.303 98.0994 354.071 97.7163C353.657 97.0395 353.423 96.4299 353.368 95.8875C353.319 95.3451 353.479 94.9146 353.846 94.5962C354.217 94.2827 354.818 94.1285 355.648 94.1335L368.594 94.1345ZM375.708 104.307L358.056 104.306L356.496 101.603L374.148 101.605L375.708 104.307ZM362.332 112.16C361.669 111.011 361.371 110.018 361.44 109.182C361.518 108.351 361.936 107.712 362.694 107.264C363.459 106.816 364.533 106.592 365.918 106.592C367.28 106.592 368.604 106.816 369.891 107.264C371.187 107.717 372.357 108.349 373.4 109.16C374.448 109.972 375.289 110.925 375.921 112.019C376.329 112.726 376.582 113.393 376.679 114.02C376.786 114.652 376.705 115.209 376.438 115.692C376.174 116.18 375.699 116.563 375.016 116.841C374.338 117.12 373.418 117.259 372.257 117.259L371.301 117.259L365.875 107.861L367.978 107.861L371.908 114.669C372.503 114.664 372.97 114.552 373.309 114.333C373.654 114.114 373.848 113.808 373.891 113.415C373.937 113.027 373.81 112.574 373.512 112.057C373.193 111.504 372.757 111.019 372.206 110.601C371.66 110.183 371.069 109.857 370.434 109.623C369.808 109.394 369.198 109.277 368.603 109.272L366.767 109.272C365.997 109.272 365.407 109.394 364.996 109.638C364.591 109.881 364.368 110.222 364.328 110.66C364.293 111.098 364.445 111.611 364.784 112.198C365.011 112.591 365.28 112.947 365.59 113.265C365.906 113.584 366.258 113.86 366.646 114.094C367.034 114.328 367.449 114.504 367.892 114.624L369.021 117.147C368.159 116.988 367.311 116.684 366.478 116.236C365.654 115.793 364.884 115.226 364.168 114.534C363.459 113.842 362.847 113.051 362.332 112.16ZM369.078 123.799C368.558 122.899 368.36 122.093 368.483 121.381C368.607 120.669 369.058 120.107 369.837 119.694C370.615 119.281 371.731 119.075 373.185 119.075C374.656 119.075 376.018 119.284 377.271 119.702C378.532 120.125 379.628 120.695 380.559 121.412C381.496 122.128 382.218 122.927 382.727 123.808C383.115 124.48 383.301 125.032 383.287 125.465C383.278 125.898 383.163 126.241 382.942 126.495C382.727 126.749 382.498 126.945 382.257 127.085L382.322 127.197L388.924 127.197L390.489 129.907L372.836 129.905L371.302 127.248L373.388 127.248L373.293 127.084C372.891 126.945 372.432 126.743 371.918 126.479C371.41 126.216 370.904 125.867 370.401 125.434C369.898 125.001 369.457 124.456 369.078 123.799ZM372.073 124.554C372.404 125.126 372.863 125.614 373.452 126.017C374.047 126.42 374.727 126.726 375.491 126.935C376.255 127.144 377.065 127.249 377.921 127.249C378.778 127.249 379.461 127.144 379.973 126.935C380.487 126.731 380.803 126.428 380.921 126.025C381.042 125.627 380.934 125.136 380.598 124.554C380.25 123.952 379.779 123.449 379.184 123.046C378.589 122.643 377.914 122.34 377.159 122.135C376.403 121.931 375.614 121.829 374.793 121.829C373.965 121.829 373.286 121.931 372.754 122.135C372.231 122.344 371.899 122.65 371.759 123.053C371.626 123.461 371.731 123.961 372.073 124.554ZM375.27 134.45C375.008 133.997 374.968 133.609 375.149 133.285C375.33 132.962 375.687 132.802 376.218 132.807C376.732 132.803 377.267 132.962 377.821 133.285C378.376 133.609 378.784 133.997 379.045 134.45C379.298 134.888 379.334 135.268 379.153 135.592C378.975 135.92 378.629 136.087 378.114 136.092C377.761 136.087 377.396 136.007 377.02 135.853C376.646 135.704 376.301 135.505 375.985 135.256C375.678 135.012 375.439 134.743 375.27 134.45Z" fill="white"/>
<g clip-path="url(#clip5_15_360886)">
<path d="M553.396 406.187C549.88 408.657 545.026 409.958 539.319 409.957C533.613 409.957 527.256 408.656 520.888 406.184M546.244 399.993C543.502 401.92 539.715 402.934 535.265 402.934C530.814 402.934 525.855 401.919 520.888 399.991M539.547 394.081C537.535 395.474 534.764 396.208 531.511 396.207C528.258 396.207 524.64 395.473 521.018 394.079M532.591 388.169C531.416 389.173 529.696 389.705 527.627 389.705C525.558 389.705 523.223 389.172 520.888 388.168" stroke="white" stroke-width="3.90088" stroke-linecap="round"/>
</g>
</g>
<rect x="-0.25" y="0.432975" width="478.375" height="287.232" rx="19.5" transform="matrix(0.5 0.866025 -1 -7.54138e-05 365.349 24.671)" stroke="url(#paint6_linear_15_360886)"/>
</g>
<defs>
<filter id="filter0_bd_15_360886" x="-9.82521" y="213.493" width="719.394" height="441.425" filterUnits="userSpaceOnUse" color-interpolation-filters="sRGB">
<feFlood flood-opacity="0" result="BackgroundImageFix"/>
<feGaussianBlur in="BackgroundImageFix" stdDeviation="9.10206"/>
<feComposite in2="SourceAlpha" operator="in" result="effect1_backgroundBlur_15_360886"/>
<feColorMatrix in="SourceAlpha" type="matrix" values="0 0 0 0 0 0 0 0 0 0 0 0 0 0 0 0 0 0 127 0" result="hardAlpha"/>
<feOffset dx="12.1361" dy="15.1701"/>
<feGaussianBlur stdDeviation="12.1361"/>
<feColorMatrix type="matrix" values="0 0 0 0 0 0 0 0 0 0 0 0 0 0 0 0 0 0 0.05 0"/>
<feBlend mode="normal" in2="effect1_backgroundBlur_15_360886" result="effect2_dropShadow_15_360886"/>
<feBlend mode="normal" in="SourceGraphic" in2="effect2_dropShadow_15_360886" result="shape"/>
</filter>
<filter id="filter1_f_15_360886" x="-146.385" y="13.2508" width="808.77" height="631.06" filterUnits="userSpaceOnUse" color-interpolation-filters="sRGB">
<feFlood flood-opacity="0" result="BackgroundImageFix"/>
<feBlend mode="normal" in="SourceGraphic" in2="BackgroundImageFix" result="shape"/>
<feGaussianBlur stdDeviation="97.0886" result="effect1_foregroundBlur_15_360886"/>
</filter>
<filter id="filter2_bd_15_360886" x="13.8721" y="102.608" width="671.998" height="471.194" filterUnits="userSpaceOnUse" color-interpolation-filters="sRGB">
<feFlood flood-opacity="0" result="BackgroundImageFix"/>
<feGaussianBlur in="BackgroundImageFix" stdDeviation="9.10206"/>
<feComposite in2="SourceAlpha" operator="in" result="effect1_backgroundBlur_15_360886"/>
<feColorMatrix in="SourceAlpha" type="matrix" values="0 0 0 0 0 0 0 0 0 0 0 0 0 0 0 0 0 0 127 0" result="hardAlpha"/>
<feOffset dx="12.1361" dy="15.1701"/>
<feGaussianBlur stdDeviation="12.1361"/>
<feColorMatrix type="matrix" values="0 0 0 0 0 0 0 0 0 0 0 0 0 0 0 0 0 0 0.05 0"/>
<feBlend mode="normal" in2="effect1_backgroundBlur_15_360886" result="effect2_dropShadow_15_360886"/>
<feBlend mode="normal" in="SourceGraphic" in2="effect2_dropShadow_15_360886" result="shape"/>
</filter>
<filter id="filter3_f_15_360886" x="-111.858" y="-96.8073" width="794.44" height="622.788" filterUnits="userSpaceOnUse" color-interpolation-filters="sRGB">
<feFlood flood-opacity="0" result="BackgroundImageFix"/>
<feBlend mode="normal" in="SourceGraphic" in2="BackgroundImageFix" result="shape"/>
<feGaussianBlur stdDeviation="97.0886" result="effect1_foregroundBlur_15_360886"/>
</filter>
<filter id="filter4_bd_15_360886" x="58.6055" y="5.79564" width="582.531" height="472.819" filterUnits="userSpaceOnUse" color-interpolation-filters="sRGB">
<feFlood flood-opacity="0" result="BackgroundImageFix"/>
<feGaussianBlur in="BackgroundImageFix" stdDeviation="9.10206"/>
<feComposite in2="SourceAlpha" operator="in" result="effect1_backgroundBlur_15_360886"/>
<feColorMatrix in="SourceAlpha" type="matrix" values="0 0 0 0 0 0 0 0 0 0 0 0 0 0 0 0 0 0 127 0" result="hardAlpha"/>
<feOffset dx="12.1361" dy="15.1701"/>
<feGaussianBlur stdDeviation="12.1361"/>
<feColorMatrix type="matrix" values="0 0 0 0 0 0 0 0 0 0 0 0 0 0 0 0 0 0 0.05 0"/>
<feBlend mode="normal" in2="effect1_backgroundBlur_15_360886" result="effect2_dropShadow_15_360886"/>
<feBlend mode="normal" in="SourceGraphic" in2="effect2_dropShadow_15_360886" result="shape"/>
</filter>
<filter id="filter5_f_15_360886" x="-59.7221" y="-191.193" width="752.436" height="598.576" filterUnits="userSpaceOnUse" color-interpolation-filters="sRGB">
<feFlood flood-opacity="0" result="BackgroundImageFix"/>
<feBlend mode="normal" in="SourceGraphic" in2="BackgroundImageFix" result="shape"/>
<feGaussianBlur stdDeviation="97.0886" result="effect1_foregroundBlur_15_360886"/>
</filter>
<linearGradient id="paint0_linear_15_360886" x1="144" y1="560" x2="419.238" y2="-6.2038" gradientUnits="userSpaceOnUse">
<stop stop-color="#1D2939"/>
<stop offset="1" stop-color="#344054"/>
</linearGradient>
<linearGradient id="paint1_linear_15_360886" x1="23.9495" y1="3.11055e-05" x2="517.816" y2="347.128" gradientUnits="userSpaceOnUse">
<stop stop-color="white" stop-opacity="0.51"/>
<stop offset="1" stop-color="white" stop-opacity="0"/>
</linearGradient>
<linearGradient id="paint2_linear_15_360886" x1="2.70835e-07" y1="12.171" x2="468.425" y2="305.705" gradientUnits="userSpaceOnUse">
<stop stop-color="white"/>
<stop offset="1" stop-color="white" stop-opacity="0.2"/>
</linearGradient>
<linearGradient id="paint3_linear_15_360886" x1="23.9495" y1="3.11055e-05" x2="517.816" y2="347.128" gradientUnits="userSpaceOnUse">
<stop stop-color="white" stop-opacity="0.51"/>
<stop offset="1" stop-color="white" stop-opacity="0"/>
</linearGradient>
<linearGradient id="paint4_linear_15_360886" x1="2.70835e-07" y1="12.171" x2="468.425" y2="305.705" gradientUnits="userSpaceOnUse">
<stop stop-color="white"/>
<stop offset="1" stop-color="white" stop-opacity="0.2"/>
</linearGradient>
<linearGradient id="paint5_linear_15_360886" x1="23.9495" y1="3.11055e-05" x2="517.816" y2="347.128" gradientUnits="userSpaceOnUse">
<stop stop-color="white" stop-opacity="0.51"/>
<stop offset="1" stop-color="white" stop-opacity="0"/>
</linearGradient>
<linearGradient id="paint6_linear_15_360886" x1="2.70835e-07" y1="12.171" x2="468.425" y2="305.705" gradientUnits="userSpaceOnUse">
<stop stop-color="white"/>
<stop offset="1" stop-color="white" stop-opacity="0.2"/>
</linearGradient>
<clipPath id="clip0_15_360886">
<rect width="479.375" height="288.232" rx="20" transform="matrix(0.866044 0.499967 -0.866044 0.499967 258 231.697)" fill="white"/>
</clipPath>
<clipPath id="clip1_15_360886">
<rect width="30.3402" height="36.4082" fill="white" transform="matrix(0.866044 0.499967 -0.866044 0.499967 594.007 456.013)"/>
</clipPath>
<clipPath id="clip2_15_360886">
<rect width="479.375" height="288.232" rx="20" transform="matrix(0.707107 0.707107 -0.965945 0.258746 310.492 120.812)" fill="white"/>
</clipPath>
<clipPath id="clip3_15_360886">
<rect width="30.3402" height="36.4082" fill="white" transform="matrix(0.707107 0.707107 -0.965945 0.258746 576.982 424.46)"/>
</clipPath>
<clipPath id="clip4_15_360886">
<rect width="479.375" height="288.232" rx="20" transform="matrix(0.5 0.866025 -1 -7.54138e-05 365.041 24.0215)" fill="white"/>
</clipPath>
<clipPath id="clip5_15_360886">
<rect width="30.3402" height="36.4082" fill="white" transform="matrix(0.5 0.866025 -1 -7.54138e-05 543.86 386.293)"/>
</clipPath>
</defs>
</svg>
