<svg width="998" height="777" viewBox="0 0 998 777" fill="none" xmlns="http://www.w3.org/2000/svg">
<rect width="576" height="640" transform="translate(310 41)" fill="#EAECF0"/>
<g filter="url(#filter0_d_18_366603)">
<g clip-path="url(#clip0_18_366603)">
<rect x="416.238" y="199.852" width="496.19" height="298.342" rx="20" transform="rotate(30 416.238 199.852)" fill="url(#paint0_linear_18_366603)"/>
<rect x="651.516" y="593.154" width="71.1834" height="50.2471" rx="6.28089" transform="rotate(30 651.516 593.154)" fill="white" fill-opacity="0.1"/>
<path fill-rule="evenodd" clip-rule="evenodd" d="M671.345 649.158C678.135 653.078 686.78 650.817 690.653 644.108C694.527 637.399 692.162 628.782 685.372 624.862C682.329 623.105 678.914 622.59 675.722 623.16C674.62 620.111 672.466 617.411 669.423 615.654C662.633 611.734 653.989 613.995 650.115 620.704C646.241 627.413 648.606 636.03 655.396 639.95C658.439 641.707 661.854 642.222 665.046 641.652C666.148 644.701 668.302 647.401 671.345 649.158Z" fill="#ED0006"/>
<path fill-rule="evenodd" clip-rule="evenodd" d="M665.045 641.652C668.975 640.95 672.566 638.602 674.703 634.899C676.841 631.198 677.079 626.915 675.722 623.161C678.914 622.591 682.329 623.106 685.372 624.863C692.162 628.783 694.526 637.4 690.653 644.109C686.779 650.818 678.135 653.079 671.345 649.159C668.301 647.402 666.147 644.701 665.045 641.652Z" fill="#F9A000"/>
<path fill-rule="evenodd" clip-rule="evenodd" d="M665.046 641.652C663.689 637.898 663.927 633.614 666.064 629.912C668.202 626.21 671.792 623.862 675.722 623.16C677.079 626.914 676.841 631.198 674.703 634.9C672.566 638.602 668.976 640.95 665.046 641.652Z" fill="#FF5E00"/>
<path d="M309.412 444.949L317.012 431.786L313.027 431.879L314.491 429.344L318.456 429.284L320.773 430.621L311.729 446.287L309.412 444.949ZM318.695 450.294L319.874 448.277L330.225 446.101C331.057 445.934 331.698 445.685 332.149 445.356C332.608 445.031 332.965 444.647 333.22 444.204C333.543 443.646 333.708 443.074 333.717 442.49C333.73 441.898 333.595 441.345 333.31 440.833C333.026 440.321 332.601 439.901 332.035 439.575C331.455 439.24 330.857 439.078 330.241 439.09C329.636 439.099 329.077 439.255 328.564 439.558C328.05 439.861 327.646 440.275 327.352 440.802L325.024 439.458C325.61 438.442 326.352 437.686 327.248 437.188C328.156 436.687 329.136 436.455 330.188 436.492C331.245 436.522 332.291 436.836 333.328 437.435C334.315 438.004 335.07 438.74 335.593 439.642C336.121 440.537 336.386 441.502 336.388 442.537C336.396 443.577 336.114 444.594 335.54 445.587C335.126 446.305 334.68 446.86 334.202 447.252C333.725 447.643 333.174 447.944 332.55 448.154C331.926 448.364 331.186 448.556 330.332 448.73L322.353 450.39L322.48 449.593L330.541 454.247L329.291 456.412L318.695 450.294ZM339.372 462.638C338.596 462.19 337.951 461.624 337.437 460.941C336.926 460.25 336.578 459.488 336.392 458.655C336.213 457.826 336.224 456.977 336.427 456.108L338.976 456.767C338.797 457.563 338.864 458.293 339.176 458.957C339.493 459.614 339.973 460.123 340.616 460.484C341.193 460.808 341.774 460.965 342.36 460.955C342.946 460.945 343.49 460.79 343.992 460.49C344.498 460.183 344.919 459.739 345.254 459.159C345.756 458.288 345.899 457.413 345.681 456.534C345.471 455.658 344.931 454.969 344.061 454.467C343.814 454.324 343.54 454.214 343.237 454.136C342.941 454.062 342.647 454.018 342.355 454.004L342.325 451.593L350.672 449.9L350.534 450.69L342.919 446.294L344.169 444.129L353.59 449.568L352.34 451.733L345.199 453.499L345.605 452.747C346.591 453.317 347.319 454.032 347.789 454.893C348.263 455.747 348.478 456.664 348.434 457.644C348.402 458.622 348.118 459.574 347.582 460.503C347.004 461.504 346.255 462.256 345.336 462.76C344.424 463.268 343.445 463.515 342.399 463.501C341.36 463.491 340.351 463.204 339.372 462.638ZM357.508 472.718L359.085 469.987L352.014 465.904L353.257 463.75L364.573 455.909L367.173 457.41L355.857 465.252L360.328 467.833L362.778 463.59L365.084 464.922L362.635 469.165L364.19 470.063L362.947 472.217L361.391 471.319L359.815 474.049L357.508 472.718ZM377.596 484.315L385.196 471.152L381.211 471.245L382.674 468.71L386.64 468.65L388.957 469.987L379.913 485.653L377.596 484.315ZM386.879 489.66L388.058 487.643L398.409 485.467C399.241 485.3 399.882 485.051 400.333 484.722C400.792 484.397 401.149 484.013 401.404 483.57C401.727 483.012 401.892 482.44 401.901 481.856C401.914 481.263 401.778 480.711 401.494 480.199C401.21 479.687 400.785 479.267 400.219 478.941C399.639 478.606 399.04 478.444 398.424 478.456C397.82 478.465 397.261 478.62 396.747 478.924C396.234 479.227 395.83 479.641 395.536 480.168L393.208 478.824C393.794 477.808 394.535 477.052 395.432 476.554C396.34 476.053 397.32 475.821 398.372 475.858C399.428 475.888 400.475 476.202 401.512 476.801C402.499 477.37 403.254 478.106 403.777 479.008C404.305 479.902 404.57 480.868 404.571 481.903C404.58 482.943 404.298 483.96 403.724 484.953C403.31 485.671 402.864 486.226 402.386 486.618C401.909 487.009 401.358 487.31 400.734 487.52C400.11 487.73 399.37 487.922 398.516 488.096L390.537 489.756L390.663 488.959L398.725 493.613L397.475 495.778L386.879 489.66ZM407.556 502.004C406.78 501.556 406.135 500.99 405.62 500.307C405.11 499.616 404.762 498.854 404.576 498.021C404.397 497.192 404.408 496.343 404.61 495.473L407.16 496.133C406.981 496.929 407.047 497.659 407.36 498.323C407.677 498.98 408.157 499.489 408.799 499.85C409.377 500.174 409.958 500.331 410.544 500.321C411.13 500.311 411.674 500.156 412.176 499.856C412.682 499.549 413.103 499.105 413.438 498.525C413.94 497.654 414.083 496.779 413.865 495.9C413.655 495.024 413.115 494.335 412.245 493.833C411.998 493.69 411.723 493.58 411.42 493.502C411.125 493.428 410.831 493.384 410.539 493.37L410.509 490.959L418.856 489.266L418.718 490.056L411.103 485.66L412.353 483.495L421.774 488.934L420.524 491.099L413.383 492.865L413.789 492.113C414.775 492.682 415.503 493.398 415.973 494.259C416.447 495.113 416.662 496.03 416.618 497.01C416.586 497.988 416.302 498.94 415.766 499.869C415.188 500.87 414.439 501.622 413.52 502.126C412.607 502.634 411.628 502.881 410.582 502.867C409.544 502.857 408.535 502.569 407.556 502.004ZM425.692 512.084L427.269 509.353L420.197 505.27L421.441 503.116L432.757 495.275L435.357 496.776L424.041 504.618L428.512 507.199L430.962 502.956L433.268 504.288L430.818 508.53L432.374 509.429L431.131 511.583L429.575 510.685L427.998 513.415L425.692 512.084ZM445.779 523.681L453.379 510.518L449.395 510.611L450.858 508.076L454.824 508.016L457.141 509.353L448.097 525.019L445.779 523.681ZM455.063 529.026L456.242 527.009L466.593 524.833C467.424 524.666 468.066 524.417 468.517 524.088C468.976 523.762 469.333 523.379 469.588 522.936C469.91 522.378 470.076 521.806 470.085 521.221C470.098 520.629 469.962 520.077 469.678 519.565C469.393 519.053 468.968 518.633 468.403 518.307C467.822 517.972 467.224 517.81 466.608 517.822C466.004 517.83 465.445 517.986 464.931 518.29C464.418 518.593 464.014 519.007 463.72 519.534L461.392 518.19C461.978 517.174 462.719 516.418 463.616 515.92C464.524 515.419 465.504 515.187 466.556 515.224C467.612 515.254 468.659 515.568 469.696 516.167C470.682 516.736 471.437 517.472 471.961 518.374C472.489 519.268 472.754 520.234 472.755 521.269C472.764 522.309 472.482 523.326 471.908 524.319C471.494 525.037 471.048 525.592 470.57 525.984C470.093 526.375 469.542 526.676 468.918 526.886C468.293 527.096 467.554 527.288 466.699 527.462L458.721 529.122L458.847 528.325L466.909 532.979L465.659 535.144L455.063 529.026ZM475.74 541.37C474.964 540.922 474.318 540.356 473.804 539.673C473.294 538.982 472.946 538.22 472.76 537.387C472.58 536.558 472.592 535.709 472.794 534.839L475.343 535.499C475.164 536.295 475.231 537.025 475.544 537.689C475.861 538.346 476.341 538.855 476.983 539.216C477.56 539.54 478.142 539.697 478.728 539.687C479.314 539.677 479.858 539.522 480.36 539.222C480.866 538.915 481.286 538.471 481.621 537.891C482.124 537.02 482.266 536.145 482.049 535.265C481.839 534.39 481.299 533.701 480.428 533.198C480.182 533.056 479.907 532.946 479.604 532.868C479.308 532.794 479.015 532.75 478.723 532.736L478.693 530.325L487.04 528.631L486.902 529.422L479.287 525.026L480.537 522.861L489.958 528.3L488.708 530.465L481.567 532.231L481.972 531.479C482.959 532.048 483.687 532.764 484.157 533.625C484.631 534.479 484.846 535.396 484.802 536.376C484.77 537.354 484.485 538.306 483.949 539.235C483.372 540.236 482.623 540.988 481.704 541.492C480.791 542 479.812 542.247 478.766 542.233C477.728 542.223 476.719 541.935 475.74 541.37ZM493.876 551.449L495.452 548.719L488.381 544.636L489.625 542.482L500.94 534.641L503.54 536.142L492.225 543.983L496.696 546.565L499.146 542.322L501.452 543.654L499.002 547.896L500.558 548.795L499.314 550.949L497.759 550.05L496.182 552.781L493.876 551.449ZM513.963 563.047L521.563 549.884L517.579 549.976L519.042 547.442L523.008 547.381L525.325 548.719L516.28 564.385L513.963 563.047ZM523.246 568.392L524.426 566.375L534.776 564.199C535.608 564.031 536.25 563.783 536.701 563.454C537.159 563.128 537.516 562.745 537.772 562.302C538.094 561.744 538.26 561.172 538.269 560.587C538.282 559.995 538.146 559.443 537.862 558.931C537.577 558.419 537.152 557.999 536.586 557.672C536.006 557.337 535.408 557.176 534.792 557.188C534.188 557.196 533.628 557.352 533.115 557.655C532.602 557.959 532.198 558.373 531.904 558.9L529.575 557.556C530.162 556.54 530.903 555.784 531.8 555.286C532.708 554.785 533.688 554.553 534.74 554.59C535.796 554.62 536.843 554.934 537.88 555.533C538.866 556.102 539.621 556.838 540.145 557.74C540.673 558.634 540.937 559.599 540.939 560.635C540.948 561.675 540.666 562.692 540.092 563.685C539.677 564.403 539.231 564.958 538.754 565.35C538.276 565.741 537.726 566.042 537.101 566.252C536.477 566.462 535.738 566.654 534.883 566.828L526.904 568.488L527.031 567.691L535.092 572.345L533.842 574.51L523.246 568.392ZM543.923 580.736C543.147 580.288 542.502 579.722 541.988 579.038C541.478 578.348 541.13 577.586 540.943 576.753C540.764 575.924 540.776 575.075 540.978 574.205L543.527 574.865C543.348 575.661 543.415 576.391 543.728 577.055C544.045 577.712 544.525 578.221 545.167 578.582C545.744 578.906 546.326 579.062 546.912 579.053C547.497 579.043 548.041 578.888 548.543 578.588C549.05 578.28 549.47 577.837 549.805 577.257C550.308 576.386 550.45 575.511 550.233 574.631C550.023 573.756 549.483 573.067 548.612 572.564C548.366 572.422 548.091 572.312 547.788 572.234C547.492 572.159 547.199 572.116 546.907 572.102L546.877 569.691L555.223 567.997L555.086 568.788L547.471 564.392L548.721 562.227L558.142 567.666L556.892 569.831L549.751 571.597L550.156 570.845C551.143 571.414 551.871 572.13 552.341 572.991C552.815 573.845 553.03 574.762 552.986 575.742C552.953 576.719 552.669 577.672 552.133 578.601C551.555 579.601 550.807 580.354 549.887 580.858C548.975 581.366 547.996 581.613 546.95 581.599C545.911 581.589 544.902 581.301 543.923 580.736ZM562.06 590.815L563.636 588.085L556.565 584.002L557.809 581.848L569.124 574.007L571.724 575.508L560.409 583.349L564.88 585.931L567.329 581.688L569.636 583.02L567.186 587.262L568.742 588.161L567.498 590.315L565.943 589.416L564.366 592.147L562.06 590.815Z" fill="white"/>
<path d="M328.644 404.455L335.428 392.706L340.176 395.447C340.29 395.513 340.429 395.6 340.591 395.709C340.757 395.811 340.908 395.92 341.044 396.035C341.637 396.516 342.052 397.053 342.29 397.647C342.532 398.244 342.612 398.866 342.528 399.514C342.444 400.162 342.22 400.801 341.856 401.432C341.488 402.069 341.045 402.585 340.526 402.982C340.007 403.378 339.428 403.621 338.79 403.709C338.157 403.8 337.484 403.709 336.772 403.436C336.607 403.37 336.434 403.292 336.254 403.202C336.079 403.116 335.937 403.041 335.828 402.978L332.785 401.221L330.349 405.439L328.644 404.455ZM333.718 399.606L336.696 401.325C336.804 401.388 336.927 401.451 337.064 401.516C337.206 401.584 337.345 401.638 337.481 401.68C337.876 401.8 338.242 401.812 338.58 401.717C338.921 401.616 339.221 401.448 339.48 401.214C339.739 400.979 339.951 400.717 340.118 400.429C340.284 400.14 340.403 399.828 340.474 399.492C340.548 399.15 340.541 398.809 340.455 398.469C340.371 398.124 340.179 397.81 339.878 397.527C339.777 397.426 339.662 397.33 339.532 397.241C339.408 397.154 339.292 397.08 339.183 397.017L336.205 395.298L333.718 399.606ZM339.691 410.833L346.474 399.084L348.18 400.068L345.254 405.135L351.129 408.527L354.054 403.46L355.767 404.449L348.984 416.198L347.271 415.209L350.201 410.134L344.326 406.742L341.396 411.817L339.691 410.833ZM356.854 421.068C355.68 420.39 354.826 419.557 354.295 418.568C353.766 417.574 353.547 416.49 353.637 415.316C353.733 414.146 354.131 412.954 354.831 411.741C355.531 410.528 356.364 409.588 357.33 408.92C358.302 408.255 359.348 407.905 360.47 407.871C361.595 407.832 362.746 408.151 363.92 408.83C365.09 409.505 365.939 410.34 366.467 411.334C367.004 412.325 367.225 413.407 367.129 414.577C367.034 415.748 366.636 416.939 365.936 418.152C365.235 419.365 364.402 420.306 363.436 420.974C362.47 421.642 361.422 421.994 360.292 422.03C359.17 422.064 358.024 421.744 356.854 421.068ZM357.792 419.445C358.618 419.936 359.414 420.153 360.18 420.095C360.955 420.034 361.675 419.747 362.342 419.232C363.012 418.713 363.606 418.004 364.124 417.107C364.642 416.209 364.956 415.346 365.065 414.516C365.177 413.682 365.064 412.917 364.726 412.221C364.393 411.529 363.812 410.939 362.983 410.453C362.157 409.962 361.358 409.744 360.587 409.799C359.821 409.857 359.103 410.146 358.433 410.666C357.763 411.185 357.166 411.892 356.642 412.787C356.119 413.681 355.801 414.546 355.689 415.38C355.58 416.21 355.695 416.972 356.033 417.668C356.376 418.366 356.963 418.959 357.792 419.445ZM364.987 425.438L371.771 413.688L379.277 418.022L378.349 419.63L372.548 416.28L370.645 419.577L375.467 422.361L374.539 423.968L369.717 421.184L367.621 424.815L373.422 428.164L372.494 429.771L364.987 425.438ZM375.269 431.374L382.052 419.625L383.782 420.623L384.527 432.693L389.567 423.963L391.297 424.962L384.513 436.711L382.784 435.712L382.044 423.634L376.999 432.372L375.269 431.374ZM387.77 438.591L394.553 426.842L396.258 427.826L389.475 439.576L387.77 438.591ZM391.762 440.896L399.202 437.261L398.651 429.208L400.74 430.414L401.088 436.424L406.451 433.711L408.548 434.922L401.299 438.471L401.863 446.728L399.774 445.522L399.416 439.321L393.859 442.107L391.762 440.896ZM408.062 450.307L414.845 438.557L419.463 441.224C420.208 441.654 420.746 442.167 421.076 442.764C421.406 443.361 421.559 443.975 421.535 444.607C421.514 445.233 421.35 445.813 421.042 446.346C420.669 446.993 420.188 447.455 419.6 447.732C419.018 448.012 418.409 448.081 417.773 447.939L417.987 447.53C418.631 448.148 418.999 448.843 419.09 449.614C419.185 450.379 419.027 451.118 418.615 451.831C418.217 452.521 417.731 453.042 417.158 453.394C416.591 453.748 415.96 453.917 415.266 453.9C414.581 453.882 413.866 453.657 413.12 453.227L408.062 450.307ZM410.729 449.682L413.797 451.453C414.183 451.676 414.571 451.802 414.96 451.831C415.355 451.863 415.718 451.793 416.049 451.622C416.389 451.448 416.668 451.171 416.888 450.79C417.092 450.436 417.197 450.073 417.203 449.699C417.217 449.322 417.124 448.968 416.925 448.635C416.734 448.3 416.442 448.02 416.051 447.793L412.877 445.961L410.729 449.682ZM413.805 444.354L416.669 446.007C416.984 446.189 417.303 446.29 417.626 446.309C417.957 446.326 418.265 446.258 418.55 446.103C418.843 445.946 419.089 445.697 419.287 445.354C419.551 444.897 419.615 444.434 419.48 443.964C419.345 443.494 419.022 443.112 418.511 442.817L415.647 441.163L413.805 444.354ZM418.261 456.195L428.862 446.65L431.318 448.068L428.353 462.022L426.583 461L429.256 448.248L429.697 448.503L420.031 457.217L418.261 456.195ZM421.774 454.688L422.698 453.089L428.833 456.631L427.91 458.23L421.774 454.688ZM430.633 463.338L437.416 451.589L439.122 452.574L435.956 458.056L444.042 455.414L446.163 456.639L437.654 459.374L439.763 468.609L437.577 467.347L435.579 458.709L432.338 464.323L430.633 463.338ZM441.728 469.744L448.511 457.994L456.017 462.328L455.089 463.936L449.288 460.586L447.385 463.883L452.207 466.667L451.279 468.274L446.457 465.49L444.361 469.121L450.162 472.47L449.234 474.077L441.728 469.744ZM452.009 475.68L458.793 463.931L463.541 466.672C463.656 466.738 463.794 466.825 463.956 466.933C464.122 467.036 464.273 467.145 464.409 467.26C465.002 467.741 465.418 468.278 465.655 468.872C465.898 469.469 465.977 470.091 465.893 470.739C465.809 471.387 465.585 472.026 465.221 472.657C464.681 473.593 463.975 474.262 463.104 474.666C462.236 475.064 461.274 475.071 460.22 474.687L459.479 474.368L456.15 472.446L453.715 476.664L452.009 475.68ZM458.879 479.646L459.323 473.527L461.299 474.08L460.829 480.772L458.879 479.646ZM457.083 470.831L460.061 472.55C460.17 472.613 460.292 472.676 460.429 472.741C460.571 472.808 460.71 472.863 460.846 472.905C461.241 473.025 461.607 473.037 461.945 472.942C462.286 472.841 462.586 472.673 462.845 472.438C463.104 472.204 463.316 471.942 463.483 471.654C463.649 471.365 463.768 471.053 463.839 470.717C463.913 470.375 463.907 470.034 463.82 469.694C463.737 469.349 463.544 469.035 463.243 468.752C463.143 468.65 463.027 468.555 462.898 468.465C462.773 468.379 462.657 468.305 462.548 468.242L459.57 466.522L457.083 470.831Z" fill="white"/>
<path d="M436.404 254.371L439.27 256.026L433.302 266.364C432.647 267.498 431.804 268.34 430.772 268.891C429.745 269.444 428.61 269.685 427.367 269.614C426.127 269.536 424.863 269.126 423.576 268.383C422.283 267.636 421.293 266.745 420.606 265.71C419.923 264.67 419.564 263.567 419.53 262.4C419.496 261.234 419.806 260.084 420.46 258.95L426.429 248.612L429.296 250.267L423.465 260.366C423.085 261.025 422.89 261.696 422.881 262.377C422.877 263.062 423.056 263.704 423.417 264.304C423.781 264.899 424.326 265.406 425.052 265.825C425.778 266.245 426.49 266.463 427.187 266.481C427.892 266.497 428.538 266.33 429.124 265.982C429.71 265.633 430.193 265.129 430.573 264.47L436.404 254.371ZM439.938 268.239L435.924 275.192L433.127 273.578L439.978 261.71L442.652 263.253L441.487 265.27L441.627 265.35C442.283 264.843 443.023 264.567 443.847 264.52C444.675 264.477 445.533 264.711 446.419 265.222C447.238 265.695 447.85 266.282 448.256 266.983C448.666 267.687 448.847 268.468 448.799 269.326C448.755 270.187 448.457 271.09 447.904 272.034L443.542 279.591L440.745 277.976L444.858 270.852C445.316 270.059 445.468 269.319 445.315 268.633C445.166 267.95 444.732 267.401 444.011 266.984C443.521 266.702 443.024 266.559 442.518 266.555C442.02 266.549 441.546 266.684 441.098 266.961C440.655 267.241 440.268 267.667 439.938 268.239ZM459.163 272.786L457.914 274.95L451.092 271.011L452.341 268.847L459.163 272.786ZM455.667 266.976L458.464 268.591L452.031 279.733C451.814 280.109 451.704 280.43 451.701 280.696C451.707 280.96 451.784 281.183 451.933 281.366C452.082 281.548 452.272 281.706 452.504 281.84C452.679 281.941 452.846 282.02 453.006 282.077C453.17 282.138 453.296 282.18 453.386 282.204L452.595 284.663C452.415 284.628 452.169 284.561 451.855 284.463C451.546 284.367 451.191 284.21 450.788 283.991C450.076 283.607 449.506 283.137 449.078 282.581C448.653 282.02 448.419 281.397 448.375 280.712C448.336 280.03 448.533 279.32 448.966 278.581L455.667 266.976ZM454.65 286.004L461.502 274.137L464.299 275.751L457.447 287.619L454.65 286.004ZM463.881 273.264C463.438 273.008 463.142 272.642 462.992 272.164C462.845 271.68 462.892 271.23 463.133 270.813C463.377 270.391 463.743 270.125 464.232 270.016C464.724 269.901 465.191 269.972 465.634 270.228C466.082 270.486 466.377 270.856 466.519 271.336C466.669 271.814 466.622 272.264 466.378 272.687C466.137 273.104 465.771 273.37 465.279 273.484C464.795 273.596 464.329 273.523 463.881 273.264ZM473.102 280.833L471.853 282.997L465.03 279.058L466.279 276.895L473.102 280.833ZM469.605 275.024L472.402 276.639L465.97 287.78C465.752 288.156 465.643 288.477 465.64 288.744C465.645 289.008 465.723 289.231 465.872 289.413C466.02 289.595 466.211 289.753 466.443 289.887C466.618 289.988 466.785 290.067 466.944 290.125C467.108 290.185 467.235 290.228 467.324 290.252L466.533 292.71C466.354 292.676 466.107 292.609 465.794 292.51C465.485 292.414 465.129 292.257 464.727 292.038C464.014 291.654 463.444 291.185 463.017 290.629C462.592 290.067 462.358 289.445 462.313 288.76C462.274 288.078 462.472 287.368 462.905 286.629L469.605 275.024ZM480.777 279.99L471.641 295.814L468.844 294.199L477.98 278.375L480.777 279.99ZM479.637 300.74C478.447 300.053 477.562 299.212 476.983 298.218C476.411 297.222 476.156 296.134 476.219 294.954C476.285 293.77 476.676 292.557 477.393 291.316C478.098 290.095 478.948 289.157 479.944 288.503C480.948 287.846 482.019 287.503 483.156 287.473C484.295 287.437 485.432 287.746 486.565 288.401C487.297 288.823 487.919 289.34 488.431 289.952C488.951 290.561 489.32 291.255 489.537 292.033C489.759 292.813 489.796 293.666 489.647 294.589C489.502 295.508 489.128 296.487 488.528 297.528L488.032 298.386L478.305 292.769L479.393 290.884L486.44 294.952C486.744 294.414 486.903 293.87 486.917 293.322C486.935 292.769 486.81 292.254 486.543 291.777C486.281 291.303 485.882 290.911 485.346 290.602C484.774 290.272 484.192 290.121 483.598 290.149C483.008 290.172 482.463 290.338 481.962 290.647C481.469 290.953 481.067 291.37 480.756 291.897L479.805 293.543C479.407 294.233 479.191 294.898 479.158 295.539C479.128 296.174 479.264 296.753 479.565 297.278C479.87 297.797 480.326 298.232 480.934 298.583C481.341 298.818 481.742 298.974 482.137 299.051C482.535 299.123 482.92 299.115 483.293 299.028C483.666 298.942 484.011 298.766 484.328 298.503L486.77 300.304C486.207 300.899 485.545 301.321 484.784 301.568C484.031 301.813 483.215 301.871 482.335 301.741C481.458 301.606 480.559 301.272 479.637 300.74ZM491.698 307.672C490.766 307.134 490.07 306.412 489.609 305.508C489.149 304.604 488.969 303.572 489.068 302.414C489.167 301.255 489.592 300.024 490.345 298.721C491.106 297.403 491.965 296.415 492.921 295.758C493.885 295.099 494.872 294.752 495.881 294.717C496.894 294.676 497.856 294.919 498.767 295.446C499.463 295.847 499.966 296.296 500.277 296.791C500.592 297.282 500.785 297.768 500.857 298.249C500.933 298.725 500.959 299.149 500.937 299.521L501.053 299.588L504.47 293.669L507.274 295.289L498.139 311.112L495.388 309.524L496.468 307.655L496.298 307.556C495.987 307.762 495.601 307.948 495.141 308.114C494.684 308.276 494.165 308.341 493.586 308.309C493.007 308.277 492.378 308.065 491.698 307.672ZM493.803 305.828C494.396 306.17 494.993 306.302 495.594 306.223C496.199 306.139 496.776 305.872 497.325 305.42C497.875 304.968 498.371 304.358 498.814 303.59C499.257 302.823 499.534 302.093 499.645 301.402C499.761 300.713 499.701 300.092 499.465 299.536C499.234 298.984 498.818 298.534 498.215 298.186C497.592 297.827 496.978 297.688 496.373 297.772C495.769 297.856 495.196 298.122 494.654 298.572C494.113 299.022 493.63 299.615 493.205 300.352C492.776 301.094 492.5 301.816 492.375 302.52C492.258 303.222 492.312 303.861 492.536 304.437C492.768 305.01 493.19 305.474 493.803 305.828ZM502.744 313.998C502.275 313.727 501.969 313.33 501.824 312.808C501.68 312.285 501.747 311.788 502.026 311.317C502.288 310.85 502.682 310.549 503.207 310.412C503.732 310.276 504.229 310.343 504.698 310.614C505.151 310.875 505.45 311.268 505.594 311.791C505.744 312.317 505.688 312.813 505.425 313.279C505.239 313.591 504.991 313.829 504.683 313.994C504.38 314.163 504.055 314.25 503.708 314.256C503.369 314.259 503.048 314.173 502.744 313.998Z" fill="white"/>
<path d="M545.185 529.801C544.385 529.339 543.779 528.757 543.365 528.054C542.954 527.346 542.75 526.582 542.751 525.763C542.758 524.948 542.992 524.14 543.454 523.34L545.79 519.294C546.252 518.494 546.834 517.887 547.537 517.474C548.246 517.063 549.008 516.861 549.823 516.868C550.642 516.869 551.451 517.101 552.251 517.562C553.05 518.024 553.655 518.609 554.066 519.318C554.48 520.021 554.683 520.78 554.676 521.595C554.675 522.414 554.444 523.223 553.982 524.023L551.645 528.07C551.184 528.87 550.599 529.475 549.89 529.885C549.187 530.299 548.426 530.505 547.608 530.504C546.792 530.497 545.984 530.263 545.185 529.801ZM546.127 528.169C546.562 528.421 547.016 528.545 547.489 528.542C547.971 528.537 548.419 528.419 548.836 528.188C549.255 527.952 549.592 527.613 549.846 527.173L552.315 522.897C552.566 522.462 552.688 522.007 552.68 521.531C552.675 521.049 552.552 520.601 552.313 520.187C552.082 519.771 551.749 519.437 551.313 519.186C550.878 518.935 550.42 518.812 549.938 518.817C549.466 518.819 549.019 518.939 548.6 519.175C548.184 519.406 547.85 519.739 547.599 520.175L545.13 524.45C544.876 524.891 544.751 525.352 544.756 525.833C544.764 526.309 544.884 526.755 545.115 527.171C545.354 527.585 545.692 527.918 546.127 528.169ZM556.413 536.284C555.652 535.844 555.07 535.269 554.668 534.558C554.269 533.842 554.073 533.065 554.078 532.227C554.089 531.392 554.326 530.572 554.791 529.767L556.953 526.021C557.446 525.168 558.057 524.519 558.784 524.076C559.517 523.636 560.302 523.418 561.14 523.424C561.984 523.432 562.819 523.675 563.646 524.152C564.266 524.51 564.781 524.963 565.19 525.511C565.598 526.059 565.868 526.679 565.998 527.371L564.076 527.817C564.02 527.4 563.871 527.009 563.631 526.646C563.4 526.28 563.094 525.988 562.713 525.768C562.224 525.485 561.727 525.354 561.222 525.374C560.72 525.389 560.255 525.523 559.826 525.776C559.402 526.032 559.067 526.375 558.819 526.805L557.575 528.959L557.457 528.39C558.049 528.144 558.669 528.038 559.317 528.071C559.965 528.104 560.574 528.286 561.145 528.616C561.874 529.037 562.425 529.583 562.799 530.256C563.18 530.926 563.367 531.646 563.357 532.416C563.353 533.19 563.14 533.941 562.719 534.67C562.295 535.404 561.726 535.964 561.01 536.349C560.304 536.731 559.541 536.922 558.722 536.921C557.912 536.917 557.142 536.705 556.413 536.284ZM557.36 534.644C557.785 534.889 558.23 535.009 558.698 535.003C559.165 534.997 559.603 534.88 560.011 534.651C560.418 534.422 560.745 534.096 560.99 533.671C561.235 533.247 561.354 532.801 561.348 532.334C561.348 531.87 561.234 531.434 561.005 531.026C560.776 530.618 560.45 530.292 560.025 530.047C559.601 529.802 559.152 529.681 558.679 529.683C558.212 529.689 557.774 529.806 557.367 530.035C556.959 530.264 556.633 530.59 556.388 531.015C556.146 531.434 556.028 531.877 556.034 532.344C556.039 532.812 556.155 533.252 556.381 533.665C556.609 534.073 556.936 534.399 557.36 534.644ZM573.22 529.996L574.942 530.989L565.025 540.93L563.304 539.936L573.22 529.996ZM570.782 544.242L571.666 542.729L579.429 541.098C580.053 540.972 580.534 540.785 580.873 540.538C581.217 540.295 581.484 540.007 581.676 539.675C581.918 539.256 582.042 538.827 582.048 538.389C582.058 537.945 581.956 537.531 581.743 537.146C581.53 536.762 581.211 536.448 580.787 536.203C580.352 535.951 579.903 535.83 579.441 535.839C578.988 535.846 578.568 535.962 578.183 536.19C577.798 536.417 577.495 536.728 577.275 537.123L575.529 536.115C575.968 535.353 576.524 534.786 577.197 534.413C577.878 534.037 578.613 533.863 579.402 533.891C580.194 533.913 580.979 534.149 581.757 534.598C582.497 535.025 583.063 535.577 583.456 536.253C583.852 536.924 584.05 537.648 584.051 538.425C584.058 539.204 583.846 539.967 583.416 540.712C583.105 541.251 582.77 541.667 582.412 541.96C582.054 542.254 581.641 542.48 581.173 542.637C580.705 542.795 580.15 542.939 579.509 543.069L573.525 544.314L573.62 543.716L579.666 547.207L578.729 548.83L570.782 544.242ZM586.155 553.129L587.337 551.081L582.034 548.019L582.967 546.404L591.454 540.522L593.404 541.648L584.917 547.529L588.27 549.465L590.107 546.283L591.837 547.282L590 550.464L591.167 551.138L590.234 552.753L589.067 552.08L587.885 554.128L586.155 553.129Z" fill="white"/>
<g clip-path="url(#clip1_18_366603)">
<path d="M795.274 457.282C795.274 463.188 793.72 468.991 790.766 474.106C787.813 479.221 783.566 483.468 778.451 486.422M787.013 456.786C787.013 461.393 785.8 465.919 783.497 469.909C781.193 473.898 777.88 477.211 773.89 479.515M779.195 456.196C779.179 459.554 778.285 462.857 776.602 465.772C774.918 468.688 772.505 471.114 769.605 472.806M771.241 455.839C771.373 458.013 770.875 460.148 769.804 462.003C768.733 463.857 767.133 465.357 765.185 466.33" stroke="white" stroke-width="4.03771" stroke-linecap="round"/>
</g>
</g>
<rect x="416.421" y="200.535" width="495.19" height="297.342" rx="19.5" transform="rotate(30 416.421 200.535)" stroke="url(#paint1_linear_18_366603)"/>
</g>
<g filter="url(#filter1_b_18_366603)">
<path d="M17 594.655C22.6616 578.695 33.8273 566.763 46.2608 553.69C100.394 496.772 165.597 447.384 239.031 408.826C393.203 327.876 578.162 286.738 753.232 342.929C853.31 375.05 963.111 446.413 978.331 542.66C986.975 597.317 956.068 644.753 912.029 682.982C864.835 723.95 803.788 756.636 737.999 770.938C687.122 781.998 598.589 783.945 593.01 723.114C589.915 689.373 609.95 657.605 633.558 631.914C682.739 578.396 754.122 546.081 829.836 527.182C961.447 494.331 1101.97 507.131 1215.92 573.524C1259.22 598.749 1346.66 673.546 1377 720.193" stroke="white" stroke-opacity="0.1" stroke-width="32" stroke-linecap="round"/>
</g>
<g filter="url(#filter2_bd_18_366603)">
<g clip-path="url(#clip2_18_366603)">
<rect x="713.148" y="2.1416" width="496.19" height="298.342" rx="20" transform="rotate(60 713.148 2.1416)" fill="url(#paint2_linear_18_366603)"/>
<rect x="720.252" y="460.39" width="71.1834" height="50.2471" rx="6.28089" transform="rotate(60 720.252 460.39)" fill="white" fill-opacity="0.1"/>
<path opacity="0.5" fill-rule="evenodd" clip-rule="evenodd" d="M709.424 518.804C713.345 525.594 721.961 527.958 728.671 524.085C735.38 520.211 737.641 511.567 733.72 504.777C731.964 501.734 729.263 499.58 726.214 498.478C726.784 495.286 726.269 491.871 724.512 488.828C720.592 482.038 711.975 479.674 705.266 483.547C698.557 487.421 696.296 496.065 700.216 502.855C701.973 505.898 704.673 508.053 707.722 509.155C707.152 512.346 707.668 515.761 709.424 518.804Z" fill="white"/>
<path opacity="0.5" fill-rule="evenodd" clip-rule="evenodd" d="M707.721 509.154C711.476 510.511 715.759 510.274 719.461 508.136C723.164 505.998 725.511 502.408 726.213 498.478C729.262 499.58 731.962 501.734 733.719 504.777C737.64 511.567 735.379 520.211 728.669 524.085C721.96 527.959 713.344 525.594 709.423 518.804C707.666 515.761 707.151 512.346 707.721 509.154Z" fill="white"/>
<path fill-rule="evenodd" clip-rule="evenodd" d="M707.722 509.154C711.477 510.511 715.76 510.273 719.463 508.136C723.165 505.998 725.513 502.408 726.215 498.478C722.46 497.121 718.177 497.359 714.475 499.496C710.772 501.634 708.424 505.224 707.722 509.154Z" fill="white"/>
<path d="M498.087 160.99L511.25 153.39L507.753 151.478L510.288 150.015L513.752 151.945L515.09 154.262L499.425 163.307L498.087 160.99ZM503.454 170.26L505.483 169.103L515.535 172.394C516.34 172.665 517.019 172.77 517.575 172.711C518.135 172.658 518.636 172.505 519.078 172.249C519.636 171.927 520.066 171.514 520.366 171.012C520.673 170.506 520.832 169.96 520.841 169.374C520.851 168.788 520.693 168.213 520.366 167.647C520.031 167.067 519.594 166.628 519.055 166.33C518.527 166.035 517.965 165.891 517.368 165.896C516.772 165.902 516.215 166.06 515.697 166.368L514.353 164.04C515.368 163.454 516.389 163.169 517.414 163.187C518.451 163.207 519.416 163.496 520.308 164.054C521.208 164.608 521.958 165.403 522.556 166.441C523.126 167.427 523.412 168.441 523.414 169.484C523.424 170.523 523.171 171.491 522.654 172.389C522.142 173.294 521.389 174.033 520.396 174.607C519.678 175.021 519.014 175.279 518.405 175.379C517.795 175.48 517.168 175.465 516.522 175.335C515.877 175.205 515.14 175.001 514.313 174.724L506.574 172.172L507.082 171.545L511.736 179.606L509.571 180.856L503.454 170.26ZM515.188 191.289C514.74 190.513 514.465 189.7 514.361 188.851C514.265 187.998 514.344 187.164 514.599 186.349C514.859 185.542 515.293 184.813 515.903 184.161L517.781 186.006C517.228 186.606 516.921 187.272 516.86 188.003C516.806 188.731 516.967 189.411 517.342 190.045C517.681 190.614 518.106 191.041 518.618 191.325C519.13 191.61 519.679 191.747 520.264 191.739C520.856 191.726 521.442 191.552 522.022 191.217C522.892 190.714 523.453 190.028 523.705 189.157C523.961 188.294 523.838 187.427 523.335 186.557C523.193 186.31 523.01 186.077 522.787 185.858C522.568 185.646 522.335 185.461 522.089 185.303L523.269 183.201L531.344 185.907L530.829 186.523L526.433 178.908L528.598 177.658L534.037 187.079L531.872 188.329L524.805 186.288L525.532 185.839C526.101 186.826 526.374 187.809 526.351 188.79C526.334 189.767 526.062 190.668 525.534 191.495C525.017 192.326 524.294 193.009 523.366 193.545C522.365 194.122 521.341 194.4 520.293 194.376C519.249 194.36 518.277 194.085 517.378 193.549C516.484 193.022 515.754 192.268 515.188 191.289ZM525.855 209.086L528.586 207.51L524.503 200.438L526.657 199.195L540.378 198.062L541.879 200.662L528.158 201.795L530.74 206.266L534.983 203.817L536.314 206.123L532.071 208.572L532.97 210.128L530.816 211.372L529.917 209.816L527.187 211.392L525.855 209.086ZM537.453 229.174L550.616 221.574L547.119 219.662L549.654 218.198L553.118 220.129L554.456 222.446L538.791 231.491L537.453 229.174ZM542.82 238.444L544.849 237.287L554.901 240.578C555.706 240.849 556.385 240.954 556.941 240.895C557.5 240.842 558.002 240.688 558.444 240.433C559.002 240.11 559.432 239.698 559.732 239.196C560.039 238.69 560.197 238.144 560.207 237.558C560.217 236.972 560.059 236.396 559.732 235.831C559.397 235.251 558.96 234.812 558.421 234.514C557.893 234.219 557.331 234.075 556.734 234.08C556.138 234.086 555.581 234.243 555.063 234.552L553.719 232.224C554.734 231.638 555.755 231.353 556.78 231.371C557.817 231.391 558.781 231.68 559.674 232.238C560.574 232.792 561.323 233.587 561.922 234.624C562.492 235.611 562.778 236.625 562.78 237.668C562.79 238.707 562.537 239.675 562.02 240.573C561.508 241.478 560.755 242.217 559.762 242.791C559.044 243.205 558.38 243.463 557.771 243.563C557.161 243.663 556.534 243.649 555.888 243.518C555.243 243.388 554.506 243.185 553.679 242.908L545.94 240.356L546.448 239.729L551.102 247.79L548.937 249.04L542.82 238.444ZM554.554 259.473C554.106 258.697 553.831 257.884 553.727 257.035C553.631 256.182 553.71 255.348 553.965 254.533C554.224 253.726 554.659 252.996 555.269 252.344L557.147 254.19C556.594 254.79 556.287 255.456 556.226 256.187C556.172 256.915 556.333 257.595 556.708 258.229C557.046 258.798 557.472 259.225 557.984 259.509C558.496 259.793 559.045 259.931 559.63 259.922C560.222 259.909 560.808 259.735 561.388 259.4C562.258 258.898 562.819 258.211 563.071 257.341C563.327 256.478 563.203 255.611 562.701 254.74C562.559 254.494 562.376 254.261 562.153 254.042C561.933 253.83 561.701 253.645 561.455 253.487L562.635 251.385L570.71 254.091L570.195 254.707L565.799 247.092L567.964 245.842L573.403 255.263L571.238 256.513L564.171 254.472L564.898 254.023C565.467 255.01 565.74 255.993 565.717 256.974C565.7 257.95 565.428 258.852 564.9 259.679C564.383 260.509 563.66 261.192 562.732 261.728C561.731 262.306 560.707 262.584 559.659 262.56C558.615 262.544 557.643 262.268 556.744 261.733C555.85 261.205 555.12 260.452 554.554 259.473ZM565.221 277.27L567.952 275.694L563.869 268.622L566.023 267.379L579.744 266.246L581.245 268.846L567.524 269.979L570.106 274.45L574.349 272L575.68 274.307L571.437 276.756L572.336 278.312L570.182 279.555L569.283 278L566.553 279.576L565.221 277.27ZM576.819 297.357L589.982 289.758L586.485 287.846L589.02 286.382L592.484 288.313L593.822 290.63L578.157 299.675L576.819 297.357ZM582.186 306.628L584.215 305.471L594.267 308.762C595.072 309.032 595.751 309.138 596.307 309.078C596.866 309.026 597.367 308.872 597.81 308.617C598.368 308.294 598.798 307.882 599.098 307.38C599.405 306.874 599.563 306.328 599.573 305.742C599.583 305.156 599.425 304.58 599.098 304.015C598.763 303.434 598.326 302.995 597.787 302.698C597.259 302.403 596.697 302.258 596.1 302.264C595.504 302.27 594.947 302.427 594.429 302.736L593.085 300.408C594.1 299.822 595.121 299.537 596.146 299.554C597.183 299.575 598.147 299.864 599.04 300.422C599.94 300.976 600.689 301.771 601.288 302.808C601.858 303.795 602.144 304.809 602.146 305.852C602.156 306.891 601.903 307.859 601.386 308.757C600.874 309.662 600.121 310.401 599.128 310.975C598.41 311.389 597.746 311.646 597.137 311.747C596.527 311.847 595.9 311.832 595.254 311.702C594.609 311.572 593.872 311.369 593.045 311.092L585.306 308.54L585.814 307.913L590.468 315.974L588.303 317.224L582.186 306.628ZM593.92 327.657C593.472 326.881 593.197 326.068 593.093 325.219C592.997 324.365 593.076 323.531 593.331 322.717C593.59 321.91 594.025 321.18 594.635 320.528L596.513 322.374C595.96 322.974 595.653 323.639 595.592 324.371C595.538 325.098 595.699 325.779 596.074 326.413C596.412 326.982 596.838 327.408 597.35 327.693C597.862 327.977 598.411 328.115 598.996 328.106C599.588 328.093 600.174 327.919 600.754 327.584C601.624 327.082 602.185 326.395 602.437 325.525C602.693 324.661 602.569 323.795 602.067 322.924C601.925 322.678 601.742 322.445 601.518 322.226C601.299 322.014 601.067 321.829 600.821 321.671L602.001 319.568L610.076 322.275L609.561 322.891L605.165 315.276L607.33 314.026L612.769 323.447L610.604 324.697L603.537 322.656L604.264 322.207C604.833 323.193 605.106 324.177 605.082 325.158C605.066 326.134 604.794 327.036 604.266 327.863C603.749 328.693 603.026 329.376 602.098 329.912C601.097 330.49 600.073 330.767 599.024 330.744C597.98 330.728 597.009 330.452 596.11 329.917C595.216 329.389 594.486 328.636 593.92 327.657ZM604.587 345.454L607.318 343.877L603.235 336.806L605.389 335.562L619.11 334.429L620.611 337.029L606.89 338.163L609.472 342.634L613.715 340.184L615.046 342.49L610.803 344.94L611.701 346.496L609.547 347.739L608.649 346.184L605.919 347.76L604.587 345.454ZM616.185 365.541L629.348 357.941L625.851 356.03L628.386 354.566L631.85 356.497L633.188 358.814L617.522 367.858L616.185 365.541ZM621.552 374.812L623.581 373.654L633.633 376.946C634.437 377.216 635.117 377.322 635.673 377.262C636.232 377.21 636.733 377.056 637.176 376.801C637.734 376.478 638.163 376.066 638.464 375.564C638.771 375.058 638.929 374.512 638.939 373.926C638.949 373.34 638.791 372.764 638.464 372.198C638.129 371.618 637.692 371.179 637.153 370.881C636.625 370.587 636.063 370.442 635.466 370.448C634.87 370.454 634.313 370.611 633.795 370.92L632.451 368.592C633.466 368.005 634.487 367.721 635.512 367.738C636.549 367.758 637.513 368.048 638.406 368.606C639.306 369.159 640.055 369.955 640.654 370.992C641.224 371.978 641.51 372.993 641.512 374.036C641.522 375.075 641.269 376.043 640.752 376.94C640.24 377.845 639.487 378.585 638.494 379.158C637.776 379.573 637.112 379.83 636.503 379.931C635.893 380.031 635.266 380.016 634.62 379.886C633.975 379.756 633.238 379.553 632.411 379.276L624.672 376.724L625.18 376.097L629.834 384.158L627.669 385.408L621.552 374.812ZM633.286 395.841C632.838 395.064 632.563 394.252 632.459 393.403C632.363 392.549 632.442 391.715 632.697 390.901C632.956 390.094 633.391 389.364 634.001 388.712L635.879 390.558C635.326 391.158 635.019 391.823 634.958 392.555C634.904 393.282 635.065 393.963 635.44 394.597C635.778 395.166 636.204 395.592 636.716 395.877C637.228 396.161 637.777 396.299 638.362 396.29C638.954 396.277 639.54 396.103 640.12 395.768C640.99 395.266 641.551 394.579 641.803 393.708C642.059 392.845 641.935 391.978 641.433 391.108C641.29 390.862 641.108 390.629 640.884 390.409C640.665 390.197 640.433 390.013 640.187 389.855L641.367 387.752L649.442 390.459L648.927 391.075L644.531 383.46L646.695 382.21L652.135 391.631L649.97 392.881L642.903 390.84L643.63 390.391C644.199 391.377 644.472 392.361 644.448 393.341C644.432 394.318 644.16 395.22 643.632 396.047C643.115 396.877 642.392 397.56 641.464 398.096C640.463 398.674 639.439 398.951 638.39 398.928C637.346 398.912 636.375 398.636 635.476 398.101C634.582 397.573 633.852 396.82 633.286 395.841ZM643.953 413.638L646.684 412.061L642.601 404.99L644.755 403.746L658.475 402.613L659.977 405.213L646.256 406.346L648.838 410.818L653.08 408.368L654.412 410.674L650.169 413.124L651.067 414.679L648.913 415.923L648.015 414.367L645.285 415.944L643.953 413.638Z" fill="white"/>
<path d="M537.574 140.581C536.895 139.406 536.573 138.257 536.607 137.135C536.647 136.01 536.999 134.962 537.664 133.991C538.332 133.025 539.272 132.192 540.485 131.491C541.698 130.791 542.89 130.393 544.06 130.298C545.234 130.207 546.315 130.428 547.304 130.96C548.298 131.488 549.134 132.34 549.812 133.515C550.488 134.684 550.806 135.831 550.766 136.957C550.735 138.084 550.386 139.131 549.718 140.097C549.05 141.062 548.109 141.896 546.896 142.596C545.683 143.296 544.492 143.694 543.321 143.79C542.151 143.885 541.067 143.666 540.07 143.132C539.081 142.601 538.249 141.75 537.574 140.581ZM539.197 139.643C539.667 140.482 540.248 141.067 540.941 141.4C541.642 141.735 542.41 141.847 543.244 141.735C544.084 141.619 544.953 141.303 545.851 140.785C546.748 140.266 547.451 139.675 547.96 139.012C548.474 138.345 548.759 137.626 548.814 136.854C548.872 136.088 548.664 135.288 548.189 134.452C547.719 133.614 547.137 133.025 546.441 132.687C545.748 132.354 544.982 132.246 544.142 132.361C543.302 132.476 542.432 132.79 541.531 133.303C540.63 133.815 539.923 134.405 539.408 135.072C538.9 135.736 538.618 136.453 538.563 137.225C538.511 138.002 538.722 138.808 539.197 139.643ZM542.527 148.594L554.276 141.811L555.26 143.516L545.119 149.371L548.19 154.691L546.583 155.619L542.527 148.594ZM547.948 157.984L559.697 151.2L560.681 152.905L548.932 159.689L547.948 157.984ZM552.41 165.713L561.955 155.111L562.977 156.881L554.829 165.926L566.759 163.433L567.782 165.204L553.828 168.169L552.41 165.713ZM557.308 174.197L569.057 167.413L570.042 169.118L558.293 175.902L557.308 174.197ZM559.707 178.352L573.661 175.387L575.079 177.843L565.534 188.445L564.512 186.674L573.203 176.968L573.457 177.408L560.73 180.123L559.707 178.352ZM563.504 178.804L565.103 177.88L568.645 184.016L567.046 184.939L563.504 178.804ZM569.208 194.807L580.957 188.024L583.699 192.772C583.764 192.887 583.841 193.031 583.927 193.206C584.019 193.378 584.095 193.548 584.156 193.716C584.43 194.428 584.521 195.101 584.429 195.734C584.341 196.372 584.099 196.951 583.702 197.47C583.305 197.989 582.792 198.431 582.161 198.795C581.225 199.335 580.279 199.562 579.323 199.476C578.372 199.387 577.536 198.912 576.815 198.052L576.333 197.406L574.411 194.077L570.192 196.512L569.208 194.807ZM573.174 201.677L576.618 196.6L578.052 198.067L574.3 203.627L573.174 201.677ZM576.026 193.144L577.746 196.122C577.808 196.231 577.883 196.348 577.969 196.472C578.058 196.602 578.151 196.719 578.248 196.823C578.53 197.124 578.842 197.317 579.182 197.404C579.527 197.487 579.871 197.492 580.212 197.418C580.554 197.344 580.869 197.224 581.157 197.057C581.446 196.891 581.704 196.68 581.934 196.424C582.169 196.165 582.334 195.867 582.429 195.529C582.529 195.188 582.52 194.82 582.401 194.425C582.364 194.286 582.312 194.146 582.244 194.004C582.18 193.867 582.116 193.744 582.054 193.635L580.334 190.657L576.026 193.144ZM575.806 206.236L587.556 199.453L588.54 201.158L583.473 204.084L586.865 209.958L591.932 207.033L592.921 208.746L581.172 215.53L580.183 213.816L585.258 210.886L581.866 205.012L576.791 207.942L575.806 206.236ZM584.601 221.469L589.456 218.666L594.056 210.712L595.205 212.703L591.913 218.4L598.493 218.398L599.643 220.389L590.454 220.396L585.6 223.199L584.601 221.469ZM589.022 229.127L600.771 222.343L605.105 229.85L603.498 230.778L600.148 224.976L596.852 226.88L599.636 231.702L598.029 232.63L595.245 227.808L591.614 229.904L594.963 235.705L593.356 236.633L589.022 229.127Z" fill="white"/>
<path d="M659.845 352.359C659.384 351.559 659.15 350.751 659.143 349.936C659.141 349.117 659.346 348.353 659.757 347.645C660.17 346.942 660.777 346.36 661.576 345.898L665.623 343.561C666.423 343.1 667.231 342.866 668.046 342.859C668.865 342.858 669.626 343.064 670.329 343.477C671.037 343.888 671.622 344.493 672.084 345.293C672.546 346.092 672.777 346.901 672.778 347.72C672.785 348.536 672.582 349.295 672.168 349.998C671.758 350.707 671.152 351.292 670.353 351.753L666.306 354.09C665.506 354.551 664.697 354.783 663.878 354.784C663.063 354.791 662.301 354.589 661.592 354.178C660.889 353.765 660.307 353.158 659.845 352.359ZM661.477 351.416C661.728 351.852 662.059 352.186 662.47 352.421C662.89 352.657 663.337 352.779 663.813 352.787C664.295 352.792 664.756 352.667 665.197 352.413L669.472 349.945C669.907 349.693 670.24 349.36 670.471 348.943C670.708 348.524 670.826 348.075 670.825 347.597C670.833 347.121 670.712 346.665 670.46 346.23C670.209 345.795 669.874 345.459 669.454 345.223C669.044 344.988 668.597 344.869 668.116 344.864C667.64 344.856 667.184 344.977 666.749 345.229L662.474 347.697C662.033 347.951 661.695 348.288 661.458 348.708C661.227 349.124 661.107 349.57 661.099 350.046C661.1 350.525 661.226 350.981 661.477 351.416ZM666.328 363.587C665.889 362.826 665.672 362.037 665.68 361.22C665.692 360.401 665.911 359.629 666.334 358.906C666.761 358.188 667.377 357.597 668.182 357.132L671.927 354.97C672.781 354.477 673.634 354.22 674.485 354.2C675.34 354.185 676.129 354.39 676.852 354.813C677.578 355.242 678.18 355.87 678.658 356.697C679.016 357.317 679.235 357.967 679.315 358.646C679.395 359.325 679.319 359.996 679.085 360.66L677.198 360.086C677.357 359.696 677.424 359.284 677.398 358.85C677.381 358.417 677.262 358.011 677.042 357.63C676.759 357.14 676.394 356.778 675.947 356.543C675.505 356.305 675.035 356.189 674.537 356.193C674.043 356.203 673.58 356.332 673.151 356.58L670.997 357.824L671.179 357.273C671.814 357.356 672.404 357.573 672.949 357.926C673.493 358.279 673.93 358.741 674.26 359.312C674.681 360.041 674.885 360.79 674.872 361.559C674.868 362.33 674.669 363.047 674.275 363.71C673.885 364.377 673.325 364.922 672.596 365.343C671.862 365.766 671.089 365.966 670.277 365.942C669.473 365.92 668.718 365.703 668.009 365.293C667.309 364.885 666.749 364.316 666.328 363.587ZM667.968 362.64C668.213 363.065 668.539 363.391 668.947 363.62C669.355 363.849 669.792 363.966 670.26 363.972C670.727 363.977 671.173 363.858 671.597 363.613C672.022 363.368 672.348 363.042 672.577 362.634C672.809 362.232 672.928 361.797 672.933 361.329C672.939 360.862 672.82 360.416 672.575 359.992C672.33 359.567 672.002 359.238 671.591 359.004C671.183 358.775 670.746 358.658 670.278 358.652C669.811 358.646 669.365 358.766 668.941 359.011C668.522 359.253 668.198 359.578 667.969 359.985C667.74 360.393 667.62 360.832 667.609 361.303C667.604 361.77 667.723 362.216 667.968 362.64ZM684.028 366.545L685.022 368.266L671.464 371.917L670.47 370.195L684.028 366.545ZM674.792 377.664L676.315 376.795L683.854 379.264C684.457 379.467 684.967 379.546 685.383 379.501C685.803 379.462 686.179 379.347 686.511 379.155C686.929 378.913 687.251 378.604 687.476 378.228C687.707 377.848 687.826 377.438 687.833 376.999C687.841 376.56 687.722 376.128 687.477 375.703C687.226 375.268 686.898 374.939 686.493 374.716C686.097 374.495 685.676 374.386 685.228 374.391C684.781 374.395 684.363 374.513 683.975 374.744L682.967 372.998C683.728 372.559 684.494 372.345 685.263 372.358C686.04 372.373 686.764 372.59 687.433 373.009C688.108 373.424 688.67 374.021 689.119 374.799C689.546 375.538 689.761 376.299 689.763 377.081C689.77 377.861 689.58 378.587 689.193 379.26C688.809 379.939 688.244 380.493 687.499 380.923C686.96 381.234 686.463 381.427 686.006 381.503C685.549 381.578 685.078 381.567 684.594 381.469C684.11 381.372 683.557 381.219 682.937 381.011L677.132 379.097L677.514 378.627L681.004 384.673L679.381 385.61L674.792 377.664ZM683.663 393.046L685.711 391.864L682.649 386.56L684.264 385.628L694.555 384.778L695.68 386.728L685.39 387.578L687.326 390.931L690.508 389.094L691.507 390.824L688.325 392.661L688.998 393.828L687.383 394.76L686.709 393.594L684.661 394.776L683.663 393.046Z" fill="white"/>
<path d="M703.353 59.4403L705.008 62.3068L694.67 68.2754C693.537 68.9296 692.386 69.2372 691.216 69.1982C690.05 69.1643 688.946 68.8055 687.906 68.1218C686.871 67.4352 685.982 66.448 685.238 65.1602C684.492 63.8673 684.08 62.601 684.003 61.3612C683.931 60.1184 684.172 58.9834 684.726 57.9562C685.28 56.929 686.123 56.0883 687.257 55.4341L697.595 49.4654L699.249 52.3319L689.151 58.1623C688.492 58.5429 687.988 59.0262 687.639 59.612C687.294 60.203 687.127 60.8486 687.14 61.5486C687.158 62.2457 687.376 62.9574 687.796 63.6837C688.215 64.41 688.722 64.9551 689.317 65.3191C689.92 65.6853 690.562 65.8639 691.244 65.855C691.925 65.8461 692.596 65.6513 693.255 65.2706L703.353 59.4403ZM699.481 73.2168L692.527 77.2316L690.912 74.4347L702.78 67.5828L704.323 70.2561L702.307 71.4204L702.387 71.5595C703.209 71.4488 703.988 71.5793 704.725 71.9508C705.464 72.3274 706.09 72.9587 706.601 73.8447C707.074 74.6637 707.311 75.4782 707.312 76.2882C707.315 77.1034 707.081 77.8703 706.61 78.5887C706.142 79.3123 705.433 79.9451 704.482 80.4872L696.925 84.8499L695.311 82.0529L702.434 77.94C703.228 77.482 703.729 76.9176 703.94 76.2468C704.153 75.5812 704.051 74.8878 703.635 74.1666C703.352 73.6773 702.993 73.3045 702.556 73.0482C702.128 72.7941 701.651 72.6749 701.124 72.6905C700.6 72.7113 700.053 72.8867 699.481 73.2168ZM713.856 86.7675L711.693 88.0165L707.754 81.1941L709.917 79.9451L713.856 86.7675ZM713.733 79.9878L715.348 82.7848L704.206 89.2174C703.83 89.4345 703.575 89.6577 703.439 89.887C703.312 90.1184 703.267 90.3503 703.305 90.5825C703.343 90.8147 703.429 91.0467 703.563 91.2785C703.664 91.4537 703.769 91.6059 703.878 91.7353C703.99 91.8698 704.079 91.9697 704.144 92.0351L702.229 93.7688C702.092 93.6492 701.911 93.4681 701.689 93.2257C701.47 92.9883 701.24 92.6743 701.001 92.2837C700.576 91.595 700.317 90.9031 700.225 90.2078C700.138 89.5095 700.246 88.8528 700.55 88.2377C700.857 87.6277 701.383 87.1111 702.128 86.688L713.733 79.9878ZM703.339 95.9586L715.207 89.1067L716.822 91.9036L704.954 98.7555L703.339 95.9586ZM717.703 89.5404C717.447 89.0974 717.374 88.6315 717.483 88.1426C717.598 87.6508 717.863 87.2844 718.281 87.0435C718.703 86.7997 719.153 86.7527 719.631 86.9025C720.114 87.0494 720.484 87.3443 720.74 87.7873C720.998 88.2354 721.069 88.7029 720.952 89.1895C720.842 89.6784 720.577 90.0448 720.154 90.2886C719.737 90.5295 719.287 90.5765 718.804 90.4297C718.329 90.285 717.962 89.9886 717.703 89.5404ZM721.904 100.706L719.74 101.955L715.801 95.1326L717.965 93.8835L721.904 100.706ZM721.781 93.9263L723.395 96.7233L712.254 103.156C711.878 103.373 711.622 103.596 711.487 103.825C711.359 104.057 711.315 104.289 711.353 104.521C711.39 104.753 711.476 104.985 711.61 105.217C711.711 105.392 711.816 105.544 711.925 105.674C712.037 105.808 712.126 105.908 712.191 105.974L710.277 107.707C710.139 107.588 709.959 107.407 709.736 107.164C709.517 106.927 709.288 106.613 709.048 106.222C708.623 105.534 708.365 104.842 708.272 104.146C708.185 103.448 708.294 102.791 708.598 102.176C708.905 101.566 709.431 101.05 710.175 100.627L721.781 93.9263ZM728.972 103.813L713.148 112.949L711.534 110.152L727.357 101.016L728.972 103.813ZM717.611 121.213C716.924 120.023 716.578 118.853 716.572 117.702C716.575 116.553 716.899 115.484 717.543 114.494C718.192 113.501 719.138 112.646 720.379 111.929C721.6 111.225 722.805 110.838 723.995 110.769C725.192 110.702 726.291 110.94 727.291 111.483C728.296 112.022 729.126 112.858 729.78 113.991C730.202 114.723 730.482 115.481 730.62 116.267C730.766 117.055 730.738 117.84 730.538 118.622C730.34 119.41 729.945 120.166 729.355 120.892C728.769 121.614 727.956 122.276 726.916 122.877L726.058 123.372L720.442 113.644L722.327 112.556L726.395 119.602C726.928 119.288 727.338 118.897 727.624 118.429C727.916 117.959 728.065 117.45 728.072 116.904C728.082 116.362 727.933 115.824 727.623 115.288C727.293 114.716 726.864 114.294 726.336 114.022C725.813 113.747 725.258 113.618 724.67 113.634C724.09 113.653 723.534 113.813 723 114.114L721.355 115.065C720.664 115.463 720.145 115.931 719.796 116.469C719.452 117.004 719.28 117.574 719.279 118.179C719.283 118.781 719.461 119.386 719.812 119.994C720.047 120.401 720.316 120.736 720.62 121C720.928 121.262 721.266 121.448 721.632 121.559C721.999 121.67 722.385 121.691 722.791 121.621L724.006 124.402C723.22 124.636 722.436 124.67 721.653 124.504C720.879 124.34 720.143 123.981 719.446 123.429C718.755 122.874 718.143 122.135 717.611 121.213ZM724.589 133.247C724.051 132.315 723.809 131.342 723.863 130.329C723.916 129.316 724.276 128.332 724.941 127.378C725.605 126.424 726.59 125.571 727.893 124.819C729.211 124.057 730.449 123.631 731.605 123.541C732.77 123.452 733.798 123.645 734.69 124.119C735.587 124.59 736.298 125.281 736.825 126.193C737.226 126.889 737.438 127.529 737.46 128.114C737.487 128.696 737.411 129.213 737.233 129.666C737.06 130.116 736.871 130.497 736.666 130.807L736.733 130.923L742.651 127.506L744.271 130.311L728.447 139.447L726.859 136.696L728.729 135.617L728.631 135.447C728.259 135.469 727.832 135.437 727.35 135.352C726.873 135.263 726.392 135.06 725.906 134.743C725.421 134.426 724.982 133.927 724.589 133.247ZM727.335 132.702C727.677 133.295 728.128 133.707 728.688 133.94C729.253 134.17 729.887 134.227 730.589 134.11C731.291 133.993 732.025 133.713 732.793 133.27C733.56 132.827 734.165 132.334 734.607 131.79C735.051 131.252 735.31 130.684 735.384 130.085C735.46 129.491 735.324 128.893 734.976 128.291C734.616 127.667 734.154 127.241 733.588 127.011C733.023 126.781 732.393 126.726 731.7 126.845C731.006 126.963 730.291 127.236 729.554 127.661C728.812 128.089 728.212 128.577 727.751 129.124C727.299 129.673 727.026 130.253 726.933 130.864C726.847 131.477 726.981 132.09 727.335 132.702ZM730.993 144.248C730.722 143.78 730.655 143.283 730.791 142.758C730.927 142.232 731.234 141.836 731.711 141.567C732.172 141.294 732.663 141.23 733.186 141.375C733.709 141.519 734.106 141.826 734.377 142.295C734.638 142.748 734.701 143.237 734.565 143.762C734.431 144.292 734.134 144.694 733.674 144.967C733.357 145.143 733.023 145.226 732.673 145.215C732.327 145.209 732.002 145.122 731.698 144.953C731.403 144.787 731.168 144.552 730.993 144.248Z" fill="white"/>
<g clip-path="url(#clip3_18_366603)">
<path d="M912.687 414.599C909.734 419.714 905.486 423.962 900.371 426.915C895.256 429.868 889.454 431.423 883.547 431.423M905.781 410.039C903.477 414.029 900.164 417.342 896.174 419.645C892.184 421.949 887.659 423.162 883.052 423.162M899.304 405.619C897.612 408.519 895.186 410.932 892.271 412.615C889.355 414.299 886.053 415.193 882.695 415.208M892.595 401.333C891.622 403.281 890.123 404.882 888.268 405.952C886.414 407.023 884.278 407.521 882.105 407.39" stroke="white" stroke-width="4.03771" stroke-linecap="round"/>
</g>
</g>
<rect x="712.965" y="2.82461" width="495.19" height="297.342" rx="19.5" transform="rotate(60 712.965 2.82461)" stroke="url(#paint3_linear_18_366603)"/>
</g>
<defs>
<filter id="filter0_d_18_366603" x="254.505" y="190.43" width="629.132" height="556.714" filterUnits="userSpaceOnUse" color-interpolation-filters="sRGB">
<feFlood flood-opacity="0" result="BackgroundImageFix"/>
<feColorMatrix in="SourceAlpha" type="matrix" values="0 0 0 0 0 0 0 0 0 0 0 0 0 0 0 0 0 0 127 0" result="hardAlpha"/>
<feOffset dx="12.5618" dy="15.7022"/>
<feGaussianBlur stdDeviation="12.5618"/>
<feColorMatrix type="matrix" values="0 0 0 0 0 0 0 0 0 0 0 0 0 0 0 0 0 0 0.05 0"/>
<feBlend mode="normal" in2="BackgroundImageFix" result="effect1_dropShadow_18_366603"/>
<feBlend mode="normal" in="SourceGraphic" in2="effect1_dropShadow_18_366603" result="shape"/>
</filter>
<filter id="filter1_b_18_366603" x="-23.0039" y="276.994" width="1440.01" height="540.005" filterUnits="userSpaceOnUse" color-interpolation-filters="sRGB">
<feFlood flood-opacity="0" result="BackgroundImageFix"/>
<feGaussianBlur in="BackgroundImageFix" stdDeviation="12"/>
<feComposite in2="SourceAlpha" operator="in" result="effect1_backgroundBlur_18_366603"/>
<feBlend mode="normal" in="SourceGraphic" in2="effect1_backgroundBlur_18_366603" result="shape"/>
</filter>
<filter id="filter2_bd_18_366603" x="435.935" y="-16.7011" width="562.995" height="638.553" filterUnits="userSpaceOnUse" color-interpolation-filters="sRGB">
<feFlood flood-opacity="0" result="BackgroundImageFix"/>
<feGaussianBlur in="BackgroundImageFix" stdDeviation="9.42133"/>
<feComposite in2="SourceAlpha" operator="in" result="effect1_backgroundBlur_18_366603"/>
<feColorMatrix in="SourceAlpha" type="matrix" values="0 0 0 0 0 0 0 0 0 0 0 0 0 0 0 0 0 0 127 0" result="hardAlpha"/>
<feOffset dx="12.5618" dy="15.7022"/>
<feGaussianBlur stdDeviation="12.5618"/>
<feColorMatrix type="matrix" values="0 0 0 0 0 0 0 0 0 0 0 0 0 0 0 0 0 0 0.05 0"/>
<feBlend mode="normal" in2="effect1_backgroundBlur_18_366603" result="effect2_dropShadow_18_366603"/>
<feBlend mode="normal" in="SourceGraphic" in2="effect2_dropShadow_18_366603" result="shape"/>
</filter>
<linearGradient id="paint0_linear_18_366603" x1="416.231" y1="498.192" x2="679.735" y2="59.9413" gradientUnits="userSpaceOnUse">
<stop stop-color="#42307D"/>
<stop offset="1" stop-color="#7F56D9"/>
</linearGradient>
<linearGradient id="paint1_linear_18_366603" x1="416.238" y1="212.449" x2="901.095" y2="516.28" gradientUnits="userSpaceOnUse">
<stop stop-color="white"/>
<stop offset="1" stop-color="white" stop-opacity="0.2"/>
</linearGradient>
<linearGradient id="paint2_linear_18_366603" x1="737.938" y1="2.14163" x2="1249.13" y2="361.445" gradientUnits="userSpaceOnUse">
<stop stop-color="white" stop-opacity="0.51"/>
<stop offset="1" stop-color="white" stop-opacity="0"/>
</linearGradient>
<linearGradient id="paint3_linear_18_366603" x1="713.148" y1="14.7395" x2="1198" y2="318.57" gradientUnits="userSpaceOnUse">
<stop stop-color="white"/>
<stop offset="1" stop-color="white" stop-opacity="0.2"/>
</linearGradient>
<clipPath id="clip0_18_366603">
<rect x="416.238" y="199.852" width="496.19" height="298.342" rx="20" transform="rotate(30 416.238 199.852)" fill="white"/>
</clipPath>
<clipPath id="clip1_18_366603">
<rect width="31.4044" height="37.6853" fill="white" transform="translate(775.691 443.644) rotate(30)"/>
</clipPath>
<clipPath id="clip2_18_366603">
<rect x="713.148" y="2.1416" width="496.19" height="298.342" rx="20" transform="rotate(60 713.148 2.1416)" fill="white"/>
</clipPath>
<clipPath id="clip3_18_366603">
<rect width="31.4044" height="37.6853" fill="white" transform="translate(902.547 392.998) rotate(60)"/>
</clipPath>
</defs>
</svg>
