<svg width="1216" height="411" viewBox="0 0 1216 411" fill="none" xmlns="http://www.w3.org/2000/svg">
<g filter="url(#filter0_bd_15_265595)">
<g clip-path="url(#clip0_15_265595)">
<rect x="313.69" y="33.5547" width="560" height="336.709" rx="20" transform="rotate(30 313.69 33.5547)" fill="url(#paint0_linear_15_265595)"/>
<g filter="url(#filter1_f_15_265595)">
<path opacity="0.3" d="M232.426 117.6C271.576 49.7915 358.282 26.5586 426.091 65.7079V65.7079L355.205 188.486L232.426 117.6V117.6Z" fill="#EE46BC"/>
<path opacity="0.3" d="M426.091 65.7083V65.7083C493.899 104.858 517.132 191.564 477.983 259.373V259.373L355.205 188.487L426.091 65.7083Z" fill="#EF6820"/>
<path opacity="0.3" d="M232.427 117.601L355.205 188.487L284.319 311.265V311.265C216.51 272.116 193.277 185.409 232.427 117.601V117.601Z" fill="#2E90FA"/>
<path opacity="0.3" d="M355.205 188.487L477.983 259.373V259.373C438.834 327.182 352.128 350.415 284.319 311.265V311.265L355.205 188.487Z" fill="#12B76A"/>
</g>
<path d="M193.363 309.763L201.94 294.907L197.443 295.012L199.095 292.151L203.571 292.083L206.186 293.593L195.978 311.273L193.363 309.763ZM203.84 315.795L205.171 313.519L216.853 311.063C217.792 310.874 218.516 310.594 219.025 310.222C219.542 309.855 219.945 309.422 220.233 308.922C220.597 308.292 220.784 307.647 220.794 306.987C220.809 306.319 220.656 305.696 220.335 305.118C220.014 304.539 219.534 304.066 218.896 303.697C218.241 303.319 217.566 303.137 216.871 303.15C216.188 303.16 215.557 303.336 214.978 303.678C214.398 304.02 213.943 304.488 213.611 305.082L210.983 303.565C211.645 302.419 212.481 301.566 213.493 301.004C214.518 300.439 215.624 300.177 216.812 300.219C218.004 300.252 219.185 300.607 220.355 301.282C221.469 301.925 222.321 302.755 222.912 303.773C223.507 304.783 223.806 305.872 223.808 307.041C223.818 308.214 223.499 309.362 222.852 310.483C222.384 311.294 221.881 311.92 221.342 312.362C220.803 312.804 220.181 313.143 219.477 313.38C218.772 313.618 217.938 313.834 216.973 314.03L207.969 315.904L208.112 315.004L217.209 320.256L215.799 322.7L203.84 315.795ZM227.176 329.727C226.3 329.221 225.572 328.583 224.992 327.811C224.416 327.031 224.023 326.171 223.813 325.231C223.611 324.296 223.624 323.338 223.852 322.356L226.729 323.101C226.527 323.999 226.602 324.823 226.955 325.572C227.313 326.314 227.855 326.888 228.58 327.296C229.231 327.661 229.887 327.838 230.549 327.827C231.21 327.816 231.824 327.641 232.39 327.302C232.962 326.955 233.436 326.455 233.814 325.8C234.381 324.818 234.542 323.83 234.297 322.837C234.06 321.849 233.45 321.071 232.468 320.504C232.19 320.344 231.88 320.219 231.538 320.131C231.204 320.047 230.872 319.998 230.543 319.982L230.509 317.262L239.929 315.35L239.774 316.243L231.18 311.281L232.59 308.837L243.223 314.976L241.812 317.419L233.753 319.413L234.211 318.564C235.324 319.206 236.145 320.014 236.676 320.986C237.211 321.949 237.453 322.984 237.404 324.091C237.367 325.194 237.047 326.269 236.442 327.317C235.79 328.446 234.945 329.295 233.907 329.864C232.878 330.437 231.773 330.716 230.592 330.7C229.42 330.689 228.281 330.365 227.176 329.727ZM247.645 341.102L249.424 338.021L241.443 333.413L242.847 330.982L255.618 322.132L258.552 323.826L245.781 332.676L250.828 335.59L253.592 330.801L256.195 332.304L253.43 337.092L255.186 338.106L253.783 340.537L252.027 339.523L250.248 342.605L247.645 341.102ZM270.315 354.191L278.893 339.335L274.396 339.44L276.047 336.579L280.523 336.511L283.138 338.021L272.931 355.701L270.315 354.191ZM280.792 360.224L282.123 357.947L293.805 355.492C294.744 355.302 295.468 355.022 295.977 354.65C296.495 354.283 296.897 353.85 297.186 353.351C297.55 352.721 297.737 352.075 297.746 351.415C297.761 350.747 297.608 350.124 297.287 349.546C296.966 348.968 296.486 348.494 295.848 348.126C295.193 347.748 294.518 347.565 293.823 347.579C293.14 347.588 292.51 347.764 291.93 348.106C291.351 348.449 290.895 348.917 290.563 349.511L287.935 347.994C288.597 346.848 289.434 345.994 290.446 345.432C291.47 344.867 292.576 344.605 293.764 344.647C294.956 344.68 296.137 345.035 297.308 345.711C298.421 346.353 299.273 347.184 299.864 348.202C300.46 349.211 300.758 350.301 300.76 351.469C300.77 352.643 300.452 353.79 299.804 354.912C299.336 355.722 298.833 356.348 298.294 356.79C297.755 357.232 297.133 357.572 296.429 357.809C295.725 358.046 294.89 358.263 293.926 358.459L284.921 360.332L285.064 359.432L294.162 364.685L292.751 367.128L280.792 360.224ZM304.128 374.155C303.253 373.65 302.524 373.011 301.944 372.239C301.368 371.46 300.975 370.6 300.765 369.66C300.563 368.724 300.576 367.766 300.804 366.785L303.681 367.529C303.479 368.427 303.555 369.251 303.908 370.001C304.266 370.742 304.807 371.317 305.532 371.724C306.183 372.089 306.84 372.266 307.501 372.255C308.162 372.244 308.776 372.069 309.343 371.731C309.914 371.384 310.389 370.883 310.767 370.228C311.334 369.246 311.495 368.258 311.249 367.266C311.012 366.277 310.403 365.5 309.42 364.933C309.142 364.772 308.832 364.648 308.49 364.559C308.156 364.476 307.825 364.426 307.495 364.411L307.462 361.69L316.882 359.778L316.726 360.671L308.132 355.709L309.543 353.266L320.175 359.404L318.765 361.848L310.705 363.841L311.163 362.992C312.276 363.635 313.098 364.442 313.628 365.414C314.163 366.378 314.406 367.413 314.356 368.519C314.32 369.622 313.999 370.697 313.394 371.745C312.742 372.875 311.897 373.724 310.859 374.293C309.83 374.866 308.725 375.145 307.544 375.129C306.372 375.118 305.233 374.793 304.128 374.155ZM324.597 385.531L326.376 382.449L318.396 377.841L319.799 375.41L332.57 366.561L335.504 368.255L322.734 377.105L327.78 380.018L330.544 375.23L333.147 376.733L330.383 381.521L332.138 382.535L330.735 384.966L328.979 383.952L327.2 387.034L324.597 385.531ZM347.268 398.62L355.845 383.764L351.348 383.868L353 381.008L357.475 380.94L360.09 382.45L349.883 400.13L347.268 398.62ZM357.745 404.652L359.075 402.376L370.757 399.92C371.696 399.731 372.42 399.45 372.929 399.079C373.447 398.712 373.85 398.279 374.138 397.779C374.502 397.149 374.689 396.504 374.699 395.844C374.713 395.176 374.56 394.553 374.239 393.974C373.918 393.396 373.439 392.923 372.8 392.554C372.145 392.176 371.47 391.994 370.775 392.007C370.093 392.017 369.462 392.193 368.882 392.535C368.303 392.877 367.847 393.345 367.515 393.939L364.888 392.422C365.549 391.276 366.386 390.422 367.398 389.861C368.423 389.295 369.529 389.034 370.716 389.075C371.908 389.109 373.089 389.463 374.26 390.139C375.373 390.782 376.225 391.612 376.816 392.63C377.412 393.64 377.711 394.729 377.713 395.898C377.723 397.071 377.404 398.219 376.756 399.34C376.289 400.15 375.785 400.777 375.246 401.218C374.707 401.66 374.086 402 373.381 402.237C372.677 402.474 371.842 402.691 370.878 402.887L361.873 404.76L362.016 403.861L371.114 409.113L369.703 411.557L357.745 404.652ZM381.081 418.584C380.205 418.078 379.477 417.439 378.896 416.668C378.321 415.888 377.928 415.028 377.717 414.088C377.515 413.153 377.528 412.195 377.757 411.213L380.634 411.957C380.431 412.856 380.507 413.68 380.86 414.429C381.218 415.17 381.759 415.745 382.484 416.153C383.136 416.518 383.792 416.695 384.453 416.684C385.114 416.673 385.728 416.498 386.295 416.159C386.866 415.812 387.341 415.311 387.719 414.657C388.286 413.674 388.447 412.687 388.202 411.694C387.964 410.706 387.355 409.928 386.373 409.361C386.094 409.2 385.784 409.076 385.442 408.988C385.108 408.904 384.777 408.855 384.448 408.839L384.414 406.119L393.834 404.207L393.679 405.099L385.084 400.137L386.495 397.694L397.127 403.833L395.717 406.276L387.658 408.27L388.115 407.42C389.228 408.063 390.05 408.87 390.58 409.842C391.115 410.806 391.358 411.841 391.308 412.948C391.272 414.051 390.951 415.126 390.346 416.174C389.694 417.303 388.849 418.152 387.812 418.721C386.782 419.294 385.677 419.573 384.497 419.557C383.324 419.546 382.186 419.222 381.081 418.584ZM401.549 429.959L403.328 426.877L395.348 422.27L396.751 419.839L409.522 410.989L412.457 412.683L399.686 421.533L404.732 424.446L407.497 419.658L410.099 421.161L407.335 425.949L409.091 426.963L407.687 429.394L405.931 428.38L404.152 431.462L401.549 429.959ZM424.22 443.048L432.797 428.192L428.3 428.297L429.952 425.436L434.427 425.368L437.043 426.878L426.835 444.558L424.22 443.048ZM434.697 449.081L436.028 446.804L447.71 444.348C448.648 444.159 449.372 443.879 449.882 443.507C450.399 443.14 450.802 442.707 451.09 442.208C451.454 441.577 451.641 440.932 451.651 440.272C451.666 439.604 451.513 438.981 451.192 438.403C450.871 437.825 450.391 437.351 449.752 436.982C449.098 436.604 448.423 436.422 447.727 436.435C447.045 436.445 446.414 436.621 445.835 436.963C445.255 437.305 444.799 437.773 444.467 438.368L441.84 436.851C442.501 435.705 443.338 434.851 444.35 434.289C445.375 433.724 446.481 433.462 447.668 433.504C448.86 433.537 450.042 433.892 451.212 434.568C452.325 435.21 453.177 436.041 453.768 437.058C454.364 438.068 454.663 439.157 454.665 440.326C454.675 441.5 454.356 442.647 453.709 443.769C453.241 444.579 452.737 445.205 452.199 445.647C451.66 446.089 451.038 446.428 450.334 446.666C449.629 446.903 448.795 447.119 447.83 447.316L438.825 449.189L438.968 448.289L448.066 453.542L446.655 455.985L434.697 449.081ZM458.033 463.012C457.157 462.506 456.429 461.868 455.849 461.096C455.273 460.316 454.88 459.456 454.67 458.516C454.467 457.581 454.48 456.623 454.709 455.642L457.586 456.386C457.384 457.284 457.459 458.108 457.812 458.858C458.17 459.599 458.711 460.173 459.436 460.581C460.088 460.946 460.744 461.123 461.405 461.112C462.067 461.101 462.68 460.926 463.247 460.587C463.818 460.241 464.293 459.74 464.671 459.085C465.238 458.103 465.399 457.115 465.154 456.122C464.917 455.134 464.307 454.357 463.325 453.79C463.046 453.629 462.736 453.504 462.394 453.416C462.061 453.333 461.729 453.283 461.4 453.267L461.366 450.547L470.786 448.635L470.631 449.528L462.036 444.566L463.447 442.123L474.08 448.261L472.669 450.705L464.61 452.698L465.067 451.849C466.18 452.492 467.002 453.299 467.532 454.271C468.067 455.234 468.31 456.269 468.261 457.376C468.224 458.479 467.903 459.554 467.299 460.602C466.646 461.732 465.801 462.581 464.764 463.149C463.734 463.723 462.629 464.001 461.449 463.986C460.277 463.975 459.138 463.65 458.033 463.012ZM478.502 474.388L480.281 471.306L472.3 466.698L473.704 464.267L486.475 455.417L489.409 457.112L476.638 465.961L481.684 468.875L484.449 464.087L487.052 465.589L484.287 470.378L486.043 471.391L484.639 473.822L482.884 472.809L481.104 475.89L478.502 474.388Z" fill="white"/>
<path d="M214.617 264.841L222.273 251.581L227.632 254.675C227.761 254.749 227.917 254.847 228.1 254.97C228.287 255.086 228.458 255.209 228.612 255.339C229.281 255.88 229.75 256.487 230.018 257.157C230.292 257.831 230.381 258.533 230.286 259.264C230.192 259.995 229.939 260.717 229.528 261.429C229.113 262.147 228.613 262.73 228.027 263.178C227.441 263.625 226.788 263.899 226.067 263.999C225.353 264.102 224.594 263.999 223.79 263.691C223.604 263.616 223.409 263.528 223.205 263.427C223.008 263.329 222.848 263.245 222.725 263.174L219.29 261.191L216.542 265.952L214.617 264.841ZM220.343 259.368L223.704 261.308C223.827 261.379 223.966 261.451 224.12 261.524C224.281 261.6 224.437 261.662 224.59 261.709C225.036 261.844 225.45 261.858 225.831 261.75C226.216 261.637 226.554 261.448 226.846 261.182C227.138 260.917 227.379 260.622 227.566 260.297C227.754 259.971 227.888 259.619 227.968 259.24C228.052 258.854 228.044 258.469 227.947 258.085C227.853 257.695 227.636 257.341 227.296 257.022C227.182 256.907 227.052 256.799 226.906 256.699C226.766 256.601 226.634 256.517 226.511 256.446L223.15 254.506L220.343 259.368ZM227.085 272.039L234.74 258.779L236.665 259.89L233.363 265.608L239.993 269.436L243.295 263.718L245.229 264.834L237.573 278.094L235.639 276.978L238.946 271.25L232.316 267.422L229.009 273.15L227.085 272.039ZM246.455 283.591C245.129 282.825 244.166 281.884 243.566 280.769C242.97 279.647 242.723 278.423 242.824 277.099C242.932 275.778 243.381 274.433 244.172 273.064C244.962 271.695 245.902 270.633 246.992 269.879C248.089 269.129 249.27 268.735 250.536 268.696C251.806 268.652 253.104 269.013 254.43 269.778C255.75 270.54 256.708 271.482 257.304 272.604C257.91 273.723 258.16 274.944 258.052 276.265C257.944 277.586 257.495 278.931 256.704 280.3C255.914 281.669 254.974 282.73 253.884 283.484C252.794 284.238 251.61 284.635 250.335 284.676C249.068 284.715 247.775 284.353 246.455 283.591ZM247.513 281.758C248.445 282.313 249.344 282.557 250.208 282.492C251.083 282.423 251.896 282.099 252.649 281.519C253.405 280.932 254.075 280.132 254.66 279.119C255.245 278.106 255.599 277.132 255.722 276.196C255.848 275.254 255.72 274.391 255.339 273.606C254.963 272.824 254.308 272.159 253.372 271.611C252.44 271.056 251.538 270.81 250.668 270.872C249.803 270.937 248.993 271.264 248.237 271.85C247.48 272.437 246.807 273.235 246.216 274.244C245.625 275.253 245.266 276.229 245.14 277.171C245.017 278.107 245.146 278.967 245.528 279.753C245.916 280.541 246.578 281.21 247.513 281.758ZM255.634 288.522L263.29 275.262L271.762 280.153L270.714 281.967L264.167 278.187L262.019 281.907L267.461 285.049L266.414 286.863L260.972 283.721L258.606 287.819L265.153 291.599L264.106 293.413L255.634 288.522ZM267.238 295.221L274.894 281.961L276.846 283.088L277.686 296.711L283.375 286.858L285.327 287.985L277.671 301.245L275.719 300.118L274.884 286.486L269.19 296.348L267.238 295.221ZM281.346 303.367L289.002 290.107L290.927 291.218L283.271 304.478L281.346 303.367ZM285.852 305.968L294.249 301.865L293.627 292.777L295.985 294.138L296.378 300.921L302.431 297.86L304.797 299.226L296.616 303.232L297.252 312.55L294.895 311.189L294.491 304.19L288.219 307.334L285.852 305.968ZM304.248 316.589L311.904 303.329L317.115 306.338C317.957 306.823 318.563 307.403 318.936 308.076C319.308 308.75 319.481 309.443 319.454 310.156C319.431 310.863 319.245 311.517 318.898 312.119C318.476 312.849 317.934 313.371 317.27 313.683C316.613 314 315.925 314.077 315.208 313.917L315.45 313.455C316.176 314.153 316.591 314.937 316.695 315.807C316.802 316.671 316.623 317.505 316.159 318.309C315.709 319.089 315.16 319.677 314.514 320.073C313.874 320.473 313.162 320.663 312.379 320.645C311.605 320.624 310.798 320.371 309.957 319.885L304.248 316.589ZM307.258 315.883L310.72 317.882C311.156 318.134 311.594 318.276 312.033 318.309C312.479 318.345 312.889 318.267 313.262 318.073C313.646 317.877 313.961 317.564 314.209 317.134C314.44 316.735 314.558 316.325 314.564 315.903C314.58 315.478 314.476 315.078 314.251 314.703C314.035 314.324 313.706 314.008 313.264 313.753L309.682 311.684L307.258 315.883ZM310.73 309.87L313.962 311.736C314.318 311.942 314.678 312.056 315.042 312.078C315.415 312.097 315.763 312.019 316.085 311.845C316.416 311.668 316.693 311.386 316.917 310.999C317.214 310.484 317.287 309.961 317.135 309.431C316.982 308.901 316.618 308.469 316.041 308.136L312.808 306.27L310.73 309.87ZM315.758 323.234L327.724 312.462L330.495 314.063L327.149 329.811L325.151 328.657L328.168 314.266L328.665 314.553L317.757 324.388L315.758 323.234ZM319.724 321.534L320.766 319.729L327.691 323.727L326.648 325.532L319.724 321.534ZM329.722 331.296L337.378 318.036L339.302 319.147L335.73 325.335L344.855 322.353L347.249 323.736L337.646 326.822L340.026 337.245L337.558 335.821L335.304 326.072L331.646 332.407L329.722 331.296ZM342.243 338.525L349.899 325.265L358.371 330.157L357.323 331.971L350.776 328.191L348.628 331.911L354.07 335.053L353.023 336.867L347.581 333.725L345.215 337.823L351.762 341.603L350.715 343.417L342.243 338.525ZM353.847 345.225L361.503 331.965L366.862 335.059C366.991 335.134 367.147 335.232 367.33 335.354C367.517 335.47 367.688 335.593 367.842 335.723C368.511 336.265 368.98 336.871 369.247 337.541C369.521 338.215 369.611 338.918 369.516 339.649C369.422 340.38 369.169 341.101 368.758 341.814C368.148 342.869 367.352 343.625 366.368 344.081C365.389 344.53 364.304 344.538 363.113 344.104L362.277 343.745L358.52 341.575L355.772 346.336L353.847 345.225ZM361.601 349.701L362.101 342.795L364.331 343.42L363.801 350.972L361.601 349.701ZM359.573 339.752L362.934 341.693C363.057 341.764 363.195 341.835 363.35 341.908C363.51 341.985 363.667 342.046 363.82 342.094C364.266 342.228 364.68 342.242 365.061 342.135C365.445 342.021 365.784 341.832 366.076 341.567C366.368 341.302 366.608 341.007 366.796 340.681C366.984 340.356 367.118 340.003 367.198 339.624C367.281 339.238 367.274 338.854 367.177 338.47C367.083 338.08 366.866 337.725 366.526 337.407C366.412 337.292 366.282 337.184 366.136 337.083C365.995 336.986 365.864 336.902 365.741 336.831L362.38 334.89L359.573 339.752Z" fill="white"/>
<path d="M458.608 406.077C457.706 405.556 457.021 404.899 456.554 404.105C456.091 403.306 455.86 402.444 455.861 401.52C455.869 400.599 456.133 399.688 456.654 398.785L459.291 394.218C459.812 393.316 460.47 392.631 461.263 392.164C462.063 391.701 462.923 391.473 463.843 391.481C464.767 391.482 465.68 391.743 466.583 392.264C467.485 392.785 468.168 393.446 468.631 394.245C469.098 395.039 469.328 395.896 469.32 396.816C469.319 397.74 469.058 398.653 468.537 399.556L465.9 404.123C465.379 405.026 464.718 405.708 463.919 406.172C463.125 406.639 462.267 406.871 461.343 406.87C460.422 406.862 459.511 406.598 458.608 406.077ZM459.671 404.235C460.163 404.519 460.675 404.659 461.209 404.656C461.752 404.651 462.259 404.518 462.728 404.257C463.202 403.99 463.582 403.608 463.869 403.11L466.655 398.285C466.939 397.794 467.076 397.28 467.067 396.743C467.061 396.199 466.923 395.694 466.653 395.227C466.392 394.757 466.016 394.38 465.525 394.097C465.034 393.813 464.517 393.674 463.973 393.68C463.439 393.683 462.936 393.818 462.463 394.084C461.993 394.345 461.616 394.721 461.333 395.212L458.547 400.038C458.26 400.535 458.119 401.055 458.124 401.599C458.133 402.136 458.268 402.639 458.529 403.109C458.8 403.576 459.18 403.952 459.671 404.235ZM471.281 413.393C470.421 412.897 469.765 412.248 469.311 411.446C468.861 410.638 468.639 409.761 468.645 408.814C468.657 407.872 468.925 406.946 469.45 406.038L471.89 401.811C472.447 400.847 473.135 400.115 473.956 399.615C474.783 399.119 475.67 398.873 476.616 398.879C477.568 398.889 478.51 399.163 479.444 399.702C480.143 400.106 480.724 400.617 481.185 401.235C481.647 401.854 481.951 402.553 482.098 403.334L479.929 403.837C479.865 403.367 479.698 402.926 479.427 402.516C479.166 402.103 478.821 401.773 478.391 401.525C477.838 401.206 477.277 401.058 476.707 401.081C476.141 401.098 475.616 401.249 475.132 401.534C474.654 401.823 474.275 402.21 473.995 402.695L472.592 405.126L472.459 404.484C473.126 404.207 473.826 404.087 474.557 404.125C475.289 404.162 475.977 404.367 476.621 404.739C477.444 405.214 478.066 405.831 478.487 406.59C478.918 407.346 479.128 408.159 479.117 409.029C479.112 409.902 478.872 410.75 478.398 411.572C477.919 412.401 477.276 413.032 476.469 413.467C475.671 413.898 474.81 414.113 473.886 414.112C472.972 414.108 472.103 413.868 471.281 413.393ZM472.349 411.543C472.828 411.819 473.331 411.954 473.859 411.948C474.387 411.941 474.88 411.809 475.341 411.551C475.801 411.292 476.169 410.924 476.445 410.445C476.722 409.966 476.857 409.463 476.85 408.935C476.85 408.411 476.721 407.919 476.463 407.459C476.204 406.999 475.836 406.631 475.357 406.354C474.878 406.078 474.372 405.941 473.838 405.944C473.311 405.95 472.817 406.083 472.357 406.341C471.897 406.599 471.528 406.968 471.252 407.447C470.979 407.919 470.846 408.419 470.852 408.947C470.859 409.475 470.989 409.971 471.244 410.438C471.502 410.898 471.871 411.266 472.349 411.543ZM490.249 406.296L492.192 407.418L481 418.637L479.057 417.515L490.249 406.296ZM487.497 422.375L488.495 420.668L497.256 418.826C497.961 418.684 498.503 418.474 498.885 418.195C499.274 417.92 499.576 417.595 499.792 417.22C500.065 416.748 500.205 416.264 500.212 415.769C500.223 415.268 500.109 414.8 499.868 414.367C499.627 413.933 499.267 413.578 498.789 413.302C498.297 413.018 497.791 412.881 497.27 412.891C496.758 412.899 496.285 413.031 495.85 413.287C495.416 413.544 495.074 413.895 494.825 414.34L492.854 413.203C493.35 412.343 493.978 411.703 494.737 411.282C495.505 410.858 496.335 410.661 497.225 410.693C498.12 410.718 499.005 410.984 499.883 411.49C500.718 411.972 501.357 412.595 501.801 413.359C502.247 414.116 502.471 414.933 502.473 415.809C502.48 416.689 502.241 417.55 501.756 418.391C501.405 418.999 501.027 419.468 500.623 419.8C500.219 420.131 499.753 420.386 499.224 420.564C498.696 420.742 498.07 420.904 497.347 421.051L490.593 422.456L490.7 421.781L497.524 425.721L496.466 427.553L487.497 422.375ZM504.847 432.405L506.182 430.093L500.196 426.638L501.249 424.814L510.827 418.177L513.028 419.448L503.45 426.085L507.234 428.27L509.308 424.679L511.26 425.806L509.186 429.397L510.503 430.157L509.451 431.981L508.134 431.22L506.799 433.532L504.847 432.405Z" fill="white"/>
<path d="M336.493 95.011L339.728 96.8788L332.992 108.546C332.253 109.825 331.302 110.776 330.137 111.397C328.977 112.022 327.696 112.294 326.294 112.213C324.894 112.126 323.468 111.663 322.015 110.824C320.556 109.982 319.439 108.976 318.664 107.808C317.892 106.634 317.487 105.389 317.449 104.072C317.411 102.756 317.761 101.458 318.499 100.179L325.235 88.5115L328.47 90.3793L321.89 101.776C321.461 102.52 321.241 103.277 321.231 104.046C321.226 104.819 321.428 105.544 321.835 106.221C322.246 106.892 322.862 107.465 323.681 107.938C324.501 108.411 325.304 108.658 326.091 108.678C326.887 108.696 327.615 108.508 328.277 108.114C328.938 107.721 329.483 107.152 329.913 106.408L336.493 95.011ZM340.482 110.662L335.951 118.51L332.794 116.687L340.527 103.293L343.544 105.035L342.23 107.311L342.387 107.402C343.128 106.83 343.964 106.517 344.893 106.465C345.828 106.416 346.796 106.68 347.796 107.257C348.72 107.791 349.411 108.453 349.869 109.245C350.332 110.039 350.537 110.921 350.481 111.889C350.432 112.86 350.096 113.879 349.472 114.945L344.549 123.474L341.392 121.651L346.034 113.611C346.551 112.716 346.723 111.881 346.55 111.107C346.382 110.336 345.892 109.716 345.078 109.246C344.526 108.927 343.964 108.765 343.393 108.761C342.831 108.755 342.297 108.907 341.791 109.22C341.291 109.536 340.854 110.016 340.482 110.662ZM362.179 115.794L360.769 118.235L353.07 113.79L354.479 111.348L362.179 115.794ZM358.233 109.237L361.39 111.059L354.13 123.634C353.885 124.058 353.761 124.421 353.758 124.721C353.764 125.019 353.851 125.271 354.019 125.477C354.187 125.682 354.402 125.861 354.664 126.012C354.861 126.126 355.05 126.215 355.23 126.28C355.415 126.348 355.558 126.396 355.659 126.423L354.766 129.198C354.564 129.159 354.285 129.083 353.931 128.972C353.583 128.864 353.181 128.686 352.727 128.44C351.923 128.006 351.28 127.476 350.797 126.849C350.318 126.215 350.053 125.512 350.003 124.739C349.959 123.97 350.182 123.168 350.671 122.334L358.233 109.237ZM357.086 130.712L364.819 117.318L367.976 119.141L360.243 132.535L357.086 130.712ZM367.504 116.333C367.004 116.045 366.669 115.631 366.5 115.091C366.334 114.546 366.387 114.038 366.659 113.567C366.934 113.09 367.348 112.79 367.9 112.667C368.455 112.538 368.982 112.618 369.482 112.906C369.988 113.198 370.321 113.615 370.481 114.157C370.65 114.697 370.597 115.205 370.322 115.681C370.05 116.152 369.636 116.452 369.081 116.581C368.535 116.708 368.009 116.625 367.504 116.333ZM377.91 124.876L376.5 127.318L368.801 122.872L370.21 120.431L377.91 124.876ZM373.964 118.319L377.12 120.142L369.861 132.716C369.616 133.14 369.492 133.503 369.489 133.803C369.495 134.101 369.582 134.353 369.75 134.559C369.918 134.764 370.133 134.943 370.395 135.094C370.592 135.208 370.781 135.297 370.96 135.362C371.146 135.431 371.289 135.478 371.389 135.505L370.497 138.28C370.294 138.241 370.016 138.166 369.662 138.054C369.314 137.946 368.912 137.769 368.458 137.522C367.654 137.089 367.011 136.558 366.528 135.931C366.049 135.298 365.784 134.595 365.734 133.822C365.69 133.052 365.913 132.25 366.402 131.417L373.964 118.319ZM386.572 123.924L376.261 141.783L373.105 139.96L383.415 122.102L386.572 123.924ZM385.286 147.342C383.943 146.567 382.944 145.618 382.29 144.496C381.645 143.372 381.358 142.144 381.428 140.813C381.503 139.476 381.944 138.107 382.753 136.706C383.549 135.328 384.508 134.27 385.632 133.532C386.765 132.791 387.974 132.403 389.257 132.369C390.543 132.329 391.826 132.678 393.105 133.416C393.931 133.893 394.632 134.477 395.21 135.167C395.798 135.855 396.214 136.638 396.459 137.515C396.71 138.397 396.751 139.358 396.583 140.401C396.419 141.438 395.998 142.543 395.32 143.717L394.761 144.685L383.782 138.347L385.011 136.219L392.963 140.811C393.307 140.203 393.486 139.59 393.502 138.971C393.522 138.347 393.381 137.765 393.079 137.227C392.784 136.692 392.334 136.25 391.729 135.901C391.084 135.528 390.426 135.358 389.757 135.39C389.09 135.416 388.475 135.603 387.909 135.951C387.353 136.297 386.9 136.767 386.548 137.363L385.476 139.22C385.026 139.999 384.782 140.75 384.745 141.472C384.711 142.189 384.864 142.843 385.205 143.435C385.548 144.021 386.063 144.512 386.749 144.908C387.209 145.173 387.661 145.349 388.107 145.436C388.556 145.517 388.991 145.509 389.412 145.411C389.833 145.313 390.222 145.115 390.58 144.818L393.336 146.851C392.7 147.523 391.953 147.998 391.094 148.277C390.245 148.554 389.323 148.619 388.331 148.472C387.342 148.32 386.327 147.943 385.286 147.342ZM398.898 155.166C397.846 154.559 397.06 153.744 396.541 152.724C396.022 151.703 395.818 150.539 395.929 149.232C396.041 147.924 396.521 146.535 397.37 145.064C398.23 143.576 399.199 142.461 400.278 141.72C401.366 140.976 402.48 140.585 403.619 140.545C404.761 140.499 405.847 140.773 406.876 141.367C407.661 141.82 408.229 142.327 408.58 142.886C408.935 143.44 409.153 143.988 409.235 144.531C409.32 145.069 409.35 145.547 409.325 145.967L409.456 146.042L413.312 139.363L416.477 141.19L406.167 159.049L403.062 157.257L404.281 155.146L404.089 155.036C403.738 155.267 403.303 155.477 402.784 155.665C402.267 155.848 401.682 155.921 401.029 155.885C400.376 155.849 399.665 155.609 398.898 155.166ZM401.274 153.085C401.942 153.471 402.616 153.619 403.295 153.531C403.977 153.436 404.629 153.134 405.249 152.624C405.869 152.114 406.429 151.426 406.929 150.56C407.429 149.693 407.742 148.87 407.867 148.09C407.997 147.313 407.93 146.611 407.664 145.984C407.403 145.361 406.933 144.853 406.253 144.461C405.55 144.054 404.857 143.899 404.174 143.993C403.492 144.087 402.845 144.388 402.234 144.896C401.624 145.404 401.078 146.073 400.598 146.904C400.115 147.742 399.803 148.557 399.662 149.352C399.53 150.144 399.591 150.865 399.843 151.515C400.105 152.162 400.582 152.685 401.274 153.085ZM411.364 162.305C410.835 162 410.489 161.552 410.326 160.962C410.163 160.372 410.239 159.811 410.554 159.279C410.85 158.753 411.294 158.413 411.887 158.259C412.48 158.105 413.04 158.181 413.569 158.486C414.081 158.781 414.418 159.224 414.581 159.814C414.75 160.408 414.687 160.968 414.39 161.495C414.18 161.846 413.901 162.115 413.552 162.301C413.21 162.491 412.843 162.59 412.452 162.596C412.07 162.6 411.707 162.503 411.364 162.305Z" fill="white"/>
<g clip-path="url(#clip1_15_265595)">
<path d="M741.655 324.198C741.655 330.864 739.9 337.412 736.567 343.185C733.235 348.958 728.441 353.752 722.668 357.085M732.331 323.638C732.331 328.838 730.963 333.945 728.363 338.448C725.763 342.951 722.024 346.69 717.521 349.29M723.507 322.972C723.49 326.762 722.481 330.489 720.581 333.78C718.681 337.07 715.958 339.808 712.685 341.718M714.531 322.57C714.68 325.023 714.117 327.433 712.909 329.526C711.701 331.619 709.894 333.311 707.696 334.409" stroke="white" stroke-width="4.55696" stroke-linecap="round"/>
</g>
</g>
<rect x="313.873" y="34.2377" width="559" height="335.709" rx="19.5" transform="rotate(30 313.873 34.2377)" stroke="url(#paint1_linear_15_265595)"/>
</g>
<g filter="url(#filter2_bd_15_265595)">
<g clip-path="url(#clip2_15_265595)">
<rect x="617.354" y="11" width="560" height="336.709" rx="20" transform="rotate(30 617.354 11)" fill="url(#paint2_linear_15_265595)"/>
<g filter="url(#filter3_f_15_265595)">
<path opacity="0.3" d="M536.09 95.0454C575.24 27.2368 661.946 4.00387 729.755 43.1532V43.1532L658.869 165.931L536.09 95.0454V95.0454Z" fill="#EE46BC"/>
<path opacity="0.3" d="M729.755 43.1536V43.1536C797.563 82.3029 820.796 169.009 781.647 236.818V236.818L658.869 165.932L729.755 43.1536Z" fill="#EF6820"/>
<path opacity="0.3" d="M536.091 95.0461L658.869 165.932L587.983 288.711V288.711C520.174 249.561 496.942 162.855 536.091 95.0461V95.0461Z" fill="#2E90FA"/>
<path opacity="0.3" d="M658.869 165.932L781.647 236.818V236.818C742.498 304.627 655.792 327.86 587.983 288.711V288.711L658.869 165.932Z" fill="#12B76A"/>
</g>
<path d="M497.027 287.208L505.604 272.352L501.107 272.457L502.759 269.596L507.235 269.528L509.85 271.038L499.642 288.718L497.027 287.208ZM507.504 293.241L508.835 290.964L520.517 288.509C521.456 288.319 522.18 288.039 522.689 287.667C523.206 287.3 523.609 286.867 523.898 286.368C524.261 285.737 524.448 285.092 524.458 284.432C524.473 283.764 524.32 283.141 523.999 282.563C523.678 281.985 523.198 281.511 522.56 281.143C521.905 280.765 521.23 280.582 520.535 280.595C519.852 280.605 519.221 280.781 518.642 281.123C518.062 281.465 517.607 281.934 517.275 282.528L514.647 281.011C515.309 279.865 516.145 279.011 517.157 278.449C518.182 277.884 519.288 277.622 520.476 277.664C521.668 277.697 522.849 278.052 524.019 278.728C525.133 279.37 525.985 280.201 526.576 281.219C527.171 282.228 527.47 283.317 527.472 284.486C527.482 285.66 527.163 286.807 526.516 287.929C526.048 288.739 525.545 289.365 525.006 289.807C524.467 290.249 523.845 290.588 523.141 290.826C522.436 291.063 521.602 291.28 520.637 291.476L511.633 293.349L511.776 292.449L520.873 297.702L519.463 300.145L507.504 293.241ZM530.84 307.172C529.964 306.667 529.236 306.028 528.656 305.256C528.08 304.476 527.687 303.617 527.477 302.677C527.275 301.741 527.288 300.783 527.516 299.802L530.393 300.546C530.191 301.444 530.267 302.268 530.62 303.018C530.977 303.759 531.519 304.333 532.244 304.741C532.895 305.106 533.551 305.283 534.213 305.272C534.874 305.261 535.488 305.086 536.054 304.748C536.626 304.401 537.1 303.9 537.478 303.245C538.045 302.263 538.206 301.275 537.961 300.282C537.724 299.294 537.114 298.517 536.132 297.95C535.854 297.789 535.544 297.664 535.202 297.576C534.868 297.493 534.536 297.443 534.207 297.428L534.174 294.707L543.593 292.795L543.438 293.688L534.844 288.726L536.254 286.283L546.887 292.421L545.476 294.865L537.417 296.858L537.875 296.009C538.988 296.652 539.81 297.459 540.34 298.431C540.875 299.395 541.118 300.43 541.068 301.536C541.031 302.639 540.711 303.714 540.106 304.762C539.454 305.892 538.609 306.741 537.571 307.309C536.542 307.883 535.437 308.162 534.256 308.146C533.084 308.135 531.945 307.81 530.84 307.172ZM551.309 318.548L553.088 315.466L545.107 310.858L546.511 308.427L559.282 299.578L562.216 301.272L549.445 310.122L554.492 313.035L557.256 308.247L559.859 309.749L557.095 314.538L558.85 315.551L557.447 317.982L555.691 316.969L553.912 320.051L551.309 318.548ZM573.979 331.637L582.557 316.78L578.06 316.885L579.711 314.025L584.187 313.957L586.802 315.466L576.595 333.146L573.979 331.637ZM584.456 337.669L585.787 335.393L597.469 332.937C598.408 332.748 599.132 332.467 599.641 332.096C600.159 331.729 600.561 331.295 600.85 330.796C601.214 330.166 601.401 329.521 601.411 328.861C601.425 328.193 601.272 327.569 600.951 326.991C600.63 326.413 600.15 325.94 599.512 325.571C598.857 325.193 598.182 325.011 597.487 325.024C596.805 325.034 596.174 325.21 595.594 325.552C595.015 325.894 594.559 326.362 594.227 326.956L591.599 325.439C592.261 324.293 593.098 323.439 594.11 322.878C595.134 322.312 596.24 322.051 597.428 322.092C598.62 322.126 599.801 322.48 600.972 323.156C602.085 323.799 602.937 324.629 603.528 325.647C604.124 326.657 604.423 327.746 604.424 328.915C604.434 330.088 604.116 331.236 603.468 332.357C603 333.167 602.497 333.793 601.958 334.235C601.419 334.677 600.798 335.017 600.093 335.254C599.389 335.491 598.554 335.708 597.59 335.904L588.585 337.777L588.728 336.878L597.826 342.13L596.415 344.573L584.456 337.669ZM607.792 351.601C606.917 351.095 606.189 350.456 605.608 349.685C605.033 348.905 604.639 348.045 604.429 347.105C604.227 346.17 604.24 345.211 604.468 344.23L607.345 344.974C607.143 345.873 607.219 346.697 607.572 347.446C607.93 348.187 608.471 348.762 609.196 349.17C609.847 349.535 610.504 349.712 611.165 349.701C611.826 349.689 612.44 349.515 613.007 349.176C613.578 348.829 614.053 348.328 614.431 347.674C614.998 346.691 615.159 345.704 614.913 344.711C614.676 343.723 614.067 342.945 613.084 342.378C612.806 342.217 612.496 342.093 612.154 342.005C611.82 341.921 611.489 341.872 611.159 341.856L611.126 339.135L620.546 337.224L620.39 338.116L611.796 333.154L613.207 330.711L623.839 336.85L622.429 339.293L614.369 341.286L614.827 340.437C615.94 341.08 616.762 341.887 617.292 342.859C617.827 343.823 618.07 344.858 618.02 345.964C617.984 347.067 617.663 348.143 617.058 349.191C616.406 350.32 615.561 351.169 614.523 351.738C613.494 352.311 612.389 352.59 611.208 352.574C610.036 352.563 608.897 352.239 607.792 351.601ZM628.261 362.976L630.04 359.894L622.06 355.287L623.463 352.856L636.234 344.006L639.169 345.7L626.398 354.55L631.444 357.463L634.208 352.675L636.811 354.178L634.047 358.966L635.802 359.98L634.399 362.411L632.643 361.397L630.864 364.479L628.261 362.976ZM650.932 376.065L659.509 361.209L655.012 361.314L656.664 358.453L661.139 358.385L663.754 359.895L653.547 377.575L650.932 376.065ZM661.409 382.098L662.739 379.821L674.421 377.365C675.36 377.176 676.084 376.896 676.593 376.524C677.111 376.157 677.514 375.724 677.802 375.225C678.166 374.594 678.353 373.949 678.363 373.289C678.377 372.621 678.224 371.998 677.903 371.42C677.582 370.841 677.103 370.368 676.464 369.999C675.809 369.621 675.134 369.439 674.439 369.452C673.757 369.462 673.126 369.638 672.546 369.98C671.967 370.322 671.511 370.79 671.179 371.384L668.552 369.867C669.213 368.722 670.05 367.868 671.062 367.306C672.087 366.741 673.193 366.479 674.38 366.521C675.572 366.554 676.753 366.909 677.924 367.584C679.037 368.227 679.889 369.057 680.48 370.075C681.076 371.085 681.375 372.174 681.377 373.343C681.387 374.517 681.068 375.664 680.42 376.785C679.953 377.596 679.449 378.222 678.91 378.664C678.371 379.106 677.75 379.445 677.045 379.682C676.341 379.92 675.506 380.136 674.542 380.332L665.537 382.206L665.68 381.306L674.778 386.559L673.367 389.002L661.409 382.098ZM684.745 396.029C683.869 395.523 683.141 394.885 682.56 394.113C681.985 393.333 681.592 392.473 681.381 391.533C681.179 390.598 681.192 389.64 681.421 388.658L684.298 389.403C684.096 390.301 684.171 391.125 684.524 391.874C684.882 392.616 685.423 393.19 686.148 393.598C686.8 393.963 687.456 394.14 688.117 394.129C688.778 394.118 689.392 393.943 689.959 393.604C690.53 393.258 691.005 392.757 691.383 392.102C691.95 391.12 692.111 390.132 691.866 389.139C691.628 388.151 691.019 387.374 690.037 386.806C689.758 386.646 689.448 386.521 689.106 386.433C688.773 386.349 688.441 386.3 688.112 386.284L688.078 383.564L697.498 381.652L697.343 382.545L688.748 377.583L690.159 375.139L700.791 381.278L699.381 383.721L691.322 385.715L691.779 384.866C692.892 385.508 693.714 386.316 694.244 387.288C694.779 388.251 695.022 389.286 694.973 390.393C694.936 391.496 694.615 392.571 694.01 393.619C693.358 394.748 692.513 395.598 691.476 396.166C690.446 396.74 689.341 397.018 688.161 397.003C686.988 396.991 685.85 396.667 684.745 396.029ZM705.213 407.405L706.993 404.323L699.012 399.715L700.416 397.284L713.186 388.434L716.121 390.129L703.35 398.978L708.396 401.892L711.161 397.103L713.764 398.606L710.999 403.395L712.755 404.408L711.351 406.839L709.595 405.826L707.816 408.907L705.213 407.405ZM727.884 420.493L736.461 405.637L731.964 405.742L733.616 402.881L738.092 402.813L740.707 404.323L730.499 422.003L727.884 420.493ZM738.361 426.526L739.692 424.249L751.374 421.794C752.312 421.605 753.036 421.324 753.546 420.952C754.063 420.585 754.466 420.152 754.754 419.653C755.118 419.023 755.305 418.378 755.315 417.718C755.33 417.049 755.177 416.426 754.856 415.848C754.535 415.27 754.055 414.796 753.416 414.428C752.762 414.05 752.087 413.867 751.391 413.881C750.709 413.891 750.078 414.067 749.499 414.409C748.919 414.751 748.463 415.219 748.131 415.813L745.504 414.296C746.165 413.15 747.002 412.296 748.014 411.734C749.039 411.169 750.145 410.907 751.332 410.949C752.524 410.982 753.706 411.337 754.876 412.013C755.989 412.656 756.841 413.486 757.432 414.504C758.028 415.513 758.327 416.603 758.329 417.771C758.339 418.945 758.02 420.092 757.373 421.214C756.905 422.024 756.402 422.65 755.863 423.092C755.324 423.534 754.702 423.874 753.998 424.111C753.293 424.348 752.459 424.565 751.494 424.761L742.489 426.634L742.632 425.734L751.73 430.987L750.32 433.43L738.361 426.526ZM761.697 440.457C760.821 439.952 760.093 439.313 759.513 438.541C758.937 437.762 758.544 436.902 758.334 435.962C758.131 435.027 758.145 434.068 758.373 433.087L761.25 433.831C761.048 434.729 761.123 435.553 761.476 436.303C761.834 437.044 762.375 437.619 763.101 438.026C763.752 438.392 764.408 438.569 765.069 438.557C765.731 438.546 766.345 438.371 766.911 438.033C767.482 437.686 767.957 437.185 768.335 436.53C768.902 435.548 769.063 434.561 768.818 433.568C768.581 432.58 767.971 431.802 766.989 431.235C766.711 431.074 766.4 430.95 766.059 430.861C765.725 430.778 765.393 430.728 765.064 430.713L765.03 427.992L774.45 426.081L774.295 426.973L765.701 422.011L767.111 419.568L777.744 425.707L776.333 428.15L768.274 430.143L768.731 429.294C769.845 429.937 770.666 430.744 771.197 431.716C771.732 432.68 771.974 433.715 771.925 434.821C771.888 435.924 771.567 437 770.963 438.047C770.31 439.177 769.466 440.026 768.428 440.595C767.398 441.168 766.293 441.447 765.113 441.431C763.941 441.42 762.802 441.095 761.697 440.457ZM782.166 451.833L783.945 448.751L775.964 444.144L777.368 441.713L790.139 432.863L793.073 434.557L780.302 443.407L785.348 446.32L788.113 441.532L790.716 443.035L787.951 447.823L789.707 448.837L788.303 451.268L786.548 450.254L784.768 453.336L782.166 451.833Z" fill="white"/>
<path d="M523.656 245.757C522.33 244.992 521.367 244.051 520.767 242.935C520.171 241.813 519.923 240.59 520.025 239.266C520.133 237.945 520.582 236.6 521.373 235.231C522.163 233.862 523.103 232.8 524.193 232.046C525.289 231.296 526.471 230.901 527.737 230.863C529.007 230.819 530.305 231.179 531.631 231.945C532.951 232.707 533.909 233.649 534.505 234.771C535.111 235.89 535.36 237.11 535.253 238.431C535.145 239.752 534.696 241.097 533.905 242.466C533.115 243.835 532.175 244.897 531.084 245.651C529.994 246.405 528.811 246.802 527.535 246.843C526.269 246.881 524.976 246.519 523.656 245.757ZM524.714 243.925C525.646 244.479 526.545 244.724 527.409 244.658C528.283 244.59 529.097 244.266 529.849 243.685C530.606 243.099 531.276 242.299 531.861 241.286C532.446 240.273 532.8 239.299 532.922 238.363C533.049 237.421 532.921 236.557 532.54 235.772C532.164 234.991 531.509 234.326 530.573 233.777C529.641 233.223 528.739 232.976 527.868 233.039C527.004 233.104 526.194 233.43 525.437 234.017C524.681 234.603 524.008 235.401 523.417 236.411C522.826 237.42 522.467 238.396 522.341 239.338C522.218 240.274 522.347 241.134 522.729 241.919C523.117 242.708 523.778 243.376 524.714 243.925ZM533.019 250.795L540.675 237.535L542.599 238.646L535.991 250.092L541.995 253.558L540.947 255.372L533.019 250.795ZM543.616 256.913L551.272 243.653L553.196 244.764L545.54 258.024L543.616 256.913ZM552.339 261.949L555.685 246.201L557.683 247.355L554.824 260.793L565.078 251.624L567.076 252.777L555.111 263.549L552.339 261.949ZM561.914 267.477L569.57 254.217L571.494 255.328L563.838 268.588L561.914 267.477ZM566.604 270.185L578.569 259.413L581.341 261.013L577.994 276.761L575.996 275.608L579.013 261.216L579.511 261.504L568.602 271.339L566.604 270.185ZM570.569 268.484L571.611 266.679L578.536 270.677L577.494 272.482L570.569 268.484ZM585.175 280.907L592.831 267.647L598.19 270.741C598.319 270.816 598.475 270.914 598.658 271.036C598.845 271.152 599.016 271.275 599.17 271.405C599.839 271.947 600.308 272.553 600.575 273.223C600.849 273.897 600.939 274.6 600.844 275.331C600.75 276.062 600.497 276.784 600.086 277.496C599.476 278.552 598.68 279.307 597.696 279.763C596.717 280.212 595.632 280.22 594.441 279.786L593.605 279.427L589.848 277.257L587.1 282.018L585.175 280.907ZM592.929 285.384L593.429 278.478L595.659 279.102L595.129 286.654L592.929 285.384ZM590.901 275.434L594.262 277.375C594.385 277.446 594.523 277.517 594.678 277.59C594.838 277.667 594.995 277.728 595.148 277.776C595.594 277.91 596.007 277.924 596.389 277.817C596.773 277.703 597.112 277.514 597.404 277.249C597.696 276.984 597.936 276.689 598.124 276.363C598.312 276.038 598.446 275.685 598.526 275.306C598.609 274.92 598.602 274.536 598.505 274.152C598.411 273.762 598.194 273.408 597.854 273.089C597.74 272.974 597.61 272.866 597.464 272.765C597.323 272.668 597.192 272.584 597.069 272.513L593.708 270.572L590.901 275.434ZM598.074 288.354L605.73 275.094L607.654 276.205L604.353 281.924L610.983 285.752L614.284 280.033L616.218 281.15L608.562 294.41L606.629 293.293L609.935 287.566L603.305 283.738L599.999 289.465L598.074 288.354ZM615.265 298.28L618.429 292.801L618.437 282.431L620.683 283.728L620.681 291.154L627.111 287.439L629.358 288.736L620.381 293.928L617.218 299.407L615.265 298.28ZM623.908 303.269L631.564 290.009L640.035 294.901L638.988 296.715L632.441 292.935L630.293 296.655L635.735 299.797L634.688 301.611L629.246 298.469L626.88 302.567L633.427 306.347L632.38 308.161L623.908 303.269Z" fill="white"/>
<path d="M762.272 383.522C761.37 383.001 760.685 382.344 760.218 381.551C759.755 380.751 759.524 379.889 759.526 378.965C759.533 378.045 759.797 377.133 760.318 376.231L762.955 371.663C763.476 370.761 764.134 370.076 764.927 369.609C765.727 369.146 766.587 368.918 767.507 368.926C768.431 368.927 769.344 369.189 770.247 369.71C771.149 370.231 771.832 370.891 772.296 371.69C772.762 372.484 772.992 373.341 772.984 374.261C772.983 375.185 772.722 376.099 772.201 377.001L769.564 381.568C769.043 382.471 768.382 383.154 767.583 383.617C766.789 384.084 765.931 384.317 765.007 384.315C764.086 384.308 763.175 384.043 762.272 383.522ZM763.336 381.681C763.827 381.964 764.339 382.104 764.873 382.102C765.416 382.096 765.923 381.963 766.393 381.702C766.866 381.435 767.246 381.053 767.533 380.556L770.319 375.731C770.603 375.239 770.74 374.725 770.731 374.188C770.725 373.645 770.587 373.139 770.317 372.672C770.056 372.202 769.68 371.826 769.189 371.542C768.698 371.259 768.181 371.12 767.637 371.125C767.103 371.128 766.6 371.263 766.127 371.53C765.657 371.791 765.28 372.167 764.997 372.658L762.211 377.483C761.924 377.98 761.783 378.5 761.788 379.044C761.797 379.581 761.932 380.085 762.193 380.554C762.464 381.022 762.844 381.397 763.336 381.681ZM774.945 390.839C774.085 390.343 773.429 389.693 772.975 388.891C772.525 388.083 772.303 387.206 772.309 386.26C772.321 385.317 772.589 384.392 773.114 383.483L775.554 379.257C776.111 378.293 776.799 377.561 777.62 377.061C778.447 376.564 779.334 376.319 780.28 376.325C781.232 376.334 782.174 376.608 783.108 377.147C783.807 377.551 784.388 378.062 784.85 378.681C785.311 379.299 785.615 379.999 785.762 380.779L783.593 381.283C783.529 380.812 783.362 380.371 783.091 379.961C782.83 379.549 782.485 379.218 782.055 378.97C781.502 378.651 780.941 378.503 780.371 378.526C779.805 378.543 779.28 378.694 778.796 378.98C778.318 379.268 777.939 379.655 777.659 380.14L776.256 382.571L776.123 381.93C776.79 381.652 777.49 381.532 778.221 381.57C778.953 381.607 779.641 381.812 780.285 382.184C781.108 382.659 781.73 383.276 782.151 384.035C782.582 384.791 782.792 385.604 782.781 386.474C782.776 387.347 782.537 388.195 782.062 389.017C781.583 389.846 780.94 390.478 780.133 390.912C779.335 391.344 778.474 391.559 777.55 391.557C776.636 391.553 775.767 391.314 774.945 390.839ZM776.013 388.988C776.492 389.264 776.995 389.399 777.523 389.393C778.051 389.386 778.544 389.254 779.005 388.996C779.465 388.738 779.833 388.369 780.109 387.89C780.386 387.412 780.521 386.908 780.514 386.381C780.514 385.857 780.385 385.365 780.127 384.905C779.868 384.444 779.5 384.076 779.021 383.8C778.542 383.523 778.036 383.386 777.502 383.389C776.975 383.396 776.481 383.528 776.021 383.786C775.561 384.045 775.192 384.413 774.916 384.892C774.643 385.365 774.51 385.865 774.516 386.392C774.523 386.92 774.653 387.417 774.908 387.883C775.166 388.343 775.535 388.711 776.013 388.988ZM793.913 383.742L795.856 384.863L784.664 396.082L782.721 394.96L793.913 383.742ZM791.161 399.821L792.159 398.113L800.921 396.271C801.625 396.129 802.168 395.919 802.55 395.64C802.938 395.365 803.24 395.04 803.456 394.666C803.729 394.193 803.869 393.709 803.877 393.214C803.888 392.713 803.773 392.246 803.532 391.812C803.291 391.378 802.931 391.023 802.453 390.747C801.961 390.463 801.455 390.327 800.934 390.337C800.422 390.344 799.949 390.476 799.514 390.733C799.08 390.989 798.738 391.34 798.489 391.786L796.518 390.648C797.014 389.788 797.642 389.148 798.401 388.727C799.169 388.303 799.999 388.107 800.889 388.138C801.784 388.163 802.67 388.429 803.547 388.936C804.382 389.418 805.021 390.04 805.465 390.804C805.911 391.561 806.136 392.378 806.137 393.255C806.144 394.135 805.905 394.995 805.42 395.836C805.069 396.444 804.691 396.914 804.287 397.245C803.883 397.577 803.417 397.831 802.888 398.009C802.36 398.187 801.734 398.35 801.011 398.497L794.257 399.902L794.364 399.227L801.188 403.166L800.13 404.999L791.161 399.821ZM808.511 409.85L809.846 407.539L803.86 404.083L804.913 402.26L814.491 395.622L816.692 396.893L807.114 403.53L810.898 405.715L812.972 402.124L814.924 403.251L812.851 406.843L814.167 407.603L813.115 409.426L811.798 408.666L810.463 410.977L808.511 409.85Z" fill="white"/>
<path d="M640.157 72.4563L643.392 74.3241L636.656 85.9916C635.917 87.2705 634.966 88.2209 633.801 88.8426C632.641 89.4678 631.36 89.7397 629.958 89.6586C628.559 89.5716 627.132 89.1085 625.679 88.2694C624.22 87.427 623.103 86.4216 622.328 85.2534C621.556 84.0793 621.151 82.8339 621.113 81.5174C621.075 80.2009 621.425 78.9031 622.163 77.6242L628.899 65.9568L632.134 67.8246L625.554 79.2217C625.125 79.9658 624.905 80.7225 624.895 81.4918C624.89 82.2644 625.092 82.9893 625.5 83.6664C625.91 84.3376 626.526 84.9099 627.345 85.3831C628.165 85.8563 628.968 86.103 629.755 86.1232C630.551 86.1409 631.279 85.9531 631.941 85.5597C632.602 85.1663 633.147 84.5976 633.577 83.8534L640.157 72.4563ZM644.146 88.1069L639.615 95.9549L636.458 94.1324L644.191 80.7384L647.208 82.4804L645.894 84.7563L646.051 84.8469C646.792 84.2749 647.628 83.9626 648.557 83.9102C649.492 83.861 650.46 84.1251 651.46 84.7024C652.384 85.2361 653.075 85.8986 653.533 86.6899C653.996 87.4846 654.201 88.366 654.146 89.3341C654.096 90.3056 653.76 91.3245 653.137 92.3908L648.213 100.919L645.056 99.0965L649.698 91.0566C650.215 90.1613 650.387 89.3266 650.214 88.5523C650.046 87.7814 649.556 87.161 648.742 86.6911C648.19 86.3722 647.628 86.2107 647.057 86.2065C646.495 86.1998 645.961 86.3527 645.455 86.6652C644.955 86.981 644.518 87.4616 644.146 88.1069ZM665.843 93.2392L664.433 95.6808L656.734 91.2353L658.143 88.7937L665.843 93.2392ZM661.897 86.6822L665.054 88.5047L657.794 101.079C657.549 101.503 657.425 101.866 657.422 102.166C657.428 102.465 657.515 102.716 657.683 102.922C657.851 103.128 658.066 103.306 658.328 103.457C658.525 103.571 658.714 103.66 658.894 103.725C659.079 103.794 659.222 103.841 659.323 103.868L658.43 106.643C658.228 106.604 657.949 106.529 657.595 106.417C657.247 106.309 656.845 106.132 656.391 105.885C655.587 105.452 654.944 104.921 654.461 104.294C653.982 103.661 653.717 102.958 653.667 102.185C653.623 101.415 653.846 100.613 654.335 99.7797L661.897 86.6822ZM660.75 108.157L668.483 94.7634L671.64 96.5858L663.907 109.98L660.75 108.157ZM671.168 93.7787C670.668 93.49 670.333 93.076 670.164 92.5365C669.998 91.9912 670.051 91.4832 670.323 91.0123C670.598 90.5356 671.012 90.2356 671.564 90.1123C672.119 89.9833 672.646 90.063 673.146 90.3517C673.652 90.6437 673.985 91.0606 674.145 91.6026C674.314 92.142 674.261 92.6501 673.986 93.1268C673.714 93.5977 673.3 93.8976 672.745 94.0267C672.199 94.1534 671.673 94.0707 671.168 93.7787ZM681.574 102.321L680.164 104.763L672.465 100.318L673.874 97.8759L681.574 102.321ZM677.628 95.7645L680.785 97.587L673.525 110.161C673.28 110.586 673.156 110.948 673.153 111.249C673.159 111.547 673.246 111.799 673.414 112.004C673.582 112.21 673.797 112.388 674.059 112.539C674.256 112.653 674.445 112.743 674.625 112.808C674.81 112.876 674.953 112.924 675.054 112.951L674.161 115.726C673.959 115.686 673.68 115.611 673.326 115.5C672.978 115.391 672.576 115.214 672.122 114.967C671.318 114.534 670.675 114.004 670.192 113.376C669.713 112.743 669.448 112.04 669.398 111.267C669.354 110.497 669.577 109.696 670.066 108.862L677.628 95.7645ZM690.236 101.37L679.925 119.228L676.769 117.406L687.079 99.5471L690.236 101.37ZM688.95 124.787C687.607 124.012 686.609 123.063 685.954 121.942C685.309 120.817 685.022 119.589 685.092 118.258C685.167 116.922 685.608 115.553 686.417 114.152C687.213 112.774 688.172 111.716 689.296 110.977C690.429 110.236 691.638 109.849 692.921 109.814C694.207 109.774 695.49 110.123 696.769 110.862C697.595 111.338 698.296 111.922 698.875 112.612C699.462 113.3 699.878 114.083 700.123 114.961C700.374 115.842 700.415 116.804 700.248 117.846C700.083 118.883 699.662 119.988 698.984 121.163L698.425 122.131L687.446 115.792L688.675 113.665L696.628 118.256C696.971 117.648 697.15 117.035 697.167 116.416C697.186 115.792 697.045 115.211 696.743 114.672C696.448 114.137 695.998 113.695 695.393 113.346C694.748 112.973 694.09 112.803 693.421 112.835C692.755 112.861 692.139 113.048 691.574 113.396C691.017 113.742 690.564 114.212 690.212 114.808L689.14 116.665C688.69 117.444 688.447 118.195 688.409 118.918C688.375 119.634 688.528 120.289 688.869 120.88C689.213 121.466 689.727 121.958 690.413 122.354C690.873 122.619 691.325 122.795 691.771 122.882C692.22 122.963 692.655 122.954 693.076 122.856C693.497 122.758 693.887 122.561 694.244 122.263L697 124.296C696.365 124.968 695.617 125.443 694.758 125.723C693.909 125.999 692.988 126.064 691.995 125.918C691.006 125.765 689.991 125.388 688.95 124.787ZM702.562 132.611C701.51 132.004 700.724 131.19 700.205 130.169C699.686 129.149 699.482 127.985 699.593 126.677C699.705 125.369 700.185 123.98 701.034 122.51C701.894 121.021 702.863 119.907 703.942 119.165C705.03 118.422 706.144 118.03 707.283 117.99C708.426 117.944 709.511 118.218 710.54 118.813C711.325 119.266 711.893 119.772 712.245 120.331C712.599 120.885 712.817 121.433 712.899 121.977C712.984 122.514 713.014 122.992 712.989 123.412L713.12 123.488L716.976 116.808L720.142 118.635L709.831 136.494L706.726 134.702L707.945 132.592L707.753 132.481C707.402 132.712 706.967 132.922 706.448 133.111C705.931 133.293 705.347 133.366 704.693 133.33C704.04 133.294 703.329 133.054 702.562 132.611ZM704.938 130.53C705.606 130.916 706.28 131.065 706.959 130.976C707.641 130.882 708.293 130.579 708.913 130.069C709.533 129.559 710.093 128.871 710.593 128.005C711.093 127.139 711.406 126.315 711.531 125.535C711.662 124.758 711.594 124.056 711.328 123.43C711.067 122.806 710.597 122.299 709.917 121.906C709.214 121.5 708.521 121.344 707.838 121.438C707.156 121.533 706.509 121.834 705.899 122.341C705.288 122.849 704.742 123.518 704.262 124.35C703.779 125.187 703.467 126.003 703.326 126.797C703.194 127.589 703.255 128.31 703.507 128.96C703.769 129.607 704.246 130.131 704.938 130.53ZM715.028 139.751C714.499 139.445 714.153 138.998 713.99 138.407C713.827 137.817 713.903 137.256 714.218 136.725C714.514 136.198 714.958 135.858 715.551 135.704C716.144 135.55 716.705 135.626 717.234 135.931C717.745 136.227 718.082 136.67 718.245 137.26C718.414 137.853 718.351 138.413 718.054 138.94C717.844 139.291 717.565 139.56 717.217 139.747C716.874 139.937 716.508 140.035 716.116 140.042C715.734 140.046 715.371 139.949 715.028 139.751Z" fill="white"/>
<g clip-path="url(#clip3_15_265595)">
<path d="M1045.32 301.643C1045.32 308.309 1043.56 314.858 1040.23 320.63C1036.9 326.403 1032.1 331.197 1026.33 334.53M1036 301.083C1036 306.283 1034.63 311.391 1032.03 315.894C1029.43 320.396 1025.69 324.136 1021.19 326.735M1027.17 300.418C1027.15 304.207 1026.14 307.935 1024.25 311.225C1022.35 314.516 1019.62 317.254 1016.35 319.163M1018.2 300.015C1018.34 302.468 1017.78 304.878 1016.57 306.971C1015.36 309.064 1013.56 310.756 1011.36 311.854" stroke="white" stroke-width="4.55696" stroke-linecap="round"/>
</g>
</g>
<rect x="617.538" y="11.683" width="559" height="335.709" rx="19.5" transform="rotate(30 617.538 11.683)" stroke="url(#paint3_linear_15_265595)"/>
</g>
<defs>
<filter id="filter0_bd_15_265595" x="124.07" y="12.2889" width="717.127" height="638.94" filterUnits="userSpaceOnUse" color-interpolation-filters="sRGB">
<feFlood flood-opacity="0" result="BackgroundImageFix"/>
<feGaussianBlur in="BackgroundImageFix" stdDeviation="10.6329"/>
<feComposite in2="SourceAlpha" operator="in" result="effect1_backgroundBlur_15_265595"/>
<feColorMatrix in="SourceAlpha" type="matrix" values="0 0 0 0 0 0 0 0 0 0 0 0 0 0 0 0 0 0 127 0" result="hardAlpha"/>
<feOffset dx="14.1772" dy="17.7215"/>
<feGaussianBlur stdDeviation="14.1772"/>
<feColorMatrix type="matrix" values="0 0 0 0 0 0 0 0 0 0 0 0 0 0 0 0 0 0 0.05 0"/>
<feBlend mode="normal" in2="effect1_backgroundBlur_15_265595" result="effect2_dropShadow_15_265595"/>
<feBlend mode="normal" in="SourceGraphic" in2="effect2_dropShadow_15_265595" result="shape"/>
</filter>
<filter id="filter1_f_15_265595" x="-65.2954" y="-232.014" width="841" height="841" filterUnits="userSpaceOnUse" color-interpolation-filters="sRGB">
<feFlood flood-opacity="0" result="BackgroundImageFix"/>
<feBlend mode="normal" in="SourceGraphic" in2="BackgroundImageFix" result="shape"/>
<feGaussianBlur stdDeviation="113.418" result="effect1_foregroundBlur_15_265595"/>
</filter>
<filter id="filter2_bd_15_265595" x="427.734" y="-10.2658" width="717.127" height="638.94" filterUnits="userSpaceOnUse" color-interpolation-filters="sRGB">
<feFlood flood-opacity="0" result="BackgroundImageFix"/>
<feGaussianBlur in="BackgroundImageFix" stdDeviation="10.6329"/>
<feComposite in2="SourceAlpha" operator="in" result="effect1_backgroundBlur_15_265595"/>
<feColorMatrix in="SourceAlpha" type="matrix" values="0 0 0 0 0 0 0 0 0 0 0 0 0 0 0 0 0 0 127 0" result="hardAlpha"/>
<feOffset dx="14.1772" dy="17.7215"/>
<feGaussianBlur stdDeviation="14.1772"/>
<feColorMatrix type="matrix" values="0 0 0 0 0 0 0 0 0 0 0 0 0 0 0 0 0 0 0.05 0"/>
<feBlend mode="normal" in2="effect1_backgroundBlur_15_265595" result="effect2_dropShadow_15_265595"/>
<feBlend mode="normal" in="SourceGraphic" in2="effect2_dropShadow_15_265595" result="shape"/>
</filter>
<filter id="filter3_f_15_265595" x="238.369" y="-254.568" width="841" height="841" filterUnits="userSpaceOnUse" color-interpolation-filters="sRGB">
<feFlood flood-opacity="0" result="BackgroundImageFix"/>
<feBlend mode="normal" in="SourceGraphic" in2="BackgroundImageFix" result="shape"/>
<feGaussianBlur stdDeviation="113.418" result="effect1_foregroundBlur_15_265595"/>
</filter>
<linearGradient id="paint0_linear_15_265595" x1="341.668" y1="33.5547" x2="918.597" y2="439.065" gradientUnits="userSpaceOnUse">
<stop stop-color="white" stop-opacity="0.51"/>
<stop offset="1" stop-color="white" stop-opacity="0"/>
</linearGradient>
<linearGradient id="paint1_linear_15_265595" x1="313.69" y1="47.7727" x2="860.899" y2="390.676" gradientUnits="userSpaceOnUse">
<stop stop-color="white"/>
<stop offset="1" stop-color="white" stop-opacity="0.2"/>
</linearGradient>
<linearGradient id="paint2_linear_15_265595" x1="645.332" y1="11" x2="1222.26" y2="416.51" gradientUnits="userSpaceOnUse">
<stop stop-color="white" stop-opacity="0.51"/>
<stop offset="1" stop-color="white" stop-opacity="0"/>
</linearGradient>
<linearGradient id="paint3_linear_15_265595" x1="617.354" y1="25.218" x2="1164.56" y2="368.121" gradientUnits="userSpaceOnUse">
<stop stop-color="white"/>
<stop offset="1" stop-color="white" stop-opacity="0.2"/>
</linearGradient>
<clipPath id="clip0_15_265595">
<rect x="313.69" y="33.5547" width="560" height="336.709" rx="20" transform="rotate(30 313.69 33.5547)" fill="white"/>
</clipPath>
<clipPath id="clip1_15_265595">
<rect width="35.443" height="42.5316" fill="white" transform="translate(719.554 308.806) rotate(30)"/>
</clipPath>
<clipPath id="clip2_15_265595">
<rect x="617.354" y="11" width="560" height="336.709" rx="20" transform="rotate(30 617.354 11)" fill="white"/>
</clipPath>
<clipPath id="clip3_15_265595">
<rect width="35.443" height="42.5316" fill="white" transform="translate(1023.22 286.251) rotate(30)"/>
</clipPath>
</defs>
</svg>
