<svg width="170" height="40" viewBox="0 0 170 40" fill="none" xmlns="http://www.w3.org/2000/svg">
<path fill-rule="evenodd" clip-rule="evenodd" d="M0.833313 20.0001C12.4863 20.0001 19.1666 13.3197 19.1666 1.66675C19.1666 13.3197 25.847 20.0001 37.5 20.0001C25.847 20.0001 19.1666 26.6804 19.1666 38.3334C19.1666 26.6804 12.4863 20.0001 0.833313 20.0001Z" fill="white"/>
<path d="M44.7416 28.2578L51.1416 10.7578H54.7416L61.1416 28.2578H57.7416L56.3416 24.2078H49.5166L48.0916 28.2578H44.7416ZM50.3916 21.7078H55.4666L52.9166 14.4328L50.3916 21.7078Z" fill="white"/>
<path d="M67.56 28.5578C66.2933 28.5578 65.1767 28.2828 64.21 27.7328C63.2433 27.1828 62.4767 26.4161 61.91 25.4328C61.36 24.4494 61.085 23.3244 61.085 22.0578C61.085 20.7911 61.36 19.6661 61.91 18.6828C62.4767 17.6994 63.2433 16.9328 64.21 16.3828C65.1767 15.8328 66.2933 15.5578 67.56 15.5578C69.1433 15.5578 70.4767 15.9744 71.56 16.8078C72.6433 17.6244 73.335 18.7578 73.635 20.2078H70.26C70.0933 19.6078 69.76 19.1411 69.26 18.8078C68.7767 18.4578 68.2017 18.2828 67.535 18.2828C66.6517 18.2828 65.9017 18.6161 65.285 19.2828C64.6683 19.9494 64.36 20.8744 64.36 22.0578C64.36 23.2411 64.6683 24.1661 65.285 24.8328C65.9017 25.4994 66.6517 25.8328 67.535 25.8328C68.2017 25.8328 68.7767 25.6661 69.26 25.3328C69.76 24.9994 70.0933 24.5244 70.26 23.9078H73.635C73.335 25.3078 72.6433 26.4328 71.56 27.2828C70.4767 28.1328 69.1433 28.5578 67.56 28.5578Z" fill="white"/>
<path d="M75.2252 28.2578V15.8578H78.0502L78.3252 17.5328C78.7252 16.9328 79.2502 16.4578 79.9002 16.1078C80.5669 15.7411 81.3336 15.5578 82.2002 15.5578C84.1169 15.5578 85.4752 16.2994 86.2752 17.7828C86.7252 17.0994 87.3252 16.5578 88.0752 16.1578C88.8419 15.7578 89.6752 15.5578 90.5752 15.5578C92.1919 15.5578 93.4336 16.0411 94.3002 17.0078C95.1669 17.9744 95.6002 19.3911 95.6002 21.2578V28.2578H92.4002V21.5578C92.4002 20.4911 92.1919 19.6744 91.7752 19.1078C91.3752 18.5411 90.7502 18.2578 89.9002 18.2578C89.0336 18.2578 88.3336 18.5744 87.8002 19.2078C87.2836 19.8411 87.0252 20.7244 87.0252 21.8578V28.2578H83.8252V21.5578C83.8252 20.4911 83.6169 19.6744 83.2002 19.1078C82.7836 18.5411 82.1419 18.2578 81.2752 18.2578C80.4252 18.2578 79.7336 18.5744 79.2002 19.2078C78.6836 19.8411 78.4252 20.7244 78.4252 21.8578V28.2578H75.2252Z" fill="white"/>
<path d="M103.413 28.5578C102.163 28.5578 101.055 28.2911 100.088 27.7578C99.1217 27.2244 98.3633 26.4744 97.8133 25.5078C97.2633 24.5411 96.9883 23.4244 96.9883 22.1578C96.9883 20.8744 97.255 19.7328 97.7883 18.7328C98.3383 17.7328 99.0883 16.9578 100.038 16.4078C101.005 15.8411 102.138 15.5578 103.438 15.5578C104.655 15.5578 105.73 15.8244 106.663 16.3578C107.597 16.8911 108.322 17.6244 108.838 18.5578C109.372 19.4744 109.638 20.4994 109.638 21.6328C109.638 21.8161 109.63 22.0078 109.613 22.2078C109.613 22.4078 109.605 22.6161 109.588 22.8328H100.163C100.23 23.7994 100.563 24.5578 101.163 25.1078C101.78 25.6578 102.522 25.9328 103.388 25.9328C104.038 25.9328 104.58 25.7911 105.013 25.5078C105.463 25.2078 105.797 24.8244 106.013 24.3578H109.263C109.03 25.1411 108.638 25.8578 108.088 26.5078C107.555 27.1411 106.888 27.6411 106.088 28.0078C105.305 28.3744 104.413 28.5578 103.413 28.5578ZM103.438 18.1578C102.655 18.1578 101.963 18.3828 101.363 18.8328C100.763 19.2661 100.38 19.9328 100.213 20.8328H106.388C106.338 20.0161 106.038 19.3661 105.488 18.8828C104.938 18.3994 104.255 18.1578 103.438 18.1578Z" fill="white"/>
<path d="M123.787 28.5578C122.02 28.5578 120.503 28.1828 119.237 27.4328C117.97 26.6661 116.995 25.6078 116.312 24.2578C115.628 22.8911 115.287 21.3161 115.287 19.5328C115.287 17.7494 115.628 16.1744 116.312 14.8078C116.995 13.4411 117.97 12.3744 119.237 11.6078C120.503 10.8411 122.02 10.4578 123.787 10.4578C125.887 10.4578 127.603 10.9828 128.937 12.0328C130.287 13.0661 131.128 14.5244 131.462 16.4078H127.937C127.72 15.4578 127.253 14.7161 126.537 14.1828C125.837 13.6328 124.903 13.3578 123.737 13.3578C122.12 13.3578 120.853 13.9078 119.937 15.0078C119.02 16.1078 118.562 17.6161 118.562 19.5328C118.562 21.4494 119.02 22.9578 119.937 24.0578C120.853 25.1411 122.12 25.6828 123.737 25.6828C124.903 25.6828 125.837 25.4328 126.537 24.9328C127.253 24.4161 127.72 23.7078 127.937 22.8078H131.462C131.128 24.6078 130.287 26.0161 128.937 27.0328C127.603 28.0494 125.887 28.5578 123.787 28.5578Z" fill="white"/>
<path d="M138.919 28.5578C137.719 28.5578 136.636 28.2828 135.669 27.7328C134.719 27.1828 133.961 26.4244 133.394 25.4578C132.844 24.4744 132.569 23.3411 132.569 22.0578C132.569 20.7744 132.853 19.6494 133.419 18.6828C133.986 17.6994 134.744 16.9328 135.694 16.3828C136.661 15.8328 137.744 15.5578 138.944 15.5578C140.128 15.5578 141.194 15.8328 142.144 16.3828C143.111 16.9328 143.869 17.6994 144.419 18.6828C144.986 19.6494 145.269 20.7744 145.269 22.0578C145.269 23.3411 144.986 24.4744 144.419 25.4578C143.869 26.4244 143.111 27.1828 142.144 27.7328C141.178 28.2828 140.103 28.5578 138.919 28.5578ZM138.919 25.7828C139.753 25.7828 140.478 25.4744 141.094 24.8578C141.711 24.2244 142.019 23.2911 142.019 22.0578C142.019 20.8244 141.711 19.8994 141.094 19.2828C140.478 18.6494 139.761 18.3328 138.944 18.3328C138.094 18.3328 137.361 18.6494 136.744 19.2828C136.144 19.8994 135.844 20.8244 135.844 22.0578C135.844 23.2911 136.144 24.2244 136.744 24.8578C137.361 25.4744 138.086 25.7828 138.919 25.7828Z" fill="white"/>
<path d="M146.881 28.2578V15.8578H149.731L150.031 18.1828C150.481 17.3828 151.089 16.7494 151.856 16.2828C152.639 15.7994 153.556 15.5578 154.606 15.5578V18.9328H153.706C153.006 18.9328 152.381 19.0411 151.831 19.2578C151.281 19.4744 150.847 19.8494 150.531 20.3828C150.231 20.9161 150.081 21.6578 150.081 22.6078V28.2578H146.881Z" fill="white"/>
<path d="M155.543 33.7578V15.8578H158.393L158.743 17.6328C159.143 17.0828 159.668 16.5994 160.318 16.1828C160.984 15.7661 161.843 15.5578 162.893 15.5578C164.059 15.5578 165.101 15.8411 166.018 16.4078C166.934 16.9744 167.659 17.7494 168.193 18.7328C168.726 19.7161 168.993 20.8328 168.993 22.0828C168.993 23.3328 168.726 24.4494 168.193 25.4328C167.659 26.3994 166.934 27.1661 166.018 27.7328C165.101 28.2828 164.059 28.5578 162.893 28.5578C161.959 28.5578 161.143 28.3828 160.443 28.0328C159.743 27.6828 159.176 27.1911 158.743 26.5578V33.7578H155.543ZM162.218 25.7578C163.234 25.7578 164.076 25.4161 164.743 24.7328C165.409 24.0494 165.743 23.1661 165.743 22.0828C165.743 20.9994 165.409 20.1078 164.743 19.4078C164.076 18.7078 163.234 18.3578 162.218 18.3578C161.184 18.3578 160.334 18.7078 159.668 19.4078C159.018 20.0911 158.693 20.9744 158.693 22.0578C158.693 23.1411 159.018 24.0328 159.668 24.7328C160.334 25.4161 161.184 25.7578 162.218 25.7578Z" fill="white"/>
</svg>
