<svg width="170" height="40" viewBox="0 0 170 40" fill="none" xmlns="http://www.w3.org/2000/svg">
<path fill-rule="evenodd" clip-rule="evenodd" d="M0.75 19.9998C12.403 19.9998 19.0833 13.3195 19.0833 1.6665C19.0833 13.3195 25.7637 19.9998 37.4167 19.9998C25.7637 19.9998 19.0833 26.6802 19.0833 38.3332C19.0833 26.6802 12.403 19.9998 0.75 19.9998Z" fill="#101828"/>
<path d="M44.6582 28.2575L51.0582 10.7575H54.6582L61.0582 28.2575H57.6582L56.2582 24.2075H49.4332L48.0082 28.2575H44.6582ZM50.3082 21.7075H55.3832L52.8332 14.4325L50.3082 21.7075Z" fill="#101828"/>
<path d="M67.4766 28.5575C66.2099 28.5575 65.0932 28.2825 64.1266 27.7325C63.1599 27.1825 62.3932 26.4159 61.8266 25.4325C61.2766 24.4492 61.0016 23.3242 61.0016 22.0575C61.0016 20.7909 61.2766 19.6659 61.8266 18.6825C62.3932 17.6992 63.1599 16.9325 64.1266 16.3825C65.0932 15.8325 66.2099 15.5575 67.4766 15.5575C69.0599 15.5575 70.3932 15.9742 71.4766 16.8075C72.5599 17.6242 73.2516 18.7575 73.5516 20.2075H70.1766C70.0099 19.6075 69.6766 19.1409 69.1766 18.8075C68.6932 18.4575 68.1182 18.2825 67.4516 18.2825C66.5682 18.2825 65.8182 18.6159 65.2016 19.2825C64.5849 19.9492 64.2766 20.8742 64.2766 22.0575C64.2766 23.2409 64.5849 24.1659 65.2016 24.8325C65.8182 25.4992 66.5682 25.8325 67.4516 25.8325C68.1182 25.8325 68.6932 25.6659 69.1766 25.3325C69.6766 24.9992 70.0099 24.5242 70.1766 23.9075H73.5516C73.2516 25.3075 72.5599 26.4325 71.4766 27.2825C70.3932 28.1325 69.0599 28.5575 67.4766 28.5575Z" fill="#101828"/>
<path d="M75.1418 28.2575V15.8575H77.9668L78.2418 17.5325C78.6418 16.9325 79.1668 16.4575 79.8168 16.1075C80.4835 15.7409 81.2501 15.5575 82.1168 15.5575C84.0335 15.5575 85.3918 16.2992 86.1918 17.7825C86.6418 17.0992 87.2418 16.5575 87.9918 16.1575C88.7585 15.7575 89.5918 15.5575 90.4918 15.5575C92.1085 15.5575 93.3501 16.0409 94.2168 17.0075C95.0835 17.9742 95.5168 19.3909 95.5168 21.2575V28.2575H92.3168V21.5575C92.3168 20.4909 92.1085 19.6742 91.6918 19.1075C91.2918 18.5409 90.6668 18.2575 89.8168 18.2575C88.9501 18.2575 88.2501 18.5742 87.7168 19.2075C87.2001 19.8409 86.9418 20.7242 86.9418 21.8575V28.2575H83.7418V21.5575C83.7418 20.4909 83.5335 19.6742 83.1168 19.1075C82.7001 18.5409 82.0585 18.2575 81.1918 18.2575C80.3418 18.2575 79.6501 18.5742 79.1168 19.2075C78.6001 19.8409 78.3418 20.7242 78.3418 21.8575V28.2575H75.1418Z" fill="#101828"/>
<path d="M103.33 28.5575C102.08 28.5575 100.972 28.2909 100.005 27.7575C99.0382 27.2242 98.2799 26.4742 97.7299 25.5075C97.1799 24.5409 96.9049 23.4242 96.9049 22.1575C96.9049 20.8742 97.1716 19.7325 97.7049 18.7325C98.2549 17.7325 99.0049 16.9575 99.9549 16.4075C100.922 15.8409 102.055 15.5575 103.355 15.5575C104.572 15.5575 105.647 15.8242 106.58 16.3575C107.513 16.8909 108.238 17.6242 108.755 18.5575C109.288 19.4742 109.555 20.4992 109.555 21.6325C109.555 21.8159 109.547 22.0075 109.53 22.2075C109.53 22.4075 109.522 22.6159 109.505 22.8325H100.08C100.147 23.7992 100.48 24.5575 101.08 25.1075C101.697 25.6575 102.438 25.9325 103.305 25.9325C103.955 25.9325 104.497 25.7909 104.93 25.5075C105.38 25.2075 105.713 24.8242 105.93 24.3575H109.18C108.947 25.1409 108.555 25.8575 108.005 26.5075C107.472 27.1409 106.805 27.6409 106.005 28.0075C105.222 28.3742 104.33 28.5575 103.33 28.5575ZM103.355 18.1575C102.572 18.1575 101.88 18.3825 101.28 18.8325C100.68 19.2659 100.297 19.9325 100.13 20.8325H106.305C106.255 20.0159 105.955 19.3659 105.405 18.8825C104.855 18.3992 104.172 18.1575 103.355 18.1575Z" fill="#101828"/>
<path d="M123.703 28.5575C121.937 28.5575 120.42 28.1825 119.153 27.4325C117.887 26.6659 116.912 25.6075 116.228 24.2575C115.545 22.8909 115.203 21.3159 115.203 19.5325C115.203 17.7492 115.545 16.1742 116.228 14.8075C116.912 13.4409 117.887 12.3742 119.153 11.6075C120.42 10.8409 121.937 10.4575 123.703 10.4575C125.803 10.4575 127.52 10.9825 128.853 12.0325C130.203 13.0659 131.045 14.5242 131.378 16.4075H127.853C127.637 15.4575 127.17 14.7159 126.453 14.1825C125.753 13.6325 124.82 13.3575 123.653 13.3575C122.037 13.3575 120.77 13.9075 119.853 15.0075C118.937 16.1075 118.478 17.6159 118.478 19.5325C118.478 21.4492 118.937 22.9575 119.853 24.0575C120.77 25.1409 122.037 25.6825 123.653 25.6825C124.82 25.6825 125.753 25.4325 126.453 24.9325C127.17 24.4159 127.637 23.7075 127.853 22.8075H131.378C131.045 24.6075 130.203 26.0159 128.853 27.0325C127.52 28.0492 125.803 28.5575 123.703 28.5575Z" fill="#101828"/>
<path d="M138.836 28.5575C137.636 28.5575 136.553 28.2825 135.586 27.7325C134.636 27.1825 133.878 26.4242 133.311 25.4575C132.761 24.4742 132.486 23.3409 132.486 22.0575C132.486 20.7742 132.769 19.6492 133.336 18.6825C133.903 17.6992 134.661 16.9325 135.611 16.3825C136.578 15.8325 137.661 15.5575 138.861 15.5575C140.044 15.5575 141.111 15.8325 142.061 16.3825C143.028 16.9325 143.786 17.6992 144.336 18.6825C144.903 19.6492 145.186 20.7742 145.186 22.0575C145.186 23.3409 144.903 24.4742 144.336 25.4575C143.786 26.4242 143.028 27.1825 142.061 27.7325C141.094 28.2825 140.019 28.5575 138.836 28.5575ZM138.836 25.7825C139.669 25.7825 140.394 25.4742 141.011 24.8575C141.628 24.2242 141.936 23.2909 141.936 22.0575C141.936 20.8242 141.628 19.8992 141.011 19.2825C140.394 18.6492 139.678 18.3325 138.861 18.3325C138.011 18.3325 137.278 18.6492 136.661 19.2825C136.061 19.8992 135.761 20.8242 135.761 22.0575C135.761 23.2909 136.061 24.2242 136.661 24.8575C137.278 25.4742 138.003 25.7825 138.836 25.7825Z" fill="#101828"/>
<path d="M146.797 28.2575V15.8575H149.647L149.947 18.1825C150.397 17.3825 151.005 16.7492 151.772 16.2825C152.555 15.7992 153.472 15.5575 154.522 15.5575V18.9325H153.622C152.922 18.9325 152.297 19.0409 151.747 19.2575C151.197 19.4742 150.764 19.8492 150.447 20.3825C150.147 20.9159 149.997 21.6575 149.997 22.6075V28.2575H146.797Z" fill="#101828"/>
<path d="M155.459 33.7575V15.8575H158.309L158.659 17.6325C159.059 17.0825 159.584 16.5992 160.234 16.1825C160.901 15.7659 161.759 15.5575 162.809 15.5575C163.976 15.5575 165.018 15.8409 165.934 16.4075C166.851 16.9742 167.576 17.7492 168.109 18.7325C168.643 19.7159 168.909 20.8325 168.909 22.0825C168.909 23.3325 168.643 24.4492 168.109 25.4325C167.576 26.3992 166.851 27.1659 165.934 27.7325C165.018 28.2825 163.976 28.5575 162.809 28.5575C161.876 28.5575 161.059 28.3825 160.359 28.0325C159.659 27.6825 159.093 27.1909 158.659 26.5575V33.7575H155.459ZM162.134 25.7575C163.151 25.7575 163.993 25.4159 164.659 24.7325C165.326 24.0492 165.659 23.1659 165.659 22.0825C165.659 20.9992 165.326 20.1075 164.659 19.4075C163.993 18.7075 163.151 18.3575 162.134 18.3575C161.101 18.3575 160.251 18.7075 159.584 19.4075C158.934 20.0909 158.609 20.9742 158.609 22.0575C158.609 23.1409 158.934 24.0325 159.584 24.7325C160.251 25.4159 161.101 25.7575 162.134 25.7575Z" fill="#101828"/>
</svg>
