<svg width="150" height="40" viewBox="0 0 150 40" fill="none" xmlns="http://www.w3.org/2000/svg">
<path d="M21.5001 29.8227C18.5834 28.7394 15.5834 28.5728 12.8334 29.3228C10.9167 29.8228 9.08341 30.8228 7.41674 32.0728L6.25005 33.0728L5.91673 33.4061L6.66672 34.0727C6.75005 34.0727 6.75006 34.1561 6.8334 34.2394C7.00006 34.4061 7.16674 34.4894 7.41674 34.6561L7.91672 34.9894L8.41673 34.5728C8.50006 34.4894 8.66673 34.3228 8.83339 34.2394C10.3334 32.9894 12.0001 32.1561 13.7501 31.7394C16.0001 31.1561 18.4167 31.2394 20.8334 32.1561C22.8334 32.9061 26.9167 33.8228 31.8334 31.7394L32.0001 31.6561L32.2501 31.4061C32.2501 31.3228 32.3334 31.3228 32.4167 31.2394C32.8334 30.7394 33.2501 30.2394 33.5834 29.6561L35.2501 27.0728L32.5834 28.5727C28.6667 30.7394 25.0834 31.1561 21.5001 29.8227Z" fill="white"/>
<path d="M10.0833 20.823C12.3333 20.2397 14.75 20.323 17.1667 21.2397C19.8333 22.2397 26.6667 23.6563 34.3333 16.7397L35.5833 15.4897L35.6667 15.4063L36 15.073L35.8333 14.6563C35.75 14.323 35.5833 13.9064 35.4167 13.4897L35 12.323L34.1667 13.1563C34.0833 13.323 33.9167 13.4063 33.75 13.573C30.0833 17.323 24.4167 21.1563 17.9167 18.823C15 17.7397 12 17.573 9.25001 18.323C6.58334 19.073 4.25 20.4897 2.08334 22.4897V22.4063L0.833338 23.7397C0.833338 23.823 0.75002 23.823 0.666687 23.9064L0.416672 24.1563L0.50001 24.4897C0.583343 24.9063 0.750005 25.323 0.833338 25.7397L1.33334 27.073L2.16668 25.9897C2.25001 25.823 2.41667 25.7397 2.5 25.573C4.25 23.9897 6.66668 21.7397 10.0833 20.823Z" fill="white"/>
<path d="M2.00001 19.3229C3.91668 17.3229 6.08333 16.0729 8.41666 15.4063C10.6667 14.8229 13.0833 14.9063 15.5 15.8229C23 18.5729 29.5 14.0729 32.3333 11.6563L33.4167 10.5729L33.8333 10.2396L33.5 9.7396C33.25 9.4896 33.0833 9.15627 32.8333 8.82293L32.3333 8.15625L31.75 8.73959C31.6667 8.82293 31.5 8.98959 31.4167 9.07292C27.9167 12.4063 22.5 15.8229 16.3333 13.4896C13.4167 12.4063 10.4167 12.2396 7.66667 12.9896C5.91667 13.4896 4.25 14.3229 2.58333 15.4063L0.833326 16.8229C0.666659 16.9896 0.583326 17.0729 0.416659 17.2396L0.250008 17.4063V17.6563C0.166674 18.2396 0.166664 18.8229 0.0833308 19.3229L-7.62939e-06 21.4063L1.41667 19.9063C1.58334 19.7396 1.75001 19.4896 2.00001 19.3229Z" fill="white"/>
<path d="M23.9167 35.4895L23.75 35.9895L23.9167 35.4895C23.6667 35.4062 23.5 35.3228 23.25 35.2395C20.3333 34.1562 17.3333 33.9895 14.5833 34.7395C14 34.9062 13.4167 35.0728 12.8333 35.3228L10.8333 36.2395L10.3333 36.4895L12 37.0729C12.5 37.2395 13 37.4062 13.5 37.5729L13.75 37.6562L14 37.5729C14.25 37.4895 14.5 37.3228 14.75 37.3228C14.9167 37.3228 15.0833 37.2395 15.25 37.1562C17.25 36.6562 19.4167 36.6562 21.75 37.4062C22 37.4895 22.1667 37.5729 22.4167 37.6562L22.8333 37.8228L23.0833 37.7395C23.6667 37.5728 24.3333 37.4062 24.8333 37.1562L27.1667 36.3229L24.75 35.7395C24.5 35.6562 24.1667 35.5729 23.9167 35.4895Z" fill="white"/>
<path d="M36.6667 18.2397L35.4167 19.4897C35.25 19.6564 35.0834 19.8231 34.9167 19.9898C31.5 23.2398 26 26.7397 19.8334 24.4064C16.9167 23.3231 13.9167 23.1564 11.1667 23.9064C8.58336 24.6564 6.25001 25.9898 4.16667 27.9898L3.08335 29.1564L2.75002 29.5731L3.08335 30.0731C3.33335 30.4064 3.50003 30.6564 3.66669 30.9898L4.16667 31.7398L4.75002 30.9898C4.83335 30.9064 5.00001 30.7397 5.08335 30.6564C7.08335 28.4897 9.25001 27.1564 11.75 26.4897C14 25.9064 16.4167 25.9897 18.8333 26.9064C20.9167 27.6564 23.0834 27.9064 25.25 27.6564C29.0834 27.2398 32.9167 25.0731 35.75 22.6564C35.9167 22.4898 36.0833 22.4064 36.25 22.2398L36.5 21.9897V21.7398C36.5 21.2398 36.5834 20.6564 36.5834 20.1564L36.6667 18.2397Z" fill="white"/>
<path d="M5.00015 10.5732L4.75016 10.0732L5.00015 10.5732C5.50015 10.3232 6.0835 10.1565 6.5835 9.98982C8.8335 9.40649 11.2502 9.48982 13.6668 10.4065C15.2502 10.9898 16.8335 11.2398 18.5835 11.2398C22.0835 11.2398 25.5835 9.98983 28.8335 7.57316L30.0835 6.57315L30.5002 6.23982L29.7502 5.65648C29.5002 5.40648 29.1668 5.15649 28.8335 4.98982L28.3335 4.65649L27.9168 4.98982C27.7501 5.07316 27.6668 5.23982 27.5001 5.32315C23.0835 8.65648 18.6668 9.57316 14.5002 7.98983C11.5002 6.90649 8.50015 6.65649 5.50015 7.57316C5.25015 7.65649 5.00015 7.73982 4.66682 7.82315L4.50017 7.90649L4.25015 8.15648C4.25015 8.23981 4.16683 8.23982 4.0835 8.32316C3.75017 8.82316 3.33349 9.23983 3.00015 9.73983L1.41682 12.1565L4.00016 10.8232C4.41683 10.8232 4.75015 10.6565 5.00015 10.5732Z" fill="white"/>
<path d="M11.8333 4.9064L12.0833 4.98974C13.1667 5.4064 14.8333 5.82307 16.9167 5.82307C19.0833 5.82307 21.1667 5.32306 23.25 4.48973L25.8333 3.23973L24.0833 2.65641C23.5833 2.48975 23.0833 2.32308 22.5 2.23975H22.25L22 2.32306C21.75 2.40639 21.5 2.57308 21.25 2.65641C18.75 3.57308 16.25 3.73975 13.8333 3.07308C13.5833 2.98975 13.3333 2.9064 13.0833 2.82306L12.8333 2.73973L12.5833 2.82306C12.0833 2.98973 11.5833 3.15641 11.0833 3.40641L9.16666 4.23974L11.1667 4.82306C11.3333 4.73973 11.5833 4.82306 11.8333 4.9064Z" fill="white"/>
<path d="M51.0665 28.2578H47.2218L53.08 11.2881H57.7036L63.5535 28.2578H59.7088L55.4581 15.1659H55.3255L51.0665 28.2578ZM50.8262 21.5875H59.9077V24.3882H50.8262V21.5875Z" fill="white"/>
<path d="M69.0595 11.2881V28.2578H65.5297V11.2881H69.0595Z" fill="white"/>
<path d="M78.6568 15.5305V18.182H70.9923V15.5305H78.6568ZM72.7323 12.4812H76.2621V24.3468C76.2621 24.6727 76.3119 24.9268 76.4113 25.1091C76.5107 25.2859 76.6488 25.4101 76.8256 25.482C77.0079 25.5538 77.2178 25.5897 77.4553 25.5897C77.621 25.5897 77.7868 25.5759 77.9525 25.5482C78.1182 25.5151 78.2452 25.4902 78.3336 25.4737L78.8888 28.1003C78.712 28.1556 78.4634 28.2191 78.1431 28.2909C77.8227 28.3682 77.4332 28.4152 76.9747 28.4318C76.124 28.4649 75.3783 28.3517 74.7375 28.092C74.1023 27.8324 73.6079 27.4292 73.2543 26.8823C72.9008 26.3354 72.7268 25.6449 72.7323 24.8108V12.4812Z" fill="white"/>
<path d="M85.6067 27.338V15.6051H88.573V27.338H85.6067ZM81.2234 22.9547V19.9883H92.9563V22.9547H81.2234Z" fill="white"/>
<path d="M105.7 16.1685C105.634 15.5001 105.349 14.9809 104.847 14.6107C104.344 14.2406 103.662 14.0556 102.8 14.0556C102.215 14.0556 101.72 14.1384 101.317 14.3042C100.914 14.4644 100.604 14.6881 100.389 14.9753C100.179 15.2626 100.074 15.5885 100.074 15.9531C100.063 16.2569 100.126 16.522 100.265 16.7485C100.408 16.975 100.604 17.1711 100.853 17.3368C101.101 17.497 101.389 17.6379 101.715 17.7594C102.041 17.8754 102.389 17.9749 102.759 18.0577L104.283 18.4223C105.023 18.588 105.703 18.809 106.322 19.0852C106.94 19.3614 107.476 19.7011 107.929 20.1044C108.382 20.5076 108.733 20.9827 108.981 21.5295C109.236 22.0764 109.365 22.7034 109.371 23.4105C109.365 24.449 109.1 25.3494 108.575 26.1117C108.056 26.8685 107.305 27.4568 106.322 27.8766C105.344 28.2909 104.165 28.4981 102.784 28.4981C101.414 28.4981 100.22 28.2881 99.204 27.8683C98.1931 27.4485 97.4031 26.827 96.8342 26.004C96.2707 25.1754 95.9752 24.1507 95.9476 22.9299H99.4194C99.4581 23.4988 99.621 23.9739 99.9083 24.3551C100.201 24.7307 100.59 25.0152 101.077 25.2085C101.568 25.3963 102.123 25.4902 102.742 25.4902C103.35 25.4902 103.877 25.4019 104.325 25.2251C104.778 25.0483 105.128 24.8025 105.377 24.4876C105.626 24.1728 105.75 23.811 105.75 23.4022C105.75 23.021 105.637 22.7006 105.41 22.441C105.189 22.1814 104.863 21.9604 104.432 21.7781C104.007 21.5958 103.485 21.4301 102.866 21.281L101.019 20.8169C99.5879 20.4689 98.4582 19.9248 97.6296 19.1846C96.801 18.4444 96.3895 17.4473 96.395 16.1934C96.3895 15.1659 96.6629 14.2683 97.2153 13.5004C97.7732 12.7326 98.5383 12.1332 99.5105 11.7024C100.483 11.2715 101.588 11.0561 102.825 11.0561C104.084 11.0561 105.184 11.2715 106.123 11.7024C107.067 12.1332 107.802 12.7326 108.327 13.5004C108.852 14.2683 109.122 15.1576 109.139 16.1685H105.7Z" fill="white"/>
<path d="M115.248 20.8998V28.2578H111.718V11.2881H115.148V17.776H115.297C115.585 17.0247 116.049 16.4364 116.689 16.0111C117.33 15.5802 118.134 15.3648 119.101 15.3648C119.985 15.3648 120.755 15.5581 121.412 15.9448C122.075 16.3259 122.589 16.8756 122.954 17.5937C123.324 18.3063 123.506 19.1598 123.501 20.1541V28.2578H119.971V20.7838C119.976 19.9994 119.777 19.389 119.374 18.9526C118.976 18.5162 118.418 18.298 117.7 18.298C117.22 18.298 116.794 18.4002 116.424 18.6046C116.06 18.809 115.772 19.1073 115.563 19.4995C115.358 19.8862 115.253 20.3529 115.248 20.8998Z" fill="white"/>
<path d="M126.278 28.2578V15.5305H129.808V28.2578H126.278ZM128.052 13.8899C127.527 13.8899 127.077 13.7159 126.701 13.3678C126.331 13.0143 126.146 12.5917 126.146 12.1001C126.146 11.614 126.331 11.1969 126.701 10.8489C127.077 10.4954 127.527 10.3186 128.052 10.3186C128.576 10.3186 129.024 10.4954 129.394 10.8489C129.77 11.1969 129.957 11.614 129.957 12.1001C129.957 12.5917 129.77 13.0143 129.394 13.3678C129.024 13.7159 128.576 13.8899 128.052 13.8899Z" fill="white"/>
<path d="M140.742 15.5305V18.182H131.625V15.5305H140.742ZM133.423 28.2578V14.6107C133.423 13.6882 133.603 12.9232 133.962 12.3155C134.326 11.7079 134.823 11.2522 135.453 10.9483C136.083 10.6445 136.798 10.4926 137.599 10.4926C138.14 10.4926 138.635 10.534 139.082 10.6169C139.535 10.6998 139.872 10.7743 140.093 10.8406L139.463 13.4921C139.325 13.4479 139.154 13.4065 138.95 13.3678C138.751 13.3292 138.547 13.3098 138.337 13.3098C137.817 13.3098 137.456 13.4314 137.251 13.6744C137.047 13.912 136.945 14.2462 136.945 14.677V28.2578H133.423Z" fill="white"/>
<path d="M148.406 15.5305V18.182H140.742V15.5305H148.406ZM142.482 12.4812H146.011V24.3468C146.011 24.6727 146.061 24.9268 146.161 25.1091C146.26 25.2859 146.398 25.4101 146.575 25.482C146.757 25.5538 146.967 25.5897 147.205 25.5897C147.37 25.5897 147.536 25.5759 147.702 25.5482C147.868 25.5151 147.995 25.4902 148.083 25.4737L148.638 28.1003C148.461 28.1556 148.213 28.2191 147.892 28.2909C147.572 28.3682 147.183 28.4152 146.724 28.4318C145.873 28.4649 145.128 28.3517 144.487 28.092C143.852 27.8324 143.357 27.4292 143.004 26.8823C142.65 26.3354 142.476 25.6449 142.482 24.8108V12.4812Z" fill="white"/>
</svg>
