<svg width="150" height="40" viewBox="0 0 150 40" fill="none" xmlns="http://www.w3.org/2000/svg">
<path d="M22.1654 29.8227C19.2487 28.7394 16.2487 28.5728 13.4987 29.3228C11.582 29.8228 9.74871 30.8228 8.08205 32.0728L6.91536 33.0728L6.58203 33.4061L7.33203 34.0727C7.41536 34.0727 7.41537 34.1561 7.4987 34.2394C7.66537 34.4061 7.83205 34.4894 8.08205 34.6561L8.58203 34.9894L9.08203 34.5728C9.16536 34.4894 9.33203 34.3228 9.4987 34.2394C10.9987 32.9894 12.6654 32.1561 14.4154 31.7394C16.6654 31.1561 19.082 31.2394 21.4987 32.1561C23.4987 32.9061 27.582 33.8228 32.4987 31.7394L32.6654 31.6561L32.9154 31.4061C32.9154 31.3228 32.9987 31.3228 33.082 31.2394C33.4987 30.7394 33.9154 30.2394 34.2487 29.6561L35.9154 27.0728L33.2487 28.5727C29.332 30.7394 25.7487 31.1561 22.1654 29.8227Z" fill="#155EEF"/>
<path d="M10.7487 20.8228C12.9987 20.2394 15.4154 20.3228 17.832 21.2394C20.4987 22.2394 27.332 23.6561 34.9987 16.7394L36.2487 15.4894L36.332 15.4061L36.6654 15.0728L36.4987 14.6561C36.4154 14.3228 36.2487 13.9061 36.082 13.4894L35.6654 12.3228L34.832 13.1561C34.7487 13.3228 34.582 13.4061 34.4154 13.5728C30.7487 17.3228 25.082 21.1561 18.582 18.8228C15.6654 17.7394 12.6654 17.5728 9.91537 18.3228C7.2487 19.0728 4.91536 20.4894 2.7487 22.4894V22.4061L1.4987 23.7394C1.4987 23.8228 1.41538 23.8228 1.33205 23.9061L1.08203 24.1561L1.16537 24.4894C1.2487 24.9061 1.41536 25.3228 1.4987 25.7394L1.9987 27.0728L2.83204 25.9894C2.91537 25.8228 3.08203 25.7394 3.16536 25.5728C4.91536 23.9894 7.33204 21.7394 10.7487 20.8228Z" fill="#155EEF"/>
<path d="M2.66604 19.3229C4.5827 17.3229 6.74935 16.0729 9.08269 15.4063C11.3327 14.8229 13.7494 14.9063 16.166 15.8229C23.666 18.5729 30.166 14.0729 32.9994 11.6563L34.0827 10.5729L34.4994 10.2396L34.166 9.7396C33.916 9.4896 33.7494 9.15627 33.4994 8.82293L32.9994 8.15625L32.416 8.73959C32.3327 8.82293 32.166 8.98959 32.0827 9.07292C28.5827 12.4063 23.166 15.8229 16.9994 13.4896C14.0827 12.4063 11.0827 12.2396 8.33269 12.9896C6.58269 13.4896 4.91602 14.3229 3.24935 15.4063L1.49935 16.8229C1.33268 16.9896 1.24935 17.0729 1.08268 17.2396L0.916031 17.4063V17.6563C0.832698 18.2396 0.832687 18.8229 0.749354 19.3229L0.666016 21.4063L2.08269 19.9063C2.24936 19.7396 2.41604 19.4896 2.66604 19.3229Z" fill="#155EEF"/>
<path d="M24.5833 35.4895L24.4166 35.9895L24.5833 35.4895C24.3333 35.4062 24.1667 35.3228 23.9167 35.2395C21 34.1562 18 33.9895 15.25 34.7395C14.6666 34.9062 14.0833 35.0728 13.5 35.3228L11.5 36.2395L11 36.4895L12.6667 37.0729C13.1667 37.2395 13.6667 37.4062 14.1667 37.5729L14.4166 37.6562L14.6667 37.5729C14.9167 37.4895 15.1667 37.3228 15.4167 37.3228C15.5833 37.3228 15.75 37.2395 15.9167 37.1562C17.9167 36.6562 20.0833 36.6562 22.4167 37.4062C22.6667 37.4895 22.8333 37.5729 23.0833 37.6562L23.5 37.8228L23.75 37.7395C24.3333 37.5728 25 37.4062 25.5 37.1562L27.8333 36.3229L25.4167 35.7395C25.1667 35.6562 24.8333 35.5729 24.5833 35.4895Z" fill="#155EEF"/>
<path d="M37.3327 18.2393L36.0827 19.4893C35.916 19.6559 35.7494 19.8226 35.5827 19.9893C32.166 23.2393 26.666 26.7393 20.4993 24.4059C17.5827 23.3226 14.5827 23.1559 11.8327 23.9059C9.24935 24.6559 6.916 25.9893 4.83267 27.9893L3.74934 29.1559L3.41602 29.5726L3.74934 30.0726C3.99934 30.4059 4.16602 30.6559 4.33269 30.9893L4.83267 31.7393L5.41601 30.9893C5.49934 30.9059 5.66601 30.7393 5.74934 30.6559C7.74934 28.4893 9.91601 27.1559 12.416 26.4893C14.666 25.9059 17.0827 25.9893 19.4993 26.9059C21.5827 27.6559 23.7493 27.9059 25.916 27.6559C29.7493 27.2393 33.5827 25.0726 36.416 22.6559C36.5827 22.4893 36.7493 22.4059 36.916 22.2393L37.166 21.9893V21.7393C37.166 21.2393 37.2494 20.6559 37.2494 20.1559L37.3327 18.2393Z" fill="#155EEF"/>
<path d="M5.66535 10.5729L5.41536 10.0729L5.66535 10.5729C6.16535 10.3229 6.74871 10.1562 7.24871 9.98958C9.49871 9.40624 11.9154 9.48958 14.332 10.4062C15.9154 10.9896 17.4987 11.2396 19.2487 11.2396C22.7487 11.2396 26.2487 9.98958 29.4987 7.57292L30.7487 6.57291L31.1654 6.23958L30.4154 5.65623C30.1654 5.40623 29.832 5.15624 29.4987 4.98958L28.9987 4.65625L28.582 4.98958C28.4154 5.07291 28.332 5.23957 28.1654 5.32291C23.7487 8.65624 19.332 9.57292 15.1654 7.98958C12.1654 6.90625 9.16536 6.65625 6.16536 7.57292C5.91536 7.65625 5.66536 7.73957 5.33203 7.82291L5.16537 7.90624L4.91536 8.15623C4.91536 8.23957 4.83204 8.23958 4.74871 8.32291C4.41537 8.82291 3.99869 9.23959 3.66536 9.73959L2.08203 12.1562L4.66537 10.8229C5.08204 10.8229 5.41535 10.6563 5.66535 10.5729Z" fill="#155EEF"/>
<path d="M12.4987 4.90591L12.7487 4.98925C13.832 5.40591 15.4987 5.82258 17.582 5.82258C19.7487 5.82258 21.8321 5.32258 23.9154 4.48924L26.4987 3.23924L24.7487 2.65592C24.2487 2.48926 23.7487 2.32259 23.1654 2.23926H22.9154L22.6654 2.32257C22.4154 2.4059 22.1654 2.57259 21.9154 2.65592C19.4154 3.57259 16.9154 3.73926 14.4987 3.07259C14.2487 2.98926 13.9987 2.90591 13.7487 2.82258L13.4987 2.73924L13.2487 2.82258C12.7487 2.98924 12.2487 3.15592 11.7487 3.40592L9.83203 4.23925L11.8321 4.82257C11.9987 4.73924 12.2487 4.82258 12.4987 4.90591Z" fill="#155EEF"/>
<path d="M51.7334 28.2575H47.8887L53.7469 11.2878H58.3704L64.2204 28.2575H60.3757L56.1249 15.1657H55.9924L51.7334 28.2575ZM51.4931 21.5873H60.5745V24.388H51.4931V21.5873Z" fill="#101828"/>
<path d="M69.7264 11.2878V28.2575H66.1966V11.2878H69.7264Z" fill="#101828"/>
<path d="M79.3236 15.5302V18.1818H71.6591V15.5302H79.3236ZM73.3991 12.481H76.929V24.3465C76.929 24.6724 76.9787 24.9266 77.0781 25.1088C77.1776 25.2856 77.3157 25.4099 77.4924 25.4817C77.6747 25.5535 77.8846 25.5894 78.1222 25.5894C78.2879 25.5894 78.4536 25.5756 78.6193 25.548C78.785 25.5149 78.9121 25.49 79.0005 25.4734L79.5556 28.1001C79.3789 28.1553 79.1303 28.2188 78.8099 28.2907C78.4895 28.368 78.1001 28.415 77.6416 28.4315C76.7909 28.4647 76.0451 28.3514 75.4044 28.0918C74.7691 27.8322 74.2747 27.4289 73.9212 26.882C73.5676 26.3352 73.3936 25.6447 73.3991 24.8105V12.481Z" fill="#101828"/>
<path d="M86.2735 27.3378V15.6048H89.2399V27.3378H86.2735ZM81.8902 22.9545V19.9881H93.6232V22.9545H81.8902Z" fill="#101828"/>
<path d="M106.367 16.1683C106.301 15.4999 106.016 14.9806 105.514 14.6105C105.011 14.2404 104.329 14.0553 103.467 14.0553C102.881 14.0553 102.387 14.1382 101.984 14.3039C101.58 14.4641 101.271 14.6878 101.056 14.9751C100.846 15.2623 100.741 15.5882 100.741 15.9528C100.73 16.2566 100.793 16.5218 100.931 16.7483C101.075 16.9748 101.271 17.1709 101.52 17.3366C101.768 17.4968 102.056 17.6376 102.381 17.7592C102.707 17.8752 103.055 17.9746 103.425 18.0575L104.95 18.4221C105.69 18.5878 106.37 18.8087 106.988 19.0849C107.607 19.3611 108.143 19.7009 108.596 20.1041C109.049 20.5074 109.4 20.9824 109.648 21.5293C109.902 22.0762 110.032 22.7031 110.038 23.4102C110.032 24.4487 109.767 25.3491 109.242 26.1114C108.723 26.8682 107.972 27.4565 106.988 27.8764C106.011 28.2907 104.831 28.4978 103.45 28.4978C102.08 28.4978 100.887 28.2879 99.8708 27.8681C98.8599 27.4483 98.07 26.8268 97.501 26.0037C96.9376 25.1751 96.642 24.1504 96.6144 22.9296H100.086C100.125 23.4986 100.288 23.9737 100.575 24.3548C100.868 24.7304 101.257 25.0149 101.743 25.2083C102.235 25.3961 102.79 25.49 103.409 25.49C104.017 25.49 104.544 25.4016 104.992 25.2248C105.445 25.0481 105.795 24.8023 106.044 24.4874C106.292 24.1725 106.417 23.8107 106.417 23.4019C106.417 23.0208 106.303 22.7004 106.077 22.4408C105.856 22.1811 105.53 21.9602 105.099 21.7779C104.674 21.5956 104.152 21.4299 103.533 21.2807L101.685 20.8167C100.255 20.4687 99.1251 19.9246 98.2965 19.1844C97.4679 18.4441 97.0563 17.4471 97.0619 16.1931C97.0563 15.1657 97.3298 14.268 97.8822 13.5002C98.4401 12.7323 99.2052 12.133 100.177 11.7021C101.15 11.2712 102.254 11.0558 103.492 11.0558C104.751 11.0558 105.851 11.2712 106.79 11.7021C107.734 12.133 108.469 12.7323 108.994 13.5002C109.518 14.268 109.789 15.1574 109.806 16.1683H106.367Z" fill="#101828"/>
<path d="M115.915 20.8996V28.2575H112.385V11.2878H115.815V17.7757H115.964C116.252 17.0245 116.716 16.4362 117.356 16.0108C117.997 15.58 118.801 15.3645 119.768 15.3645C120.651 15.3645 121.422 15.5579 122.079 15.9445C122.742 16.3257 123.256 16.8753 123.621 17.5935C123.991 18.3061 124.173 19.1595 124.167 20.1538V28.2575H120.638V20.7836C120.643 19.9992 120.444 19.3888 120.041 18.9524C119.643 18.516 119.085 18.2978 118.367 18.2978C117.887 18.2978 117.461 18.4 117.091 18.6043C116.727 18.8087 116.439 19.107 116.229 19.4992C116.025 19.8859 115.92 20.3527 115.915 20.8996Z" fill="#101828"/>
<path d="M126.945 28.2575V15.5302H130.475V28.2575H126.945ZM128.718 13.8896C128.194 13.8896 127.743 13.7156 127.368 13.3676C126.998 13.0141 126.813 12.5915 126.813 12.0998C126.813 11.6137 126.998 11.1967 127.368 10.8487C127.743 10.4951 128.194 10.3184 128.718 10.3184C129.243 10.3184 129.691 10.4951 130.061 10.8487C130.436 11.1967 130.624 11.6137 130.624 12.0998C130.624 12.5915 130.436 13.0141 130.061 13.3676C129.691 13.7156 129.243 13.8896 128.718 13.8896Z" fill="#101828"/>
<path d="M141.408 15.5302V18.1818H132.292V15.5302H141.408ZM134.09 28.2575V14.6105C134.09 13.688 134.269 12.9229 134.628 12.3153C134.993 11.7076 135.49 11.2519 136.12 10.9481C136.75 10.6443 137.465 10.4924 138.266 10.4924C138.807 10.4924 139.302 10.5338 139.749 10.6167C140.202 10.6995 140.539 10.7741 140.76 10.8404L140.13 13.4919C139.992 13.4477 139.821 13.4063 139.617 13.3676C139.418 13.3289 139.213 13.3096 139.003 13.3096C138.484 13.3096 138.122 13.4311 137.918 13.6742C137.714 13.9117 137.611 14.2459 137.611 14.6768V28.2575H134.09Z" fill="#101828"/>
<path d="M149.073 15.5302V18.1818H141.408V15.5302H149.073ZM143.148 12.481H146.678V24.3465C146.678 24.6724 146.728 24.9266 146.827 25.1088C146.927 25.2856 147.065 25.4099 147.242 25.4817C147.424 25.5535 147.634 25.5894 147.872 25.5894C148.037 25.5894 148.203 25.5756 148.369 25.548C148.534 25.5149 148.661 25.49 148.75 25.4734L149.305 28.1001C149.128 28.1553 148.88 28.2188 148.559 28.2907C148.239 28.368 147.849 28.415 147.391 28.4315C146.54 28.4647 145.794 28.3514 145.154 28.0918C144.518 27.8322 144.024 27.4289 143.671 26.882C143.317 26.3352 143.143 25.6447 143.148 24.8105V12.481Z" fill="#101828"/>
</svg>
