<svg width="170" height="48" viewBox="0 0 170 48" fill="none" xmlns="http://www.w3.org/2000/svg">
<path fill-rule="evenodd" clip-rule="evenodd" d="M22 46C34.1503 46 44 36.1503 44 24C44 11.8497 34.1503 2 22 2C9.84971 2 0 11.8497 0 24C0 36.1503 9.84971 46 22 46ZM28.8632 12.2485C29.1973 11.0619 28.0457 10.3601 26.994 11.1094L12.3124 21.5685C11.1718 22.3811 11.3512 24 12.5819 24H16.448V23.9701H23.9828L17.8433 26.1363L15.1368 35.7515C14.8027 36.9382 15.9542 37.6399 17.006 36.8906L31.6876 26.4315C32.8282 25.619 32.6487 24 31.4181 24H25.5553L28.8632 12.2485Z" fill="white"/>
<path d="M55.3809 33.9091V30.4291H58.1409V16.3891H55.3809V12.9091H66.1809C67.4609 12.9091 68.5709 13.1291 69.5109 13.5691C70.4709 13.9891 71.2109 14.5991 71.7309 15.3991C72.2709 16.1791 72.5409 17.1191 72.5409 18.2191V18.5191C72.5409 19.4791 72.3609 20.2691 72.0009 20.8891C71.6409 21.4891 71.2109 21.9591 70.7109 22.2991C70.2309 22.6191 69.7709 22.8491 69.3309 22.9891V23.5291C69.7709 23.6491 70.2509 23.8791 70.7709 24.2191C71.2909 24.5391 71.7309 25.0091 72.0909 25.6291C72.4709 26.2491 72.6609 27.0591 72.6609 28.0591V28.3591C72.6609 29.5191 72.3909 30.5191 71.8509 31.3591C71.3109 32.1791 70.5609 32.8091 69.6009 33.2491C68.6609 33.6891 67.5609 33.9091 66.3009 33.9091H55.3809ZM62.1009 30.3091H65.8209C66.6809 30.3091 67.3709 30.0991 67.8909 29.6791C68.4309 29.2591 68.7009 28.6591 68.7009 27.8791V27.5791C68.7009 26.7991 68.4409 26.1991 67.9209 25.7791C67.4009 25.3591 66.7009 25.1491 65.8209 25.1491H62.1009V30.3091ZM62.1009 21.5491H65.7609C66.5809 21.5491 67.2509 21.3391 67.7709 20.9191C68.3109 20.4991 68.5809 19.9191 68.5809 19.1791V18.8791C68.5809 18.1191 68.3209 17.5391 67.8009 17.1391C67.2809 16.7191 66.6009 16.5091 65.7609 16.5091H62.1009V21.5491Z" fill="white"/>
<path d="M81.6027 34.3291C80.1227 34.3291 78.7927 34.0291 77.6127 33.4291C76.4327 32.8291 75.5027 31.9591 74.8227 30.8191C74.1427 29.6791 73.8027 28.3091 73.8027 26.7091V26.2291C73.8027 24.6291 74.1427 23.2591 74.8227 22.1191C75.5027 20.9791 76.4327 20.1091 77.6127 19.5091C78.7927 18.9091 80.1227 18.6091 81.6027 18.6091C83.0827 18.6091 84.4127 18.9091 85.5927 19.5091C86.7727 20.1091 87.7027 20.9791 88.3827 22.1191C89.0627 23.2591 89.4027 24.6291 89.4027 26.2291V26.7091C89.4027 28.3091 89.0627 29.6791 88.3827 30.8191C87.7027 31.9591 86.7727 32.8291 85.5927 33.4291C84.4127 34.0291 83.0827 34.3291 81.6027 34.3291ZM81.6027 30.9691C82.7627 30.9691 83.7227 30.5991 84.4827 29.8591C85.2427 29.0991 85.6227 28.0191 85.6227 26.6191V26.3191C85.6227 24.9191 85.2427 23.8491 84.4827 23.1091C83.7427 22.3491 82.7827 21.9691 81.6027 21.9691C80.4427 21.9691 79.4827 22.3491 78.7227 23.1091C77.9627 23.8491 77.5827 24.9191 77.5827 26.3191V26.6191C77.5827 28.0191 77.9627 29.0991 78.7227 29.8591C79.4827 30.5991 80.4427 30.9691 81.6027 30.9691Z" fill="white"/>
<path d="M91.3919 33.9091V12.9091H95.1719V33.9091H91.3919Z" fill="white"/>
<path d="M103.561 33.9091C102.581 33.9091 101.781 33.6091 101.161 33.0091C100.561 32.3891 100.261 31.5691 100.261 30.5491V22.1491H96.5406V19.0291H100.261V14.4091H104.041V19.0291H108.121V22.1491H104.041V29.8891C104.041 30.4891 104.321 30.7891 104.881 30.7891H107.761V33.9091H103.561Z" fill="white"/>
<path d="M116.222 34.3291C114.282 34.3291 112.692 33.9091 111.452 33.0691C110.212 32.2291 109.462 31.0291 109.202 29.4691L112.682 28.5691C112.822 29.2691 113.052 29.8191 113.372 30.2191C113.712 30.6191 114.122 30.9091 114.602 31.0891C115.102 31.2491 115.642 31.3291 116.222 31.3291C117.102 31.3291 117.752 31.1791 118.172 30.8791C118.592 30.5591 118.802 30.1691 118.802 29.7091C118.802 29.2491 118.602 28.8991 118.202 28.6591C117.802 28.3991 117.162 28.1891 116.282 28.0291L115.442 27.8791C114.402 27.6791 113.452 27.4091 112.592 27.0691C111.732 26.7091 111.042 26.2191 110.522 25.5991C110.002 24.9791 109.742 24.1791 109.742 23.1991C109.742 21.7191 110.282 20.5891 111.362 19.8091C112.442 19.0091 113.862 18.6091 115.622 18.6091C117.282 18.6091 118.662 18.9791 119.762 19.7191C120.862 20.4591 121.582 21.4291 121.922 22.6291L118.412 23.7091C118.252 22.9491 117.922 22.4091 117.422 22.0891C116.942 21.7691 116.342 21.6091 115.622 21.6091C114.902 21.6091 114.352 21.7391 113.972 21.9991C113.592 22.2391 113.402 22.5791 113.402 23.0191C113.402 23.4991 113.602 23.8591 114.002 24.0991C114.402 24.3191 114.942 24.4891 115.622 24.6091L116.462 24.7591C117.582 24.9591 118.592 25.2291 119.492 25.5691C120.412 25.8891 121.132 26.3591 121.652 26.9791C122.192 27.5791 122.462 28.3991 122.462 29.4391C122.462 30.9991 121.892 32.2091 120.752 33.0691C119.632 33.9091 118.122 34.3291 116.222 34.3291Z" fill="white"/>
<path d="M124.275 33.9091V12.9091H128.055V20.8591H128.595C128.755 20.5391 129.005 20.2191 129.345 19.8991C129.685 19.5791 130.135 19.3191 130.695 19.1191C131.275 18.8991 132.005 18.7891 132.885 18.7891C134.045 18.7891 135.055 19.0591 135.915 19.5991C136.795 20.1191 137.475 20.8491 137.955 21.7891C138.435 22.7091 138.675 23.7891 138.675 25.0291V33.9091H134.895V25.3291C134.895 24.2091 134.615 23.3691 134.055 22.8091C133.515 22.2491 132.735 21.9691 131.715 21.9691C130.555 21.9691 129.655 22.3591 129.015 23.1391C128.375 23.8991 128.055 24.9691 128.055 26.3491V33.9091H124.275Z" fill="white"/>
<path d="M141.261 33.9091V19.0291H145.041V33.9091H141.261ZM143.151 17.2891C142.471 17.2891 141.891 17.0691 141.411 16.6291C140.951 16.1891 140.721 15.6091 140.721 14.8891C140.721 14.1691 140.951 13.5891 141.411 13.1491C141.891 12.7091 142.471 12.4891 143.151 12.4891C143.851 12.4891 144.431 12.7091 144.891 13.1491C145.351 13.5891 145.581 14.1691 145.581 14.8891C145.581 15.6091 145.351 16.1891 144.891 16.6291C144.431 17.0691 143.851 17.2891 143.151 17.2891Z" fill="white"/>
<path d="M150.19 33.9091V22.1491H146.41V19.0291H150.19V16.2691C150.19 15.2491 150.49 14.4391 151.09 13.8391C151.71 13.2191 152.51 12.9091 153.49 12.9091H157.39V16.0291H154.81C154.25 16.0291 153.97 16.3291 153.97 16.9291V19.0291H157.87V22.1491H153.97V33.9091H150.19Z" fill="white"/>
<path d="M164.703 33.9091C163.723 33.9091 162.923 33.6091 162.303 33.0091C161.703 32.3891 161.403 31.5691 161.403 30.5491V22.1491H157.683V19.0291H161.403V14.4091H165.183V19.0291H169.263V22.1491H165.183V29.8891C165.183 30.4891 165.463 30.7891 166.023 30.7891H168.903V33.9091H164.703Z" fill="white"/>
</svg>
