<svg width="169" height="40" viewBox="0 0 169 40" fill="none" xmlns="http://www.w3.org/2000/svg">
<path opacity="0.8" d="M20.4658 21.6667C20.0423 16.5337 15.7422 12.5 10.5 12.5C4.97715 12.5 0.5 16.9772 0.5 22.5C0.5 28.0228 4.97715 32.5 10.5 32.5H25.5V21.6667H20.4658Z" fill="white"/>
<ellipse cx="24.6667" cy="20" rx="12.5" ry="12.5" fill="white"/>
<path d="M44.58 20.1668C44.58 18.5023 44.8989 17.0479 45.5367 15.8034C46.19 14.5434 47.1155 13.5712 48.3133 12.8868C49.5267 12.2023 50.95 11.8601 52.5833 11.8601C53.8589 11.8601 55.0022 12.109 56.0133 12.6068C57.0244 13.1046 57.8411 13.8046 58.4633 14.7068C59.0855 15.609 59.4589 16.6512 59.5833 17.8334H56.0833C55.8811 16.9001 55.4533 16.169 54.8 15.6401C54.1622 15.0957 53.3611 14.8234 52.3967 14.8234C51.09 14.8234 50.0555 15.3134 49.2933 16.2934C48.5311 17.2734 48.15 18.5646 48.15 20.1668C48.15 21.7534 48.5311 23.0446 49.2933 24.0401C50.0555 25.0201 51.09 25.5101 52.3967 25.5101C53.3611 25.5101 54.1622 25.2457 54.8 24.7168C55.4533 24.1723 55.8811 23.4334 56.0833 22.5001H59.5833C59.4589 23.6823 59.0855 24.7246 58.4633 25.6268C57.8411 26.529 57.0244 27.229 56.0133 27.7268C55.0022 28.2246 53.8589 28.4734 52.5833 28.4734C50.95 28.4734 49.5267 28.1312 48.3133 27.4468C47.1155 26.7623 46.19 25.7979 45.5367 24.5534C44.8989 23.2934 44.58 21.8312 44.58 20.1668Z" fill="white"/>
<path d="M60.4268 12.0001H63.7168V28.3334H60.4268V12.0001Z" fill="white"/>
<path d="M70.9328 28.4734C69.6728 28.4734 68.5606 28.2246 67.5961 27.7268C66.6472 27.2134 65.9084 26.4901 65.3795 25.5568C64.8661 24.6234 64.6095 23.5501 64.6095 22.3368C64.6095 21.1234 64.8661 20.0501 65.3795 19.1168C65.9084 18.1834 66.6472 17.4679 67.5961 16.9701C68.5606 16.4568 69.6728 16.2001 70.9328 16.2001C72.1928 16.2001 73.2972 16.4568 74.2461 16.9701C75.2106 17.4679 75.9495 18.1834 76.4628 19.1168C76.9917 20.0501 77.2561 21.1234 77.2561 22.3368C77.2561 23.5657 76.9917 24.6468 76.4628 25.5801C75.9495 26.4979 75.2106 27.2134 74.2461 27.7268C73.2972 28.2246 72.1928 28.4734 70.9328 28.4734ZM70.9328 25.7901C71.8506 25.7901 72.5739 25.4712 73.1028 24.8334C73.6472 24.1957 73.9195 23.3634 73.9195 22.3368C73.9195 21.3101 73.6472 20.4779 73.1028 19.8401C72.5739 19.2023 71.8506 18.8834 70.9328 18.8834C70.0306 18.8834 69.3072 19.2023 68.7628 19.8401C68.2339 20.4779 67.9695 21.3101 67.9695 22.3368C67.9695 23.3634 68.2339 24.1957 68.7628 24.8334C69.3072 25.4712 70.0306 25.7901 70.9328 25.7901Z" fill="white"/>
<path d="M89.427 16.3401V28.3334H86.5103L86.207 26.8868C85.787 27.3846 85.297 27.7734 84.737 28.0534C84.177 28.3334 83.4926 28.4734 82.6837 28.4734C81.2837 28.4734 80.1403 28.0457 79.2537 27.1901C78.367 26.319 77.9237 24.8723 77.9237 22.8501V16.3401H81.2137V22.4534C81.2137 23.5423 81.4003 24.3668 81.7737 24.9268C82.1626 25.4712 82.7537 25.7434 83.547 25.7434C84.3715 25.7434 85.0092 25.4401 85.4603 24.8334C85.9115 24.2112 86.137 23.3479 86.137 22.2434V16.3401H89.427Z" fill="white"/>
<path d="M102.774 12.0001V28.3334H99.9044L99.5777 26.6768C98.66 27.8746 97.4155 28.4734 95.8444 28.4734C94.7866 28.4734 93.8377 28.2246 92.9977 27.7268C92.1577 27.2134 91.4966 26.4901 91.0144 25.5568C90.5477 24.6234 90.3144 23.5423 90.3144 22.3134C90.3144 21.1001 90.5477 20.0346 91.0144 19.1168C91.4966 18.1834 92.1577 17.4679 92.9977 16.9701C93.8533 16.4568 94.81 16.2001 95.8677 16.2001C97.4233 16.2001 98.6288 16.7446 99.4844 17.8334V12.0001H102.774ZM96.6144 25.7901C97.5011 25.7901 98.2089 25.479 98.7377 24.8568C99.2666 24.219 99.5311 23.3868 99.5311 22.3601C99.5311 21.3179 99.2666 20.4779 98.7377 19.8401C98.2089 19.2023 97.5011 18.8834 96.6144 18.8834C95.7277 18.8834 95.0122 19.2023 94.4677 19.8401C93.9389 20.4779 93.6744 21.3101 93.6744 22.3368C93.6744 23.3634 93.9389 24.1957 94.4677 24.8334C95.0122 25.4712 95.7277 25.7901 96.6144 25.7901Z" fill="white"/>
<path d="M103.202 12.0001L106.818 11.9768L109.828 23.9234L113.025 12.0001H116.175L119.278 23.9234L122.358 12.0001H125.905L121.378 28.3334H117.342L114.518 17.4834L111.765 28.3334H107.728L103.202 12.0001Z" fill="white"/>
<path d="M136.883 25.5568V28.3334H135.203C133.694 28.3334 132.955 27.6801 132.987 26.3734C132.551 27.0579 132.014 27.579 131.377 27.9368C130.739 28.2946 129.969 28.4734 129.067 28.4734C127.729 28.4734 126.648 28.1701 125.823 27.5634C125.014 26.9412 124.61 26.0701 124.61 24.9501C124.61 23.6746 125.077 22.6946 126.01 22.0101C126.959 21.3101 128.328 20.9601 130.117 20.9601H132.497V20.3768C132.497 19.8323 132.294 19.4046 131.89 19.0934C131.485 18.7668 130.941 18.6034 130.257 18.6034C129.65 18.6034 129.152 18.7357 128.763 19.0001C128.374 19.2646 128.141 19.6223 128.063 20.0734H124.89C124.999 18.8446 125.543 17.8957 126.523 17.2268C127.503 16.5423 128.802 16.2001 130.42 16.2001C132.115 16.2001 133.422 16.5734 134.34 17.3201C135.273 18.0668 135.74 19.1479 135.74 20.5634V24.7868C135.74 25.0823 135.802 25.2846 135.927 25.3934C136.051 25.5023 136.245 25.5568 136.51 25.5568H136.883ZM132.497 23.1534H130.093C129.409 23.1534 128.872 23.2934 128.483 23.5734C128.11 23.8379 127.923 24.219 127.923 24.7168C127.923 25.1368 128.079 25.4712 128.39 25.7201C128.717 25.969 129.152 26.0934 129.697 26.0934C130.552 26.0934 131.229 25.8523 131.727 25.3701C132.224 24.8723 132.481 24.2112 132.497 23.3868V23.1534Z" fill="white"/>
<path d="M137.993 19.1168H136.009V16.3401H137.993V12.9801H141.283V16.3401H144.013V19.1168H141.283V24.3668C141.283 24.7868 141.368 25.0901 141.539 25.2768C141.726 25.4634 142.029 25.5568 142.449 25.5568H144.153V28.3334H141.423C139.136 28.3334 137.993 27.1901 137.993 24.9034V19.1168Z" fill="white"/>
<path d="M155.951 23.7834C155.733 25.2457 155.111 26.3968 154.084 27.2368C153.073 28.0612 151.758 28.4734 150.141 28.4734C148.896 28.4734 147.807 28.2246 146.874 27.7268C145.941 27.2134 145.217 26.4901 144.704 25.5568C144.206 24.6234 143.957 23.5501 143.957 22.3368C143.957 21.1079 144.206 20.0346 144.704 19.1168C145.217 18.1834 145.941 17.4679 146.874 16.9701C147.823 16.4568 148.92 16.2001 150.164 16.2001C151.766 16.2001 153.073 16.6123 154.084 17.4368C155.095 18.2457 155.717 19.3734 155.951 20.8201H152.544C152.404 20.229 152.124 19.7623 151.704 19.4201C151.284 19.0623 150.763 18.8834 150.141 18.8834C149.285 18.8834 148.601 19.2023 148.087 19.8401C147.574 20.4779 147.317 21.3101 147.317 22.3368C147.317 23.3634 147.574 24.1957 148.087 24.8334C148.601 25.4712 149.285 25.7901 150.141 25.7901C150.778 25.7901 151.307 25.6112 151.727 25.2534C152.163 24.8957 152.443 24.4057 152.567 23.7834H155.951Z" fill="white"/>
<path d="M163.635 16.2001C165.05 16.2001 166.209 16.6357 167.111 17.5068C168.029 18.3779 168.488 19.8168 168.488 21.8234V28.3334H165.198V21.9634C165.198 20.9679 164.996 20.2134 164.591 19.7001C164.187 19.1712 163.58 18.9068 162.771 18.9068C161.931 18.9068 161.27 19.1946 160.788 19.7701C160.321 20.3457 160.088 21.1468 160.088 22.1734V28.3334H156.798V12.0001H160.088V17.8101C160.975 16.7368 162.157 16.2001 163.635 16.2001Z" fill="white"/>
</svg>
