<svg width="169" height="40" viewBox="0 0 169 40" fill="none" xmlns="http://www.w3.org/2000/svg">
<path d="M20.3818 21.6667C19.9583 16.5337 15.6582 12.5 10.416 12.5C4.89317 12.5 0.416016 16.9772 0.416016 22.5C0.416016 28.0228 4.89317 32.5 10.416 32.5H25.416V21.6667H20.3818Z" fill="#528BFF"/>
<ellipse cx="24.582" cy="20" rx="12.5" ry="12.5" fill="#7839EE"/>
<path d="M44.4961 20.1665C44.4961 18.5021 44.815 17.0476 45.4528 15.8032C46.1061 14.5432 47.0316 13.571 48.2294 12.8865C49.4428 12.2021 50.8661 11.8599 52.4994 11.8599C53.775 11.8599 54.9183 12.1088 55.9294 12.6065C56.9405 13.1043 57.7572 13.8043 58.3794 14.7065C59.0016 15.6088 59.375 16.651 59.4994 17.8332H55.9994C55.7972 16.8999 55.3694 16.1688 54.7161 15.6399C54.0783 15.0954 53.2772 14.8232 52.3128 14.8232C51.0061 14.8232 49.9716 15.3132 49.2094 16.2932C48.4472 17.2732 48.0661 18.5643 48.0661 20.1665C48.0661 21.7532 48.4472 23.0443 49.2094 24.0399C49.9716 25.0199 51.0061 25.5099 52.3128 25.5099C53.2772 25.5099 54.0783 25.2454 54.7161 24.7165C55.3694 24.1721 55.7972 23.4332 55.9994 22.4999H59.4994C59.375 23.6821 59.0016 24.7243 58.3794 25.6265C57.7572 26.5288 56.9405 27.2288 55.9294 27.7265C54.9183 28.2243 53.775 28.4732 52.4994 28.4732C50.8661 28.4732 49.4428 28.131 48.2294 27.4465C47.0316 26.7621 46.1061 25.7976 45.4528 24.5532C44.815 23.2932 44.4961 21.831 44.4961 20.1665Z" fill="#101828"/>
<path d="M60.3429 11.9999H63.6329V28.3332H60.3429V11.9999Z" fill="#101828"/>
<path d="M70.8489 28.4732C69.5889 28.4732 68.4767 28.2243 67.5122 27.7265C66.5633 27.2132 65.8245 26.4899 65.2956 25.5565C64.7822 24.6232 64.5256 23.5499 64.5256 22.3365C64.5256 21.1232 64.7822 20.0499 65.2956 19.1165C65.8245 18.1832 66.5633 17.4676 67.5122 16.9699C68.4767 16.4565 69.5889 16.1999 70.8489 16.1999C72.1089 16.1999 73.2133 16.4565 74.1622 16.9699C75.1267 17.4676 75.8656 18.1832 76.3789 19.1165C76.9078 20.0499 77.1722 21.1232 77.1722 22.3365C77.1722 23.5654 76.9078 24.6465 76.3789 25.5799C75.8656 26.4976 75.1267 27.2132 74.1622 27.7265C73.2133 28.2243 72.1089 28.4732 70.8489 28.4732ZM70.8489 25.7899C71.7667 25.7899 72.49 25.471 73.0189 24.8332C73.5633 24.1954 73.8356 23.3632 73.8356 22.3365C73.8356 21.3099 73.5633 20.4776 73.0189 19.8399C72.49 19.2021 71.7667 18.8832 70.8489 18.8832C69.9467 18.8832 69.2233 19.2021 68.6789 19.8399C68.15 20.4776 67.8856 21.3099 67.8856 22.3365C67.8856 23.3632 68.15 24.1954 68.6789 24.8332C69.2233 25.471 69.9467 25.7899 70.8489 25.7899Z" fill="#101828"/>
<path d="M89.3431 16.3399V28.3332H86.4265L86.1231 26.8865C85.7031 27.3843 85.2131 27.7732 84.6531 28.0532C84.0931 28.3332 83.4087 28.4732 82.5998 28.4732C81.1998 28.4732 80.0565 28.0454 79.1698 27.1899C78.2831 26.3188 77.8398 24.8721 77.8398 22.8499V16.3399H81.1298V22.4532C81.1298 23.5421 81.3165 24.3665 81.6898 24.9265C82.0787 25.471 82.6698 25.7432 83.4631 25.7432C84.2876 25.7432 84.9253 25.4399 85.3765 24.8332C85.8276 24.211 86.0531 23.3476 86.0531 22.2432V16.3399H89.3431Z" fill="#101828"/>
<path d="M102.691 11.9999V28.3332H99.8205L99.4938 26.6765C98.5761 27.8743 97.3316 28.4732 95.7605 28.4732C94.7027 28.4732 93.7539 28.2243 92.9139 27.7265C92.0739 27.2132 91.4127 26.4899 90.9305 25.5565C90.4639 24.6232 90.2305 23.5421 90.2305 22.3132C90.2305 21.0999 90.4639 20.0343 90.9305 19.1165C91.4127 18.1832 92.0739 17.4676 92.9139 16.9699C93.7694 16.4565 94.7261 16.1999 95.7839 16.1999C97.3394 16.1999 98.545 16.7443 99.4005 17.8332V11.9999H102.691ZM96.5305 25.7899C97.4172 25.7899 98.125 25.4788 98.6538 24.8565C99.1827 24.2188 99.4472 23.3865 99.4472 22.3599C99.4472 21.3176 99.1827 20.4776 98.6538 19.8399C98.125 19.2021 97.4172 18.8832 96.5305 18.8832C95.6439 18.8832 94.9283 19.2021 94.3839 19.8399C93.855 20.4776 93.5905 21.3099 93.5905 22.3365C93.5905 23.3632 93.855 24.1954 94.3839 24.8332C94.9283 25.471 95.6439 25.7899 96.5305 25.7899Z" fill="#101828"/>
<path d="M103.118 11.9999L106.734 11.9765L109.744 23.9232L112.941 11.9999H116.091L119.194 23.9232L122.274 11.9999H125.821L121.294 28.3332H117.258L114.434 17.4832L111.681 28.3332H107.644L103.118 11.9999Z" fill="#101828"/>
<path d="M136.799 25.5565V28.3332H135.119C133.61 28.3332 132.872 27.6799 132.903 26.3732C132.467 27.0576 131.93 27.5788 131.293 27.9365C130.655 28.2943 129.885 28.4732 128.983 28.4732C127.645 28.4732 126.564 28.1699 125.739 27.5632C124.93 26.941 124.526 26.0699 124.526 24.9499C124.526 23.6743 124.993 22.6943 125.926 22.0099C126.875 21.3099 128.244 20.9599 130.033 20.9599H132.413V20.3765C132.413 19.8321 132.21 19.4043 131.806 19.0932C131.402 18.7665 130.857 18.6032 130.173 18.6032C129.566 18.6032 129.068 18.7354 128.679 18.9999C128.29 19.2643 128.057 19.6221 127.979 20.0732H124.806C124.915 18.8443 125.459 17.8954 126.439 17.2265C127.419 16.5421 128.718 16.1999 130.336 16.1999C132.032 16.1999 133.338 16.5732 134.256 17.3199C135.189 18.0665 135.656 19.1476 135.656 20.5632V24.7865C135.656 25.0821 135.718 25.2843 135.843 25.3932C135.967 25.5021 136.162 25.5565 136.426 25.5565H136.799ZM132.413 23.1532H130.009C129.325 23.1532 128.788 23.2932 128.399 23.5732C128.026 23.8376 127.839 24.2188 127.839 24.7165C127.839 25.1365 127.995 25.471 128.306 25.7199C128.633 25.9688 129.068 26.0932 129.613 26.0932C130.468 26.0932 131.145 25.8521 131.643 25.3699C132.14 24.8721 132.397 24.211 132.413 23.3865V23.1532Z" fill="#101828"/>
<path d="M137.909 19.1165H135.925V16.3399H137.909V12.9799H141.199V16.3399H143.929V19.1165H141.199V24.3665C141.199 24.7865 141.284 25.0899 141.455 25.2765C141.642 25.4632 141.945 25.5565 142.365 25.5565H144.069V28.3332H141.339C139.052 28.3332 137.909 27.1899 137.909 24.9032V19.1165Z" fill="#101828"/>
<path d="M155.867 23.7832C155.649 25.2454 155.027 26.3965 154 27.2365C152.989 28.061 151.675 28.4732 150.057 28.4732C148.812 28.4732 147.723 28.2243 146.79 27.7265C145.857 27.2132 145.133 26.4899 144.62 25.5565C144.122 24.6232 143.873 23.5499 143.873 22.3365C143.873 21.1076 144.122 20.0343 144.62 19.1165C145.133 18.1832 145.857 17.4676 146.79 16.9699C147.739 16.4565 148.836 16.1999 150.08 16.1999C151.682 16.1999 152.989 16.6121 154 17.4365C155.011 18.2454 155.633 19.3732 155.867 20.8199H152.46C152.32 20.2288 152.04 19.7621 151.62 19.4199C151.2 19.0621 150.679 18.8832 150.057 18.8832C149.201 18.8832 148.517 19.2021 148.003 19.8399C147.49 20.4776 147.233 21.3099 147.233 22.3365C147.233 23.3632 147.49 24.1954 148.003 24.8332C148.517 25.471 149.201 25.7899 150.057 25.7899C150.695 25.7899 151.223 25.611 151.643 25.2532C152.079 24.8954 152.359 24.4054 152.483 23.7832H155.867Z" fill="#101828"/>
<path d="M163.551 16.1999C164.966 16.1999 166.125 16.6354 167.027 17.5065C167.945 18.3776 168.404 19.8165 168.404 21.8232V28.3332H165.114V21.9632C165.114 20.9676 164.912 20.2132 164.507 19.6999C164.103 19.171 163.496 18.9065 162.687 18.9065C161.847 18.9065 161.186 19.1943 160.704 19.7699C160.237 20.3454 160.004 21.1465 160.004 22.1732V28.3332H156.714V11.9999H160.004V17.8099C160.891 16.7365 162.073 16.1999 163.551 16.1999Z" fill="#101828"/>
</svg>
