<svg width="216" height="48" viewBox="0 0 216 48" fill="none" xmlns="http://www.w3.org/2000/svg">
<path opacity="0.8" d="M20.5333 31.3333C28.6335 31.3333 35.2 24.7668 35.2 16.6667C35.2 8.56649 28.6335 2 20.5333 2H0V31.3333H20.5333Z" fill="white"/>
<path opacity="0.6" d="M0 2L35.2 46H11.7333L0 31.3333V2Z" fill="white"/>
<path d="M23.2637 31.0796C22.3791 31.2462 21.4664 31.3333 20.5333 31.3333H0V2L23.2637 31.0796Z" fill="white"/>
<path d="M59.3397 34.28C57.2864 34.28 55.5224 33.8693 54.0477 33.048C52.5917 32.208 51.4717 31.032 50.6877 29.52C49.9037 27.9893 49.5117 26.188 49.5117 24.116C49.5117 22.044 49.9037 20.252 50.6877 18.74C51.4717 17.228 52.5917 16.0613 54.0477 15.24C55.5224 14.4 57.2864 13.98 59.3397 13.98C60.6651 13.98 61.9157 14.1853 63.0917 14.596C64.2864 15.0066 65.2664 15.5946 66.0317 16.36L64.8557 19.216C64.0157 18.5066 63.1571 17.9933 62.2797 17.676C61.4024 17.34 60.4597 17.172 59.4517 17.172C57.4544 17.172 55.9331 17.7786 54.8877 18.992C53.8424 20.1866 53.3197 21.8946 53.3197 24.116C53.3197 26.3373 53.8424 28.0546 54.8877 29.268C55.9331 30.4813 57.4544 31.088 59.4517 31.088C60.4597 31.088 61.4024 30.9293 62.2797 30.612C63.1571 30.276 64.0157 29.7533 64.8557 29.044L66.0317 31.9C65.2664 32.6466 64.2864 33.2346 63.0917 33.664C61.9157 34.0746 60.6651 34.28 59.3397 34.28Z" fill="white"/>
<path d="M74.0832 34.28C72.6646 34.28 71.4326 33.9906 70.3872 33.412C69.3419 32.8333 68.5299 32.012 67.9512 30.948C67.3726 29.8653 67.0832 28.596 67.0832 27.14C67.0832 25.684 67.3726 24.424 67.9512 23.36C68.5299 22.296 69.3419 21.4746 70.3872 20.896C71.4326 20.3173 72.6646 20.028 74.0832 20.028C75.5019 20.028 76.7339 20.3173 77.7792 20.896C78.8246 21.4746 79.6366 22.296 80.2152 23.36C80.7939 24.424 81.0832 25.684 81.0832 27.14C81.0832 28.596 80.7939 29.8653 80.2152 30.948C79.6366 32.012 78.8246 32.8333 77.7792 33.412C76.7339 33.9906 75.5019 34.28 74.0832 34.28ZM74.0832 31.62C75.1286 31.62 75.9686 31.2466 76.6032 30.5C77.2379 29.7346 77.5552 28.6146 77.5552 27.14C77.5552 25.6466 77.2379 24.536 76.6032 23.808C75.9686 23.0613 75.1286 22.688 74.0832 22.688C73.0379 22.688 72.1979 23.0613 71.5632 23.808C70.9286 24.536 70.6112 25.6466 70.6112 27.14C70.6112 28.6146 70.9286 29.7346 71.5632 30.5C72.1979 31.2466 73.0379 31.62 74.0832 31.62Z" fill="white"/>
<path d="M84.0281 34V20.308H87.4441V22.408C87.8547 21.6613 88.4241 21.0826 89.1521 20.672C89.8801 20.2426 90.7201 20.028 91.6721 20.028C93.7254 20.028 95.0694 20.924 95.7041 22.716C96.1334 21.876 96.7494 21.2226 97.5521 20.756C98.3547 20.2706 99.2694 20.028 100.296 20.028C103.376 20.028 104.916 21.904 104.916 25.656V34H101.416V25.796C101.416 24.7506 101.239 23.9853 100.884 23.5C100.548 23.0146 99.9694 22.772 99.1481 22.772C98.2334 22.772 97.5147 23.0986 96.9921 23.752C96.4694 24.3866 96.2081 25.2733 96.2081 26.412V34H92.7081V25.796C92.7081 24.7506 92.5307 23.9853 92.1761 23.5C91.8401 23.0146 91.2707 22.772 90.4681 22.772C89.5534 22.772 88.8347 23.0986 88.3121 23.752C87.7894 24.3866 87.5281 25.2733 87.5281 26.412V34H84.0281Z" fill="white"/>
<path d="M108.583 34V20.308H111.999V22.408C112.409 21.6613 112.979 21.0826 113.707 20.672C114.435 20.2426 115.275 20.028 116.227 20.028C118.28 20.028 119.624 20.924 120.259 22.716C120.688 21.876 121.304 21.2226 122.107 20.756C122.909 20.2706 123.824 20.028 124.851 20.028C127.931 20.028 129.471 21.904 129.471 25.656V34H125.971V25.796C125.971 24.7506 125.793 23.9853 125.439 23.5C125.103 23.0146 124.524 22.772 123.703 22.772C122.788 22.772 122.069 23.0986 121.547 23.752C121.024 24.3866 120.763 25.2733 120.763 26.412V34H117.263V25.796C117.263 24.7506 117.085 23.9853 116.731 23.5C116.395 23.0146 115.825 22.772 115.023 22.772C114.108 22.772 113.389 23.0986 112.867 23.752C112.344 24.3866 112.083 25.2733 112.083 26.412V34H108.583Z" fill="white"/>
<path d="M137.589 34.28C136.6 34.28 135.713 34.0933 134.929 33.72C134.164 33.328 133.557 32.8053 133.109 32.152C132.68 31.4986 132.465 30.7613 132.465 29.94C132.465 28.932 132.727 28.1386 133.249 27.56C133.772 26.9626 134.621 26.5333 135.797 26.272C136.973 26.0106 138.551 25.88 140.529 25.88H141.509V25.292C141.509 24.3586 141.304 23.6866 140.893 23.276C140.483 22.8653 139.792 22.66 138.821 22.66C138.056 22.66 137.272 22.7813 136.469 23.024C135.667 23.248 134.855 23.6026 134.033 24.088L133.025 21.708C133.511 21.372 134.08 21.0826 134.733 20.84C135.405 20.5786 136.105 20.3826 136.833 20.252C137.58 20.1026 138.28 20.028 138.933 20.028C140.931 20.028 142.415 20.4946 143.385 21.428C144.356 22.3426 144.841 23.7706 144.841 25.712V34H141.565V31.816C141.248 32.5813 140.744 33.188 140.053 33.636C139.363 34.0653 138.541 34.28 137.589 34.28ZM138.317 31.872C139.232 31.872 139.988 31.5546 140.585 30.92C141.201 30.2853 141.509 29.4826 141.509 28.512V27.896H140.557C138.803 27.896 137.58 28.036 136.889 28.316C136.217 28.5773 135.881 29.0626 135.881 29.772C135.881 30.388 136.096 30.892 136.525 31.284C136.955 31.676 137.552 31.872 138.317 31.872Z" fill="white"/>
<path d="M148.394 34V20.308H151.81V22.436C152.277 21.652 152.902 21.0546 153.686 20.644C154.489 20.2333 155.385 20.028 156.374 20.028C159.603 20.028 161.218 21.904 161.218 25.656V34H157.718V25.824C157.718 24.76 157.513 23.9853 157.102 23.5C156.71 23.0146 156.094 22.772 155.254 22.772C154.227 22.772 153.406 23.0986 152.79 23.752C152.193 24.3866 151.894 25.236 151.894 26.3V34H148.394Z" fill="white"/>
<path d="M170.037 34.28C168.842 34.28 167.787 33.9906 166.873 33.412C165.977 32.8333 165.277 32.012 164.773 30.948C164.269 29.8653 164.017 28.596 164.017 27.14C164.017 25.6653 164.269 24.4053 164.773 23.36C165.277 22.296 165.977 21.4746 166.873 20.896C167.787 20.3173 168.842 20.028 170.037 20.028C171.007 20.028 171.885 20.2426 172.669 20.672C173.453 21.1013 174.041 21.6706 174.433 22.38V14.26H177.933V34H174.517V31.732C174.143 32.516 173.555 33.1413 172.753 33.608C171.95 34.056 171.045 34.28 170.037 34.28ZM171.017 31.62C172.062 31.62 172.902 31.2466 173.537 30.5C174.171 29.7346 174.489 28.6146 174.489 27.14C174.489 25.6466 174.171 24.536 173.537 23.808C172.902 23.0613 172.062 22.688 171.017 22.688C169.971 22.688 169.131 23.0613 168.497 23.808C167.862 24.536 167.545 25.6466 167.545 27.14C167.545 28.6146 167.862 29.7346 168.497 30.5C169.131 31.2466 169.971 31.62 171.017 31.62Z" fill="white"/>
<path d="M186.854 32.88V27.196H181.31V24.732H186.854V19.216H189.43V24.732H194.974V27.196H189.43V32.88H186.854Z" fill="white"/>
<path d="M198.687 34V14.26H207.255C209.42 14.26 211.091 14.7826 212.267 15.828C213.443 16.8546 214.031 18.3013 214.031 20.168C214.031 21.6426 213.648 22.8653 212.883 23.836C212.118 24.788 211.016 25.432 209.579 25.768C210.531 26.0666 211.315 26.7853 211.931 27.924L215.235 34H211.287L207.871 27.7C207.535 27.084 207.134 26.664 206.667 26.44C206.219 26.216 205.64 26.104 204.931 26.104H202.271V34H198.687ZM202.271 23.444H206.639C209.252 23.444 210.559 22.38 210.559 20.252C210.559 18.1426 209.252 17.088 206.639 17.088H202.271V23.444Z" fill="white"/>
</svg>
