<svg width="159" height="40" viewBox="0 0 159 40" fill="none" xmlns="http://www.w3.org/2000/svg">
<path d="M18.8994 3.33301C15.866 3.33301 13.416 5.75323 13.416 8.74967C13.416 11.7231 15.866 14.1433 18.876 14.1663C18.1293 14.1433 17.546 13.544 17.546 12.8064C17.546 12.0688 18.1527 11.4465 18.9227 11.4465C22.1893 11.4465 29.446 11.4465 32.6427 11.4465C34.906 11.4465 36.7493 9.62557 36.7493 7.38977C36.7493 5.15393 34.906 3.33301 32.6427 3.33301L18.8994 3.33301Z" fill="#5720B7"/>
<path d="M12.2333 14.1665C9.2 14.1665 6.75 16.5867 6.75 19.5832C6.75 22.5566 9.2 24.9768 12.21 24.9998C11.4633 24.9768 10.88 24.3775 10.88 23.6399C10.88 22.9023 11.4867 22.28 12.2567 22.28C15.5233 22.28 22.78 22.28 25.9767 22.28C28.24 22.28 30.0833 20.4591 30.0833 18.2233C30.0833 15.9874 28.24 14.1665 25.9767 14.1665L12.2333 14.1665Z" fill="#6927DA"/>
<path d="M7.625 25C4.375 25 1.75 27.6064 1.75 30.8333C1.75 34.0355 4.375 36.6418 7.59998 36.6667C6.79999 36.6418 6.175 35.9965 6.175 35.2021C6.175 34.4078 6.82501 33.7376 7.65002 33.7376C11.15 33.7376 18.925 33.7376 22.35 33.7376C24.775 33.7376 26.75 31.7766 26.75 29.3688C26.75 26.961 24.775 25 22.35 25L7.625 25Z" fill="#7839EE"/>
<path d="M45.0664 28.2577V10.7577H56.3164V13.7577H48.3664V17.9327H55.6164V20.9327H48.3664V25.2577H56.4664V28.2577H45.0664Z" fill="#101828"/>
<path d="M57.7592 33.2577V15.8577H60.8592V17.3577H61.3092C61.5925 16.8744 62.0342 16.4494 62.6342 16.0827C63.2342 15.6994 64.0925 15.5077 65.2092 15.5077C66.2092 15.5077 67.1342 15.7577 67.9842 16.2577C68.8342 16.741 69.5175 17.4577 70.0342 18.4077C70.5508 19.3577 70.8092 20.5077 70.8092 21.8577V22.2577C70.8092 23.6077 70.5508 24.7577 70.0342 25.7077C69.5175 26.6577 68.8342 27.3827 67.9842 27.8827C67.1342 28.366 66.2092 28.6077 65.2092 28.6077C64.4592 28.6077 63.8258 28.5161 63.3092 28.3327C62.8092 28.166 62.4008 27.9494 62.0842 27.6827C61.7842 27.3994 61.5425 27.116 61.3592 26.8327H60.9092V33.2577H57.7592ZM64.2592 25.8577C65.2425 25.8577 66.0508 25.5494 66.6842 24.9327C67.3342 24.2994 67.6592 23.3827 67.6592 22.1827V21.9327C67.6592 20.7327 67.3342 19.8244 66.6842 19.2077C66.0342 18.5744 65.2258 18.2577 64.2592 18.2577C63.2925 18.2577 62.4842 18.5744 61.8342 19.2077C61.1842 19.8244 60.8592 20.7327 60.8592 21.9327V22.1827C60.8592 23.3827 61.1842 24.2994 61.8342 24.9327C62.4842 25.5494 63.2925 25.8577 64.2592 25.8577Z" fill="#101828"/>
<path d="M72.4516 28.2577V15.8577H75.6016V28.2577H72.4516ZM74.0266 14.4077C73.4599 14.4077 72.9766 14.2244 72.5766 13.8577C72.1932 13.491 72.0016 13.0077 72.0016 12.4077C72.0016 11.8077 72.1932 11.3244 72.5766 10.9577C72.9766 10.591 73.4599 10.4077 74.0266 10.4077C74.6099 10.4077 75.0932 10.591 75.4766 10.9577C75.8599 11.3244 76.0516 11.8077 76.0516 12.4077C76.0516 13.0077 75.8599 13.491 75.4766 13.8577C75.0932 14.2244 74.6099 14.4077 74.0266 14.4077Z" fill="#101828"/>
<path d="M83.6672 28.6077C82.4672 28.6077 81.3755 28.3577 80.3922 27.8577C79.4255 27.3577 78.6589 26.6327 78.0922 25.6827C77.5255 24.7327 77.2422 23.5827 77.2422 22.2327V21.8827C77.2422 20.5327 77.5255 19.3827 78.0922 18.4327C78.6589 17.4827 79.4255 16.7577 80.3922 16.2577C81.3755 15.7577 82.4672 15.5077 83.6672 15.5077C84.8505 15.5077 85.8672 15.716 86.7172 16.1327C87.5672 16.5494 88.2505 17.1244 88.7672 17.8577C89.3005 18.5744 89.6505 19.391 89.8172 20.3077L86.7672 20.9577C86.7005 20.4577 86.5505 20.0077 86.3172 19.6077C86.0839 19.2077 85.7505 18.891 85.3172 18.6577C84.9005 18.4244 84.3755 18.3077 83.7422 18.3077C83.1089 18.3077 82.5339 18.4494 82.0172 18.7327C81.5172 18.9994 81.1172 19.4077 80.8172 19.9577C80.5339 20.491 80.3922 21.1494 80.3922 21.9327V22.1827C80.3922 22.966 80.5339 23.6327 80.8172 24.1827C81.1172 24.7161 81.5172 25.1244 82.0172 25.4077C82.5339 25.6744 83.1089 25.8077 83.7422 25.8077C84.6922 25.8077 85.4089 25.566 85.8922 25.0827C86.3922 24.5827 86.7089 23.9327 86.8422 23.1327L89.8922 23.8577C89.6755 24.741 89.3005 25.5494 88.7672 26.2827C88.2505 26.9994 87.5672 27.566 86.7172 27.9827C85.8672 28.3994 84.8505 28.6077 83.6672 28.6077Z" fill="#101828"/>
<path d="M95.9656 28.4577C94.999 28.4577 94.149 28.241 93.4156 27.8077C92.699 27.3577 92.1406 26.741 91.7406 25.9577C91.3406 25.1744 91.1406 24.2744 91.1406 23.2577V15.8577H94.2906V23.0077C94.2906 23.941 94.5156 24.641 94.9656 25.1077C95.4323 25.5744 96.0906 25.8077 96.9406 25.8077C97.9073 25.8077 98.6573 25.491 99.1906 24.8577C99.724 24.2077 99.9906 23.3077 99.9906 22.1577V15.8577H103.141V28.2577H100.041V26.6327H99.5906C99.3906 27.0494 99.0156 27.4577 98.4656 27.8577C97.9156 28.2577 97.0823 28.4577 95.9656 28.4577Z" fill="#101828"/>
<path d="M105.396 28.2577V15.8577H108.496V17.2577H108.946C109.129 16.7577 109.429 16.391 109.846 16.1577C110.279 15.9244 110.779 15.8077 111.346 15.8077H112.846V18.6077H111.296C110.496 18.6077 109.838 18.8244 109.321 19.2577C108.804 19.6744 108.546 20.3244 108.546 21.2077V28.2577H105.396Z" fill="#101828"/>
<path d="M114.058 28.2577V15.8577H117.208V28.2577H114.058ZM115.633 14.4077C115.066 14.4077 114.583 14.2244 114.183 13.8577C113.8 13.491 113.608 13.0077 113.608 12.4077C113.608 11.8077 113.8 11.3244 114.183 10.9577C114.583 10.591 115.066 10.4077 115.633 10.4077C116.216 10.4077 116.7 10.591 117.083 10.9577C117.466 11.3244 117.658 11.8077 117.658 12.4077C117.658 13.0077 117.466 13.491 117.083 13.8577C116.7 14.2244 116.216 14.4077 115.633 14.4077Z" fill="#101828"/>
<path d="M125.349 28.6077C124.115 28.6077 123.007 28.3577 122.024 27.8577C121.04 27.3577 120.265 26.6327 119.699 25.6827C119.132 24.7327 118.849 23.591 118.849 22.2577V21.8577C118.849 20.5244 119.132 19.3827 119.699 18.4327C120.265 17.4827 121.04 16.7577 122.024 16.2577C123.007 15.7577 124.115 15.5077 125.349 15.5077C126.582 15.5077 127.69 15.7577 128.674 16.2577C129.657 16.7577 130.432 17.4827 130.999 18.4327C131.565 19.3827 131.849 20.5244 131.849 21.8577V22.2577C131.849 23.591 131.565 24.7327 130.999 25.6827C130.432 26.6327 129.657 27.3577 128.674 27.8577C127.69 28.3577 126.582 28.6077 125.349 28.6077ZM125.349 25.8077C126.315 25.8077 127.115 25.4994 127.749 24.8827C128.382 24.2494 128.699 23.3494 128.699 22.1827V21.9327C128.699 20.766 128.382 19.8744 127.749 19.2577C127.132 18.6244 126.332 18.3077 125.349 18.3077C124.382 18.3077 123.582 18.6244 122.949 19.2577C122.315 19.8744 121.999 20.766 121.999 21.9327V22.1827C121.999 23.3494 122.315 24.2494 122.949 24.8827C123.582 25.4994 124.382 25.8077 125.349 25.8077Z" fill="#101828"/>
<path d="M138.231 28.4577C137.265 28.4577 136.415 28.241 135.681 27.8077C134.965 27.3577 134.406 26.741 134.006 25.9577C133.606 25.1744 133.406 24.2744 133.406 23.2577V15.8577H136.556V23.0077C136.556 23.941 136.781 24.641 137.231 25.1077C137.698 25.5744 138.356 25.8077 139.206 25.8077C140.173 25.8077 140.923 25.491 141.456 24.8577C141.99 24.2077 142.256 23.3077 142.256 22.1577V15.8577H145.406V28.2577H142.306V26.6327H141.856C141.656 27.0494 141.281 27.4577 140.731 27.8577C140.181 28.2577 139.348 28.4577 138.231 28.4577Z" fill="#101828"/>
<path d="M152.812 28.6077C151.195 28.6077 149.87 28.2577 148.837 27.5577C147.803 26.8577 147.178 25.8577 146.962 24.5577L149.862 23.8077C149.978 24.391 150.17 24.8494 150.437 25.1827C150.72 25.516 151.062 25.7577 151.462 25.9077C151.878 26.041 152.328 26.1077 152.812 26.1077C153.545 26.1077 154.087 25.9827 154.437 25.7327C154.787 25.466 154.962 25.141 154.962 24.7577C154.962 24.3744 154.795 24.0827 154.462 23.8827C154.128 23.666 153.595 23.491 152.862 23.3577L152.162 23.2327C151.295 23.066 150.503 22.841 149.787 22.5577C149.07 22.2577 148.495 21.8494 148.062 21.3327C147.628 20.816 147.412 20.1494 147.412 19.3327C147.412 18.0994 147.862 17.1577 148.762 16.5077C149.662 15.841 150.845 15.5077 152.312 15.5077C153.695 15.5077 154.845 15.816 155.762 16.4327C156.678 17.0494 157.278 17.8577 157.562 18.8577L154.637 19.7577C154.503 19.1244 154.228 18.6744 153.812 18.4077C153.412 18.141 152.912 18.0077 152.312 18.0077C151.712 18.0077 151.253 18.116 150.937 18.3327C150.62 18.5327 150.462 18.816 150.462 19.1827C150.462 19.5827 150.628 19.8827 150.962 20.0827C151.295 20.266 151.745 20.4077 152.312 20.5077L153.012 20.6327C153.945 20.7994 154.787 21.0244 155.537 21.3077C156.303 21.5744 156.903 21.966 157.337 22.4827C157.787 22.9827 158.012 23.666 158.012 24.5327C158.012 25.8327 157.537 26.841 156.587 27.5577C155.653 28.2577 154.395 28.6077 152.812 28.6077Z" fill="#101828"/>
</svg>
