<svg width="166" height="40" viewBox="0 0 166 40" fill="none" xmlns="http://www.w3.org/2000/svg">
<path d="M9.86021 3.73797L14.1506 19.75V2.14604C14.4908 2.06665 14.8347 1.99674 15.1819 1.93659V19.7516L20.0075 1.74219C20.3552 1.77367 20.7002 1.81486 21.0421 1.8655L16.1776 20.02L25.8469 3.27222C26.1619 3.41393 26.4722 3.56428 26.7775 3.72296L17.0721 20.5332L30.9278 6.67752C31.1776 6.91375 31.4207 7.15693 31.6569 7.40676L17.7992 21.2645L34.6114 11.5579C34.7701 11.8632 34.9204 12.1735 35.0621 12.4885L18.3184 22.1555L36.468 17.2923C36.5186 17.6342 36.5598 17.9792 36.5913 18.3269L18.582 23.1525L36.3966 23.1525C36.3364 23.4997 36.2665 23.8435 36.1871 24.1837L18.5793 24.1837L34.5944 28.475C34.4299 28.7899 34.2566 29.0995 34.0747 29.4033L18.3169 25.1811L31.4783 32.7798C31.2291 33.036 30.9725 33.285 30.7089 33.5263L17.8025 26.0748L27.5685 35.8409C27.2596 36.0214 26.945 36.1931 26.6249 36.3556L17.0722 26.803L23.3312 37.6439C22.9885 37.7408 22.6418 37.8279 22.2912 37.9051L16.1782 27.317L19.1255 38.3166C18.8628 38.3278 18.5987 38.3334 18.3332 38.3334C18.2426 38.3334 18.1522 38.3328 18.0619 38.3315L15.1819 27.5831V38.0636C14.8347 38.0035 14.4908 37.9335 14.1506 37.8542V27.5848L11.6112 37.0619C11.2873 36.9342 10.9679 36.7975 10.6534 36.6522L13.1541 27.3193L8.45969 35.4503C8.16907 35.2641 7.88404 35.0701 7.60491 34.8683L12.2624 26.8013L5.7399 33.3238C5.49008 33.0876 5.24689 32.8444 5.01066 32.5946L11.5311 26.0741L3.4664 30.7303C3.26461 30.4512 3.07048 30.1662 2.88432 29.8756L11.0191 25.1789L1.68158 27.6809C1.53624 27.3664 1.39955 27.047 1.27182 26.7231L10.7489 24.1837L0.479416 24.1837C0.400008 23.8435 0.330072 23.4997 0.269903 23.1525L10.7462 23.1525L0.00190649 20.2736C0.000576 20.1826 -9.15527e-05 20.0914 -9.15527e-05 20.0001C-9.15527e-05 19.7353 0.00552052 19.4719 0.0166322 19.2099L11.0176 22.1576L0.427926 16.0436C0.505035 15.6931 0.592175 15.3463 0.689031 15.0036L11.5344 21.2652L1.97769 11.7085C2.14028 11.3884 2.31199 11.0737 2.49247 10.7648L12.2625 20.5349L4.80805 7.62333C5.04943 7.3597 5.29842 7.10314 5.55466 6.85402L13.1547 20.0177L8.93182 4.25758C9.23569 4.07572 9.54527 3.9024 9.86021 3.73797Z" fill="white"/>
<path d="M48.2067 28.2577H52.1967V21.3277H60.1533V17.8044H52.1967V14.8411H60.6667V11.3411H48.2067V28.2577Z" fill="white"/>
<path d="M67.4481 18.3177C68.9648 18.3177 70.1781 19.2511 70.1781 21.9344C70.1781 24.5711 69.0114 25.5744 67.4481 25.5744C65.8848 25.5744 64.7181 24.5711 64.7181 21.9344C64.7181 19.2511 65.9314 18.3177 67.4481 18.3177ZM67.4481 15.3311C63.9714 15.3311 60.7981 17.3844 60.7981 21.9344C60.7981 26.4844 63.9714 28.5611 67.4481 28.5611C70.9248 28.5611 74.0981 26.4844 74.0981 21.9344C74.0981 17.3844 70.9248 15.3311 67.4481 15.3311Z" fill="white"/>
<path d="M81.4909 15.3311C77.6876 15.3311 75.0743 17.9211 75.0743 21.9111C75.0743 25.9011 77.3609 28.5611 81.4909 28.5611C84.0109 28.5611 87.0209 27.3711 87.8843 23.6377H84.2909C84.0109 24.8277 83.1476 25.5744 81.7243 25.5744C80.3476 25.5744 78.9943 24.6644 78.9943 21.9344C78.9943 19.2511 80.3476 18.3177 81.7243 18.3177C82.8676 18.3177 83.7776 18.8311 84.1276 20.3011H87.7209C86.9743 16.5211 84.1043 15.3311 81.4909 15.3311Z" fill="white"/>
<path d="M96.9307 20.4177C92.054 20.7911 88.5773 21.7944 88.5773 24.8744C88.5773 27.1611 90.5373 28.5611 92.9173 28.5611C94.714 28.5611 96.2073 28.0711 97.1407 26.7411L97.1873 28.2577H100.967C100.781 27.4644 100.687 25.9944 100.687 24.6177V23.3111L100.734 20.5811C100.804 16.7777 98.7507 15.3077 95.134 15.3077C91.4007 15.3077 89.1607 17.4077 88.974 19.7644H92.5673C92.7307 18.5511 93.5707 17.9211 94.8073 17.9211C96.2073 17.9211 96.9307 18.4344 96.9307 19.9277V20.4177ZM97.024 22.9844C97.024 25.2944 95.8573 25.9477 94.3173 25.9477C93.314 25.9477 92.544 25.4111 92.544 24.5944C92.544 23.2411 94.3407 22.9377 97.024 22.6811V22.9844Z" fill="white"/>
<path d="M106.56 11.3411H102.71V28.2577H106.56V11.3411Z" fill="white"/>
<path d="M109.015 11.3411V28.2577H113.005V22.4011H115.525C119.911 22.4011 123.201 21.3044 123.201 16.8477C123.201 12.4144 119.911 11.3411 115.525 11.3411H109.015ZM115.641 14.7011C117.508 14.7011 118.978 15.0744 118.978 16.8477C118.978 18.6211 117.508 19.0411 115.641 19.0411H113.005V14.7011H115.641Z" fill="white"/>
<path d="M129.965 18.3177C131.482 18.3177 132.695 19.2511 132.695 21.9344C132.695 24.5711 131.528 25.5744 129.965 25.5744C128.402 25.5744 127.235 24.5711 127.235 21.9344C127.235 19.2511 128.448 18.3177 129.965 18.3177ZM129.965 15.3311C126.488 15.3311 123.315 17.3844 123.315 21.9344C123.315 26.4844 126.488 28.5611 129.965 28.5611C133.442 28.5611 136.615 26.4844 136.615 21.9344C136.615 17.3844 133.442 15.3311 129.965 15.3311Z" fill="white"/>
<path d="M138.156 15.7044V28.2577H142.029V15.7044H138.156ZM138.156 11.3411V14.4211H142.006V11.3411H138.156Z" fill="white"/>
<path d="M148.17 15.7044H144.32V28.2577H148.17V21.8177C148.17 19.4844 148.846 18.4111 150.503 18.4111C152.37 18.4111 152.44 19.8811 152.44 21.6777V28.2577H156.29V20.7211C156.29 17.3144 155.286 15.4244 152.066 15.4244C150.083 15.4244 148.73 16.4277 148.17 17.3611V15.7044Z" fill="white"/>
<path d="M158.952 15.7044H156.969V18.4344H158.952V24.7344C158.952 27.6511 160.002 28.2577 163.105 28.2577H165.555V25.4811H164.459C163.175 25.4811 162.802 25.2477 162.802 24.0577V18.4344H165.555V15.7044H162.802V12.2744H158.952V15.7044Z" fill="white"/>
</svg>
