<svg width="167" height="40" viewBox="0 0 167 40" fill="none" xmlns="http://www.w3.org/2000/svg">
<path d="M10.6103 3.73748L14.9007 19.7495V2.14555C15.2409 2.06616 15.5848 1.99625 15.932 1.9361V19.7511L20.7576 1.7417C21.1053 1.77318 21.4503 1.81438 21.7922 1.86501L16.9277 20.0195L26.597 3.27173C26.912 3.41344 27.2223 3.56379 27.5276 3.72247L17.8221 20.5327L31.6778 6.67703C31.9276 6.91327 32.1708 7.15645 32.407 7.40627L18.5493 21.264L35.3615 11.5574C35.5202 11.8627 35.6705 12.173 35.8122 12.4881L19.0685 22.155L37.2181 17.2918C37.2687 17.6337 37.3099 17.9787 37.3413 18.3264L19.3321 23.152L37.1467 23.152C37.0865 23.4992 37.0166 23.843 36.9372 24.1832L19.3294 24.1832L35.3445 28.4745C35.18 28.7894 35.0067 29.099 34.8248 29.4028L19.067 25.1806L32.2284 32.7793C31.9792 33.0355 31.7226 33.2845 31.459 33.5258L18.5525 26.0743L28.3186 35.8404C28.0097 36.0209 27.695 36.1926 27.375 36.3552L17.8223 26.8025L24.0813 37.6434C23.7386 37.7403 23.3918 37.8275 23.0413 37.9046L16.9283 27.3165L19.8756 38.3161C19.6129 38.3273 19.3488 38.3329 19.0833 38.3329C18.9927 38.3329 18.9023 38.3323 18.812 38.331L15.9319 27.5826V38.0631C15.5848 38.003 15.2409 37.9331 14.9007 37.8537V27.5843L12.3613 37.0614C12.0374 36.9337 11.718 36.797 11.4035 36.6517L13.9042 27.3188L9.20979 35.4498C8.91916 35.2637 8.63413 35.0696 8.355 34.8678L13.0125 26.8008L6.48999 33.3233C6.24017 33.0871 5.99698 32.8439 5.76075 32.5941L12.2812 26.0736L4.21649 30.7298C4.0147 30.4507 3.82057 30.1657 3.63441 29.8751L11.7692 25.1785L2.43167 27.6805C2.28633 27.3659 2.14964 27.0465 2.02191 26.7226L11.499 24.1832L1.22951 24.1832C1.1501 23.843 1.08016 23.4992 1.01999 23.152H11.4962L0.751998 20.2731C0.750668 20.1821 0.75 20.0909 0.75 19.9996C0.75 19.7349 0.755612 19.4714 0.766724 19.2094L11.7677 22.1571L1.17802 16.0431C1.25513 15.6926 1.34227 15.3458 1.43912 15.0031L12.2845 21.2647L2.72778 11.708C2.89037 11.3879 3.06208 11.0732 3.24256 10.7643L13.0126 20.5344L5.55814 7.62285C5.79952 7.35921 6.04851 7.10266 6.30476 6.85353L13.9048 20.0172L9.68191 4.25709C9.98578 4.07523 10.2954 3.90191 10.6103 3.73748Z" fill="#6927DA"/>
<path d="M48.957 28.2575H52.947V21.3275H60.9037V17.8042H52.947V14.8408H61.417V11.3408H48.957V28.2575Z" fill="#101828"/>
<path d="M68.1985 18.3175C69.7151 18.3175 70.9285 19.2508 70.9285 21.9342C70.9285 24.5708 69.7618 25.5742 68.1985 25.5742C66.6351 25.5742 65.4685 24.5708 65.4685 21.9342C65.4685 19.2508 66.6818 18.3175 68.1985 18.3175ZM68.1985 15.3308C64.7218 15.3308 61.5485 17.3842 61.5485 21.9342C61.5485 26.4842 64.7218 28.5608 68.1985 28.5608C71.6751 28.5608 74.8485 26.4842 74.8485 21.9342C74.8485 17.3842 71.6751 15.3308 68.1985 15.3308Z" fill="#101828"/>
<path d="M82.2413 15.3308C78.438 15.3308 75.8246 17.9208 75.8246 21.9108C75.8246 25.9008 78.1113 28.5608 82.2413 28.5608C84.7613 28.5608 87.7713 27.3708 88.6346 23.6375H85.0413C84.7613 24.8275 83.898 25.5742 82.4746 25.5742C81.098 25.5742 79.7446 24.6642 79.7446 21.9342C79.7446 19.2508 81.098 18.3175 82.4746 18.3175C83.618 18.3175 84.528 18.8308 84.878 20.3008H88.4713C87.7246 16.5208 84.8546 15.3308 82.2413 15.3308Z" fill="#101828"/>
<path d="M97.681 20.4175C92.8044 20.7908 89.3277 21.7942 89.3277 24.8742C89.3277 27.1608 91.2877 28.5608 93.6677 28.5608C95.4644 28.5608 96.9577 28.0708 97.891 26.7408L97.9377 28.2575H101.718C101.531 27.4642 101.438 25.9942 101.438 24.6175V23.3108L101.484 20.5808C101.554 16.7775 99.501 15.3075 95.8844 15.3075C92.151 15.3075 89.911 17.4075 89.7244 19.7642H93.3177C93.481 18.5508 94.321 17.9208 95.5577 17.9208C96.9577 17.9208 97.681 18.4342 97.681 19.9275V20.4175ZM97.7744 22.9842C97.7744 25.2942 96.6077 25.9475 95.0677 25.9475C94.0644 25.9475 93.2944 25.4108 93.2944 24.5942C93.2944 23.2408 95.091 22.9375 97.7744 22.6808V22.9842Z" fill="#101828"/>
<path d="M107.31 11.3408H103.46V28.2575H107.31V11.3408Z" fill="#101828"/>
<path d="M109.765 11.3408V28.2575H113.755V22.4008H116.275C120.662 22.4008 123.952 21.3042 123.952 16.8475C123.952 12.4142 120.662 11.3408 116.275 11.3408H109.765ZM116.392 14.7008C118.258 14.7008 119.728 15.0742 119.728 16.8475C119.728 18.6208 118.258 19.0408 116.392 19.0408H113.755V14.7008H116.392Z" fill="#101828"/>
<path d="M130.715 18.3175C132.232 18.3175 133.445 19.2508 133.445 21.9342C133.445 24.5708 132.279 25.5742 130.715 25.5742C129.152 25.5742 127.985 24.5708 127.985 21.9342C127.985 19.2508 129.199 18.3175 130.715 18.3175ZM130.715 15.3308C127.239 15.3308 124.065 17.3842 124.065 21.9342C124.065 26.4842 127.239 28.5608 130.715 28.5608C134.192 28.5608 137.365 26.4842 137.365 21.9342C137.365 17.3842 134.192 15.3308 130.715 15.3308Z" fill="#101828"/>
<path d="M138.906 15.7042V28.2575H142.779V15.7042H138.906ZM138.906 11.3408V14.4208H142.756V11.3408H138.906Z" fill="#101828"/>
<path d="M148.92 15.7042H145.07V28.2575H148.92V21.8175C148.92 19.4842 149.597 18.4108 151.253 18.4108C153.12 18.4108 153.19 19.8808 153.19 21.6775V28.2575H157.04V20.7208C157.04 17.3142 156.037 15.4242 152.817 15.4242C150.833 15.4242 149.48 16.4275 148.92 17.3608V15.7042Z" fill="#101828"/>
<path d="M159.702 15.7042H157.719V18.4342H159.702V24.7342C159.702 27.6508 160.752 28.2575 163.856 28.2575H166.306V25.4808H165.209C163.926 25.4808 163.552 25.2475 163.552 24.0575V18.4342H166.306V15.7042H163.552V12.2742H159.702V15.7042Z" fill="#101828"/>
</svg>
