<svg width="126" height="40" viewBox="0 0 126 40" fill="none" xmlns="http://www.w3.org/2000/svg">
<path d="M27.6641 3.8833C30.1311 8.72034 31.5223 14.1977 31.5223 19.9999C31.5223 25.8023 30.1311 31.2796 27.6641 36.1167C33.3751 33.011 37.2515 26.9582 37.2515 20C37.2515 13.0418 33.3752 6.98902 27.6641 3.8833Z" fill="#0BA5EC"/>
<path d="M19.4193 3.49883C18.5901 2.32412 17.1775 1.69147 15.7607 1.93733C7.1397 3.43343 0.583984 10.9511 0.583984 19.9999C0.583984 29.0487 7.13967 36.5664 15.7607 38.0625C17.1774 38.3084 18.59 37.6758 19.4193 36.501C22.7122 31.8363 24.6465 26.144 24.6465 19.9999C24.6465 13.8558 22.7122 8.16358 19.4193 3.49883Z" fill="#0086C9"/>
<path d="M54.4035 28.5375C57.6235 28.5375 60.1435 27.3942 61.6368 25.4809V19.4842H55.4535L55.3369 22.5175L57.8102 22.4009V24.3142C56.9002 25.0375 55.7802 25.3875 54.7069 25.3875C52.0235 25.3875 50.3202 23.3575 50.3202 20.1142C50.3202 16.8709 51.9068 14.8409 54.4502 14.8409C56.1302 14.8409 57.2969 15.8442 57.4602 17.4542H61.6368C61.3569 13.9075 58.5802 11.6909 54.4502 11.6909C49.4802 11.6909 46.3535 14.9342 46.3535 20.1142C46.3535 25.2942 49.4568 28.5375 54.4035 28.5375Z" fill="#101828"/>
<path d="M71.8645 28.2575H75.3878V19.7875C75.3878 16.7309 73.1245 15.0042 69.5778 15.0042C65.9378 15.0042 63.6045 16.6842 63.3712 19.4142H66.9178C67.0345 18.2709 67.9678 17.5709 69.4145 17.5709C70.8845 17.5709 71.7478 18.3175 71.7478 19.5542V20.4409H69.3678C65.8678 20.4409 63.7445 21.9575 63.7445 24.6409C63.7445 26.9275 65.4012 28.5375 67.9212 28.5375C69.5312 28.5375 70.9078 28.0942 71.7945 26.9742L71.8645 28.2575ZM67.3145 24.4075C67.3145 23.4042 68.0845 22.9842 69.2978 22.9842L71.7478 22.9609V23.9642C71.0478 25.0375 70.0912 25.6675 68.8312 25.6675C67.8045 25.6675 67.3145 25.1075 67.3145 24.4075Z" fill="#101828"/>
<path d="M78.0642 28.2575H81.7042V10.9909H78.0642V28.2575Z" fill="#101828"/>
<path d="M84.4895 28.2575H88.1295V15.2842H84.4895V28.2575ZM84.3495 13.5575H88.2228V10.1509H84.3495V13.5575Z" fill="#101828"/>
<path d="M90.9158 28.2575H94.5558V10.9909H90.9158V28.2575Z" fill="#101828"/>
<path d="M103.478 28.5375C107.118 28.5375 109.591 26.6942 109.894 23.7309H106.254C106.021 24.8275 104.971 25.6209 103.478 25.6209C101.564 25.6209 100.514 24.1975 100.398 22.3309H109.941C110.291 17.8275 107.864 15.0042 103.664 15.0042C99.4177 15.0042 96.7344 17.6175 96.7344 21.7709C96.7344 25.9242 99.3244 28.5375 103.478 28.5375ZM100.678 19.8342C101.121 18.5042 102.078 17.8275 103.641 17.8275C105.088 17.8275 106.138 18.6442 106.231 19.8342H100.678Z" fill="#101828"/>
<path d="M118.173 28.5375C122.327 28.5375 124.823 25.9942 124.823 21.7709C124.823 17.5475 122.327 15.0042 118.173 15.0042C114.02 15.0042 111.5 17.5475 111.5 21.7709C111.5 25.9942 114.02 28.5375 118.173 28.5375ZM115.14 21.7709C115.14 19.3675 116.283 17.9442 118.173 17.9442C120.04 17.9442 121.183 19.3675 121.183 21.7709C121.183 24.1742 120.04 25.5975 118.173 25.5975C116.283 25.5975 115.14 24.1742 115.14 21.7709Z" fill="#101828"/>
</svg>
