<svg width="126" height="40" viewBox="0 0 126 40" fill="none" xmlns="http://www.w3.org/2000/svg">
<path opacity="0.8" d="M27.9126 3.8833C30.3796 8.72034 31.7708 14.1977 31.7708 19.9999C31.7708 25.8023 30.3796 31.2796 27.9125 36.1167C33.6236 33.011 37.5 26.9582 37.5 20C37.5 13.0418 33.6236 6.98902 27.9126 3.8833Z" fill="white"/>
<path d="M19.6687 3.49883C18.8394 2.32412 17.4268 1.69147 16.0101 1.93733C7.38903 3.43343 0.833313 10.9511 0.833313 19.9999C0.833313 29.0487 7.38899 36.5664 16.01 38.0625C17.4267 38.3084 18.8394 37.6757 19.6686 36.501C22.9615 31.8363 24.8958 26.144 24.8958 19.9999C24.8958 13.8558 22.9615 8.16358 19.6687 3.49883Z" fill="white"/>
<path d="M54.6533 28.5375C57.8733 28.5375 60.3933 27.3942 61.8867 25.4809V19.4842H55.7033L55.5867 22.5175L58.06 22.4009V24.3142C57.15 25.0375 56.03 25.3875 54.9567 25.3875C52.2733 25.3875 50.57 23.3575 50.57 20.1142C50.57 16.8709 52.1567 14.8409 54.7 14.8409C56.38 14.8409 57.5467 15.8442 57.71 17.4542H61.8867C61.6067 13.9075 58.83 11.6909 54.7 11.6909C49.73 11.6909 46.6033 14.9342 46.6033 20.1142C46.6033 25.2942 49.7067 28.5375 54.6533 28.5375Z" fill="white"/>
<path d="M72.1143 28.2575H75.6377V19.7875C75.6377 16.7309 73.3743 15.0042 69.8277 15.0042C66.1877 15.0042 63.8543 16.6842 63.621 19.4142H67.1677C67.2843 18.2709 68.2177 17.5709 69.6643 17.5709C71.1343 17.5709 71.9977 18.3175 71.9977 19.5542V20.4409H69.6177C66.1177 20.4409 63.9943 21.9575 63.9943 24.6409C63.9943 26.9275 65.651 28.5375 68.171 28.5375C69.781 28.5375 71.1577 28.0942 72.0443 26.9742L72.1143 28.2575ZM67.5643 24.4075C67.5643 23.4042 68.3343 22.9842 69.5477 22.9842L71.9977 22.9609V23.9642C71.2977 25.0375 70.341 25.6675 69.081 25.6675C68.0543 25.6675 67.5643 25.1075 67.5643 24.4075Z" fill="white"/>
<path d="M78.3141 28.2575H81.9541V10.9909H78.3141V28.2575Z" fill="white"/>
<path d="M84.7393 28.2575H88.3793V15.2842H84.7393V28.2575ZM84.5993 13.5575H88.4726V10.1509H84.5993V13.5575Z" fill="white"/>
<path d="M91.1656 28.2575H94.8056V10.9909H91.1656V28.2575Z" fill="white"/>
<path d="M103.728 28.5375C107.368 28.5375 109.841 26.6942 110.144 23.7309H106.504C106.271 24.8275 105.221 25.6209 103.728 25.6209C101.814 25.6209 100.764 24.1975 100.648 22.3309H110.191C110.541 17.8275 108.114 15.0042 103.914 15.0042C99.6675 15.0042 96.9842 17.6175 96.9842 21.7709C96.9842 25.9242 99.5742 28.5375 103.728 28.5375ZM100.928 19.8342C101.371 18.5042 102.328 17.8275 103.891 17.8275C105.338 17.8275 106.388 18.6442 106.481 19.8342H100.928Z" fill="white"/>
<path d="M118.423 28.5375C122.576 28.5375 125.073 25.9942 125.073 21.7709C125.073 17.5475 122.576 15.0042 118.423 15.0042C114.27 15.0042 111.75 17.5475 111.75 21.7709C111.75 25.9942 114.27 28.5375 118.423 28.5375ZM115.39 21.7709C115.39 19.3675 116.533 17.9442 118.423 17.9442C120.29 17.9442 121.433 19.3675 121.433 21.7709C121.433 24.1742 120.29 25.5975 118.423 25.5975C116.533 25.5975 115.39 24.1742 115.39 21.7709Z" fill="white"/>
</svg>
