<svg width="146" height="40" viewBox="0 0 146 40" fill="none" xmlns="http://www.w3.org/2000/svg">
<path d="M12.4816 16.2082C17.2824 13.9122 21.0395 10.0159 23.1964 5.14556C21.8049 3.68446 19.9959 2.64081 18.0477 2.01463L17.0041 1.66675C16.9345 1.8059 16.8649 2.01464 16.8649 2.15379C15.1951 6.88497 11.7859 10.7117 7.19386 12.8685C3.99335 14.3992 1.62776 17.1822 0.514537 20.5219L0.166656 21.5655C0.305809 21.6351 0.514541 21.7047 0.653693 21.7047C1.97564 22.1917 3.29759 22.8179 4.54996 23.5833C6.28936 20.4523 9.07241 17.8084 12.4816 16.2082Z" fill="white"/>
<path opacity="0.8" d="M32.6588 16.4866C30.0845 20.3828 26.5361 23.5138 22.1528 25.6011C18.6044 27.2709 15.8909 30.4018 14.6386 34.1589L14.2907 35.3417C15.6126 36.5245 17.2129 37.429 18.9523 37.9856L19.9959 38.3335C20.0655 38.1944 20.1351 37.9856 20.1351 37.8465C21.8049 33.1153 25.2141 29.2886 29.8062 27.1317C33.0067 25.6011 35.4418 22.818 36.4855 19.4784L36.8334 18.4347C35.3723 18.0173 33.9807 17.3215 32.6588 16.4866Z" fill="white"/>
<path opacity="0.9" d="M11.5076 31.7236C13.247 27.549 16.4475 24.1398 20.5525 22.1916C24.3096 20.3827 27.4406 17.5996 29.5974 14.1904C27.9972 12.6597 26.6752 10.9203 25.7012 8.83301C23.1268 13.5642 19.0914 17.3909 14.1515 19.7565C11.2989 21.0784 9.00288 23.3744 7.61136 26.1575C9.14203 27.6186 10.3944 29.4276 11.3685 31.4453C11.3685 31.4453 11.438 31.5844 11.5076 31.7236Z" fill="white"/>
<path d="M45.125 28.3333H56.85V25.0833H48.9V10.8333H45.125V28.3333Z" fill="white"/>
<path d="M69.0998 15.7333H65.5998V22.6333C65.5998 24.2333 64.5248 25.4333 62.9998 25.4333C61.5748 25.4333 60.5748 24.3333 60.5748 22.8083V15.7333H57.0998V23.5833C57.0998 26.4583 58.9498 28.5333 61.7748 28.5333C63.4998 28.5333 64.8998 27.7833 65.5998 26.5833V28.3333H69.0998V15.7333Z" fill="white"/>
<path d="M70.4 28.3333H73.9V21.1833C73.9 19.5583 74.825 18.4833 76.275 18.4833C77.625 18.4833 78.475 19.5583 78.475 21.1833V28.3333H81.975V21.1833C81.975 19.5583 82.9 18.4833 84.35 18.4833C85.7 18.4833 86.575 19.5583 86.575 21.1833V28.3333H90.05V20.0833C90.05 17.5583 88.275 15.5333 85.525 15.5333C83.5 15.5333 81.925 16.6083 81.325 17.8333C80.725 16.3333 79.45 15.5333 77.475 15.5333C75.775 15.5333 74.575 16.3583 73.9 17.5083V15.7333H70.4V28.3333Z" fill="white"/>
<path d="M91.2424 10.2583V13.9333H94.9424V10.2583H91.2424ZM91.3424 28.3333H94.8424V15.7333H91.3424V28.3333Z" fill="white"/>
<path d="M96.1471 28.3333H99.6471V21.4333C99.6471 19.8083 100.722 18.6333 102.247 18.6333C103.697 18.6333 104.672 19.7333 104.672 21.2583V28.3333H108.172V20.4833C108.172 17.5833 106.322 15.5333 103.472 15.5333C101.747 15.5333 100.347 16.2583 99.6471 17.4833V15.7333H96.1471V28.3333Z" fill="white"/>
<path d="M115.472 28.5333C119.347 28.5333 122.122 25.7833 122.122 22.0333C122.122 18.2833 119.347 15.5333 115.472 15.5333C111.597 15.5333 108.822 18.2833 108.822 22.0333C108.822 25.7833 111.597 28.5333 115.472 28.5333ZM115.472 25.5333C113.597 25.5333 112.322 24.1083 112.322 22.0333C112.322 19.9333 113.597 18.5083 115.472 18.5083C117.347 18.5083 118.622 19.9333 118.622 22.0333C118.622 24.1083 117.347 25.5333 115.472 25.5333Z" fill="white"/>
<path d="M134.798 15.7333H131.298V22.6333C131.298 24.2333 130.223 25.4333 128.698 25.4333C127.273 25.4333 126.273 24.3333 126.273 22.8083V15.7333H122.798V23.5833C122.798 26.4583 124.648 28.5333 127.473 28.5333C129.198 28.5333 130.598 27.7833 131.298 26.5833V28.3333H134.798V15.7333Z" fill="white"/>
<path d="M140.698 28.5333C143.648 28.5333 145.598 26.9583 145.598 24.5583C145.598 18.8583 138.698 21.7833 138.698 19.2083C138.698 18.4083 139.373 17.9833 140.348 17.9833C141.298 17.9833 142.273 18.5583 142.423 19.6333H145.448C145.323 17.1583 143.273 15.5333 140.248 15.5333C137.673 15.5333 135.748 17.1083 135.748 19.3333C135.748 24.6333 142.523 22.1083 142.523 24.6833C142.523 25.3833 141.773 25.9083 140.698 25.9083C139.398 25.9083 138.523 25.2083 138.398 24.0833H135.398C135.523 26.8083 137.623 28.5333 140.698 28.5333Z" fill="white"/>
</svg>
