<svg width="147" height="40" viewBox="0 0 147 40" fill="none" xmlns="http://www.w3.org/2000/svg">
<path d="M13.149 16.2079C17.9497 13.9119 21.7068 10.0156 23.8637 5.14531C22.4722 3.68421 20.6632 2.64057 18.7151 2.01438L17.6714 1.6665C17.6018 1.80566 17.5323 2.01439 17.5323 2.15355C15.8624 6.88473 12.4532 10.7114 7.86118 12.8683C4.66068 14.399 2.29508 17.182 1.18187 20.5217L0.833984 21.5653C0.973137 21.6349 1.18187 21.7044 1.32102 21.7044C2.64297 22.1915 3.96492 22.8177 5.21729 23.583C6.95669 20.4521 9.73974 17.8082 13.149 16.2079Z" fill="#087443"/>
<path d="M33.3251 16.4863C30.7508 20.3826 27.2024 23.5135 22.8191 25.6008C19.2708 27.2706 16.5573 30.4016 15.3049 34.1587L14.957 35.3415C16.279 36.5243 17.8792 37.4288 19.6186 37.9854L20.6623 38.3333C20.7319 38.1941 20.8014 37.9854 20.8014 37.8462C22.4713 33.115 25.8805 29.2884 30.4725 27.1315C33.673 25.6008 36.1082 22.8178 37.1518 19.4781L37.4997 18.4345C36.0386 18.017 34.6471 17.3212 33.3251 16.4863Z" fill="#16B364"/>
<path d="M12.1756 31.7231C13.915 27.5485 17.1155 24.1393 21.2205 22.1912C24.9776 20.3822 28.1085 17.5991 30.2654 14.1899C28.6651 12.6592 27.3432 10.9198 26.3691 8.83252C23.7948 13.5637 19.7594 17.3904 14.8195 19.756C11.9668 21.0779 9.67082 23.374 8.2793 26.157C9.80997 27.6181 11.0623 29.4271 12.0364 31.4448C12.0364 31.4448 12.106 31.584 12.1756 31.7231Z" fill="#099250"/>
<path d="M45.793 28.3333H57.518V25.0833H49.568V10.8333H45.793V28.3333Z" fill="#101828"/>
<path d="M69.7678 15.7333H66.2678V22.6333C66.2678 24.2333 65.1928 25.4333 63.6678 25.4333C62.2428 25.4333 61.2428 24.3333 61.2428 22.8083V15.7333H57.7678V23.5833C57.7678 26.4583 59.6178 28.5333 62.4428 28.5333C64.1678 28.5333 65.5678 27.7833 66.2678 26.5833V28.3333H69.7678V15.7333Z" fill="#101828"/>
<path d="M71.068 28.3333H74.568V21.1833C74.568 19.5583 75.493 18.4833 76.943 18.4833C78.293 18.4833 79.143 19.5583 79.143 21.1833V28.3333H82.643V21.1833C82.643 19.5583 83.568 18.4833 85.018 18.4833C86.368 18.4833 87.243 19.5583 87.243 21.1833V28.3333H90.718V20.0833C90.718 17.5583 88.943 15.5333 86.193 15.5333C84.168 15.5333 82.593 16.6083 81.993 17.8333C81.393 16.3333 80.118 15.5333 78.143 15.5333C76.443 15.5333 75.243 16.3583 74.568 17.5083V15.7333H71.068V28.3333Z" fill="#101828"/>
<path d="M91.9104 10.2583V13.9333H95.6104V10.2583H91.9104ZM92.0104 28.3333H95.5104V15.7333H92.0104V28.3333Z" fill="#101828"/>
<path d="M96.815 28.3333H100.315V21.4333C100.315 19.8083 101.39 18.6333 102.915 18.6333C104.365 18.6333 105.34 19.7333 105.34 21.2583V28.3333H108.84V20.4833C108.84 17.5833 106.99 15.5333 104.14 15.5333C102.415 15.5333 101.015 16.2583 100.315 17.4833V15.7333H96.815V28.3333Z" fill="#101828"/>
<path d="M116.14 28.5333C120.015 28.5333 122.79 25.7833 122.79 22.0333C122.79 18.2833 120.015 15.5333 116.14 15.5333C112.265 15.5333 109.49 18.2833 109.49 22.0333C109.49 25.7833 112.265 28.5333 116.14 28.5333ZM116.14 25.5333C114.265 25.5333 112.99 24.1083 112.99 22.0333C112.99 19.9333 114.265 18.5083 116.14 18.5083C118.015 18.5083 119.29 19.9333 119.29 22.0333C119.29 24.1083 118.015 25.5333 116.14 25.5333Z" fill="#101828"/>
<path d="M135.466 15.7333H131.966V22.6333C131.966 24.2333 130.891 25.4333 129.366 25.4333C127.941 25.4333 126.941 24.3333 126.941 22.8083V15.7333H123.466V23.5833C123.466 26.4583 125.316 28.5333 128.141 28.5333C129.866 28.5333 131.266 27.7833 131.966 26.5833V28.3333H135.466V15.7333Z" fill="#101828"/>
<path d="M141.366 28.5333C144.316 28.5333 146.266 26.9583 146.266 24.5583C146.266 18.8583 139.366 21.7833 139.366 19.2083C139.366 18.4083 140.041 17.9833 141.016 17.9833C141.966 17.9833 142.941 18.5583 143.091 19.6333H146.116C145.991 17.1583 143.941 15.5333 140.916 15.5333C138.341 15.5333 136.416 17.1083 136.416 19.3333C136.416 24.6333 143.191 22.1083 143.191 24.6833C143.191 25.3833 142.441 25.9083 141.366 25.9083C140.066 25.9083 139.191 25.2083 139.066 24.0833H136.066C136.191 26.8083 138.291 28.5333 141.366 28.5333Z" fill="#101828"/>
</svg>
