<svg width="153" height="40" viewBox="0 0 153 40" fill="none" xmlns="http://www.w3.org/2000/svg">
<g clip-path="url(#clip0_18_207531)">
<path d="M23.3077 3.43466L19.7903 2.49219L16.8262 13.5544L14.1502 3.56736L10.6328 4.50984L13.5241 15.3001L6.32254 8.09859L3.74766 10.6735L11.6468 18.5727L1.80966 15.9368L0.867188 19.4542L11.6155 22.3342C11.4925 21.8034 11.4274 21.2504 11.4274 20.6821C11.4274 16.6599 14.688 13.3992 18.7103 13.3992C22.7325 13.3992 25.9932 16.6599 25.9932 20.6821C25.9932 21.2467 25.9289 21.7964 25.8073 22.324L35.5756 24.9414L36.518 21.4241L25.7269 18.5326L35.5648 15.8965L34.6223 12.3792L23.8316 15.2705L31.0331 8.06903L28.4582 5.49414L20.6686 13.2838L23.3077 3.43466Z" fill="#FF4405"/>
<path d="M25.7971 22.365C25.4955 23.6399 24.8588 24.7852 23.9853 25.7029L31.0619 32.7796L33.6368 30.2047L25.7971 22.365Z" fill="#FF4405"/>
<path d="M23.9138 25.7769C23.0297 26.6798 21.9125 27.3537 20.6595 27.701L23.2346 37.3112L26.7519 36.3687L23.9138 25.7769Z" fill="#FF4405"/>
<path d="M20.5282 27.7361C19.9469 27.8856 19.3376 27.965 18.7097 27.965C18.037 27.965 17.3855 27.8738 16.7671 27.703L14.1897 37.322L17.7071 38.2645L20.5282 27.7361Z" fill="#FF4405"/>
<path d="M16.6428 27.6676C15.409 27.3031 14.3116 26.6206 13.4455 25.715L6.35144 32.8091L8.92632 35.384L16.6428 27.6676Z" fill="#FF4405"/>
<path d="M13.3871 25.6523C12.5359 24.741 11.9158 23.611 11.6207 22.3557L1.82056 24.9817L2.76302 28.499L13.3871 25.6523Z" fill="#FF4405"/>
</g>
<path d="M57.6836 10.7578V23.4328L49.5586 10.7578H46.3086V28.2578H49.5586V15.6828L57.6836 28.2578H60.9336V10.7578H57.6836Z" fill="#101828"/>
<path d="M62.398 14.0328H65.748V10.7578H62.398V14.0328ZM62.448 28.2578V15.7578H65.698V28.2578H62.448Z" fill="#101828"/>
<path d="M79.6814 22.0078C79.6814 17.6828 76.6064 15.6328 73.3564 15.6078C70.0814 15.5828 67.0564 17.6828 67.0564 22.0078C67.0564 26.3328 70.0814 28.4328 73.3564 28.4078C76.3314 28.3828 78.3814 27.0078 79.3314 24.7328L76.8064 23.6828C76.0314 25.2328 74.8064 25.7828 73.3564 25.8078C72.1064 25.8328 70.6814 25.2328 70.3814 23.0078H79.6064C79.6564 22.6828 79.6814 22.3578 79.6814 22.0078ZM73.3564 18.1828C74.6064 18.2078 75.8814 18.8828 76.2814 20.6828H70.4314C70.8564 18.8578 72.1314 18.1578 73.3564 18.1828Z" fill="#101828"/>
<path d="M87.1924 18.0828V15.6078H85.1424V12.2578L81.8924 13.2578V15.6078H79.8424V18.0828H81.8924V24.5578C81.8924 27.0078 82.0924 28.2578 85.8924 28.2578H86.7674V25.4078H85.8924C85.2924 25.4078 85.1424 25.3078 85.1424 24.5578V18.0828H87.1924Z" fill="#101828"/>
<path d="M92.0217 25.5328L98.9217 18.4828V15.7578H88.5717V18.4828H95.2717L88.3717 25.5328V28.2578H98.9967V25.5328H92.0217Z" fill="#101828"/>
<path d="M100.162 24.7328L103.437 24.2328C103.662 25.4828 105.137 25.9578 106.037 25.9578C106.962 25.9578 108.562 25.7578 108.562 24.2578C108.562 21.3328 100.537 24.9828 100.537 19.3828C100.537 15.7828 104.712 15.5828 106.037 15.5828C107.287 15.5828 110.912 15.7828 111.662 18.6828L108.562 19.3328C108.287 18.0078 106.887 17.7578 106.137 17.7578C105.387 17.7578 103.787 17.9328 103.787 19.3828C103.787 22.2828 111.812 18.5828 111.812 24.2578C111.812 28.0828 107.412 28.4078 106.037 28.4078C104.787 28.4078 100.812 28.0828 100.162 24.7328Z" fill="#101828"/>
<path d="M116.034 22.0078C116.034 25.0578 117.659 25.9828 119.359 25.9578C120.884 25.9328 121.934 25.3078 122.559 23.5578L125.234 24.8578C124.259 27.4078 121.884 28.3828 119.359 28.4078C116.084 28.4328 112.784 26.3328 112.784 22.0078C112.784 17.6828 116.084 15.5828 119.359 15.6078C121.884 15.6328 124.259 16.6078 125.234 19.1578L122.559 20.4578C121.934 18.7078 120.884 18.0828 119.359 18.0578C117.659 18.0328 116.034 18.9578 116.034 22.0078Z" fill="#101828"/>
<path d="M133.959 15.5578C132.284 15.5578 130.759 16.4328 129.784 18.3078V10.7578H126.534V28.2578H129.784V23.8328C129.784 18.1078 132.159 17.6328 133.034 17.6328C134.434 17.6328 134.634 19.0828 134.634 21.2078V28.2578H137.884V21.2078C137.884 18.5578 137.459 15.5578 133.959 15.5578Z" fill="#101828"/>
<path d="M151.605 22.0078C151.605 17.6828 148.53 15.6328 145.28 15.6078C142.005 15.5828 138.98 17.6828 138.98 22.0078C138.98 26.3328 142.005 28.4328 145.28 28.4078C148.255 28.3828 150.305 27.0078 151.255 24.7328L148.73 23.6828C147.955 25.2328 146.73 25.7828 145.28 25.8078C144.03 25.8328 142.605 25.2328 142.305 23.0078H151.53C151.58 22.6828 151.605 22.3578 151.605 22.0078ZM145.28 18.1828C146.53 18.2078 147.805 18.8828 148.205 20.6828H142.355C142.78 18.8578 144.055 18.1578 145.28 18.1828Z" fill="#101828"/>
<defs>
<clipPath id="clip0_18_207531">
<rect width="36.6667" height="36.6667" fill="white" transform="translate(0.583984 1.6665)"/>
</clipPath>
</defs>
</svg>
