<svg width="149" height="40" viewBox="0 0 149 40" fill="none" xmlns="http://www.w3.org/2000/svg">
<path d="M30.5 20.0002C30.5 27.548 24.3812 33.6668 16.8333 33.6668C9.2854 33.6668 3.16663 27.548 3.16663 20.0002C3.16663 12.4523 9.2854 6.3335 16.8333 6.3335C24.3812 6.3335 30.5 12.4523 30.5 20.0002Z" stroke="white" stroke-width="6"/>
<path d="M55.32 17.011C55.32 17.8821 55.11 18.6987 54.69 19.461C54.2855 20.2232 53.64 20.8376 52.7533 21.3043C51.8822 21.771 50.7777 22.0043 49.44 22.0043H46.71V28.2576H43.4433V11.971H49.44C50.7 11.971 51.7733 12.1887 52.66 12.6243C53.5466 13.0599 54.2077 13.6587 54.6433 14.421C55.0944 15.1832 55.32 16.0465 55.32 17.011ZM49.3 19.3676C50.2022 19.3676 50.8711 19.1654 51.3066 18.761C51.7422 18.341 51.96 17.7576 51.96 17.011C51.96 15.4243 51.0733 14.631 49.3 14.631H46.71V19.3676H49.3Z" fill="white"/>
<path d="M62.4459 28.4676C61.2015 28.4676 60.0815 28.1954 59.0859 27.651C58.0904 27.091 57.3048 26.3054 56.7293 25.2943C56.1693 24.2832 55.8893 23.1165 55.8893 21.7943C55.8893 20.4721 56.177 19.3054 56.7526 18.2943C57.3437 17.2832 58.1448 16.5054 59.1559 15.961C60.167 15.401 61.2948 15.121 62.5393 15.121C63.7837 15.121 64.9115 15.401 65.9226 15.961C66.9337 16.5054 67.727 17.2832 68.3026 18.2943C68.8937 19.3054 69.1893 20.4721 69.1893 21.7943C69.1893 23.1165 68.8859 24.2832 68.2793 25.2943C67.6882 26.3054 66.8793 27.091 65.8526 27.651C64.8415 28.1954 63.7059 28.4676 62.4459 28.4676ZM62.4459 25.621C63.037 25.621 63.5893 25.481 64.1026 25.201C64.6315 24.9054 65.0515 24.4699 65.3626 23.8943C65.6737 23.3187 65.8293 22.6187 65.8293 21.7943C65.8293 20.5654 65.5026 19.6243 64.8493 18.971C64.2115 18.3021 63.4259 17.9676 62.4926 17.9676C61.5593 17.9676 60.7737 18.3021 60.1359 18.971C59.5137 19.6243 59.2026 20.5654 59.2026 21.7943C59.2026 23.0232 59.5059 23.9721 60.1126 24.641C60.7348 25.2943 61.5126 25.621 62.4459 25.621Z" fill="white"/>
<path d="M73.9188 10.991V28.2576H70.6522V10.991H73.9188Z" fill="white"/>
<path d="M88.5796 15.331L80.5763 34.371H77.0996L79.8996 27.931L74.7196 15.331H78.383L81.7196 24.361L85.103 15.331H88.5796Z" fill="white"/>
<path d="M105.461 15.1443C107.047 15.1443 108.323 15.6343 109.287 16.6143C110.267 17.5787 110.757 18.9321 110.757 20.6743V28.2576H107.491V21.1176C107.491 20.1065 107.234 19.3365 106.721 18.8076C106.207 18.2632 105.507 17.991 104.621 17.991C103.734 17.991 103.026 18.2632 102.497 18.8076C101.984 19.3365 101.727 20.1065 101.727 21.1176V28.2576H98.4606V21.1176C98.4606 20.1065 98.2039 19.3365 97.6906 18.8076C97.1772 18.2632 96.4772 17.991 95.5906 17.991C94.6883 17.991 93.9728 18.2632 93.4439 18.8076C92.9306 19.3365 92.6739 20.1065 92.6739 21.1176V28.2576H89.4072V15.331H92.6739V16.8943C93.0939 16.3499 93.6306 15.9221 94.2839 15.611C94.9528 15.2999 95.6839 15.1443 96.4772 15.1443C97.4883 15.1443 98.3906 15.3621 99.1839 15.7976C99.9772 16.2176 100.592 16.8243 101.027 17.6176C101.447 16.871 102.054 16.2721 102.847 15.821C103.656 15.3699 104.527 15.1443 105.461 15.1443Z" fill="white"/>
<path d="M112.084 21.7476C112.084 20.441 112.34 19.2821 112.854 18.271C113.383 17.2599 114.09 16.4821 114.977 15.9376C115.879 15.3932 116.883 15.121 117.987 15.121C118.952 15.121 119.792 15.3154 120.507 15.7043C121.238 16.0932 121.822 16.5832 122.257 17.1743V15.331H125.547V28.2576H122.257V26.3676C121.837 26.9743 121.254 27.4799 120.507 27.8843C119.776 28.2732 118.928 28.4676 117.964 28.4676C116.875 28.4676 115.879 28.1876 114.977 27.6276C114.09 27.0676 113.383 26.2821 112.854 25.271C112.34 24.2443 112.084 23.0699 112.084 21.7476ZM122.257 21.7943C122.257 21.001 122.102 20.3243 121.79 19.7643C121.479 19.1887 121.059 18.7532 120.53 18.4576C120.002 18.1465 119.434 17.991 118.827 17.991C118.22 17.991 117.66 18.1387 117.147 18.4343C116.634 18.7299 116.214 19.1654 115.887 19.741C115.576 20.301 115.42 20.9699 115.42 21.7476C115.42 22.5254 115.576 23.2099 115.887 23.801C116.214 24.3765 116.634 24.8199 117.147 25.131C117.676 25.4421 118.236 25.5976 118.827 25.5976C119.434 25.5976 120.002 25.4499 120.53 25.1543C121.059 24.8432 121.479 24.4076 121.79 23.8476C122.102 23.2721 122.257 22.5876 122.257 21.7943Z" fill="white"/>
<path d="M131.608 18.0143V24.2676C131.608 24.7032 131.709 25.0221 131.911 25.2243C132.129 25.411 132.486 25.5043 132.984 25.5043H134.501V28.2576H132.448C129.694 28.2576 128.318 26.9199 128.318 24.2443V18.0143H126.778V15.331H128.318V12.1343H131.608V15.331H134.501V18.0143H131.608Z" fill="white"/>
<path d="M143.197 15.1443C144.177 15.1443 145.048 15.3621 145.81 15.7976C146.573 16.2176 147.164 16.8476 147.584 17.6876C148.019 18.5121 148.237 19.5076 148.237 20.6743V28.2576H144.97V21.1176C144.97 20.091 144.714 19.3054 144.2 18.761C143.687 18.201 142.987 17.921 142.1 17.921C141.198 17.921 140.483 18.201 139.954 18.761C139.44 19.3054 139.184 20.091 139.184 21.1176V28.2576H135.917V10.991H139.184V16.941C139.604 16.381 140.164 15.9454 140.864 15.6343C141.564 15.3076 142.342 15.1443 143.197 15.1443Z" fill="white"/>
</svg>
