<svg width="149" height="40" viewBox="0 0 149 40" fill="none" xmlns="http://www.w3.org/2000/svg">
<path d="M30.6673 19.9997C30.6673 27.5476 24.5485 33.6663 17.0007 33.6663C9.45276 33.6663 3.33398 27.5476 3.33398 19.9997C3.33398 12.4518 9.45276 6.33301 17.0007 6.33301C24.5485 6.33301 30.6673 12.4518 30.6673 19.9997Z" stroke="#155EEF" stroke-width="6"/>
<path d="M55.488 17.0112C55.488 17.8823 55.278 18.699 54.858 19.4612C54.4536 20.2234 53.808 20.8379 52.9213 21.3045C52.0502 21.7712 50.9458 22.0045 49.608 22.0045H46.878V28.2579H43.6113V11.9712H49.608C50.868 11.9712 51.9413 12.189 52.828 12.6245C53.7147 13.0601 54.3758 13.659 54.8113 14.4212C55.2624 15.1834 55.488 16.0468 55.488 17.0112ZM49.468 19.3679C50.3702 19.3679 51.0391 19.1657 51.4747 18.7612C51.9102 18.3412 52.128 17.7579 52.128 17.0112C52.128 15.4245 51.2413 14.6312 49.468 14.6312H46.878V19.3679H49.468Z" fill="#101828"/>
<path d="M62.614 28.4679C61.3695 28.4679 60.2495 28.1957 59.254 27.6512C58.2584 27.0912 57.4728 26.3057 56.8973 25.2945C56.3373 24.2834 56.0573 23.1168 56.0573 21.7945C56.0573 20.4723 56.3451 19.3057 56.9206 18.2945C57.5117 17.2834 58.3128 16.5057 59.324 15.9612C60.3351 15.4012 61.4628 15.1212 62.7073 15.1212C63.9517 15.1212 65.0795 15.4012 66.0906 15.9612C67.1017 16.5057 67.8951 17.2834 68.4706 18.2945C69.0617 19.3057 69.3573 20.4723 69.3573 21.7945C69.3573 23.1168 69.054 24.2834 68.4473 25.2945C67.8562 26.3057 67.0473 27.0912 66.0206 27.6512C65.0095 28.1957 63.874 28.4679 62.614 28.4679ZM62.614 25.6212C63.2051 25.6212 63.7573 25.4812 64.2706 25.2012C64.7995 24.9057 65.2195 24.4701 65.5306 23.8945C65.8417 23.319 65.9973 22.619 65.9973 21.7945C65.9973 20.5657 65.6706 19.6245 65.0173 18.9712C64.3795 18.3023 63.594 17.9679 62.6606 17.9679C61.7273 17.9679 60.9417 18.3023 60.304 18.9712C59.6817 19.6245 59.3706 20.5657 59.3706 21.7945C59.3706 23.0234 59.674 23.9723 60.2806 24.6412C60.9028 25.2945 61.6806 25.6212 62.614 25.6212Z" fill="#101828"/>
<path d="M74.0868 10.9912V28.2579H70.8202V10.9912H74.0868Z" fill="#101828"/>
<path d="M88.7477 15.3312L80.7443 34.3712H77.2677L80.0677 27.9312L74.8877 15.3312H78.551L81.8877 24.3612L85.271 15.3312H88.7477Z" fill="#101828"/>
<path d="M105.629 15.1445C107.215 15.1445 108.491 15.6345 109.455 16.6145C110.435 17.579 110.925 18.9323 110.925 20.6745V28.2579H107.659V21.1179C107.659 20.1068 107.402 19.3368 106.889 18.8079C106.375 18.2634 105.675 17.9912 104.789 17.9912C103.902 17.9912 103.194 18.2634 102.665 18.8079C102.152 19.3368 101.895 20.1068 101.895 21.1179V28.2579H98.6286V21.1179C98.6286 20.1068 98.3719 19.3368 97.8586 18.8079C97.3453 18.2634 96.6453 17.9912 95.7586 17.9912C94.8564 17.9912 94.1408 18.2634 93.6119 18.8079C93.0986 19.3368 92.8419 20.1068 92.8419 21.1179V28.2579H89.5753V15.3312H92.8419V16.8945C93.2619 16.3501 93.7986 15.9223 94.4519 15.6112C95.1208 15.3001 95.8519 15.1445 96.6453 15.1445C97.6564 15.1445 98.5586 15.3623 99.3519 15.7979C100.145 16.2179 100.76 16.8245 101.195 17.6179C101.615 16.8712 102.222 16.2723 103.015 15.8212C103.824 15.3701 104.695 15.1445 105.629 15.1445Z" fill="#101828"/>
<path d="M112.252 21.7479C112.252 20.4412 112.508 19.2823 113.022 18.2712C113.551 17.2601 114.258 16.4823 115.145 15.9379C116.047 15.3934 117.051 15.1212 118.155 15.1212C119.12 15.1212 119.96 15.3157 120.675 15.7045C121.406 16.0934 121.99 16.5834 122.425 17.1745V15.3312H125.715V28.2579H122.425V26.3679C122.005 26.9745 121.422 27.4801 120.675 27.8845C119.944 28.2734 119.096 28.4679 118.132 28.4679C117.043 28.4679 116.047 28.1879 115.145 27.6279C114.258 27.0679 113.551 26.2823 113.022 25.2712C112.508 24.2445 112.252 23.0701 112.252 21.7479ZM122.425 21.7945C122.425 21.0012 122.27 20.3245 121.958 19.7645C121.647 19.189 121.227 18.7534 120.698 18.4579C120.17 18.1468 119.602 17.9912 118.995 17.9912C118.388 17.9912 117.828 18.139 117.315 18.4345C116.802 18.7301 116.382 19.1657 116.055 19.7412C115.744 20.3012 115.588 20.9701 115.588 21.7479C115.588 22.5257 115.744 23.2101 116.055 23.8012C116.382 24.3768 116.802 24.8201 117.315 25.1312C117.844 25.4423 118.404 25.5979 118.995 25.5979C119.602 25.5979 120.17 25.4501 120.698 25.1545C121.227 24.8434 121.647 24.4079 121.958 23.8479C122.27 23.2723 122.425 22.5879 122.425 21.7945Z" fill="#101828"/>
<path d="M131.776 18.0145V24.2679C131.776 24.7034 131.877 25.0223 132.079 25.2245C132.297 25.4112 132.654 25.5045 133.152 25.5045H134.669V28.2579H132.616C129.862 28.2579 128.486 26.9201 128.486 24.2445V18.0145H126.946V15.3312H128.486V12.1345H131.776V15.3312H134.669V18.0145H131.776Z" fill="#101828"/>
<path d="M143.365 15.1445C144.345 15.1445 145.216 15.3623 145.978 15.7979C146.741 16.2179 147.332 16.8479 147.752 17.6879C148.187 18.5123 148.405 19.5079 148.405 20.6745V28.2579H145.138V21.1179C145.138 20.0912 144.882 19.3057 144.368 18.7612C143.855 18.2012 143.155 17.9212 142.268 17.9212C141.366 17.9212 140.651 18.2012 140.122 18.7612C139.608 19.3057 139.352 20.0912 139.352 21.1179V28.2579H136.085V10.9912H139.352V16.9412C139.772 16.3812 140.332 15.9457 141.032 15.6345C141.732 15.3079 142.51 15.1445 143.365 15.1445Z" fill="#101828"/>
</svg>
