<svg width="239" height="40" viewBox="0 0 239 40" fill="none" xmlns="http://www.w3.org/2000/svg">
<g clip-path="url(#clip0_18_46247)">
<path d="M89.5989 15.6197V30.4764H84.174V15.6197H78.6872V10.8897H95.0703V15.6197H89.5989Z" fill="#344054"/>
<path d="M107.749 24.5682H99.1312C99.3017 26.1965 100.247 26.9099 101.627 26.9099C102.913 26.9099 103.983 26.6308 105.424 25.8709L107.346 29.0965C105.533 30.1666 103.657 30.7714 101.363 30.7714C96.9457 30.7714 94.5123 27.6388 94.5123 23.1259C94.5123 18.0548 97.3642 15.4649 101.224 15.4649C105.254 15.4649 107.764 18.1168 107.764 23.5757C107.764 24.0099 107.764 24.3201 107.749 24.5682ZM101.084 19.2024C99.9372 19.2024 99.3017 19.9933 99.1312 21.4356H103.332C103.068 19.9468 102.572 19.2024 101.084 19.2024Z" fill="#344054"/>
<path d="M117.111 30.7866C112.802 30.7866 110.229 28.0416 110.229 23.0945C110.229 18.5817 112.523 15.4801 117.219 15.4801C119.994 15.4801 121.575 16.7673 122.861 18.8298L119.389 21.4662C118.692 20.179 118.211 19.5587 117.126 19.5587C115.84 19.5587 115.189 20.8459 115.189 23.1721C115.189 25.4983 115.886 26.6924 117.266 26.6924C118.211 26.6924 118.893 26.1651 119.808 24.7849L123.001 27.2817C121.296 29.794 119.715 30.7866 117.111 30.7866Z" fill="#344054"/>
<path d="M134.269 30.4766V22.1332C134.269 20.2257 133.633 19.7295 132.595 19.7295C131.525 19.7295 130.89 20.2257 130.89 22.0867V30.4766H125.853V12.084L130.89 10.0679V16.7674C131.82 16.0696 132.843 15.4803 134.579 15.4803C137.803 15.4803 139.337 17.6359 139.337 21.4974V30.4766H134.269Z" fill="#344054"/>
<path d="M151.38 30.7868C145.568 30.7868 142.453 26.4755 142.453 20.691C142.453 14.3947 146.142 10.5952 151.396 10.5952C156.201 10.5952 158.107 12.6733 159.456 16.3643L154.542 18.2717C153.845 16.4573 153.178 15.3097 151.38 15.3097C149.117 15.3097 148.141 17.5739 148.141 20.6755C148.141 23.6686 149.086 26.0413 151.442 26.0413C153.147 26.0413 153.876 25.1108 154.93 23.2654L159.518 25.7001C158.216 28.29 156.03 30.7868 151.38 30.7868Z" fill="#344054"/>
<path d="M171.902 21.3269C171.266 20.6291 170.538 20.1018 169.562 20.1018C168.337 20.1018 167.578 20.6911 167.578 22.4745V30.4767H162.54V15.7906H167.578V16.8606C168.446 16.0232 169.422 15.4959 170.709 15.4959C171.778 15.4959 172.491 15.744 173.08 16.1162L171.902 21.3269Z" fill="#344054"/>
<path d="M183.868 30.4766V29.4996C182.969 30.1975 181.915 30.7868 180.21 30.7868C176.986 30.7868 175.451 28.6312 175.451 24.7697V15.7905H180.52V24.1338C180.52 26.0413 181.155 26.5376 182.194 26.5376C183.232 26.5376 183.868 26.0413 183.868 24.1803V15.7905H188.936V30.4766H183.868Z" fill="#344054"/>
<path d="M200.979 30.4764V22.1331C200.979 20.2256 200.344 19.7293 199.305 19.7293C198.236 19.7293 197.6 20.2256 197.6 22.0865V30.4764H192.563V15.7902H197.6V16.7673C198.53 16.0694 199.553 15.4801 201.289 15.4801C204.513 15.4801 206.048 17.6357 206.048 21.4972V30.4764H200.979Z" fill="#344054"/>
<path d="M215.859 30.7866C211.55 30.7866 208.977 28.0416 208.977 23.0945C208.977 18.5817 211.271 15.4801 215.967 15.4801C218.742 15.4801 220.323 16.7673 221.609 18.8298L218.137 21.4662C217.44 20.179 216.959 19.5587 215.874 19.5587C214.588 19.5587 213.937 20.8459 213.937 23.1721C213.937 25.4983 214.634 26.6924 216.014 26.6924C216.959 26.6924 217.641 26.1651 218.556 24.7849L221.749 27.2817C220.044 29.794 218.463 30.7866 215.859 30.7866Z" fill="#344054"/>
<path d="M233.017 30.4766V22.1332C233.017 20.2257 232.382 19.7295 231.343 19.7295C230.274 19.7295 229.638 20.2257 229.638 22.0867V30.4766H224.601V12.084L229.638 10.0679V16.7674C230.568 16.0696 231.591 15.4803 233.327 15.4803C236.551 15.4803 238.085 17.6359 238.085 21.4974V30.4766H233.017Z" fill="#344054"/>
<path d="M0.166016 2.5V13.6968H11.3567V36.075H22.532V13.6968H33.7227V2.5H0.166016Z" fill="#344054"/>
<path d="M44.8979 24.8783V13.6969L33.7227 13.6968L33.7227 36.0751H67.2639V24.8783H44.8979Z" fill="#344054"/>
<path d="M67.2639 2.5H44.8979L44.8979 13.6969L67.2639 13.6968V2.5Z" fill="#344054"/>
</g>
<defs>
<clipPath id="clip0_18_46247">
<rect width="238.333" height="40" fill="white" transform="translate(0.166016)"/>
</clipPath>
</defs>
</svg>
