<svg width="66" height="66" viewBox="0 0 66 66" fill="none" xmlns="http://www.w3.org/2000/svg">
<rect x="5" y="5" width="56" height="56" rx="28" fill="#F4EBFF"/>
<path d="M29.4997 39.4167H23.083M26.583 33H21.333M29.4997 26.5833H23.6663M38.833 22.5L31.1372 33.2742C30.7965 33.7511 30.6262 33.9895 30.6336 34.1883C30.64 34.3614 30.723 34.5226 30.8601 34.6285C31.0176 34.75 31.3106 34.75 31.8967 34.75H37.6663L36.4997 43.5L44.1955 32.7258C44.5361 32.2489 44.7065 32.0105 44.6991 31.8117C44.6927 31.6386 44.6097 31.4774 44.4726 31.3715C44.3151 31.25 44.0221 31.25 43.436 31.25H37.6663L38.833 22.5Z" stroke="#7F56D9" stroke-width="2" stroke-linecap="round" stroke-linejoin="round"/>
<rect x="5" y="5" width="56" height="56" rx="28" stroke="#F9F5FF" stroke-width="10"/>
</svg>
