<svg width="46" height="46" viewBox="0 0 46 46" fill="none" xmlns="http://www.w3.org/2000/svg">
<rect x="3" y="3" width="40" height="40" rx="20" fill="#F4EBFF"/>
<path d="M14.667 25.0832L22.7022 29.1008C22.8115 29.1555 22.8662 29.1828 22.9235 29.1936C22.9743 29.2031 23.0264 29.2031 23.0772 29.1936C23.1345 29.1828 23.1891 29.1555 23.2985 29.1008L31.3337 25.0832M14.667 20.9166L22.7022 16.899C22.8115 16.8443 22.8662 16.817 22.9235 16.8062C22.9743 16.7967 23.0264 16.7967 23.0772 16.8062C23.1345 16.817 23.1891 16.8443 23.2985 16.899L31.3337 20.9166L23.2985 24.9342C23.1891 24.9888 23.1345 25.0161 23.0772 25.0269C23.0264 25.0364 22.9743 25.0364 22.9235 25.0269C22.8662 25.0161 22.8115 24.9888 22.7022 24.9342L14.667 20.9166Z" stroke="#7F56D9" stroke-width="1.66667" stroke-linecap="round" stroke-linejoin="round"/>
<rect x="3" y="3" width="40" height="40" rx="20" stroke="#F9F5FF" stroke-width="6"/>
</svg>
